<?xml version="1.0" encoding="UTF-8"?>
<!DOCTYPE svg PUBLIC "-//W3C//DTD SVG 1.1//EN" "http://www.w3.org/Graphics/SVG/1.1/DTD/svg11.dtd">
<svg version="1.1" xmlns="http://www.w3.org/2000/svg" xmlns:xlink="http://www.w3.org/1999/xlink" x="0" y="0" width="19.372" height="42.616" viewBox="0, 0, 19.372, 42.616">
  <g id="Calque_1">
    <path d="M12.758,36.338 C15.123,35.829 13.702,33.765 15.362,31.956 C17.012,30.158 18.906,26.551 19.15,25.262 C19.171,25.123 19.261,25.025 19.372,24.938 C16.163,22.308 13.914,20.423 13.203,17.724 C12.487,14.972 13.23,9.59 14.36,5.665 C12.524,4.243 6.891,0 5.119,0 C3.368,0 0.668,4.243 -0,8.319 C4.138,10.723 5.766,12.434 2.902,15.556 C-0.085,18.822 -0.721,29.817 2.583,32.731 C5.734,35.517 6.641,41.038 9.692,42.616 C10.551,39.841 11.198,36.691 12.758,36.338" fill="#1D649F"/>
  </g>
</svg>
