<?xml version="1.0" encoding="UTF-8"?>
<!DOCTYPE svg PUBLIC "-//W3C//DTD SVG 1.1//EN" "http://www.w3.org/Graphics/SVG/1.1/DTD/svg11.dtd">
<svg version="1.1" xmlns="http://www.w3.org/2000/svg" xmlns:xlink="http://www.w3.org/1999/xlink" x="0" y="0" width="35.7" height="33.168" viewBox="0, 0, 35.7, 33.168">
  <g id="Calque_1">
    <path d="M33.594,25.773 C33.594,23.028 26.974,20.617 26.974,17.183 C26.974,13.749 22.555,10.657 23.186,7.911 C23.621,6.015 21.399,3.327 20.258,1.159 C17.346,0.419 13.643,-0.263 10.8,0.101 C6.848,0.61 3.888,1.835 -0,2.483 C2.085,5.928 0.61,6.882 2.376,11.686 C4.265,16.842 8.997,14.096 10.572,15.466 C11.182,15.998 11.882,17.773 12.524,19.738 C12.821,19.709 13.108,19.669 13.521,19.75 C15.267,20.091 15.935,21.085 16.333,22.317 C18.545,22.877 20.518,24.49 21.542,24.993 C22.911,25.646 23.818,23.663 26.55,26.976 C28.931,29.86 29.112,30.6 28.82,33.167 C31.265,33.19 33.562,32.577 35.7,31.583 C34.628,29.485 33.594,27.109 33.594,25.773" fill="#1D649F"/>
  </g>
</svg>
