<?xml version="1.0" encoding="UTF-8"?>
<!DOCTYPE svg PUBLIC "-//W3C//DTD SVG 1.1//EN" "http://www.w3.org/Graphics/SVG/1.1/DTD/svg11.dtd">
<svg version="1.1" xmlns="http://www.w3.org/2000/svg" xmlns:xlink="http://www.w3.org/1999/xlink" x="0" y="0" width="51.154" height="47.206" viewBox="0, 0, 51.154, 47.206">
  <g id="Calque_1">
    <path d="M5.209,32.656 C4.185,32.153 2.212,30.54 0,29.979 C0.679,32.02 0.615,34.696 3.506,36.136 C8.132,38.425 1.4,39.338 10.673,40.72 C11.283,40.812 11.888,40.824 12.487,40.83 C12.779,38.263 12.598,37.523 10.217,34.638 C7.485,31.326 6.578,33.309 5.209,32.656 z M50.054,15.573 C48.755,13.007 44.75,7.798 40.532,2.168 C39.228,6.411 34.559,5.22 33.652,7.665 C32.708,10.238 30.342,7.145 28.921,7.665 C27.504,8.174 24.194,1.989 20.884,1.474 C19.882,1.324 18.699,0.728 17.51,-0 C16.142,1.59 14.895,3.37 15.367,4.226 C16.312,5.943 20.412,7.665 18.837,9.382 C17.261,11.099 12.211,10.411 10.641,8.688 C9.055,6.977 4.323,4.226 3.384,6.289 C2.435,8.353 7.485,12.816 6.854,15.573 C6.222,18.319 10.641,21.412 10.641,24.846 C10.641,28.279 17.261,30.69 17.261,33.436 C17.261,34.771 18.296,37.147 19.367,39.246 C24.544,36.852 28.799,32.447 32.141,30.621 C37.191,27.869 35.085,39.35 34.247,41.182 C33.663,42.448 37.673,45.454 41.885,47.206 C41.737,44.714 42.288,42.281 43.752,40.315 C49.11,33.095 53.205,21.759 50.054,15.573" fill="#1D649F"/>
  </g>
</svg>
