<?xml version="1.0" encoding="UTF-8"?>
<!DOCTYPE svg PUBLIC "-//W3C//DTD SVG 1.1//EN" "http://www.w3.org/Graphics/SVG/1.1/DTD/svg11.dtd">
<svg version="1.1" xmlns="http://www.w3.org/2000/svg" xmlns:xlink="http://www.w3.org/1999/xlink" x="0" y="0" width="44.674" height="65.181" viewBox="0, 0, 44.674, 65.181">
  <g id="Calque_1">
    <path d="M44.674,54.157 C42.791,42.769 41.741,31.722 40.362,31.722 C38.452,31.722 35.901,41.469 32.707,40.769 C29.503,40.081 29.503,28.242 33.338,28.242 C37.174,28.242 41.645,19.19 41.645,16.397 C41.645,13.623 37.821,13.623 33.98,13.623 C30.145,13.623 21.838,14.316 21.838,14.316 C21.838,14.316 16.719,12.23 16.719,8.744 C16.719,5.258 14.809,2.472 9.69,2.472 C4.587,2.472 4.587,-3.089 0.752,2.472 C-3.083,8.044 9.059,8.044 7.781,12.23 C6.502,16.397 2.667,13.623 2.031,17.097 C1.389,20.577 2.678,29.635 4.587,34.503 C6.057,38.26 8.269,47.77 8.348,55.77 C11.324,55.146 12.714,53.643 15.478,53.643 C18.942,53.643 23.673,53.134 23.986,49.174 C24.305,45.226 28.246,42.307 30.447,43.503 C32.659,44.712 35.969,54.331 36.129,59.314 C36.176,60.904 36.808,63.002 37.789,65.181 C39.55,63.285 41.608,61.776 41.608,61.776 C41.608,61.776 42.903,56.475 44.674,54.157" fill="#1D649F"/>
  </g>
</svg>
