<?xml version="1.0" encoding="UTF-8"?>
<!DOCTYPE svg PUBLIC "-//W3C//DTD SVG 1.1//EN" "http://www.w3.org/Graphics/SVG/1.1/DTD/svg11.dtd">
<svg version="1.1" xmlns="http://www.w3.org/2000/svg" xmlns:xlink="http://www.w3.org/1999/xlink" x="0" y="0" width="41.131" height="31.191" viewBox="0, 0, 41.131, 31.191">
  <g id="Calque_1">
    <path d="M1.374,8.22 C1.607,10.024 4.212,14.406 5.156,12.602 C6.106,10.798 8.471,14.926 10.599,16.209 C12.726,17.498 16.98,19.047 17.219,20.591 C17.457,22.14 18.168,25.493 20.295,24.458 C22.423,23.423 25.027,19.816 25.027,21.88 C25.027,23.938 25.733,27.811 28.098,27.291 C30.464,26.771 31.175,31.673 33.541,31.152 C33.971,31.071 34.559,31.014 35.244,30.991 C34.952,25.158 36.872,22.406 38.973,21.123 C39.461,20.094 40.877,19.024 41.111,17.758 C41.424,16.041 37.96,12.602 38.273,10.544 C38.289,10.434 38.299,10.29 38.315,10.168 C37.53,9.515 36.724,8.781 35.986,7.972 C33.09,4.821 30.199,4.301 28.268,2.197 C26.343,0.092 22.969,-0.954 21.043,1.144 C19.112,3.249 13.813,4.821 10.917,4.821 C10.259,4.821 8.864,4.237 7.119,3.358 C4.838,4.792 2.414,6.151 0,6.682 C0.483,7.399 1.22,7.018 1.374,8.22" fill="#1D649F"/>
  </g>
</svg>
