<?xml version="1.0" encoding="UTF-8"?>
<!DOCTYPE svg PUBLIC "-//W3C//DTD SVG 1.1//EN" "http://www.w3.org/Graphics/SVG/1.1/DTD/svg11.dtd">
<svg version="1.1" xmlns="http://www.w3.org/2000/svg" xmlns:xlink="http://www.w3.org/1999/xlink" x="0" y="0" width="31.484" height="71.492" viewBox="0, 0, 31.484, 71.492">
  <g id="Calque_1">
    <path d="M21.399,45.45 C22.11,39.773 25.897,36.941 25.897,36.941 C25.897,36.941 27.552,32.813 29.918,30.235 C32.279,27.657 31.334,16.066 31.101,13.742 C30.968,12.407 30.433,8.765 30.013,5.915 C29.265,6.407 28.136,6.418 26.608,5.678 C23.765,4.297 26.295,1.198 23.139,0.175 C19.982,-0.86 18.725,2.915 19.356,5.678 C19.982,8.413 17.781,8.413 16.519,10.135 C15.251,11.858 9.58,12.193 7.686,12.193 C5.793,12.193 3.591,15.98 1.697,16.668 C1.268,16.818 0.679,16.841 0,16.795 C0.44,25.853 1.825,25.159 5.793,27.657 C10.286,30.501 6.031,34.362 7.92,36.42 C9.814,38.484 9.103,43.641 9.58,50.08 C9.861,53.982 10.233,64.099 10.487,71.492 C13.081,70.949 15.786,70.793 17.617,70.793 C21.006,70.793 23.054,65.908 24.905,68.272 C23.749,64.434 21.637,62.203 21.637,59.11 C21.637,54.728 20.693,51.115 21.399,45.45" fill="#1D649F"/>
  </g>
</svg>
