<?xml version="1.0" encoding="UTF-8"?>
<!DOCTYPE svg PUBLIC "-//W3C//DTD SVG 1.1//EN" "http://www.w3.org/Graphics/SVG/1.1/DTD/svg11.dtd">
<svg version="1.1" xmlns="http://www.w3.org/2000/svg" xmlns:xlink="http://www.w3.org/1999/xlink" x="0" y="0" width="129.495" height="158.301" viewBox="0, 0, 129.495, 158.301">
  <g id="Calque_1">
    <path d="M129.078,95.206 C127.502,90.05 122.776,89.356 122.776,83.87 C122.776,78.367 120.882,77.679 113.944,78.014 C107.005,78.367 102.587,76.644 102.279,72.176 C101.961,67.707 97.86,64.273 101.017,62.551 C104.168,60.834 98.805,57.741 99.436,53.614 C100.067,49.492 97.547,47.781 95.335,45.717 C93.129,43.659 83.665,46.752 83.665,42.965 C83.665,39.185 77.989,38.497 74.844,38.497 C71.687,38.497 73.894,34.034 70.425,34.381 C66.956,34.716 67.582,31.965 62.855,32.653 C58.124,33.341 55.286,30.936 50.241,24.403 C45.196,17.883 45.822,5.159 46.772,1.726 C47.716,-1.708 40.783,1.043 36.682,1.043 C32.582,1.043 28.481,4.477 24.063,7.229 C19.649,9.98 17.135,9.975 14.923,12.385 C12.711,14.79 9.247,16.16 5.783,14.79 C4.812,14.397 3.566,14.108 2.213,13.906 C4.075,18.958 8.568,27.265 9.565,30.254 C10.828,34.034 7.984,35.057 6.727,36.445 C5.465,37.809 7.353,50.18 7.671,52.932 C7.984,55.683 3.253,60.834 5.146,62.551 C7.035,64.273 2.627,69.43 2.627,72.528 C2.627,75.615 6.727,75.615 6.727,78.014 C6.727,80.425 3.253,85.922 1.051,87.298 C-0.11,88.021 -0.132,89.963 0.15,92.067 C0.807,91.83 1.274,94.958 4.515,97.605 C8.303,100.704 3.889,105.849 7.035,109.976 C10.191,114.098 13.66,114.45 11.454,116.508 C9.247,118.578 11.767,122.694 9.247,124.757 C6.727,126.815 10.191,133.007 13.029,134.382 C15.867,135.747 13.979,141.938 16.817,145.031 C19.649,148.118 18.392,155.338 19.336,157.748 C20.286,160.147 28.794,154.309 33.844,148.47 C38.894,142.626 38.576,147.441 43.303,148.118 C48.034,148.817 53.392,148.817 55.604,153.621 C57.811,158.43 60.33,148.817 61.906,146.753 C63.487,144.69 74.207,147.441 76.096,146.753 C77.989,146.065 79.57,131.29 79.257,128.879 C78.939,126.469 83.665,120.636 87.453,117.884 C91.235,115.133 97.229,117.196 100.385,115.479 C103.536,113.757 108.263,114.098 112.687,114.098 C117.095,114.098 120.251,118.913 122.776,118.913 C125.29,118.913 128.452,114.45 127.821,110.323 C127.189,106.195 130.659,100.357 129.078,95.206" fill="#1D649F"/>
  </g>
</svg>
