<?xml version="1.0" encoding="UTF-8"?>
<!DOCTYPE svg PUBLIC "-//W3C//DTD SVG 1.1//EN" "http://www.w3.org/Graphics/SVG/1.1/DTD/svg11.dtd">
<svg version="1.1" xmlns="http://www.w3.org/2000/svg" xmlns:xlink="http://www.w3.org/1999/xlink" x="0" y="0" width="37.929" height="39.311" viewBox="0, 0, 37.929, 39.311">
  <g id="Calque_1">
    <path d="M28.291,35.709 C27.872,33.397 34.652,22.772 36.344,22.772 C37.755,22.772 38.285,12.563 37.686,7.256 C32.429,3.302 28.063,1.95 28.063,1.95 C28.063,1.95 13.942,1.187 11.582,0.158 C9.232,-0.866 6.877,3.499 4.755,1.701 C2.638,-0.091 -0.428,2.21 0.05,4.782 C0.517,7.343 4.988,8.886 4.988,12.731 C4.988,16.581 13.942,22.229 13.704,24.281 C13.545,25.72 19.072,29.628 22.377,34.9 C24.133,36.108 26,37.692 27.851,39.311 C28.217,37.617 28.398,36.299 28.291,35.709" fill="#1D649F"/>
  </g>
</svg>
