<?xml version="1.0" encoding="UTF-8"?>
<!DOCTYPE svg PUBLIC "-//W3C//DTD SVG 1.1//EN" "http://www.w3.org/Graphics/SVG/1.1/DTD/svg11.dtd">
<svg version="1.1" xmlns="http://www.w3.org/2000/svg" xmlns:xlink="http://www.w3.org/1999/xlink" x="0" y="0" width="87.286" height="64.796" viewBox="0, 0, 87.286, 64.796">
  <g id="Calque_1">
    <path d="M87.16,37.224 C85.553,35.606 83.394,35.108 82.837,35.108 C81.887,35.108 82.598,29.443 82.126,28.669 C81.648,27.894 78.577,30.212 76.683,29.443 C74.795,28.669 74.084,25.322 72.429,25.322 C70.774,25.322 70.535,23.258 70.535,20.934 C70.535,18.61 67.464,16.298 65.57,14.754 C63.676,13.205 63.204,8.823 62.021,8.049 C61.342,7.604 61.608,4.442 61.947,1.811 C59.003,1.765 56.096,1.424 55.316,0.568 C53.746,-1.143 51.534,1.268 47.439,4.361 C43.339,7.453 38.294,6.424 38.294,8.482 C38.294,10.546 36.4,11.581 34.193,10.887 C31.987,10.199 30.093,9.852 29.143,13.639 C28.199,17.414 24.735,15.003 24.417,19.13 C24.099,23.258 20.635,20.512 17.792,18.795 C14.954,17.078 14.328,27.374 14.328,27.374 C14.328,27.374 12.439,29.79 10.853,34.594 C9.278,39.415 3.92,38.034 2.339,38.721 C0.764,39.415 3.92,44.219 2.976,46.288 C2.398,47.537 1.119,51.231 -0,55.226 C2.334,55.648 4.52,57.804 5.183,59.006 C6.132,60.717 11.808,67.25 14.646,63.81 C17.484,60.37 25.361,60.035 27.255,62.093 C29.143,64.157 30.411,63.122 30.73,61.064 C31.037,59.006 27.573,51.433 28.836,49.375 C30.093,47.312 54.69,48.346 55.64,50.063 C56.579,51.786 56.579,46.63 59.74,46.971 C62.891,47.312 67.623,49.029 69.517,48.346 C71.411,47.658 73.612,43.872 75.506,43.872 C77.399,43.872 83.07,43.537 84.338,41.814 C85.6,40.091 87.802,40.091 87.176,37.357 C87.165,37.311 87.165,37.27 87.16,37.224" fill="#1D649F"/>
  </g>
</svg>
