<?xml version="1.0" encoding="UTF-8"?>
<!DOCTYPE svg PUBLIC "-//W3C//DTD SVG 1.1//EN" "http://www.w3.org/Graphics/SVG/1.1/DTD/svg11.dtd">
<svg version="1.1" xmlns="http://www.w3.org/2000/svg" xmlns:xlink="http://www.w3.org/1999/xlink" x="0" y="0" width="91.197" height="217.555" viewBox="0, 0, 91.197, 217.555">
  <g id="Calque_1">
    <path d="M73.718,198.371 C73.718,193.793 70.355,193.33 70.355,189.66 C70.355,185.989 70.355,179.561 66.143,175.439 C61.926,171.306 59.82,165.328 62.35,163.039 C64.875,160.756 62.769,154.322 64.032,154.778 C65.3,155.241 66.987,150.645 64.451,149.275 C61.926,147.899 64.451,142.396 62.35,141.477 C60.239,140.558 54.351,133.216 54.351,130.927 C54.351,128.632 56.038,115.776 56.457,112.573 C56.876,109.353 61.083,108.896 62.35,108.896 C63.613,108.896 68.668,109.353 70.355,106.139 C72.042,102.931 79.192,102.468 80.036,100.173 C80.879,97.89 85.516,97.89 85.516,95.132 C85.516,92.375 90.979,85.49 90.979,85.49 C91.064,85.473 91.122,85.519 91.197,85.519 C90.565,84.299 89.181,85.398 86.396,86.606 C81.67,88.675 79.304,85.837 79.776,82.744 C80.248,79.646 76.466,79.646 73.861,79.646 C71.262,79.646 72.917,75.01 73.861,71.917 C74.816,68.824 72.917,67.026 69.84,66.761 C66.769,66.506 65.347,59.292 66.53,57.222 C67.719,55.164 60.149,53.361 56.839,55.164 C53.523,56.968 55.889,52.072 54.945,49.488 C53.996,46.915 59.199,38.152 63.698,33.261 C68.191,28.359 66.297,21.913 66.297,16.242 C66.297,10.571 64.17,10.571 62.043,10.571 C59.91,10.571 59.671,7.224 59.671,4.132 C59.671,1.039 55.178,-1.279 52.579,0.785 C52.219,1.068 51.577,1.473 50.781,1.929 C50.887,1.958 50.983,1.976 50.983,1.976 C50.983,1.976 50.139,6.565 48.452,7.485 C46.765,8.404 46.765,11.15 49.296,15.277 C51.821,19.41 45.508,17.572 44.665,15.277 C43.821,12.988 38.766,16.659 35.822,19.41 C32.873,22.168 28.661,23.544 28.661,28.59 C28.661,33.631 24.868,38.683 25.717,42.811 C26.555,46.938 21.505,54.748 21.929,57.043 C22.348,59.338 14.768,56.586 13.506,56.586 C12.243,56.586 13.081,65.298 11.394,68.05 C9.707,70.807 10.97,80.438 8.445,80.438 C5.925,80.438 3.819,89.161 3.819,89.161 C3.819,89.161 1.761,90.67 -0,92.566 C2.063,97.167 5.83,102.185 10.01,104.058 C16.158,106.798 20.253,120.371 22.152,127.591 C24.04,134.806 22.778,142.205 20.577,146.321 C18.365,150.449 21.356,150.622 24.985,152.68 C28.618,154.738 32.713,155.432 35.392,151.304 C38.082,147.177 43.593,144.263 44.384,139.621 C45.174,134.985 47.694,141.853 49.9,144.263 C52.112,146.668 53.688,151.304 54.16,157.143 C54.632,162.987 55.104,177.595 59.671,182.231 C64.249,186.867 65.04,197.013 63.772,200.62 C62.52,204.233 66.143,210.412 65.194,214.372 C65.003,215.158 64.801,216.28 64.573,217.529 C68.684,218.384 73.718,198.371 73.718,198.371" fill="#1D649F"/>
  </g>
</svg>
