<?xml version="1.0" encoding="UTF-8"?>
<!DOCTYPE svg PUBLIC "-//W3C//DTD SVG 1.1//EN" "http://www.w3.org/Graphics/SVG/1.1/DTD/svg11.dtd">
<svg version="1.1" xmlns="http://www.w3.org/2000/svg" xmlns:xlink="http://www.w3.org/1999/xlink" x="0" y="0" width="59.539" height="50.258" viewBox="0, 0, 59.539, 50.258">
  <g id="Calque_1">
    <path d="M29.44,44.633 C29.44,41.697 40.246,47.587 41.598,44.633 C42.956,41.697 33.493,32.118 41.598,34.332 C49.704,36.54 48.362,31.384 51.056,27.707 C53.757,24.025 62.541,21.088 58.488,14.458 C55.618,9.752 54.791,4.341 54.791,-0 C52.181,2.243 49.014,2.416 47.227,1.642 C44.946,0.642 39.943,0.15 39.943,4.122 C39.943,8.082 36.304,9.076 36.755,7.093 C37.211,5.116 33.116,5.607 30.841,2.63 C28.56,-0.347 20.369,3.625 16.274,2.139 C12.174,0.642 5.803,4.613 1.718,10.076 C-2.393,15.527 2.164,15.527 2.164,20.487 C2.164,25.453 4.896,25.453 3.533,29.413 C3.49,29.511 3.464,29.655 3.432,29.765 C7.447,31.69 5.867,37.153 6.312,40.234 C6.784,43.489 10.731,41.598 12.932,41.431 C15.144,41.257 11.511,45.206 13.404,47.616 C15.298,50.021 20.815,45.558 21.918,48.477 C22.184,49.171 22.507,49.743 22.873,50.258 C25.791,48.709 29.44,46.408 29.44,44.633" fill="#1D649F"/>
  </g>
</svg>
