<?xml version="1.0" encoding="UTF-8"?>
<!DOCTYPE svg PUBLIC "-//W3C//DTD SVG 1.1//EN" "http://www.w3.org/Graphics/SVG/1.1/DTD/svg11.dtd">
<svg version="1.1" xmlns="http://www.w3.org/2000/svg" xmlns:xlink="http://www.w3.org/1999/xlink" x="0" y="0" width="130.981" height="99.664" viewBox="0, 0, 130.981, 99.664">
  <g id="Calque_1">
    <path d="M121.109,56.285 C121.109,54.135 121.115,51.984 117.173,48.4 C113.227,44.816 110.596,44.099 110.596,41.949 C110.596,39.798 109.28,39.081 105.991,34.781 C102.702,30.485 97.446,30.485 97.446,30.485 L96.125,26.901 L91.515,26.185 C91.515,26.185 88.884,24.034 92.836,21.884 C96.782,19.733 92.836,13.999 92.178,11.848 C91.61,9.975 86.051,2.674 84.624,0.819 C83.924,0.79 83.266,0.68 82.773,0.368 C80.572,-1.008 76.153,1.749 73.951,4.148 C71.745,6.559 73.315,7.935 71.745,9.652 C70.164,11.368 64.801,16.519 61.337,21.334 C57.868,26.144 49.036,23.051 46.198,24.768 C43.36,26.491 47.46,29.237 45.567,30.954 C43.678,32.671 37.997,35.422 36.108,36.457 C34.22,37.486 26.645,37.139 24.438,40.238 C22.237,43.324 19.707,36.798 17.495,40.238 C15.293,43.677 12.768,44.018 11.511,42.983 C11.209,42.741 10.901,42.319 10.577,41.764 C8.53,43.827 6.031,46.14 5.204,48.995 C3.782,53.892 0,58.274 0,60.592 C0,62.915 1.422,66.008 1.422,70.13 C1.422,74.257 2.366,76.315 4.493,79.408 C6.62,82.495 6.153,86.368 6.153,86.368 C6.153,86.368 6.854,87.917 8.514,90.23 C10.164,92.553 14.895,95.906 15.367,97.71 C15.59,98.542 16.397,99.19 17.213,99.664 C17.42,99.294 17.627,98.889 17.861,98.571 C20.492,94.987 19.834,89.964 19.834,89.964 L25.749,88.536 L30.348,87.108 L39.556,88.536 L39.556,80.662 C39.556,80.662 46.139,71.338 50.744,71.338 C55.348,71.338 59.295,77.789 59.295,77.789 L79.68,82.09 C79.68,82.09 81.001,75.645 82.969,74.205 C84.943,72.777 88.884,75.645 91.515,74.205 C94.146,72.777 98.098,70.627 102.702,70.627 C107.307,70.627 109.28,73.489 111.253,69.188 C113.227,64.887 123.088,70.627 123.088,70.627 L130.981,69.188 L128.35,62.019 C128.35,62.019 121.109,58.43 121.109,56.285" fill="#1D649F"/>
  </g>
</svg>
