<?xml version="1.0" encoding="UTF-8"?>
<!DOCTYPE svg PUBLIC "-//W3C//DTD SVG 1.1//EN" "http://www.w3.org/Graphics/SVG/1.1/DTD/svg11.dtd">
<svg version="1.1" xmlns="http://www.w3.org/2000/svg" xmlns:xlink="http://www.w3.org/1999/xlink" x="0" y="0" width="106.565" height="192.91" viewBox="0, 0, 106.565, 192.91">
  <g id="Calque_1">
    <path d="M106.458,47.714 L25.043,0 L15.516,5.636 C15.787,11.284 16.142,18.88 16.142,20.562 C16.142,23.32 20.868,26.759 20.55,31.222 C20.242,35.69 23.706,35.338 22.444,40.153 C21.187,44.969 20.55,49.09 20.55,52.524 C20.55,55.964 20.561,80.364 19.298,81.387 C18.036,82.422 3.215,98.579 2.27,104.765 C1.321,110.95 0.058,108.545 0.058,114.731 C0.058,115.858 0.037,117.136 0,118.471 C0.817,118.777 1.183,119.737 2.26,120.91 C3.846,122.627 3.846,125.726 6.991,125.726 C10.142,125.726 13.93,133.628 13.617,136.727 C13.304,139.825 15.192,141.536 14.879,147.039 C14.561,152.531 17.712,160.434 19.298,161.474 C20.868,162.503 18.656,163.532 14.879,163.185 C11.097,162.838 5.734,162.844 5.734,164.561 C5.734,166.278 4.154,168.688 8.254,172.816 C12.36,176.938 15.829,178.302 17.086,182.77 C18.349,187.245 19.919,191.366 21.187,192.395 C22.444,193.43 24.969,193.089 27.17,189.649 C29.382,186.21 31.912,192.736 34.114,189.649 C36.321,186.551 43.896,186.898 45.784,185.869 C47.672,184.834 53.354,182.082 55.242,180.366 C57.136,178.649 53.035,175.903 55.873,174.18 C58.711,172.463 67.544,175.556 71.013,170.746 C74.477,165.931 79.84,160.78 81.42,159.063 C82.991,157.347 81.42,155.971 83.627,153.56 C85.828,151.161 90.247,148.404 92.449,149.78 C92.942,150.092 93.6,150.202 94.3,150.23 C94.088,149.965 93.955,149.791 93.955,149.791 L95.276,144.773 C95.276,144.773 90.014,141.906 90.014,137.605 C90.014,133.304 91.324,129.015 88.041,129.015 C84.752,129.015 84.089,125.414 86.72,122.558 C89.356,119.685 82.778,113.95 87.383,113.95 C91.987,113.95 88.704,106.071 91.987,105.354 C95.276,104.638 95.928,101.77 95.928,98.186 C95.928,94.596 103.164,92.446 105.137,91.729 C107.121,91.018 106.458,79.555 106.458,79.555 L106.458,47.714" fill="#1D649F"/>
  </g>
</svg>
