<?xml version="1.0" encoding="UTF-8"?>
<!DOCTYPE svg PUBLIC "-//W3C//DTD SVG 1.1//EN" "http://www.w3.org/Graphics/SVG/1.1/DTD/svg11.dtd">
<svg version="1.1" xmlns="http://www.w3.org/2000/svg" xmlns:xlink="http://www.w3.org/1999/xlink" x="0" y="0" width="92.839" height="523.175" viewBox="0, 0, 92.839, 523.175">
  <g id="Calque_1">
    <path d="M41.894,464.717 C39.331,465.064 38.371,459.833 36.769,459.833 C35.167,459.833 34.849,450.751 36.127,446.571 C37.406,442.38 28.765,444.479 26.197,443.08 C23.64,441.687 27.163,438.895 24.282,435.403 C21.402,431.923 23.64,427.027 23.959,424.587 C24.277,422.142 26.197,416.91 29.725,416.91 C33.242,416.91 30.685,411.32 34.202,408.887 C37.729,406.447 31.003,402.262 33.889,399.822 C36.769,397.371 33.889,392.839 38.371,392.146 C42.854,391.446 38.371,385.157 41.575,384.116 C44.774,383.07 40.933,379.231 41.894,375.046 C42.854,370.855 39.331,367.716 43.49,365.97 C47.654,364.23 44.774,360.739 41.894,358.299 C39.008,355.854 42.53,355.854 46.052,355.854 C49.575,355.854 47.66,349.582 44.456,350.622 C40.658,351.859 38.371,347.83 41.252,344.691 C44.132,341.541 38.695,339.454 39.65,337.361 C40.61,335.274 40.61,332.477 38.695,331.083 C36.769,329.69 38.048,319.221 40.286,318.869 C42.525,318.516 40.933,309.105 40.933,306.307 C40.933,303.526 38.371,300.723 38.695,298.283 C39.008,295.844 41.57,295.144 41.57,290.265 C41.57,285.369 42.53,283.282 44.456,282.93 C46.371,282.589 44.774,276.999 45.092,274.201 C45.41,271.42 50.535,274.201 51.177,269.674 C51.818,265.131 47.973,265.836 48.614,263.05 C49.378,259.714 48.291,255.373 48.291,247.696 C48.291,240.019 54.057,238.279 56.296,236.175 C58.539,234.082 53.42,222.92 56.296,221.526 C59.176,220.122 57.261,214.902 59.499,213.15 C61.743,211.41 61.101,207.566 62.38,203.386 C63.664,199.189 59.823,197.097 59.823,193.27 C59.823,189.42 59.176,185.934 56.296,181.743 C53.415,177.564 54.375,169.187 56.296,169.187 C58.221,169.187 57.261,161.169 60.783,160.112 C64.3,159.071 62.38,153.14 60.783,148.244 C59.176,143.365 63.664,145.81 63.664,141.966 C63.664,138.127 65.584,132.901 68.464,131.503 C71.35,130.109 71.668,124.178 71.668,121.733 C71.668,119.294 75.832,118.241 78.071,116.155 C80.309,114.056 74.225,110.57 77.753,108.478 C81.275,106.374 74.867,97.656 76.792,95.916 C78.713,94.17 77.111,90.332 77.429,87.54 C77.753,84.753 88.314,79.522 89.598,77.077 C90.531,75.29 91.46,69.036 91.773,63.48 C88.479,65.816 85.603,67.064 85.078,65.729 C84.134,63.318 85.391,56.098 82.559,53.011 C79.721,49.919 81.609,43.727 78.771,42.363 C75.933,40.987 72.469,34.796 74.989,32.738 C77.509,30.674 74.989,26.559 77.196,24.489 C79.402,22.431 75.933,22.078 72.777,17.957 C69.631,13.829 74.045,8.684 70.257,5.586 C66.475,2.493 66.475,-1.287 65.526,0.429 C64.581,2.158 64.268,7.997 61.117,9.713 C60.598,9.991 59.775,10.667 58.799,11.546 C58.826,14.39 57.882,19.194 58.905,22.003 C60.322,25.865 61.033,44.681 59.616,51.896 C58.195,59.116 56.773,65.041 55.357,69.423 C53.94,73.805 58.667,74.065 56.773,76.129 C54.884,78.187 55.595,83.349 55.595,91.592 C55.595,99.841 51.102,113.761 50.864,118.137 C50.63,122.519 47.554,125.352 48.026,130.254 C48.498,135.15 45.898,137.989 43.294,140.301 C40.695,142.625 47.554,150.105 47.32,154.221 C47.081,158.343 42.111,160.146 43.294,166.852 C44.774,175.222 43.294,189.53 43.294,192.368 C43.294,195.201 40.223,194.946 40.933,200.357 C41.639,205.774 37.857,207.057 37.146,214.792 C36.435,222.526 30.993,233.608 28.871,239.533 C26.738,245.464 26.738,248.817 23.906,248.817 C21.062,248.817 20.357,252.17 22.484,257.327 C24.611,262.477 21.062,266.859 23.906,272.016 C26.738,277.166 25.794,278.976 24.372,283.866 C22.956,288.762 21.062,289.023 21.062,293.664 C21.062,298.301 17.752,302.168 19.646,307.319 C21.54,312.481 21.062,314.284 18.696,314.284 C16.336,314.284 15.148,318.406 14.203,326.915 C13.259,335.413 13.493,335.159 19.169,334.644 C24.85,334.136 20.357,313.764 23.906,313.764 C27.454,313.764 24.372,310.411 27.921,309.382 C31.47,308.359 28.393,312.99 30.764,313.764 C33.125,314.539 34.78,316.597 31.47,318.921 C28.16,321.245 32.181,325.881 30.526,328.713 C28.871,331.546 26.505,334.644 27.921,337.997 C29.338,341.35 26.266,341.09 26.027,345.472 C25.794,349.848 28.16,350.108 26.505,351.137 C24.85,352.172 28.632,355.519 26.266,356.039 C23.906,356.553 25.322,359.9 26.738,362.999 C28.16,366.086 23.667,364.282 21.301,366.346 C18.935,368.404 23.667,371.242 22.245,374.081 C20.829,376.913 17.041,372.531 15.386,370.988 C13.731,369.439 17.991,366.346 20.118,363.253 C22.245,360.166 17.991,353.201 14.442,354.744 C10.893,356.293 17.991,360.669 17.991,364.028 C17.991,367.381 12.076,363.253 12.315,366.861 C12.548,370.468 8.294,369.179 6.162,371.757 C4.035,374.335 9,376.659 6.634,377.434 C4.268,378.202 0.252,381.815 0.014,384.388 C-0.22,386.966 2.613,387.48 2.613,384.902 C2.613,382.33 6.4,381.555 7.578,384.902 C8.766,388.255 10.421,384.902 13.731,385.677 C17.041,386.446 16.569,391.862 14.676,391.602 C12.787,391.348 10.893,394.955 11.366,398.817 C11.838,402.69 18.463,398.817 21.301,399.857 C24.139,400.886 23.195,406.297 21.54,404.493 C19.879,402.69 16.097,399.591 14.442,402.69 C12.787,405.777 10.183,404.239 8.055,403.204 C5.923,402.169 -1.641,407.592 0.958,409.65 C3.562,411.708 3.324,415.061 4.984,414.806 C6.634,414.546 9.238,413.251 10.183,411.199 C11.127,409.129 14.442,407.072 14.676,411.708 C14.914,416.35 10.183,414.032 9.238,416.604 C8.294,419.188 6.4,421.246 3.562,423.564 C0.719,425.888 3.562,429.755 5.923,428.466 C8.294,427.171 5.217,431.553 8.528,432.073 C11.583,432.547 12.548,430.01 11.838,427.426 C11.127,424.853 13.493,419.188 16.336,422.021 C19.169,424.853 14.914,427.691 14.914,430.27 C14.914,432.848 13.259,436.201 13.259,439.028 C13.259,441.86 10.183,440.317 10.421,443.415 C10.655,446.508 3.801,444.444 6.873,446.508 C9.944,448.572 4.984,451.404 6.634,453.462 C8.294,455.526 9.71,450.63 12.315,451.659 C14.914,452.688 14.442,453.462 17.752,451.919 C21.062,450.369 22.956,454.751 19.879,455.786 C16.808,456.809 13.493,460.677 14.914,461.197 C16.336,461.711 20.357,458.624 21.301,461.966 C22.245,465.318 24.611,464.289 24.85,460.677 C25.083,457.075 30.764,460.162 31.703,463.261 C32.653,466.347 25.794,468.151 22.245,467.382 C18.696,466.613 16.808,470.989 19.169,474.342 C21.54,477.695 24.372,474.342 26.977,471.504 C29.576,468.671 42.35,469.446 43.294,472.539 C44.243,475.626 37.385,473.053 36.674,474.851 C35.963,476.66 30.764,478.21 30.054,476.146 C29.338,474.082 24.372,476.92 24.139,480.268 C23.906,483.615 20.118,483.615 24.372,484.909 C28.632,486.193 27.454,480.007 34.075,480.528 C40.695,481.042 44.243,473.828 46.132,477.955 C48.026,482.071 40.695,485.43 38.09,482.84 C35.491,480.268 32.419,484.655 32.653,488.517 C32.886,492.384 25.083,487.488 21.301,486.967 C17.514,486.453 19.169,490.841 22.484,494.702 C25.794,498.569 27.682,494.188 31.703,497.02 C35.73,499.859 35.73,502.951 38.562,500.119 C41.405,497.275 38.562,497.54 36.674,496.251 C34.78,494.956 36.435,490.575 40.933,492.898 C45.426,495.217 50.63,490.841 49.209,484.655 C47.787,478.458 53.229,475.626 58.667,473.568 C64.109,471.504 61.271,477.435 57.25,479.233 C53.229,481.042 52.524,482.331 55.595,485.938 C58.667,489.546 62.688,483.615 65.292,486.453 C67.891,489.291 60.56,488.777 59.377,491.615 C58.195,494.442 63.87,497.795 59.85,499.859 C55.834,501.922 57.722,491.349 55.357,490.32 C52.991,489.291 50.864,491.615 53.229,497.54 C55.595,503.466 50.391,498.309 48.026,495.477 C45.66,492.644 42.35,496.766 45.188,499.859 C48.026,502.951 39.75,499.604 39.75,504.495 C39.75,509.391 43.294,505.269 47.554,506.304 C51.808,507.333 49.919,514.039 52.991,516.611 C56.067,519.184 53.463,508.362 56.773,507.593 C60.088,506.819 57.012,515.837 64.348,518.421 C71.679,520.993 64.82,516.871 68.13,514.293 C71.44,511.715 75.7,522.028 79.249,523.051 C82.792,524.086 80.426,518.421 77.827,515.316 C75.222,512.229 80.426,514.039 83.975,515.316 C87.524,516.611 90.362,517.126 91.072,514.293 C91.338,513.229 91.995,513.253 92.839,513.547 C89.142,510.911 76.591,512.831 74.867,512.513 C73.169,512.206 74.48,481.314 74.798,474.227 C74.543,474.163 74.289,474.082 74.045,474.082 C70.968,474.082 64.109,474.851 65.292,469.7 C65.499,468.793 65.945,468.261 66.533,467.978 C65.138,466.596 63.154,465.053 60.783,464.359 C55.977,462.971 44.456,464.359 41.894,464.717" fill="#1D649F"/>
  </g>
</svg>
