<?xml version="1.0" encoding="UTF-8"?>
<!DOCTYPE svg PUBLIC "-//W3C//DTD SVG 1.1//EN" "http://www.w3.org/Graphics/SVG/1.1/DTD/svg11.dtd">
<svg version="1.1" xmlns="http://www.w3.org/2000/svg" xmlns:xlink="http://www.w3.org/1999/xlink" x="0" y="0" width="638.761" height="478.094" viewBox="0, 0, 638.761, 478.094">
  <g id="Calque_1">
    <path d="M370.081,457.453 C365.98,457.453 355.568,463.979 359.673,473.252 C363.774,482.53 377.332,476.35 377.645,472.223 C377.964,468.101 384.143,461.615 383.327,458.482 C382.695,456.077 374.187,457.453 370.081,457.453 z M482.661,410.715 C479.197,424.462 487.276,431.451 488.336,430.647 C491.487,428.243 504.42,398.686 501.582,394.564 C498.744,390.442 486.13,396.963 482.661,410.715 z M637.184,85.27 C637.507,79.079 630.871,81.148 628.67,82.865 C626.463,84.582 620.156,82.865 618.262,86.987 C616.368,91.109 613.217,88.704 608.804,89.397 C604.396,90.085 598.078,88.016 598.396,84.923 C598.715,81.83 595.866,78.743 596.19,74.963 C596.503,71.182 591.776,72.899 588.615,69.46 C585.458,66.026 579.162,63.621 577.894,64.309 C576.637,64.991 572.849,60.528 567.486,60.181 C562.129,59.829 562.76,56.054 563.391,53.649 C564.017,51.25 558.973,43.683 558.023,39.556 C557.079,35.44 553.302,34.752 551.721,25.815 C550.146,16.884 545.727,19.288 546.677,15.167 C547.621,11.045 541.319,8.975 539.738,6.565 C538.163,4.16 531.537,5.189 526.805,2.449 C522.074,-0.297 519.241,1.761 514.828,0.385 C510.414,-0.991 500.314,1.761 499.062,1.761 C497.8,1.761 489.912,0.038 485.504,6.565 C481.085,13.103 484.554,12.756 486.443,12.756 C488.336,12.756 489.281,18.941 489.599,21.005 C489.923,23.063 486.443,26.162 484.867,26.844 C483.297,27.537 478.878,35.093 478.247,37.85 C477.616,40.596 472.571,47.464 473.197,49.874 C473.823,52.279 470.683,54.678 468.471,55.025 C466.264,55.378 460.275,60.181 458.381,60.869 C456.488,61.557 448.923,60.181 447.974,57.777 C447.677,56.996 446.748,56.355 445.597,55.84 L437.067,74.431 L436.378,80.42 C436.378,80.42 430.893,81.923 435.004,86.409 C439.126,90.9 439.81,87.154 446,87.154 C452.175,87.154 454.928,92.398 456.307,88.657 C457.676,84.917 463.171,82.669 466.604,87.154 C470.041,91.646 481.037,99.144 480.353,102.878 C479.658,106.624 473.484,105.873 469.362,104.375 C465.23,102.878 459.739,107.37 455.623,107.37 C451.491,107.37 446.69,108.873 442.563,113.364 C438.436,117.856 439.126,122.348 432.94,123.099 C426.761,123.851 424.013,123.099 417.143,128.337 C410.274,133.58 402.71,131.331 399.972,129.84 C397.219,128.337 392.408,127.591 389.655,132.828 C386.918,138.066 393.098,140.314 392.408,146.303 C391.718,152.292 384.854,150.806 379.353,157.535 C373.858,164.281 364.925,167.27 360.119,166.524 C355.313,165.773 345.001,162.784 336.078,167.27 C327.146,171.762 320.955,178.508 317.523,177.756 C314.086,177.005 314.091,172.502 309.28,173.253 C304.468,174.005 301.731,172.502 298.294,170.265 C294.851,168.016 292.109,171.762 286.608,167.27 C281.112,162.784 271.495,163.53 267.373,162.784 C263.252,162.033 247.449,162.784 241.948,162.033 C236.458,161.281 228.899,163.53 228.209,160.535 C227.525,157.535 223.398,155.287 222.029,148.558 C220.656,141.812 217.218,139.563 213.786,138.817 C210.343,138.066 209.94,134.123 206.917,133.58 C205.463,133.32 203.713,128.319 198.912,128.319 C194.111,128.319 177.306,126.186 174.903,121.908 C172.506,117.619 177.306,116.665 177.306,112.388 C177.306,108.11 179.922,102.398 177.959,100.733 C175.991,99.063 172.718,95.253 172.283,91.935 C171.848,88.594 166.607,84.091 163.111,83.848 C159.621,83.605 156.793,81.223 153.515,78.136 C150.237,75.044 147.182,75.269 145.871,67.431 C145.786,66.916 145.643,66.506 145.526,66.043 C144.211,65.887 142.529,65.332 141.453,65.332 C140.599,65.332 139.58,64.563 138.657,63.517 C137.798,66.789 134.96,68.419 134.96,71.003 C134.96,73.853 133.867,77.414 130.371,77.414 C126.886,77.414 123.613,80.275 123.39,86.224 C123.168,92.166 126.446,92.883 124.918,95.502 C123.39,98.121 117.057,100.728 114.871,99.543 C112.691,98.352 108.548,99.063 105.052,98.595 C101.562,98.121 98.936,93.357 97.849,98.595 C96.756,103.832 89.552,119.284 91.303,120.955 C93.048,122.625 94.353,126.423 91.303,126.423 C88.247,126.423 85.192,125.949 83.664,124.279 C82.136,122.625 77.134,126.608 73.623,126.423 C71.989,126.331 65.13,129.684 67.496,130.973 C69.862,132.262 69.862,138.447 69.862,141.02 C69.862,143.598 75.065,151.333 74.121,153.911 C73.177,156.489 68.445,159.322 68.445,162.669 C68.445,166.021 69.39,169.12 67.74,169.895 C66.079,170.669 60.876,172.987 58.271,175.051 C55.672,177.109 51.412,177.109 49.996,180.207 C48.574,183.294 46.442,185.965 41.482,185.358 C37.222,184.838 35.095,184.063 31.78,188.445 C28.47,192.827 27.764,191.029 25.393,193.087 C23.033,195.151 20.667,191.544 18.773,190.775 C16.89,189.994 14.28,193.087 12.392,193.087 C10.503,193.087 8.843,196.434 6.482,197.214 C4.111,197.989 1.745,197.214 1.745,200.307 C1.745,202.209 1.294,204.417 0,206.065 L0.011,206.065 L1.692,216.152 C1.692,216.152 11.808,219.829 12.227,223.505 C12.651,227.176 14.333,239.108 14.333,239.108 C14.333,239.108 14.2,239.125 14.025,239.142 C18.121,242.645 23.743,246.38 23.743,247.733 C23.743,249.282 24.221,253.918 29.181,256.496 C32.332,258.126 35.557,259.866 37.509,261.312 C37.753,260.653 37.912,260.213 37.912,260.213 L42.119,259.751 C42.119,259.751 43.36,260.612 44.532,261.994 C45.567,258.277 52.834,254.19 56.621,254.427 C60.642,254.687 69.862,262.682 68.912,265.514 C67.973,268.353 61.353,278.66 58.271,279.434 C57.115,279.729 55.401,279.874 53.725,279.937 C53.439,281.631 53.067,283.198 53.067,284.082 C53.067,286.383 56.855,290.042 58.961,294.169 C61.072,298.303 55.592,301.054 52.648,298.303 C49.699,295.551 48.442,301.054 50.118,303.343 C51.805,305.644 50.967,312.072 53.911,312.529 C56.855,312.986 59.38,319.408 62.753,319.408 C66.122,319.408 69.077,325.374 69.077,325.374 C69.077,325.374 73.702,328.588 73.702,330.426 C73.702,330.64 73.623,330.877 73.495,331.126 C77.166,330.721 79.601,330.577 80.031,328.923 C80.508,327.12 85.234,327.12 88.544,330.727 C91.86,334.334 105.344,343.612 110.304,347.994 C115.28,352.376 126.86,357.266 130.88,357.012 C134.907,356.758 138.689,360.111 144.837,359.85 C145.765,359.822 146.556,359.85 147.282,359.908 C148.158,358.902 149.632,358.879 150.757,357.035 C152.438,354.284 154.974,359.336 154.131,363.001 C153.738,364.706 154.088,366.602 154.73,368.105 C155.568,366.799 156.438,365.059 157.133,363.197 C159.265,357.527 162.575,357.787 164.708,355.983 C166.835,354.18 168.962,354.954 173.455,357.527 C177.694,359.96 179.418,354.839 185.767,361.192 C187.088,360.55 188.77,359.793 189.502,359.793 C190.759,359.793 192.446,357.035 194.552,354.74 C196.652,352.445 196.233,349.688 198.763,350.15 C201.288,350.607 202.556,346.948 208.025,343.734 C213.5,340.52 218.131,345.572 220.661,343.277 C223.181,340.976 226.13,340.057 226.13,342.352 C226.13,344.653 229.504,347.404 230.347,350.15 C231.1,352.619 235.53,353.613 236.463,353.781 C237.259,353.324 237.901,352.919 238.262,352.636 C240.861,350.572 245.354,352.89 245.354,355.983 C245.354,359.076 245.593,362.423 247.725,362.423 C249.852,362.423 251.979,362.423 251.979,368.094 C251.979,373.765 253.873,380.21 249.38,385.112 C244.882,390.003 239.678,398.767 240.627,401.339 C241.572,403.923 239.206,408.819 242.521,407.016 C245.831,405.212 253.401,407.016 252.213,409.074 C251.03,411.143 252.451,418.358 255.523,418.612 C258.599,418.878 260.498,420.676 259.544,423.768 C258.599,426.861 256.944,431.497 259.544,431.497 C262.148,431.497 265.93,431.497 265.458,434.596 C264.986,437.688 267.352,440.527 272.078,438.457 C274.863,437.249 276.248,436.151 276.879,437.37 C278.762,437.301 278.895,441.966 282.147,442.851 C285.51,443.764 283.828,435.047 282.566,433.665 C281.298,432.289 282.985,426.329 284.247,427.705 C285.51,429.081 289.292,427.705 291.403,424.948 C293.509,422.202 297.721,427.248 299.408,424.034 C301.095,420.826 304.877,426.329 308.67,424.034 C312.457,421.745 314.149,425.873 315.825,422.658 C317.507,419.444 322.987,415.317 324.249,416.693 C325.512,418.068 326.36,420.826 333.087,421.745 C339.834,422.658 336.036,426.329 336.036,428.624 C336.036,430.925 343.616,436.885 346.56,437.342 C347.107,437.434 347.871,438.145 348.751,439.249 C350.799,438.157 354.454,439.983 355.265,437.353 C356.209,434.255 359.673,435.104 361.09,437.688 C362.511,440.261 364.087,440.781 367.243,437.688 C370.399,434.596 371.969,440.781 370.081,442.51 C368.187,444.215 369.455,449.539 372.447,452.637 C375.439,455.73 375.911,450.747 375.285,447.66 C374.654,444.568 380.329,441.469 390.265,437.868 C400.195,434.255 410.916,426.347 411.075,424.635 C411.234,422.919 418.172,427.722 421.483,424.977 C424.793,422.231 436.776,421.884 439.932,421.71 C443.088,421.543 442.924,418.612 446.239,415.704 C449.544,412.773 448.759,411.397 452.546,410.201 C456.328,408.998 458.689,405.212 458.689,403.148 C458.689,401.085 465.787,400.402 465.946,398.171 C466.105,395.94 471.314,395.252 471.314,392.5 C471.314,389.76 474.46,390.263 475.887,388.199 C477.308,386.141 474.778,380.129 477.308,379.268 C479.817,378.407 476.353,375.141 475.887,373.603 C475.409,372.054 480.618,371.701 483.286,369.816 C485.971,367.926 487.711,365.001 488.177,361.741 C488.655,358.475 493.063,355.561 495.11,354.694 C497.169,353.844 497.954,349.202 497.322,345.248 C496.697,341.294 500.956,342.317 499.062,340.774 C497.169,339.23 499.847,334.935 503.63,333.739 C507.412,332.536 501.264,330.64 499.216,332.363 C497.169,334.08 494.957,327.38 493.063,329.952 C491.18,332.531 485.817,328.403 489.281,327.553 C492.75,326.686 498.113,322.397 500.484,321.536 C502.845,320.668 497.004,315.003 494.012,315.177 C491.021,315.344 487.711,307.615 484.554,307.615 C481.398,307.615 486.915,305.211 490.548,307.274 C494.172,309.327 498.426,311.055 500.007,309.327 C501.582,307.615 493.859,300.748 491.021,298.337 C488.177,295.927 490.856,292.666 489.127,291.285 C487.392,289.921 483.605,281.157 482.342,277.203 C481.085,273.243 474.46,272.561 472.884,269.988 C471.314,267.404 473.043,261.392 477.934,259.161 C482.82,256.93 480.767,252.455 482.979,252.97 C485.191,253.49 487.069,252.455 488.814,248.507 C490.548,244.559 493.54,246.958 495.275,244.894 C497.015,242.836 504.738,243.01 507.412,240.946 C510.096,238.888 504.892,232.523 501.264,233.552 C497.646,234.581 493.386,233.038 490.856,228.916 C488.336,224.789 481.716,236.477 476.666,239.056 C471.622,241.634 468.312,234.414 470.041,229.777 C471.781,225.136 466.105,225.309 459.007,225.65 C451.91,225.997 454.594,211.903 458.853,211.221 C463.113,210.533 469.415,215.511 472.099,206.926 C474.778,198.33 478.555,205.03 484.554,197.475 C490.548,189.913 497.476,185.271 502.685,189.74 C507.884,194.203 497.169,201.255 495.434,205.545 C493.699,209.84 497.004,211.221 493.859,214.476 C490.702,217.753 495.11,218.603 501.264,214.308 C507.412,210.025 514.976,204.862 520.976,202.29 C522.572,201.602 524.339,201.423 526.121,201.579 C526.965,199.087 527.957,197.105 529.129,196.469 C533.251,194.22 546.99,187.485 549.053,184.485 C551.116,181.497 553.175,176.259 555.922,176.259 C558.665,176.259 558.665,179.248 562.792,179.248 C566.919,179.248 571.72,180.745 569.661,177.005 C567.598,173.253 568.982,173.253 573.783,172.502 C578.589,171.762 577.905,166.524 581.347,166.524 C584.774,166.524 584.085,157.535 587.522,157.535 C590.959,157.535 592.339,162.784 596.46,161.281 C597.24,160.986 598.264,161.218 599.388,161.744 C600.269,160.998 601.128,160.281 601.993,159.611 C601.579,154.922 602.078,150.714 601.24,148.5 C599.659,144.372 601.24,141.286 600.598,138.881 C599.972,136.47 599.654,130.632 602.184,130.632 C604.704,130.632 607.86,123.752 611.005,126.163 C614.162,128.574 620.464,129.256 620.464,126.163 C620.464,123.07 624.882,122.724 625.513,118.596 C626.139,114.474 630.871,113.445 631.826,109.665 C632.765,105.89 634.346,96.947 637.497,94.889 C640.653,92.825 636.865,91.461 637.184,85.27" fill="#1D649F"/>
  </g>
</svg>
