<?xml version="1.0" encoding="UTF-8"?>
<!DOCTYPE svg PUBLIC "-//W3C//DTD SVG 1.1//EN" "http://www.w3.org/Graphics/SVG/1.1/DTD/svg11.dtd">
<svg version="1.1" xmlns="http://www.w3.org/2000/svg" xmlns:xlink="http://www.w3.org/1999/xlink" x="0" y="0" width="34.49" height="31.208" viewBox="0, 0, 34.49, 31.208">
  <g id="Calque_1">
    <path d="M32.867,24.797 C32.517,23.456 32.719,20.028 34.49,17.41 C30.618,12.866 26.268,6.733 23.945,3.073 C21.727,3.391 19.802,3.368 18.661,2.432 C16.317,0.518 10.455,1.802 8.111,0.518 C6.901,-0.141 4.546,-0.054 2.228,0.143 C2.785,2.05 2.525,3.894 1.421,4.709 C-0.711,6.259 -0.944,12.444 4.259,14.762 C9.463,17.08 7.808,13.473 10.407,13.473 C13.012,13.473 12.773,17.849 15.134,17.849 C17.505,17.849 22.942,20.948 22.704,25.075 C22.47,29.191 24.597,31 28.857,31 C29.631,31 30.517,31.081 31.44,31.208 C32.162,28.451 33.238,26.225 32.867,24.797" fill="#1D649F"/>
  </g>
</svg>
