<?xml version="1.0" encoding="UTF-8"?>
<!DOCTYPE svg PUBLIC "-//W3C//DTD SVG 1.1//EN" "http://www.w3.org/Graphics/SVG/1.1/DTD/svg11.dtd">
<svg version="1.1" xmlns="http://www.w3.org/2000/svg" xmlns:xlink="http://www.w3.org/1999/xlink" x="0" y="0" width="65.079" height="72.443" viewBox="0, 0, 65.079, 72.443">
  <g id="Calque_1">
    <path d="M61.531,60.578 C60.114,58.509 56.804,49.751 57.038,47.687 C57.276,45.623 61.292,39.438 61.058,36.345 C60.825,33.252 65.079,31.194 65.079,28.61 C65.079,26.651 63.976,16.91 61.361,10.563 C60.825,10.598 60.162,10.291 59.403,9.459 C57.51,7.401 49.632,7.736 46.794,11.176 C43.956,14.615 38.28,8.083 37.331,6.372 C36.387,4.643 32.286,0.869 29.13,3.273 C25.974,5.678 25.035,4.996 25.348,1.892 C25.666,-1.201 20.616,-0.166 19.985,2.585 C19.359,5.331 15.258,7.736 13.991,5.678 C12.728,3.614 9.896,0.869 8.633,3.961 C7.758,6.106 6.267,5.921 5.021,4.909 C4.23,8.736 3.254,13.118 5.005,14.176 C7.132,15.465 7.371,18.043 6.898,19.592 C6.426,21.136 10.447,25.003 8.787,26.813 C7.132,28.61 5.005,25.003 3.822,27.581 C2.639,30.16 6.188,32.478 4.771,34.547 C3.35,36.599 1.223,36.86 1.695,40.987 C2.167,45.109 1.928,47.941 0.512,49.236 C-0.91,50.52 0.745,50.52 4.06,52.843 C7.371,55.156 12.808,57.74 12.336,61.601 C11.906,65.128 10.495,65.931 9.179,72.44 C15.598,72.591 27.104,67.492 40.641,64.96 C49.107,63.376 56.263,64.677 61.345,66.278 C61.886,64.081 62.247,61.613 61.531,60.578" fill="#1D649F"/>
  </g>
</svg>
