<?xml version="1.0" encoding="UTF-8"?>
<!DOCTYPE svg PUBLIC "-//W3C//DTD SVG 1.1//EN" "http://www.w3.org/Graphics/SVG/1.1/DTD/svg11.dtd">
<svg version="1.1" xmlns="http://www.w3.org/2000/svg" xmlns:xlink="http://www.w3.org/1999/xlink" x="0" y="0" width="57.04" height="54.206" viewBox="0, 0, 57.04, 54.206">
  <g id="Calque_1">
    <path d="M33.058,43.587 C33.297,41.535 24.343,35.887 24.343,32.037 C24.343,28.193 19.871,26.649 19.404,24.088 C18.927,21.516 21.993,19.215 24.109,21.007 C26.231,22.805 28.587,18.441 30.936,19.464 C33.297,20.493 47.418,21.256 47.418,21.256 C47.418,21.256 51.784,22.609 57.04,26.563 C56.929,25.499 56.765,24.603 56.547,24.071 C55.279,20.828 56.547,17.14 53.157,15.758 C51.412,15.042 50.68,11.752 50.373,8.723 C48.781,9.255 47.428,9.689 46.691,9.891 C43.874,10.66 37.885,10.272 35.774,7.203 C34.199,4.914 29.303,1.561 26.905,0 C25.918,0.942 22.163,4.445 20.524,4.654 C18.63,4.914 19.818,10.33 17.919,10.33 C16.031,10.33 14.609,13.937 14.137,15.481 C13.67,17.03 9.416,14.452 7.517,15.221 C6.164,15.781 2.18,16.458 0,16.805 C0.334,19.152 0.202,21.753 1.926,21.753 C4.764,21.753 9.967,21.418 10.126,25.534 C10.275,29.655 17.06,38.772 19.574,41.864 C22.094,44.957 27.78,44.275 28.088,46.847 C28.411,49.426 32.507,51.825 37.244,52.171 C38.527,52.27 40.071,53.073 41.731,54.206 C38.427,48.934 32.899,45.026 33.058,43.587" fill="#1D649F"/>
  </g>
</svg>
