<?xml version="1.0" encoding="UTF-8"?>
<!DOCTYPE svg PUBLIC "-//W3C//DTD SVG 1.1//EN" "http://www.w3.org/Graphics/SVG/1.1/DTD/svg11.dtd">
<svg version="1.1" xmlns="http://www.w3.org/2000/svg" xmlns:xlink="http://www.w3.org/1999/xlink" x="0" y="0" width="109.586" height="38.85" viewBox="0, 0, 109.586, 38.85">
  <g id="Calque_1">
    <path d="M89.553,23.666 C82.455,23.666 59.279,6.133 37.992,0.983 C16.704,-4.174 -1.856,12.504 0.149,15.411 C2.987,19.539 13.394,10.255 18.598,6.133 C23.802,2.017 28.534,8.197 29,10.775 C29.478,13.348 36.098,14.897 46.983,15.411 C57.858,15.932 59.279,25.724 69.681,28.297 C80.089,30.881 69.681,35.517 74.885,37.581 C80.089,39.639 107.525,39.124 109.418,36.552 C111.312,33.973 96.645,23.666 89.553,23.666" fill="#1D649F"/>
  </g>
</svg>
