<?xml version="1.0" encoding="UTF-8"?>
<!DOCTYPE svg PUBLIC "-//W3C//DTD SVG 1.1//EN" "http://www.w3.org/Graphics/SVG/1.1/DTD/svg11.dtd">
<svg version="1.1" xmlns="http://www.w3.org/2000/svg" xmlns:xlink="http://www.w3.org/1999/xlink" x="0" y="0" width="65.786" height="37.344" viewBox="0, 0, 65.786, 37.344">
  <g id="Calque_1">
    <path d="M62.258,16.955 C60.486,15.81 55.564,16.573 55.203,15.036 C54.864,13.504 54.508,10.816 52.392,10.816 C50.28,10.816 47.458,9.284 46.408,11.966 C45.347,14.654 41.119,11.197 40.764,9.278 C40.419,7.353 38.653,5.821 33.719,3.896 C31.762,3.139 29.534,1.595 27.55,0 C27.391,0.462 27.2,0.896 26.993,1.237 C26.044,2.786 22.734,-0.052 21.317,1.491 C19.896,3.041 15.164,3.295 12.565,5.873 C9.965,8.457 4.523,9.741 1.446,10.515 C-1.631,11.296 0.979,14.383 2.157,16.701 C3.345,19.019 3.345,24.69 5.706,26.499 C8.072,28.297 15.875,33.713 16.824,35.517 C16.983,35.829 16.888,36.118 16.686,36.39 C19.97,37.355 25.083,37.373 25.969,35.766 C27.03,33.852 27.736,30.389 27.736,30.389 C27.736,30.389 34.78,30.389 37.592,33.852 C40.419,37.309 45.702,34.997 45.702,34.997 C45.702,34.997 45.994,35.974 46.472,37.344 C47.23,35.442 48.227,33.777 49.432,33.58 C52.407,33.124 56.641,32.661 59.606,28.042 C61.144,25.661 63.68,23.77 65.786,22.499 C64.364,20.597 63.627,17.857 62.258,16.955" fill="#1D649F"/>
  </g>
</svg>
