<?xml version="1.0" encoding="UTF-8"?>
<!DOCTYPE svg PUBLIC "-//W3C//DTD SVG 1.1//EN" "http://www.w3.org/Graphics/SVG/1.1/DTD/svg11.dtd">
<svg version="1.1" xmlns="http://www.w3.org/2000/svg" xmlns:xlink="http://www.w3.org/1999/xlink" x="0" y="0" width="195.522" height="219.959" viewBox="0, 0, 195.522, 219.959">
  <g id="Calque_1">
    <path d="M178.967,145.071 C173.763,141.979 171.63,103.057 174.23,102.033 C174.574,101.9 174.898,102.305 175.227,103.114 L174.707,94.299 C174.707,94.299 174.399,94.235 174.002,94.056 C173.169,93.692 171.869,92.79 171.869,90.692 C171.869,87.599 174.23,87.339 174.23,87.339 C174.23,87.339 173.763,80.893 176.367,79.864 C176.887,79.668 177.301,79.251 177.667,78.772 C179.121,76.812 179.439,73.02 179.439,70.32 C179.439,66.979 180.144,63.106 181.327,60.279 C182.515,57.446 182.038,53.573 183.932,52.024 C185.826,50.486 185.592,46.359 187.953,45.584 C190.319,44.81 192.212,43.781 192.446,42.231 C192.684,40.682 195.522,38.624 195.522,36.306 C195.522,33.988 191.974,33.468 191.974,30.635 C191.974,27.797 192.923,20.582 192.923,20.582 C192.923,20.582 193.013,20.548 193.077,20.525 C187.979,15.443 182.102,10.171 180.754,9.194 C178.786,7.761 175.482,10.64 175.482,10.64 C175.482,10.64 172.182,7.038 169.546,9.917 C166.909,12.79 162.952,9.917 162.952,9.917 C162.952,9.917 159.658,7.761 158.337,4.165 C157.801,2.703 156.815,1.841 155.579,1.13 L155.743,1.598 L147.85,3.038 C147.85,3.038 137.989,-2.702 136.015,1.598 C134.042,5.899 132.069,3.038 127.464,3.038 C122.86,3.038 118.908,5.188 116.277,6.616 C113.646,8.056 109.704,5.188 107.731,6.616 C105.763,8.056 104.442,14.501 104.442,14.501 L84.057,10.2 C84.057,10.2 80.11,3.749 75.506,3.749 C70.901,3.749 64.318,13.073 64.318,13.073 L64.318,20.86 C65.114,25.531 64.106,30.427 62.743,32.913 C60.764,36.503 58.78,37.942 58.78,45.128 C58.78,52.313 50.866,63.805 50.866,69.551 C50.866,75.303 41.636,78.893 41.636,82.483 C41.636,86.073 40.978,93.981 40.978,101.883 C40.978,109.785 37.021,103.317 37.021,110.496 C37.021,117.694 33.721,113.381 30.433,116.977 C27.138,120.567 25.818,121.289 25.818,117.699 C25.818,114.104 21.202,113.381 17.24,116.977 C13.288,120.567 11.967,116.977 9.994,116.254 C8.901,115.861 4.387,118.763 -0,122.029 C1.979,126.469 2.997,130.92 3.793,134.845 C3.867,135.221 3.968,135.62 4.069,136.024 C6.397,134.227 8.753,132.654 10.095,132.44 C13.41,131.932 44.628,132.44 44.628,132.44 C44.628,132.44 47.466,137.597 46.516,142.244 C45.567,146.875 48.41,144.817 50.776,151.002 C53.142,157.188 55.03,159.766 59.762,158.217 C64.493,156.673 70.169,155.638 72.063,156.159 C73.951,156.673 73.479,147.395 76.317,145.846 C79.155,144.297 84.837,145.846 84.837,145.846 C84.837,145.846 85.303,148.424 90.035,148.424 C94.767,148.424 97.133,146.36 97.133,149.973 C97.133,153.58 97.605,157.702 99.021,159.246 C100.437,160.795 95.244,173.68 97.605,175.744 C99.971,177.808 103.281,182.444 102.803,185.022 C102.331,187.6 100.915,193.786 102.803,194.306 C104.702,194.82 105.174,191.207 108.484,191.207 C111.8,191.207 114.632,191.722 117.943,190.178 C119.035,189.676 120.001,189.861 120.828,190.294 C122.531,191.196 123.624,193.271 123.624,193.271 C123.624,193.271 124.568,196.884 126.456,195.849 C128.35,194.82 133.554,193.271 133.077,195.329 C132.604,197.399 134.498,202.035 136.392,201.006 C138.286,199.971 143.012,204.099 145.383,204.099 C147.744,204.099 150.11,204.099 150.11,202.544 C150.11,201.006 152.942,198.428 153.897,200.486 C154.841,202.544 157.207,207.191 159.568,207.191 C161.939,207.191 167.61,207.191 167.61,209.249 C167.61,211.319 169.503,216.984 171.869,219.042 C174.23,221.106 179.439,219.042 179.439,219.042 C179.439,219.042 181.327,217.498 181.327,213.891 C181.327,210.278 181.327,205.642 179.906,205.642 C178.495,205.642 176.129,209.249 172.819,208.22 C169.503,207.191 167.137,199.971 165.721,198.936 C164.299,197.913 168.087,191.207 168.087,188.115 C168.087,185.022 170.453,176.258 168.559,175.229 C166.665,174.2 167.61,171.108 169.975,169.044 C172.347,166.98 169.031,161.315 172.819,161.315 C176.367,161.315 183.598,161.731 185.65,159.234 C185.794,159.066 185.969,158.928 186.059,158.731 C186.324,158.165 186.547,157.552 186.749,156.945 C184.319,152.604 181.89,146.817 178.967,145.071" fill="#1D649F"/>
  </g>
</svg>
