<?xml version="1.0" encoding="UTF-8"?>
<!DOCTYPE svg PUBLIC "-//W3C//DTD SVG 1.1//EN" "http://www.w3.org/Graphics/SVG/1.1/DTD/svg11.dtd">
<svg version="1.1" xmlns="http://www.w3.org/2000/svg" xmlns:xlink="http://www.w3.org/1999/xlink" x="0" y="0" width="18.53" height="22.002" viewBox="0, 0, 18.53, 22.002">
  <g id="Calque_1">
    <path d="M6.501,2.596 C5.885,3.694 3.35,8.151 1.318,10.689 C-1.011,13.579 0.321,19.013 0.984,20.458 C1.652,21.915 4.978,21.551 6.973,20.1 C8.522,18.972 9.678,19.626 12.002,22.002 C13.2,20.1 14.882,17.972 16.41,16.261 C13.773,14.591 11.338,14.313 10.697,13.614 C9.599,12.417 13.848,8.978 16.845,8.29 C19.836,7.602 18.42,3.821 15.9,1.411 C15.487,1.017 15.004,0.526 14.489,0 C13.078,0.896 11.927,1.711 11.598,2.197 C10.813,3.336 9.063,2.914 6.501,2.596" fill="#1D649F"/>
  </g>
</svg>
