<?xml version="1.0" encoding="UTF-8"?>
<!DOCTYPE svg PUBLIC "-//W3C//DTD SVG 1.1//EN" "http://www.w3.org/Graphics/SVG/1.1/DTD/svg11.dtd">
<svg version="1.1" xmlns="http://www.w3.org/2000/svg" xmlns:xlink="http://www.w3.org/1999/xlink" x="0" y="0" width="173.775" height="75.884" viewBox="0, 0, 173.775, 75.884">
  <g id="Calque_1">
    <path d="M1.314,16.545 C-3.412,24.273 5.982,31.817 7.934,28.395 C10.3,24.273 6.046,8.81 1.314,16.545 z M169.608,19.868 C165.661,15.03 162.956,12.07 161.969,13.411 C160.977,14.77 156.787,15.302 153.832,13.411 C150.872,11.544 149.392,8.047 147.169,8.047 C145.111,8.047 137.982,3.642 134.003,0 C133.966,0.572 133.95,1.116 133.998,1.59 C134.237,3.914 130.688,5.457 126.667,5.717 C122.646,5.977 123.118,10.874 123.118,14.221 C123.118,17.574 119.808,17.574 118.392,21.181 C116.97,24.788 118.864,25.563 115.549,27.366 C112.239,29.17 111.294,32.268 113.188,35.361 C115.077,38.448 112.949,41.286 112.477,43.084 C112.005,44.899 115.315,45.668 118.625,49.015 C121.941,52.368 122.408,47.732 123.829,50.304 C125.251,52.882 122.885,57.524 119.098,57.524 C118.811,57.524 118.519,57.617 118.228,57.68 C120.196,59.912 121.23,62.218 120.296,63.664 C118.572,66.352 117.092,66.352 120.296,69.577 C123.506,72.791 125.723,67.964 128.434,71.994 C131.144,76.023 133.362,78.439 136.078,71.456 C138.788,64.461 140.762,54.53 145.695,52.917 C150.628,51.298 160.733,49.16 166.653,40.552 C172.568,31.956 169.438,31.465 172.568,28.736 C175.035,26.592 173.56,24.701 169.608,19.868" fill="#1D649F"/>
  </g>
</svg>
