<?xml version="1.0" encoding="UTF-8"?>
<!DOCTYPE svg PUBLIC "-//W3C//DTD SVG 1.1//EN" "http://www.w3.org/Graphics/SVG/1.1/DTD/svg11.dtd">
<svg version="1.1" xmlns="http://www.w3.org/2000/svg" xmlns:xlink="http://www.w3.org/1999/xlink" x="0" y="0" width="70.814" height="66.866" viewBox="0, 0, 70.814, 66.866">
  <g id="Calque_1">
    <path d="M11.747,10.353 C9.763,12.504 5.148,13.226 5.811,16.816 C6.469,20.412 5.148,24.002 1.854,28.308 C-1.43,32.592 0.512,39.009 1.185,44.026 C5.158,43.72 9.28,43.645 10.102,44.535 C11.768,46.339 12.431,44.535 13.428,40.916 C14.431,37.292 16.42,37.656 18.42,39.471 C20.409,41.28 21.735,44.177 25.061,42.367 C28.382,40.552 28.053,41.639 29.713,42.367 C31.379,43.096 38.026,42.003 40.349,42.367 C42.683,42.726 62.963,66.271 62.963,66.271 C62.963,66.271 62.91,66.357 62.825,66.519 C65.387,66.837 67.137,67.259 67.923,66.12 C68.251,65.635 69.403,64.82 70.814,63.924 C68.22,61.27 64.459,56.923 59.456,50.044 C53.457,41.789 46.365,37.332 42.577,37.332 C38.79,37.332 38.164,30.285 35.803,29.939 C33.437,29.603 28.074,19.458 27.915,12.926 C27.825,9.249 25.024,4.139 21.932,-0 C18.176,6.544 13.137,8.816 11.747,10.353" fill="#1D649F"/>
  </g>
</svg>
