<?xml version="1.0" encoding="UTF-8"?>
<!DOCTYPE svg PUBLIC "-//W3C//DTD SVG 1.1//EN" "http://www.w3.org/Graphics/SVG/1.1/DTD/svg11.dtd">
<svg version="1.1" xmlns="http://www.w3.org/2000/svg" xmlns:xlink="http://www.w3.org/1999/xlink" x="0" y="0" width="64.332" height="34.764" viewBox="0, 0, 64.332, 34.764">
  <g id="Calque_1">
    <path d="M10.148,12.213 C11.415,9.641 1.04,10.768 3.368,13.08 C5.103,14.803 8.89,14.791 10.148,12.213 z M5.416,17.202 C-0.255,18.925 -1.098,27.48 1.162,27.347 C3.994,27.168 10.466,21.324 12.2,19.433 C13.93,17.549 11.092,15.485 5.416,17.202 z M61.236,8.866 C62.541,5.796 65.963,5.276 63.411,1.23 C62.928,1.675 62.239,2.074 61.082,2.426 C56.51,3.802 46.574,-1.007 40.893,0.195 C35.217,1.392 23.711,1.392 21.027,4.484 C18.343,7.577 11.569,8.438 14.566,11.184 C17.563,13.942 14.566,15.312 16.773,18.578 C18.985,21.844 20.088,23.22 23.08,22.526 C26.077,21.844 28.443,23.555 25.282,27.168 C25.234,27.243 25.202,27.295 25.154,27.359 C30.204,26.844 35.811,26.497 36.644,27.168 C37.906,28.203 45.471,34.729 47.359,34.041 C48.521,33.619 53.693,34.232 57.539,34.764 C57.093,33.486 57.13,32.278 57.921,31.55 C59.342,30.261 62.419,30.261 60.764,27.682 C59.109,25.098 58.632,24.596 58.398,21.491 C58.159,18.404 57.449,16.861 57.687,14.791 C57.921,12.733 59.82,12.213 61.236,8.866" fill="#1D649F"/>
  </g>
</svg>
