<?xml version="1.0" encoding="UTF-8"?>
<!DOCTYPE svg PUBLIC "-//W3C//DTD SVG 1.1//EN" "http://www.w3.org/Graphics/SVG/1.1/DTD/svg11.dtd">
<svg version="1.1" xmlns="http://www.w3.org/2000/svg" xmlns:xlink="http://www.w3.org/1999/xlink" x="0" y="0" width="111.613" height="192.816" viewBox="0, 0, 111.613, 192.816">
  <g id="Calque_1">
    <path d="M95.239,161.869 C97.769,155.69 109.11,150.903 111.015,145.371 C111.959,142.619 112.272,141.244 108.177,136.093 C104.071,130.937 94.936,127.503 94.613,124.757 C94.295,121.994 101.557,121.658 101.233,118.219 C100.92,114.779 97.143,114.791 95.557,112.039 C93.982,109.288 97.451,107.559 97.138,106.195 C96.82,104.825 92.093,104.137 91.775,102.408 C91.457,100.697 94.936,101.038 94.295,98.98 C93.663,96.923 90.518,93.13 92.724,90.038 C94.936,86.951 99.663,90.043 96.188,83.17 C92.724,76.297 87.362,67.707 86.099,65.637 C84.831,63.579 87.362,60.134 89.255,58.775 C91.149,57.399 95.875,52.243 95.875,50.179 C95.875,48.116 89.887,42.612 88.311,41.583 C86.73,40.554 83.266,40.901 81.691,37.456 C80.105,34.028 78.535,32.999 80.105,30.929 C81.691,28.871 81.691,26.813 81.691,24.744 C81.691,22.686 85.155,24.403 85.775,21.304 C86.067,19.9 86.974,18.356 88.136,17.079 C88.147,14.732 88.38,12.205 88.136,10.604 C87.627,7.286 79.017,6.182 76.996,2.315 C74.959,-1.541 69.899,0.106 68.376,2.315 C66.865,4.523 57.735,1.771 57.735,5.084 C57.735,8.39 51.158,8.951 51.158,12.812 C51.158,16.674 54.192,23.299 49.126,22.75 C44.06,22.2 47.604,24.958 44.569,29.374 C41.519,33.797 41.519,26.605 38.485,27.715 C35.451,28.814 31.902,24.403 30.379,27.16 C28.862,29.929 23.796,27.715 18.731,26.605 C13.654,25.507 11.134,17.784 7.071,17.223 C4.382,16.865 1.507,19.2 0,22.894 C3.925,25.657 6.503,29.588 11.633,32.132 C17.203,34.895 27.34,38.202 26.841,42.075 C26.327,45.93 24.804,51.457 27.34,53.116 C29.876,54.769 26.841,61.949 29.876,63.608 C32.91,65.267 31.902,73.545 29.361,73.545 C26.841,73.545 29.876,77.956 31.398,79.603 C32.088,80.366 32.65,82.609 32.894,85.338 C36.008,86.159 38.777,87.87 41.482,89.188 C45.736,91.246 45.1,94.512 45.259,98.119 C45.418,101.726 45.572,103.784 43.37,102.235 C41.164,100.697 38.798,102.235 37.53,107.397 C36.268,112.548 30.279,118.739 26.656,119.086 C23.022,119.421 23.346,123.549 20.343,124.404 C17.357,125.266 14.519,127.156 14.673,130.763 C14.826,134.37 10.259,134.717 7.257,134.717 C4.265,134.717 4.896,140.556 2.53,142.099 C0.17,143.654 0.631,145.706 2.843,148.805 C5.05,151.898 3.162,154.649 3.941,156.886 C4.742,159.112 8.206,164.268 5.84,169.934 C3.48,175.61 0.955,182.663 3.002,181.969 C5.045,181.287 9.782,186.611 12.938,186.27 C16.089,185.917 16.412,191.074 19.399,190.045 C22.396,189.016 22.396,193.132 31.074,192.796 C39.742,192.455 57.242,184.553 64.186,184.553 C68.116,184.553 71.267,184.039 73.745,183.368 C75.235,180.929 77.039,178.275 78.848,176.304 C83.266,171.483 92.724,168.055 95.239,161.869" fill="#1D649F"/>
  </g>
</svg>
