<?xml version="1.0" encoding="UTF-8"?>
<!DOCTYPE svg PUBLIC "-//W3C//DTD SVG 1.1//EN" "http://www.w3.org/Graphics/SVG/1.1/DTD/svg11.dtd">
<svg version="1.1" xmlns="http://www.w3.org/2000/svg" xmlns:xlink="http://www.w3.org/1999/xlink" x="0" y="0" width="94.716" height="116.26" viewBox="0, 0, 94.716, 116.26">
  <g id="Calque_1">
    <path d="M12.003,30.603 C9.478,34.719 6.014,35.066 6.64,36.089 C7.277,37.124 11.059,40.564 10.115,42.281 C9.165,44.003 7.903,42.974 7.903,46.067 C7.903,49.154 3.484,49.154 1.914,49.154 C0.333,49.154 2.227,52.252 1.283,54.651 C0.333,57.056 0.333,61.866 0.02,63.935 C-0.293,65.993 3.171,69.433 2.858,71.15 C2.545,72.878 0.02,74.242 0.657,75.612 C1.245,76.925 3.521,78.896 4.03,85.243 C5.118,85.59 6.004,86.035 6.401,86.613 C7.823,88.671 10.189,90.22 13.26,90.22 C16.337,90.22 17.52,92.544 18.942,92.278 C20.358,92.024 24.14,93.319 21.069,96.151 C17.992,98.984 17.52,102.331 16.809,105.69 C16.353,107.857 16.379,110.863 15.886,112.731 C18.889,113.02 23.323,113.262 24.93,112.39 C27.45,111.02 29.026,111.02 32.182,112.049 C34.06,112.661 36.585,113.991 38.34,114.979 C38.531,114.286 38.871,113.76 39.513,113.673 C41.645,113.419 44.245,118.055 45.666,115.477 C47.088,112.904 50.398,113.419 52.053,114.448 C53.708,115.477 56.307,115.997 58.201,113.927 C60.095,111.869 67.426,110.84 69.081,111.615 C70.741,112.39 74.99,114.448 73.34,108.262 C71.68,102.077 76.884,103.366 77.595,101.048 C78.3,98.724 84.453,97.701 83.509,95.891 C82.56,94.088 74.757,88.671 72.391,86.873 C70.03,85.064 70.03,79.393 68.842,77.075 C67.664,74.757 65.054,71.67 68.131,70.89 C71.208,70.115 76.65,68.832 79.25,66.248 C81.849,63.669 86.581,63.415 88.002,61.866 C89.419,60.322 92.729,63.161 93.678,61.611 C94.628,60.062 95.328,56.969 93.917,55.166 C92.495,53.362 91.551,50.275 91.318,45.893 C91.079,41.512 89.896,41.766 89.896,39.702 C89.896,37.639 89.185,35.066 87.53,34.031 C85.875,33.002 85.164,32.228 86.819,29.395 C88.474,26.557 87.763,19.342 87.053,17.284 C86.909,16.874 86.925,16.388 87.005,15.868 C86.581,15.649 86.246,15.198 86.108,14.44 C85.631,11.694 83.907,10.666 79.807,10.666 C75.701,10.666 82.321,6.197 80.745,3.966 C79.175,1.734 75.07,8.087 71.293,6.706 C67.505,5.341 62.62,11.527 59.31,14.273 C55.994,17.03 51.268,13.758 53.787,9.804 C56.307,5.856 53.787,6.197 50,7.746 C46.218,9.29 41.645,7.405 42.117,3.619 C42.234,2.665 41.958,1.78 41.497,0.942 C39.645,1.22 38.229,1.289 37.55,1.041 C35.858,0.434 32.012,0.098 27.816,0 C29.073,2.006 30.426,3.96 29.662,5.509 C28.246,8.434 30.453,11.186 32.5,15.475 C34.548,19.776 28.092,17.365 27.928,20.117 C27.768,22.869 21.939,19.944 20.05,18.915 C18.156,17.886 11.844,18.568 12.003,20.29 C12.067,20.973 11.971,21.915 11.695,22.724 C12.539,26.037 12.916,29.1 12.003,30.603" fill="#1D649F"/>
  </g>
</svg>
