<?xml version="1.0" encoding="UTF-8"?>
<!DOCTYPE svg PUBLIC "-//W3C//DTD SVG 1.1//EN" "http://www.w3.org/Graphics/SVG/1.1/DTD/svg11.dtd">
<svg version="1.1" xmlns="http://www.w3.org/2000/svg" xmlns:xlink="http://www.w3.org/1999/xlink" x="0" y="0" width="45.302" height="74.866" viewBox="0, 0, 45.302, 74.866">
  <g id="Calque_1">
    <path d="M38.566,30.679 C37.144,26.805 38.088,18.308 38.327,14.44 C38.566,10.579 37.383,8.509 35.728,7.48 C34.842,6.937 34.094,3.278 33.579,-0 C31.701,0.925 31.553,4.284 30.763,2.844 C29.813,1.127 5.216,0.092 3.958,2.156 C2.696,4.214 6.16,11.787 5.852,13.845 C5.661,15.076 5.131,15.914 4.335,15.978 C6.95,22.325 8.054,32.066 8.054,34.026 C8.054,36.61 3.799,38.668 4.033,41.76 C4.266,44.853 0.25,51.038 0.012,53.102 C-0.222,55.166 3.088,63.924 4.505,65.993 C5.221,67.028 4.86,69.496 4.319,71.693 C8.616,73.04 11.443,74.607 12.313,74.838 C14.202,75.358 27.601,68.658 32.969,65.733 C37.255,63.398 42.024,61.929 45.302,60.033 C43.329,55.86 41.404,50.356 41.404,46.657 C41.404,40.731 39.982,34.54 38.566,30.679" fill="#1D649F"/>
  </g>
</svg>
