<?xml version="1.0" encoding="UTF-8"?>
<!DOCTYPE svg PUBLIC "-//W3C//DTD SVG 1.1//EN" "http://www.w3.org/Graphics/SVG/1.1/DTD/svg11.dtd">
<svg version="1.1" xmlns="http://www.w3.org/2000/svg" xmlns:xlink="http://www.w3.org/1999/xlink" x="0" y="0" width="67.634" height="92.031" viewBox="0, 0, 67.634, 92.031">
  <g id="Calque_1">
    <path d="M57.863,86.7 C55.332,85.162 43.98,87.735 40.994,84.642 C37.992,81.549 31.881,87.081 34.522,87.561 C38.305,88.249 43.98,91.856 50.129,92.024 C56.287,92.209 64.637,88.937 64.488,87.214 C64.324,85.492 60.382,88.249 57.863,86.7 z M66.769,-0 C64.398,0.266 61.114,1.226 61.645,2.676 C62.276,4.393 60.064,5.422 57.55,5.422 C57.55,5.422 48.712,4.746 46.187,3.364 C44.278,2.33 35.854,2.856 31.881,3.179 C31.859,3.347 31.801,3.526 31.684,3.705 C30.735,5.255 23.165,9.457 21.749,8.683 C20.327,7.92 19.622,11.267 16.784,12.036 C13.94,12.81 9.686,11.775 9.458,13.07 C9.214,14.359 7.32,17.967 5.671,19.764 C4.01,21.574 5.432,23.638 3.066,24.146 C1.507,24.499 0.859,27.649 0,30.424 C0.154,30.505 0.297,30.626 0.462,30.684 C3.931,31.881 6.61,36.355 6.143,40.65 C5.671,44.951 11.187,46.495 13.707,43.396 C16.232,40.309 23.33,45.119 23.33,47.183 C23.33,49.241 16.078,44.951 11.967,48.212 C7.877,51.472 15.129,54.57 14.185,58.01 C13.23,61.444 16.078,66.248 19.701,66.086 C23.335,65.918 27.425,72.445 29.632,71.236 C31.844,70.04 26.953,60.929 27.743,59.553 C28.533,58.178 32.942,61.958 35.148,59.207 C37.36,56.461 33.573,54.403 30.263,54.57 C26.953,54.738 30.109,49.755 34.05,52.333 C37.986,54.906 39.885,51.651 41.768,51.298 C43.662,50.957 44.14,43.57 38.305,41.859 C32.475,40.142 33.26,46.495 29.472,42.188 C25.69,37.904 32.942,39.616 32.942,36.008 C32.942,32.401 27.112,27.245 24.269,22.95 C21.431,18.66 28.22,16.597 29.791,19.695 C31.366,22.782 35.62,22.267 38.305,21.059 C40.994,19.863 35.467,14.359 40.352,12.296 C45.248,10.232 45.248,13.845 46.818,14.533 C48.394,15.215 49.816,10.232 54.86,10.232 C57.486,10.232 59.815,12.134 62.064,13.961 C63.432,12.319 64.557,11.371 64.557,9.978 C64.557,8.168 67.634,7.399 67.634,4.561 C67.634,3.203 67.146,1.486 66.769,-0" fill="#1D649F"/>
  </g>
</svg>
