<?xml version="1.0" encoding="UTF-8"?>
<!DOCTYPE svg PUBLIC "-//W3C//DTD SVG 1.1//EN" "http://www.w3.org/Graphics/SVG/1.1/DTD/svg11.dtd">
<svg version="1.1" xmlns="http://www.w3.org/2000/svg" xmlns:xlink="http://www.w3.org/1999/xlink" x="0" y="0" width="45.524" height="48.206" viewBox="0, 0, 45.524, 48.206">
  <g id="Calque_1">
    <path d="M39.774,32.101 C42.092,30.06 44.081,27.609 45.524,25.62 C41.816,27.811 40.686,25.719 41.227,22.869 L35.891,23.643 L36.443,0.168 C32.135,0.364 20.078,0 18.54,0 C16.715,0 16.253,7.966 15.118,8.712 C13.978,9.463 24.019,16.678 22.879,19.909 C21.738,23.146 9.861,21.4 8.726,21.649 C8.19,21.77 4.18,27.673 0,34.199 C4.71,38.76 9.421,43.518 11.702,45.09 C16.195,48.177 23.526,44.824 26.597,47.923 C26.693,48.009 26.825,48.113 26.937,48.206 C30.135,44.893 33.446,41.65 34.517,41.315 C36.803,40.564 34.979,36.338 39.774,32.101" fill="#1D649F"/>
  </g>
</svg>
