<?xml version="1.0" encoding="UTF-8"?>
<!DOCTYPE svg PUBLIC "-//W3C//DTD SVG 1.1//EN" "http://www.w3.org/Graphics/SVG/1.1/DTD/svg11.dtd">
<svg version="1.1" xmlns="http://www.w3.org/2000/svg" xmlns:xlink="http://www.w3.org/1999/xlink" x="0" y="0" width="79.597" height="65.046" viewBox="0, 0, 79.597, 65.046">
  <g id="Calque_1">
    <path d="M26.926,35.303 C27.16,32.471 29.292,33.5 31.891,34.02 C34.496,34.534 37.567,32.216 39.933,32.216 C42.299,32.216 48.447,41.234 48.447,43.812 C48.447,46.385 48.686,48.714 49.869,50.772 C50.022,51.038 50.128,51.316 50.197,51.588 C54.011,50.634 57.173,50.125 57.91,50.125 C59.067,50.125 61.401,56.201 60.929,60.01 C60.467,63.814 64.419,66.606 66.053,64.074 C67.681,61.53 69.771,58.235 70.238,60.519 C70.376,61.195 71.246,61.773 72.355,62.259 C72.944,60.762 74.211,60.16 75.177,58.767 C76.593,56.698 73.044,54.38 74.227,51.801 C75.41,49.223 77.537,52.83 79.192,51.033 C80.853,49.223 76.832,45.356 77.304,43.812 C77.776,42.263 77.537,39.685 75.41,38.396 C73.66,37.338 74.636,32.956 75.426,29.129 C74.885,28.696 74.376,28.112 73.994,27.493 C72.726,25.435 73.681,20.961 71.469,20.961 C69.262,20.961 69.58,17.521 71.469,16.834 C73.363,16.157 67.687,13.747 67.687,11.342 C67.687,8.943 64.849,3.087 63.586,2.746 C62.324,2.405 57.91,8.59 56.017,8.59 C54.123,8.59 50.028,4.463 48.765,7.902 C47.503,11.342 44.665,6.18 42.771,8.943 C40.877,11.677 39.625,5.844 39.625,5.844 C39.625,5.844 39.652,5.029 39.689,3.925 C39.297,4.075 38.915,4.226 38.517,4.382 C33.074,6.44 23.377,5.151 22.905,3.347 C22.433,1.538 15.336,0 15.336,0 C15.336,0 15.569,4.382 12.97,5.405 C10.37,6.44 13.681,9.793 13.681,10.822 C13.681,11.851 11.553,13.4 9.898,12.619 C8.243,11.851 3.512,16.493 1.146,18.296 C0.881,18.504 0.472,18.955 -0,19.539 C3.65,22.73 3.326,26.302 7.612,29.719 C11.564,32.887 16.603,37.165 19.622,43.997 C22.677,41.182 26.762,37.24 26.926,35.303" fill="#1D649F"/>
  </g>
</svg>
