<?xml version="1.0" encoding="UTF-8"?>
<!DOCTYPE svg PUBLIC "-//W3C//DTD SVG 1.1//EN" "http://www.w3.org/Graphics/SVG/1.1/DTD/svg11.dtd">
<svg version="1.1" xmlns="http://www.w3.org/2000/svg" xmlns:xlink="http://www.w3.org/1999/xlink" x="0" y="0" width="29.647" height="19.25" viewBox="0, 0, 29.647, 19.25">
  <g id="Calque_1">
    <path d="M15.484,18.007 C17.85,16.203 22.582,11.561 24.237,12.33 C25.892,13.111 28.019,11.561 28.019,10.532 C28.019,9.503 24.709,6.15 27.308,5.116 C29.101,4.416 29.536,2.156 29.647,0.78 C28.709,0.295 27.732,-0.07 26.953,0.011 C24.762,0.225 11.4,1.306 11.4,1.306 C11.4,1.306 7.405,4.133 5.411,3.919 C3.74,3.734 5.4,0.815 -0,2.306 C2.705,5.983 3.061,7.815 8.551,9.503 C14.699,11.388 8.079,14.833 13.118,18.267 C13.59,18.585 13.962,18.92 14.338,19.25 C14.81,18.666 15.219,18.215 15.484,18.007" fill="#1D649F"/>
  </g>
</svg>
