<?xml version="1.0" encoding="UTF-8"?>
<!DOCTYPE svg PUBLIC "-//W3C//DTD SVG 1.1//EN" "http://www.w3.org/Graphics/SVG/1.1/DTD/svg11.dtd">
<svg version="1.1" xmlns="http://www.w3.org/2000/svg" xmlns:xlink="http://www.w3.org/1999/xlink" x="0" y="0" width="296.283" height="340.319" viewBox="0, 0, 296.283, 340.319">
  <g id="Calque_1">
    <path d="M212.099,153.988 C210.19,149.121 208.901,140.062 209.542,136.582 C210.179,133.108 214.014,135.883 215.293,131.715 C216.571,127.529 204.429,127.529 208.264,121.957 C212.099,116.396 212.099,121.957 217.202,121.957 C222.321,121.957 224.231,124.743 224.231,128.229 C224.231,131.715 229.35,133.802 229.35,133.802 C229.35,133.802 237.657,133.108 241.492,133.108 C245.333,133.108 249.157,133.108 249.157,135.883 C249.157,138.675 244.685,147.727 240.85,147.727 C237.015,147.727 237.015,159.566 240.219,160.254 C243.412,160.954 245.964,151.207 247.873,151.207 C249.253,151.207 250.303,162.254 252.186,173.643 C252.685,173.001 253.199,172.538 253.746,172.538 C256.271,172.538 255.008,162.908 256.695,160.15 C258.382,157.399 257.544,148.687 258.806,148.687 C260.069,148.687 267.649,151.439 267.23,149.144 C266.806,146.849 271.856,139.039 271.017,134.911 C270.169,130.784 273.962,125.732 273.962,120.691 C273.962,115.644 278.173,114.268 281.123,111.511 C284.067,108.759 289.122,105.089 289.966,107.378 C290.809,109.673 297.121,111.511 294.596,107.378 C292.066,103.25 292.066,100.504 293.753,99.585 C295.44,98.666 296.283,94.076 296.283,94.076 C296.283,94.076 290.809,93.157 289.966,90.4 C289.122,87.654 285.748,84.902 285.748,82.601 C285.748,80.306 282.799,81.226 280.279,83.526 C277.749,85.821 273.118,80.769 267.644,83.983 C262.175,87.197 260.907,90.856 258.382,90.4 C255.852,89.937 256.271,92.695 254.17,94.99 C252.064,97.284 250.377,100.042 249.12,100.042 C247.858,100.042 243.646,102.337 243.646,102.337 C243.646,102.337 246.595,109.216 244.908,112.43 C243.221,115.644 239.004,112.43 234.384,113.812 C229.748,115.187 227.642,111.968 224.268,112.893 C220.905,113.812 218.804,110.592 217.123,111.048 C215.431,111.511 212.906,106.915 213.749,103.25 C214.592,99.585 212.057,94.533 210.375,97.284 C208.694,100.042 206.174,98.666 206.174,102.794 C206.174,106.915 208.28,111.968 205.75,114.725 C203.219,117.482 189.74,118.864 187.221,116.563 C184.69,114.268 173.747,112.893 173.328,110.592 C172.909,108.297 169.535,104.175 167.424,104.175 C165.323,104.175 159,107.378 157.324,106.002 C155.637,104.632 151.425,100.961 148.476,100.504 C145.526,100.042 140.896,97.741 140.477,95.909 C140.057,94.076 133.321,93.157 132.053,91.319 C130.79,89.48 126.584,89.03 126.584,86.735 C126.584,84.445 128.271,80.769 128.271,78.011 C128.271,75.254 133.321,72.514 133.321,70.676 C133.321,68.837 128.695,65.623 128.695,65.623 C128.695,65.623 125.74,59.657 122.372,59.657 C118.998,59.657 116.473,53.235 113.529,52.778 C110.585,52.322 111.423,45.893 109.736,43.593 C108.06,41.304 109.317,35.8 112.267,38.552 C115.211,41.304 120.69,38.552 118.579,34.419 C116.473,30.291 112.686,26.632 112.686,24.331 C112.686,22.036 115.221,15.146 112.267,13.307 C109.317,11.481 106.792,8.723 105.949,5.515 C105.105,2.301 101.737,0 101.737,0 L97.53,0.462 C97.53,0.462 95.005,7.804 93.319,8.723 C91.632,9.637 85.733,11.018 82.789,13.307 C79.85,15.602 71.426,10.099 66.796,10.099 C62.159,10.099 59.205,15.146 61.311,16.527 C63.422,17.903 63.003,27.534 63.003,27.534 C63.003,27.534 65.528,39.465 69.315,38.552 C73.103,37.639 77.739,42.674 74.365,43.593 C71.002,44.512 69.315,48.645 68.896,52.322 C68.472,55.992 69.315,60.577 66.796,61.033 C64.265,61.49 61.74,62.409 61.74,67.462 C61.74,72.514 56.266,71.138 55.422,72.965 C54.579,74.809 52.473,83.983 51.211,85.359 C49.948,86.735 42.782,87.197 42.363,91.325 C41.938,95.452 38.58,100.504 36.474,100.042 C34.363,99.585 30.576,97.741 29.308,100.504 C28.045,103.262 22.582,98.209 21.314,99.585 C20.051,100.961 13.309,106.927 13.309,110.592 C13.309,114.268 20.47,114.268 20.051,118.864 C19.627,123.448 22.582,128.495 24.688,130.784 C26.783,133.085 30.151,138.588 28.464,141.345 C26.783,144.091 24.263,144.548 20.47,143.635 C16.678,142.715 17.097,145.467 10.365,144.091 C3.623,142.715 3.204,148.225 0.679,151.439 C0.52,151.641 0.286,151.924 -0,152.283 C3.177,155.023 4.514,159.907 9.803,162.133 C15.956,164.711 21.478,157.832 21.478,162.815 C21.478,167.804 6.965,166.775 6.657,168.318 C6.339,169.868 21.627,189.973 29.361,188.424 C37.084,186.875 42.76,177.764 40.548,176.394 C38.342,175.024 41.816,169.347 43.864,170.382 C45.911,171.411 44.182,180.342 46.543,182.406 C48.914,184.464 48.123,188.245 46.543,193.066 C44.972,197.876 48.123,207.321 48.59,212.651 C49.068,217.975 52.378,225.704 53.486,233.606 C54.59,241.526 59.162,255.955 63.422,264.713 C67.681,273.476 70.981,290.663 73.819,294.784 C76.657,298.906 83.914,311.45 83.914,319.179 C83.914,326.914 91.642,337.735 94.321,339.805 C97.005,341.863 102.84,337.4 104.257,332.579 C105.678,327.769 113.715,325.879 114.187,321.757 C114.664,317.636 115.444,314.369 118.287,313.855 C121.125,313.335 121.125,310.08 121.125,305.606 C121.125,301.137 121.438,294.784 124.282,290.83 C127.114,286.882 127.592,276.222 125.857,271.933 C124.122,267.638 125.067,261.626 126.647,257.319 C128.218,253.03 127.592,248.035 130.589,247.706 C133.581,247.359 137.999,244.428 141.15,239.798 C144.312,235.156 153.924,228.797 157.393,225.704 C160.857,222.611 171.424,212.472 174.585,206.807 C177.731,201.13 186.717,199.251 190.822,194.604 C194.923,189.973 193.342,187.568 194.133,182.574 C194.923,177.602 208.158,175.539 213.208,175.539 C214.242,175.539 215.091,175.417 215.86,175.255 C215.781,167.255 213.569,157.745 212.099,153.988" fill="#1D649F"/>
  </g>
</svg>
