<?xml version="1.0" encoding="UTF-8"?>
<!DOCTYPE svg PUBLIC "-//W3C//DTD SVG 1.1//EN" "http://www.w3.org/Graphics/SVG/1.1/DTD/svg11.dtd">
<svg version="1.1" xmlns="http://www.w3.org/2000/svg" xmlns:xlink="http://www.w3.org/1999/xlink" x="0" y="0" width="207.688" height="193.422" viewBox="0, 0, 207.688, 193.422">
  <g id="Calque_1">
    <path d="M203.743,166.663 C201.213,165.744 203.743,156.107 198.693,153.812 C193.638,151.512 189.15,147.795 187.745,143.719 C186.482,140.048 180.164,136.372 180.583,133.62 C181.003,130.874 193.214,122.145 191.532,117.099 C189.84,112.058 181.846,112.977 181.003,111.139 C180.164,109.3 181.427,102.878 179.321,97.831 C177.215,92.779 181.003,88.189 179.321,85.437 C177.639,82.692 180.164,77.183 180.583,75.338 C181.003,73.506 185.209,70.754 184.79,66.17 C184.541,63.395 185.824,61.644 187.161,60.887 C185.713,56.239 185.251,48.099 185.251,46.66 C185.251,44.943 180.217,44.943 177.687,45.284 C175.167,45.637 172.961,38.758 170.436,38.758 C167.916,38.758 165.709,36.7 165.709,34.636 C165.709,32.578 159.715,31.202 156.564,31.543 C153.408,31.879 152.777,28.792 151.514,28.792 C150.252,28.792 145.212,27.075 143.626,25.011 C142.056,22.947 132.911,22.265 131.335,24.664 C129.755,27.075 126.604,25.693 123.761,25.693 C120.923,25.693 115.883,30.509 114.302,32.908 C113.342,34.388 108.839,34.7 105.491,34.729 C105.619,37.688 105.619,40.064 105.163,40.822 C103.513,43.521 91.28,45.972 82.135,46.319 C72.99,46.66 72.364,33.607 62.588,33.607 C55.474,33.607 50.058,26.52 49.687,19.878 C45.475,18.126 41.465,15.12 42.048,13.854 C42.887,12.022 44.992,0.541 39.942,3.293 C34.887,6.05 27.731,14.768 18.475,13.392 C9.202,12.01 15.934,11.097 11.308,8.808 C6.677,6.513 9.621,0.998 4.99,0.084 C0.365,-0.835 3.723,6.05 1.208,6.05 C-1.327,6.05 0.784,13.848 1.627,15.681 C2.471,17.519 -0.06,27.612 1.627,28.069 C3.309,28.532 7.091,35.879 6.677,37.255 C6.253,38.636 10.465,43.221 10.465,46.423 C10.465,49.643 14.258,53.32 16.364,53.32 C18.475,53.32 21.408,54.695 20.57,57.447 C19.727,60.199 21.833,64.326 19.308,64.326 C16.783,64.326 17.196,72.136 15.101,73.506 C12.995,74.882 14.682,83.142 16.364,84.062 C18.05,84.975 21.833,87.276 21.408,90.484 C20.984,93.698 30.256,98.739 33.211,99.201 C36.15,99.658 36.569,104.248 38.256,106.086 C39.942,107.925 36.993,111.595 37.412,113.885 C37.831,116.185 41.624,118.018 41.205,121.689 C40.956,123.908 44.377,127.614 47.226,130.834 C48.165,130.522 49.072,130.337 49.814,130.337 C52.658,130.337 52.498,126.909 54.7,128.972 C56.912,131.036 59.898,128.787 62.116,128.62 C64.322,128.458 70.311,140.823 72.99,146.829 C75.68,152.853 75.515,154.916 79.144,157.489 C82.772,160.073 86.867,158.691 92.071,164.536 C97.275,170.38 110.674,174.334 116.35,174.669 C122.021,175.016 126.286,167.975 133.542,169.513 C140.788,171.062 139.054,181.202 141.738,184.815 C144.422,188.422 173.905,190.832 178.955,192.376 C180.79,192.942 185.198,193.295 190.116,193.422 C189.999,192.277 189.904,191.249 189.84,190.526 C189.421,185.011 193.214,180.427 196.587,178.6 C199.951,176.756 202.895,175.843 206.268,175.38 C209.642,174.924 206.268,167.582 203.743,166.663" fill="#1D649F"/>
  </g>
</svg>
