<?xml version="1.0" encoding="UTF-8"?>
<!DOCTYPE svg PUBLIC "-//W3C//DTD SVG 1.1//EN" "http://www.w3.org/Graphics/SVG/1.1/DTD/svg11.dtd">
<svg version="1.1" xmlns="http://www.w3.org/2000/svg" xmlns:xlink="http://www.w3.org/1999/xlink" x="0" y="0" width="44.923" height="57.736" viewBox="0, 0, 44.923, 57.736">
  <g id="Calque_1">
    <path d="M42.079,17.797 C40.758,16.716 39.517,15.548 38.557,14.305 C34.504,9.114 32.833,13.27 32.361,16.386 C31.878,19.502 28.069,15.346 25.688,14.831 C23.306,14.305 26.398,9.38 28.069,8.073 C29.189,7.206 30.287,4.802 30.976,1.454 C30.525,1.449 30.08,1.385 29.655,1.2 C25.242,-0.679 19.089,-0.684 18.93,3.611 C18.776,7.906 23.815,6.357 23.974,9.102 C24.133,11.86 18.93,11.16 15.301,13.918 C11.678,16.669 7.732,12.033 3.949,14.085 C0.162,16.149 8.05,18.566 5.212,22.855 C2.374,27.156 5.366,26.977 10.097,31.104 C14.829,35.231 7.259,36.255 7.259,40.897 C7.259,45.533 1.424,45.365 0.162,48.458 C-1.095,51.556 5.212,57.736 10.734,57.736 C14.675,57.736 23.815,54.984 29.178,49.487 C34.541,43.989 37.374,49.308 42.264,46.568 C47.155,43.822 44.158,23.716 42.264,19.589 C41.93,18.855 41.941,18.294 42.079,17.797" fill="#1D649F"/>
  </g>
</svg>
