<?xml version="1.0" encoding="UTF-8"?>
<!DOCTYPE svg PUBLIC "-//W3C//DTD SVG 1.1//EN" "http://www.w3.org/Graphics/SVG/1.1/DTD/svg11.dtd">
<svg version="1.1" xmlns="http://www.w3.org/2000/svg" xmlns:xlink="http://www.w3.org/1999/xlink" x="0" y="0" width="15.505" height="48.587" viewBox="0, 0, 15.505, 48.587">
  <g id="Calque_1">
    <path d="M7.204,47.934 C7.559,48.148 7.925,48.368 8.307,48.587 C9.203,41.604 10.583,33.395 11.728,31.736 C12.36,30.817 12.779,28.649 13.086,26.094 C10.142,22.822 9.14,19.464 9.14,18.712 C9.14,17.672 9.776,11.012 11.384,10.307 C11.845,10.116 13.033,10.122 14.619,10.226 C14.911,8.139 15.235,5.191 15.505,2.503 L10.116,-0 C9.315,1.902 8.668,3.763 8.418,5.445 C7.517,11.654 2.477,21.886 -0,26.129 L7.655,46.593 L7.204,47.934" fill="#1D649F"/>
  </g>
</svg>
