<?xml version="1.0" encoding="UTF-8"?>
<!DOCTYPE svg PUBLIC "-//W3C//DTD SVG 1.1//EN" "http://www.w3.org/Graphics/SVG/1.1/DTD/svg11.dtd">
<svg version="1.1" xmlns="http://www.w3.org/2000/svg" xmlns:xlink="http://www.w3.org/1999/xlink" x="0" y="0" width="121.661" height="145.814" viewBox="0, 0, 121.661, 145.814">
  <g id="Calque_1">
    <path d="M100.529,81.885 C96.433,79.144 99.112,74.664 92.646,75.005 C86.18,75.358 78.456,66.594 76.096,56.449 C73.73,46.321 63.64,45.801 61.115,39.783 C58.59,33.765 63.481,33.083 61.28,28.1 C60.044,25.326 62.765,22.874 65.98,21.487 C65.72,15.978 66.149,9.972 66.537,6.076 C64.033,5.792 61.879,5.399 61.115,4.902 C59.927,4.127 59.694,0 58.983,0 C58.272,0 51.652,0 50.469,1.295 C49.286,2.584 45.737,4.902 43.849,3.613 C43.44,3.341 42.99,3.064 42.523,2.815 L40.465,4.902 C40.465,4.902 40.141,7.66 38.878,7.66 C37.621,7.66 35.733,6.631 35.733,9.024 C35.733,11.434 32.258,10.746 30.683,10.405 C29.107,10.059 26.901,10.746 26.901,12.81 C26.901,14.874 26.577,19.342 24.063,16.938 C21.543,14.527 19.013,8.342 18.069,9.024 C17.124,9.717 14.918,17.273 12.711,17.273 C11.342,17.273 6.844,17.666 3.608,17.978 C2.759,20.932 3.667,22.701 4.818,23.464 C6.006,24.233 4.112,27.326 2.69,28.1 C1.274,28.875 -1.086,28.1 0.563,30.933 C2.224,33.765 5.295,34.026 3.64,36.858 C1.985,39.697 3.64,42.275 6.006,42.535 C8.366,42.789 11.682,42.275 10.971,44.338 C10.557,45.547 9.915,46.928 9.772,48.275 C11.634,47.686 13.278,47.587 14.918,46.657 C18.233,44.778 16.811,41.5 22.323,39.783 C27.845,38.066 35.096,43.049 37.303,46.657 C39.515,50.27 40.141,50.611 40.613,53.536 C41.091,56.449 43.138,62.299 50.708,67.623 C58.272,72.959 61.28,78.965 65.211,81.191 C69.152,83.434 73.098,82.919 75.464,86.006 C77.83,89.099 80.981,90.816 84.769,92.712 C88.546,94.608 88.705,99.065 92.328,99.585 C95.956,100.1 93.595,103.539 95.802,106.453 C98.004,109.372 98.64,115.563 96.274,119.003 C93.908,122.442 95.166,128.281 96.746,128.281 C98.322,128.281 101.632,122.095 102.109,118.656 C102.576,115.216 105.738,115.396 108.252,111.783 C110.777,108.175 104.47,107.314 103.372,102.672 C102.263,98.03 108.104,93.914 113.615,97.689 C119.132,101.47 121.344,104.048 121.657,98.209 C121.975,92.371 104.629,84.636 100.529,81.885 z M23.267,87.382 C19.803,90.648 16.944,86.815 15.544,89.44 C13.809,92.712 20.901,97.689 19.485,104.389 C18.069,111.089 20.275,119.511 23.898,115.563 C27.527,111.615 29.267,113.5 31.309,110.574 C33.362,107.661 31.627,96.834 33.049,91.683 C34.47,86.526 26.736,84.116 23.267,87.382 z M84.291,126.391 C77.82,127.934 75.146,128.449 71.364,126.391 C67.576,124.327 61.45,128.269 62.378,131.021 C63.004,132.923 65.534,135.322 73.411,137.559 C81.294,139.79 82.244,145.629 85.554,145.808 C88.864,145.976 89.182,142.536 88.392,137.9 C87.601,133.258 92.328,127.934 92.8,127.073 C93.272,126.217 90.747,124.841 84.291,126.391" fill="#1D649F"/>
  </g>
</svg>
