<?xml version="1.0" encoding="UTF-8"?>
<!DOCTYPE svg PUBLIC "-//W3C//DTD SVG 1.1//EN" "http://www.w3.org/Graphics/SVG/1.1/DTD/svg11.dtd">
<svg version="1.1" xmlns="http://www.w3.org/2000/svg" xmlns:xlink="http://www.w3.org/1999/xlink" x="0" y="0" width="181.164" height="195.694" viewBox="0, 0, 181.164, 195.694">
  <g id="Calque_1">
    <path d="M22.222,168.5 C22.222,165.061 15.284,165.743 14.971,162.65 C14.652,159.557 9.926,161.286 5.2,165.061 C0.468,168.835 -1.113,169.523 0.781,173.304 C2.675,177.085 5.507,173.651 6.77,169.87 C8.032,166.09 11.194,175.368 8.35,181.553 C5.507,187.744 8.711,196.456 12.446,195.641 C15.602,194.959 19.702,182.582 24.434,176.05 C29.16,169.523 22.222,171.922 22.222,168.5 z M43.981,155.089 C42.719,158.875 38.937,157.158 33.892,158.187 C28.847,159.216 28.672,172.327 32.317,173.651 C35.149,174.68 37.361,174.68 38.306,170.558 C39.25,166.436 44.3,165.061 47.456,166.772 C50.607,168.5 54.707,161.615 54.707,156.465 C54.707,151.308 45.244,151.308 43.981,155.089 z M113.36,65.736 C110.209,67.458 107.997,78.112 111.472,81.199 C114.936,84.292 105.796,90.142 106.104,96.668 C106.422,103.201 100.428,103.201 99.478,108.005 C98.534,112.826 95.07,111.791 89.707,116.254 C84.355,120.722 81.506,115.566 82.769,112.479 C84.031,109.38 74.573,114.196 74.881,121.763 C75.204,129.318 66.059,130 68.261,133.44 C70.473,136.885 61.333,138.932 61.635,135.839 C61.959,132.752 55.959,134.48 48.718,137.567 C41.467,140.66 37.043,134.128 32.948,138.596 C28.847,143.071 21.904,150.973 16.546,152.002 C11.194,153.031 14.281,160.107 16.546,158.875 C20.334,156.806 26.328,158.875 28.222,155.777 C30.11,152.684 45.557,148.909 55.015,148.562 C64.473,148.216 58.803,153.366 59.434,158.875 C60.065,164.373 67.953,163.344 72.048,158.187 C76.149,153.031 79.3,153.366 75.83,150.273 C72.361,147.187 76.467,144.435 78.992,148.562 C81.506,152.684 89.394,153.031 92.545,147.533 C95.701,142.03 96.646,148.562 100.428,148.216 C104.215,147.874 106.422,137.567 106.74,141.342 C107.059,145.123 113.047,144.094 116.83,139.631 C120.617,135.157 117.148,127.254 119.668,123.133 C122.187,119.011 124.712,110.415 122.187,105.259 C119.668,100.108 127.868,96.668 131.964,92.541 C136.069,88.419 127.237,67.805 126.919,61.614 C126.606,55.428 116.511,64.019 113.36,65.736 z M171.387,18.657 C169.181,15.57 165.399,20.38 160.667,21.403 C155.935,22.432 141.114,9.038 137.327,2.847 C133.539,-3.333 127.237,1.823 130.393,6.286 C133.55,10.755 129.752,12.125 129.752,18.316 C129.752,24.496 125.975,24.496 126.606,28.623 C127.237,32.745 121.556,32.063 117.769,32.745 C113.992,33.438 118.092,37.566 113.673,39.63 C109.26,41.688 109.573,45.121 111.78,46.497 C113.992,47.867 112.416,52.336 111.78,55.428 C111.148,58.521 114.618,56.122 117.148,53.024 C119.668,49.937 122.299,54.515 122.824,51.648 C123.455,48.22 116.198,46.497 116.511,43.052 C116.83,39.63 121.556,44.087 125.343,42.029 C129.131,39.965 136.695,41.688 141.422,46.15 C146.153,50.619 147.421,48.908 148.365,43.404 C149.31,37.907 156.561,35.502 163.812,35.502 C171.069,35.502 171.695,31.71 169.488,29.999 C167.287,28.288 181.477,18.316 181.159,15.57 C180.846,12.818 173.594,21.756 171.387,18.657" fill="#1D649F"/>
  </g>
</svg>
