<?xml version="1.0" encoding="UTF-8"?>
<!DOCTYPE svg PUBLIC "-//W3C//DTD SVG 1.1//EN" "http://www.w3.org/Graphics/SVG/1.1/DTD/svg11.dtd">
<svg version="1.1" xmlns="http://www.w3.org/2000/svg" xmlns:xlink="http://www.w3.org/1999/xlink" x="0" y="0" width="433.716" height="220.046" viewBox="0, 0, 433.716, 220.046">
  <g id="Calque_1">
    <path d="M340.641,139.315 C331.814,139.315 312.256,134.505 304.374,143.789 C296.491,153.067 302.167,157.883 298.703,158.565 C294.974,159.305 293.022,144.471 297.43,139.662 C301.849,134.858 316.044,132.794 324.871,135.193 C333.703,137.604 349.468,133.141 351.68,133.829 C353.887,134.505 349.479,139.315 340.641,139.315 z M161.574,140.546 C160.311,142.436 147.84,138.916 146.801,136.141 C145.681,133.176 164.295,136.505 161.574,140.546 z M431.461,90.178 C431.154,87.779 429.249,88.802 427.679,89.831 C426.104,90.855 421.054,91.554 419.165,91.554 C417.272,91.554 413.808,88.802 413.808,86.739 C413.808,84.675 413.405,82.363 411.516,82.363 C409.628,82.363 406.784,81.322 404.896,76.426 C403.002,71.535 400.164,71.535 398.032,70.246 C395.905,68.951 389.995,72.558 387.391,73.587 C384.786,74.628 380.293,72.558 376.983,71.784 C373.668,71.015 371.779,64.569 368.708,65.344 C365.631,66.119 364.92,72.819 362.555,72.819 C360.189,72.819 355.934,59.419 351.436,51.938 C346.948,44.47 338.907,29.521 331.814,26.682 C324.717,23.844 326.839,19.982 328.738,17.919 C330.626,15.861 324.478,15.34 321.64,17.144 C318.802,18.948 315.259,22.301 311.949,23.075 C308.633,23.844 303.902,29.521 300.353,28.226 C296.804,26.937 295.149,33.128 292.316,30.29 C289.473,27.457 296.099,25.393 296.099,22.821 C296.099,20.237 291.606,23.595 290.423,22.046 C289.234,20.497 285.452,18.948 285.452,21.272 C285.452,23.595 282.376,22.301 282.376,20.497 C282.376,18.693 280.254,15.34 278.36,17.664 C276.466,19.982 270.079,21.272 268.663,19.468 C267.242,17.664 269.602,16.89 269.846,14.566 C270.079,12.248 267.48,9.155 267.952,6.322 C268.43,3.484 263.454,0.652 261.093,1.681 C258.728,2.715 255.412,1.681 252.813,0.397 C250.214,-0.898 240.045,1.172 239.567,3.744 C239.095,6.322 226.327,8.386 223.961,9.409 C221.595,10.444 212.132,11.993 208.822,12.508 C205.507,13.017 202.196,16.115 197.942,16.115 C193.688,16.115 185.641,16.63 181.859,19.722 C178.076,22.821 171.923,20.237 169.09,21.272 C166.252,22.301 161.521,20.751 160.099,21.786 C158.678,22.821 159.155,29 160.577,31.579 C161.993,34.163 169.563,35.186 170.035,36.735 C170.507,38.284 162.465,38.284 158.678,38.793 C154.901,39.313 155.845,44.47 156.789,47.042 C157.733,49.62 153.007,52.204 150.169,53.228 C147.331,54.257 150.169,59.419 153.007,59.419 C155.845,59.419 158.211,61.991 160.577,61.991 C162.942,61.991 163.409,67.148 163.409,70.246 C163.409,73.333 160.577,74.362 156.789,74.362 C153.007,74.362 151.113,71.275 148.747,70.755 C146.387,70.246 146.859,75.397 144.96,76.426 C143.077,77.461 142.599,72.819 139.767,72.819 C136.923,72.819 133.613,72.304 132.669,69.206 C131.72,66.119 125.094,65.598 122.261,68.697 C119.423,71.784 118.474,70.246 116.113,68.177 C113.742,66.119 106.65,69.206 105.706,71.784 C104.762,74.362 99.558,75.397 95.77,72.819 C91.983,70.246 89.622,69.206 89.622,72.819 C89.622,76.426 86.779,73.333 86.779,71.275 C86.779,69.206 80.631,65.09 77.793,63.026 C74.955,60.962 65.974,60.962 65.497,58.899 C65.019,56.841 59.349,55.291 57.932,58.899 C56.506,62.511 54.145,59.933 52.251,58.899 C50.358,57.87 46.103,60.448 44.209,61.477 C42.321,62.511 36.168,67.148 32.858,67.148 C29.548,67.148 31.436,71.784 27.182,72.819 C22.922,73.853 23.872,76.94 24.344,79.004 C24.816,81.068 27.182,84.675 23.394,86.224 C19.612,87.768 18.19,81.068 14.88,78.49 C11.57,75.911 8.732,79.004 8.732,82.617 C8.732,86.224 4.95,86.224 3.051,89.831 C1.168,93.439 6.366,93.953 6.366,95.502 C6.366,97.052 3.528,98.589 2.584,99.11 C1.64,99.63 -0.726,104.78 0.218,106.324 C1.168,107.873 6.839,107.359 6.366,110.966 C5.894,114.573 5.422,118.18 8.26,117.151 C11.098,116.122 13.936,116.631 15.825,116.631 C17.724,116.631 19.14,120.758 22.45,124.886 C25.765,129.008 27.182,131.066 23.872,132.1 C20.556,133.129 21.978,135.193 26.237,137.257 C27.362,137.8 28.54,138.627 29.68,139.5 C30.37,139.003 31.028,138.494 31.6,137.945 C36.958,132.794 46.74,127.973 53.991,130.042 C61.243,132.1 67.237,128.667 70.393,133.476 C73.533,138.28 70.382,147.223 71.645,150.662 C72.907,154.096 65.974,154.443 61.243,153.749 C56.506,153.067 46.729,155.819 47.997,158.906 C49.259,161.998 52.729,169.224 46.416,165.438 C40.12,161.657 37.589,169.213 41.059,169.213 C44.528,169.213 49.259,173.687 49.259,176.78 C49.259,179.873 49.572,186.74 52.729,185.705 C55.88,184.682 55.88,190.862 60.293,190.521 C64.712,190.185 68.807,191.902 65.338,196.365 C61.874,200.839 67.539,213.204 68.807,210.459 C69.603,208.73 68.902,204.973 70.149,202.585 C67.682,196.273 78.138,196.249 81.167,196.249 C84.53,196.249 90.428,201.753 94.216,207.268 C98.003,212.771 101.796,209.1 101.796,209.1 L103.059,157.709 L130.038,149.87 C130.298,149.136 130.584,148.466 130.929,147.911 C134.404,142.407 139.072,146.957 140.706,148.258 C142.079,149.333 141.337,142.419 145.119,142.76 C148.901,143.101 144.806,149.622 147.649,149.622 C149.856,149.622 154.906,158.166 153.32,164.877 C157.521,168.641 165.117,177.497 165.796,179.728 C166.64,182.48 177.588,177.901 179.694,178.809 C181.806,179.728 198.223,179.728 201.178,179.728 C204.122,179.728 206.217,185.694 209.591,186.613 C212.965,187.532 211.697,193.498 212.116,197.619 C212.54,201.753 217.601,205.892 218.015,209.563 C218.439,213.222 223.908,211.401 227.282,212.314 C230.656,213.228 235.695,214.603 236.119,218.274 C236.538,221.951 240.756,219.193 241.175,216.436 C241.594,213.69 245.811,210.025 252.118,207.268 C254.967,206.025 256.844,206.031 258.271,206.62 C259.444,203.325 260.653,200.539 261.491,200.146 C263.693,199.117 267.793,195.683 268.117,192.243 C268.43,188.81 276.944,188.81 282.614,191.897 C288.296,194.989 291.765,195.001 292.083,190.185 C292.391,185.37 300.586,183.994 303.122,185.37 C305.636,186.74 313.524,191.561 317.306,189.833 C321.094,188.116 340.015,190.185 344.747,191.561 C349.479,192.926 350.736,189.498 354.836,194.648 C358.274,198.978 359.955,195.088 363.769,198.423 C363.753,197.105 363.504,195.452 363.504,193.694 C363.504,190.347 368.236,187.515 369.18,184.936 C370.124,182.358 364.92,174.624 364.92,172.045 C364.92,169.473 364.92,163.288 362.555,161.998 C360.189,160.709 367.048,157.356 368.681,157.449 C372.193,157.634 377.195,153.651 378.723,155.304 C380.251,156.975 383.306,157.449 386.362,157.449 C389.412,157.449 388.107,153.651 386.362,151.98 C384.611,150.31 391.815,134.858 392.908,129.62 C393.995,124.383 396.621,129.146 400.111,129.62 C403.607,130.089 407.75,129.378 409.93,130.568 C412.116,131.753 418.449,129.146 419.977,126.528 C421.505,123.909 418.226,123.192 418.449,117.25 C418.672,111.301 421.945,108.44 425.43,108.44 C428.926,108.44 430.019,104.879 430.019,102.029 C430.019,99.445 432.857,97.815 433.716,94.543 C432.586,93.236 431.636,91.508 431.461,90.178" fill="#1D649F"/>
  </g>
</svg>
