<?xml version="1.0" encoding="UTF-8"?>
<!DOCTYPE svg PUBLIC "-//W3C//DTD SVG 1.1//EN" "http://www.w3.org/Graphics/SVG/1.1/DTD/svg11.dtd">
<svg version="1.1" xmlns="http://www.w3.org/2000/svg" xmlns:xlink="http://www.w3.org/1999/xlink" x="0" y="0" width="78.248" height="103.565" viewBox="0, 0, 78.248, 103.565">
  <g id="Calque_1">
    <path d="M53.253,47.362 C53.253,44.414 40.416,39.997 41.768,36.315 C43.121,32.644 49.879,34.846 49.879,31.164 C49.879,27.488 47.174,27.488 46.5,22.325 C45.832,17.175 41.095,18.649 39.068,20.123 C37.037,21.603 30.279,18.649 30.279,14.966 C30.279,11.284 24.873,9.076 24.873,6.133 C24.873,4.44 22.873,2.249 21.027,0 C19.314,0.936 17.564,1.145 16.778,0.289 C15.516,-1.087 13.829,4.873 15.097,6.249 C16.359,7.631 18.041,16.348 14.678,15.435 C11.304,14.515 11.304,9.469 9.193,9.926 C9.193,9.926 3.729,16.81 3.729,19.568 C3.729,21.418 1.634,22.036 0,22.932 C0.976,23.875 1.804,24.73 2.085,25.198 C3.002,26.678 1.639,30.65 2.992,34.124 C4.36,37.592 8.917,32.141 10.275,37.101 C11.649,42.055 9.373,44.541 9.373,49.495 C9.373,54.461 5.729,53.969 6.641,58.432 C7.548,62.889 12.556,57.443 16.195,54.461 C19.839,51.472 22.576,51.975 23.934,53.969 C25.303,55.952 29.854,54.461 30.767,51.975 C31.679,49.506 38.501,48.506 40.776,51.483 C43.057,54.461 45.328,57.935 48.511,59.918 C51.699,61.895 46.24,72.814 49.423,73.809 C52.611,74.797 57.162,80.254 56.712,86.209 C56.319,91.324 58.939,94.984 55.338,99.383 C57.576,100.967 60.266,100.949 59.894,102.574 C59.443,104.557 63.082,103.562 63.082,99.603 C63.082,95.631 68.085,96.123 70.366,97.123 C72.153,97.897 75.32,97.724 77.93,95.481 C77.93,93.695 78.052,92.082 78.248,90.793 C78.922,86.382 78.248,81.226 76.227,79.011 C74.195,76.809 68.79,74.595 67.437,70.184 C66.095,65.768 60.011,61.345 58.658,57.663 C57.306,53.987 53.253,50.298 53.253,47.362" fill="#1D649F"/>
  </g>
</svg>
