<?xml version="1.0" encoding="UTF-8"?>
<!DOCTYPE svg PUBLIC "-//W3C//DTD SVG 1.1//EN" "http://www.w3.org/Graphics/SVG/1.1/DTD/svg11.dtd">
<svg version="1.1" xmlns="http://www.w3.org/2000/svg" xmlns:xlink="http://www.w3.org/1999/xlink" x="0" y="0" width="161.313" height="169.463" viewBox="0, 0, 161.313, 169.463">
  <g id="Calque_1">
    <path d="M17.839,9.665 C16.741,10.174 11.06,16.706 9.644,18.082 C8.227,19.458 8.063,21.863 8.699,23.233 C9.325,24.609 8.227,29.598 6.806,32.517 C5.384,35.442 0.339,37.5 0.021,39.217 C-0.287,40.939 2.859,44.882 4.917,49.871 C6.959,54.854 2.859,58.293 4.594,62.074 C6.333,65.849 5.384,67.912 3.808,69.976 C2.228,72.04 3.808,75.3 3.808,77.191 C3.808,79.081 6.015,81.832 5.384,82.515 C4.758,83.208 0.758,86.55 0.758,88.266 C0.758,89.978 3.119,91.694 5.474,95.556 C7.835,99.406 6.265,101.556 6.657,104.551 C7.05,107.557 10.986,109.274 14.131,109.274 C17.282,109.274 19.245,111.84 21.998,111.84 C24.449,111.84 25.966,116.257 27.377,121.749 C28.549,121.766 38.766,121.939 42.999,125.021 C47.497,128.292 49.746,132.374 49.746,132.374 L67.74,121.749 L149.155,169.463 L149.155,163.312 L159.021,163.312 C159.021,163.312 159.021,57.235 159.021,49.35 C159.021,41.471 155.732,36.448 159.021,32.147 C162.31,27.852 157.706,25.701 160.337,17.816 C160.65,16.891 160.968,15.92 161.313,14.926 C161.212,14.776 161.063,14.631 161.01,14.475 C160.215,12.076 155.96,11.891 146.661,10.348 C137.357,8.804 140.821,1.931 130.413,1.243 C120.006,0.549 106.766,9.665 106.612,14.475 C106.458,19.29 111.492,24.609 108.028,29.598 C104.559,34.575 97,35.089 91.626,29.765 C86.269,24.441 78.386,22.03 71.925,22.03 C65.459,22.03 60.886,17.568 61.353,13.787 C61.83,10.012 59.783,8.284 54.425,7.087 C49.062,5.885 44.495,1.069 35.037,2.792 C29.971,3.705 25.674,2.058 22.735,0 C22.512,2.237 22.348,4.549 22.412,6.052 C22.566,9.845 18.943,9.145 17.839,9.665" fill="#1D649F"/>
  </g>
</svg>
