<?xml version="1.0" encoding="UTF-8"?>
<!DOCTYPE svg PUBLIC "-//W3C//DTD SVG 1.1//EN" "http://www.w3.org/Graphics/SVG/1.1/DTD/svg11.dtd">
<svg version="1.1" xmlns="http://www.w3.org/2000/svg" xmlns:xlink="http://www.w3.org/1999/xlink" x="0" y="0" width="61.128" height="40.915" viewBox="0, 0, 61.128, 40.915">
  <g id="Calque_1">
    <path d="M7.934,20.055 C9.111,21.864 12.899,23.408 14.321,22.633 C15.732,21.864 20.23,24.437 20.23,26.495 C20.23,28.558 19.047,34.749 20.23,34.749 C21.301,34.749 28.113,37.056 28.579,40.16 C31.629,40.235 35.104,40.409 36.398,40.761 C38.923,41.444 40.493,39.732 41.756,38.016 C43.018,36.299 47.427,35.611 48.689,35.611 C49.957,35.611 49.957,31.83 50.265,30.102 C50.588,28.396 53.739,25.298 55.633,24.616 C57.527,23.928 57.208,21.517 59.097,21.517 C60.996,21.517 60.672,18.766 60.359,17.049 C60.174,16.002 60.396,14.696 61.128,13.378 C59.097,12.095 57.267,10.979 55.728,9.58 C52.832,6.95 48.01,3.267 45.607,3.793 C43.194,4.325 43.194,-0.409 39.342,1.169 C35.486,2.747 28.733,1.169 25.842,1.169 C22.956,1.169 13.79,-1.461 10.416,1.169 C8.48,2.666 5.122,3.302 1.971,3.574 C4.125,8.372 3.335,13.222 0.916,16.187 C-0.803,18.303 0.2,18.586 1.457,19.419 C4.046,19.153 6.984,18.604 7.934,20.055" fill="#1D649F"/>
  </g>
</svg>
