<?xml version="1.0" encoding="UTF-8"?>
<!DOCTYPE svg PUBLIC "-//W3C//DTD SVG 1.1//EN" "http://www.w3.org/Graphics/SVG/1.1/DTD/svg11.dtd">
<svg version="1.1" xmlns="http://www.w3.org/2000/svg" xmlns:xlink="http://www.w3.org/1999/xlink" x="0" y="0" width="77.147" height="165.033" viewBox="0, 0, 77.147, 165.033">
  <g id="Calque_1">
    <path d="M65.357,2.041 C63.946,-3.601 62.827,4.099 61.575,5.469 C60.313,6.845 59.682,10.972 59.989,13.718 C60.313,16.475 56.207,19.221 53.693,18.874 C51.168,18.528 47.067,20.25 48.33,24.031 C49.582,27.812 46.436,27.124 48.011,30.211 C49.582,33.309 44.547,37.09 40.123,37.431 C35.71,37.778 30.039,46.374 25.308,45.68 C20.571,44.998 15.844,49.114 11.744,48.432 C7.638,47.738 10.481,57.715 7.325,63.901 C4.174,70.08 5.75,77.295 8.588,84.85 C11.426,92.417 13.638,98.603 6.063,108.569 C-1.502,118.541 -0.876,129.536 1.967,136.403 C4.805,143.276 4.805,153.589 8.906,158.405 C13.012,163.22 24.358,167.336 27.827,163.555 C31.291,159.781 34.941,164.07 38.861,159.087 C42.643,154.277 48.956,127.819 54.313,110.286 C59.671,92.764 66.615,69.734 65.983,64.93 C65.357,60.114 69.771,57.022 67.877,51.859 C65.983,46.703 68.508,40.523 70.715,44.645 C72.927,48.773 76.073,48.773 77.022,43.281 C77.966,37.778 73.235,29.182 72.927,21.279 C72.609,13.377 66.302,5.816 65.357,2.041" fill="#1D649F"/>
  </g>
</svg>
