<?xml version="1.0" encoding="UTF-8"?>
<!DOCTYPE svg PUBLIC "-//W3C//DTD SVG 1.1//EN" "http://www.w3.org/Graphics/SVG/1.1/DTD/svg11.dtd">
<svg version="1.1" xmlns="http://www.w3.org/2000/svg" xmlns:xlink="http://www.w3.org/1999/xlink" x="0" y="0" width="206.068" height="68.422" viewBox="0, 0, 206.068, 68.422">
  <g id="Calque_1">
    <path d="M198.636,11.683 C195.804,12.365 189.178,12.024 189.178,8.931 C189.178,5.839 183.184,-0 179.402,-0 C175.614,-0 171.195,8.243 170.888,11.683 C170.575,15.122 164.575,14.776 165.207,19.579 C165.456,21.481 164.337,22.291 162.894,22.788 C163.859,26.938 164.4,29.933 163,29.551 C160.48,28.863 159.844,32.303 156.067,32.303 C154.767,32.303 152.587,28.742 150.285,24.1 C150.216,24.088 150.136,24.054 150.073,24.054 C147.553,24.054 141.877,33.673 140.614,40.205 C139.352,46.737 133.681,44.674 125.162,45.356 C116.648,46.05 120.112,55.669 118.224,60.143 C116.494,64.224 107.142,56.842 102.411,55.796 C103.206,59.478 104.32,63.23 105.604,63.23 C108.129,63.23 111.917,70.103 114.436,68.034 C116.961,65.982 124.52,68.034 128.308,66.664 C132.095,65.299 132.726,61.854 139.039,61.854 C145.341,61.854 142.821,67.357 149.123,63.918 C155.435,60.478 159.223,63.23 158.581,57.045 C157.955,50.865 162.369,50.865 161.737,46.05 C161.111,41.234 168.686,44.674 168.039,35.731 C167.419,26.8 179.402,28.181 184.441,28.181 C185.608,28.181 187.422,28.933 189.491,30.048 C193.225,28.042 198.578,25.401 196.111,23.025 C193.279,20.279 204.63,22.678 205.888,18.556 C207.15,14.429 201.474,10.989 198.636,11.683 z M37.339,24.904 C37.498,17.175 30.714,18.042 29.138,12.718 C27.557,7.388 24.879,10.475 23.929,7.041 C23.791,6.532 23.489,5.966 23.112,5.382 C19.542,6.631 20.831,9.856 19.829,10.07 C18.518,10.365 11.426,11.22 11.426,8.931 C11.426,6.642 10.381,2.931 6.19,2.075 C4.042,1.63 1.91,1.503 -0,1.624 C2.525,7.74 2.843,14.215 2.955,19.412 C3.124,26.285 12.418,37.286 13.84,41.749 C15.261,46.217 17.94,47.593 24.094,52.408 C30.242,57.218 42.225,64.947 44.585,63.75 C46.951,62.542 40.962,51.2 37.493,47.258 C34.024,43.298 37.175,32.638 37.339,24.904" fill="#1D649F"/>
  </g>
</svg>
