<?xml version="1.0" encoding="UTF-8"?>
<!DOCTYPE svg PUBLIC "-//W3C//DTD SVG 1.1//EN" "http://www.w3.org/Graphics/SVG/1.1/DTD/svg11.dtd">
<svg version="1.1" xmlns="http://www.w3.org/2000/svg" xmlns:xlink="http://www.w3.org/1999/xlink" x="0" y="0" width="33.376" height="88.477" viewBox="0, 0, 33.376, 88.477">
  <g id="Calque_1">
    <path d="M32.103,58.437 C30.671,56.529 27.971,53.853 25.636,51.65 C25.69,52.5 25.599,53.182 25.313,53.616 C22.544,57.992 14.677,44.343 13.733,35.834 C12.778,27.325 18.221,23.197 14.911,15.208 C12.147,8.532 10.423,2.103 12.402,0.15 C10.593,-0.093 7.537,0.005 5.214,0.126 C6.938,3.236 9.436,9.399 9.436,11.48 C9.436,13.85 6.71,10.879 5.617,13.85 C4.524,16.833 3.983,30.51 6.158,32.88 C8.343,35.268 1.792,33.487 1.792,35.869 C1.792,38.239 1.251,46.569 0.158,47.164 C-0.452,47.494 0.811,49.529 2.047,52.275 C2.063,52.275 2.132,52.246 2.137,52.246 C3.087,52.246 7.505,58.084 9.399,57.738 C11.293,57.396 16.963,54.31 17.913,59.119 C18.863,63.923 15.075,72.172 15.701,74.23 C16.332,76.3 24.846,90.046 25.483,88.329 C26.109,86.607 23.589,80.421 26.422,77.67 C29.265,74.935 32.734,78.357 32.41,70.12 C32.103,61.865 34.941,62.212 32.103,58.437" fill="#1D649F"/>
  </g>
</svg>
