<?xml version="1.0" encoding="UTF-8"?>
<!DOCTYPE svg PUBLIC "-//W3C//DTD SVG 1.1//EN" "http://www.w3.org/Graphics/SVG/1.1/DTD/svg11.dtd">
<svg version="1.1" xmlns="http://www.w3.org/2000/svg" xmlns:xlink="http://www.w3.org/1999/xlink" x="0" y="0" width="129.104" height="154.659" viewBox="0, 0, 129.104, 154.659">
  <g id="Calque_1">
    <path d="M9.666,133.645 C13.416,134.466 19.415,133.645 19.415,133.645 C19.415,133.645 24.662,131.194 27.664,132.825 C30.656,134.466 33.658,138.548 33.658,138.548 L37.403,138.548 C37.403,138.548 40.406,147.537 44.904,149.167 C47.493,150.115 49.068,152.658 49.959,154.659 C53.163,154.572 55.646,153.421 55.646,150.907 C55.646,147.779 57.089,143.611 61.868,148.305 C66.653,152.994 66.653,148.82 67.608,147.253 C68.568,145.698 71.915,147.779 74.78,147.779 C77.649,147.779 81.479,145.698 81.479,145.698 C81.479,145.698 121.184,146.219 123.099,145.172 C125.004,144.132 124.531,135.27 124.531,135.27 L121.184,131.628 L111.137,28.933 L129.104,28.933 C109.928,15.117 93.489,3.388 91.399,2.087 C90.258,1.376 89.67,0.676 89.304,0 C89.489,8.099 89.601,16.342 89.065,16.735 C88.02,17.493 53.254,16.735 53.254,16.735 C53.254,16.735 53.254,45.154 53.254,47.801 C53.254,50.455 42.119,53.859 42.119,56.513 C42.119,59.166 42.119,74.705 42.119,74.705 L0.059,74.705 C-0.546,82.191 3.645,84.844 6.037,87.827 C9.347,91.949 3.518,99.163 8.403,106.551 C13.289,113.945 7.305,125.286 4.934,129.414 C3.65,131.657 3.518,135.542 3.12,139.519 C3.321,139.467 3.549,139.397 3.666,139.363 C6.669,138.548 5.921,132.825 9.666,133.645" fill="#1D649F"/>
  </g>
</svg>
