<?xml version="1.0" encoding="UTF-8"?>
<!DOCTYPE svg PUBLIC "-//W3C//DTD SVG 1.1//EN" "http://www.w3.org/Graphics/SVG/1.1/DTD/svg11.dtd">
<svg version="1.1" xmlns="http://www.w3.org/2000/svg" xmlns:xlink="http://www.w3.org/1999/xlink" x="0" y="0" width="324.15" height="220.091" viewBox="0, 0, 324.15, 220.091">
  <g id="Calque_1">
    <path d="M270.407,207.541 C271.543,207.292 283.42,209.038 284.56,205.801 C285.701,202.57 275.659,195.355 276.799,194.604 C277.935,193.858 278.396,185.892 280.221,185.892 C282.046,185.892 298.713,186.395 299.625,185.892 C300.543,185.401 303.736,178.926 306.479,178.678 C307.731,178.574 309.683,180.233 311.449,182.059 C314.521,178.955 315.608,171.96 316.191,166.289 C316.902,159.329 314.77,157.006 318.08,153.144 C321.395,149.271 324.939,149.017 323.995,143.606 C323.045,138.189 318.557,143.606 314.77,141.033 C310.988,138.449 307.672,140.259 297.975,141.802 C288.279,143.346 283.786,147.733 284.258,155.202 C284.73,162.682 280.948,159.329 281.186,165.769 C281.42,172.215 273.617,172.469 274.089,176.342 C274.566,180.204 267.941,176.342 266.047,175.047 C264.159,173.764 243.815,180.464 240.978,180.978 C238.14,181.493 232.936,174.539 228.915,174.793 C224.894,175.047 223.239,168.347 222.767,162.937 C222.295,157.526 214.725,152.624 211.415,147.733 C208.1,142.831 207.633,132.004 207.394,125.044 C207.155,118.089 206.445,106.227 210.943,92.573 C211.542,90.735 211.823,89.145 211.898,87.723 C210.264,86.625 208.667,85.833 207.458,85.908 C203.421,86.185 194.324,80.127 192.552,80.127 C190.785,80.127 191.035,75.451 189.518,72.965 C188.006,70.491 189.014,65.802 186.993,64.155 C184.972,62.507 178.908,56.172 176.887,48.46 C174.866,40.749 162.485,36.899 157.934,36.627 C153.388,36.344 150.858,46.818 149.6,47.362 C148.338,47.911 139.744,41.853 137.219,40.477 C134.689,39.101 133.427,36.344 133.427,33.043 C133.427,29.736 128.122,24.499 126.605,23.961 C125.088,23.406 114.479,12.116 114.479,12.116 L97.801,12.116 L94.263,17.065 L63.947,17.342 C63.947,17.342 40.702,7.983 36.405,6.891 C32.109,5.787 24.528,0 24.528,0 L-0,3.509 C1.262,6.44 3.013,9.625 5.644,13.186 C10.615,19.892 14.163,31.742 14.635,35.864 C15.108,39.991 21.966,43.344 27.881,47.472 C33.796,51.588 33.796,60.611 33.085,62.929 C32.374,65.247 25.043,61.386 24.571,63.704 C24.094,66.022 34.029,75.046 37.811,74.531 C41.599,74.011 43.492,76.589 49.402,82.266 C55.316,87.931 54.844,94.631 52.478,96.695 C50.113,98.759 57.21,103.14 64.775,108.545 C72.344,113.962 75.421,120.662 76.126,123.494 C76.837,126.339 80.147,123.76 81.33,119.887 C82.513,116.026 78.97,114.997 78.97,110.615 C78.97,106.227 72.816,107.002 69.978,106.493 C67.14,105.973 70.217,99.273 67.379,96.18 C64.536,93.088 61.937,85.353 60.52,79.682 C59.099,74.011 51.768,68.346 48.696,62.161 C45.62,55.969 42.31,51.079 40.177,49.53 C38.05,47.98 43.254,45.662 41.36,43.344 C39.466,41.026 36.628,41.28 33.085,39.471 C29.536,37.673 27.17,34.586 27.17,30.459 C27.17,26.331 24.804,16.539 23.621,13.186 C22.438,9.833 26.226,10.353 27.404,11.897 C28.592,13.44 29.536,14.99 31.191,13.961 C32.846,12.932 35.684,13.7 36.867,16.539 C38.05,19.371 42.071,16.793 43.965,18.088 C45.853,19.371 39.705,20.921 45.853,32.777 C52.006,44.633 47.747,37.933 47.747,45.922 C47.747,53.911 51.534,50.304 52.712,49.015 C53.9,47.726 57.21,51.588 60.282,55.715 C63.358,59.842 69.268,60.097 69.268,62.415 C69.268,64.733 70.45,69.375 74.471,70.15 C78.492,70.924 79.203,75.815 81.802,76.335 C84.407,76.849 84.879,79.942 83.457,83.289 C82.041,86.642 83.457,89.48 90.083,92.313 C96.703,95.151 93.632,95.666 98.835,101.077 C104.039,106.493 118.701,124.015 121.772,128.917 C124.854,133.813 125.799,137.929 126.976,141.542 C128.165,145.149 124.616,146.959 126.509,150.045 C128.398,153.144 122.961,151.855 123.194,154.173 C123.428,156.491 126.509,168.087 131.708,168.608 C136.912,169.122 142.826,176.076 147.081,179.949 C151.34,183.811 157.722,183.036 164.114,185.62 C170.501,188.193 175.932,194.378 185.162,197.217 C194.382,200.055 203.373,204.431 209.288,208.558 C215.197,212.68 222.533,210.882 230.809,207.269 C239.089,203.662 245.471,208.292 250.202,210.362 C252.536,211.379 257.109,215.646 261.681,220.091 C265.861,213.565 269.872,207.662 270.407,207.541" fill="#1D649F"/>
  </g>
</svg>
