<?xml version="1.0" encoding="UTF-8"?>
<!DOCTYPE svg PUBLIC "-//W3C//DTD SVG 1.1//EN" "http://www.w3.org/Graphics/SVG/1.1/DTD/svg11.dtd">
<svg version="1.1" xmlns="http://www.w3.org/2000/svg" xmlns:xlink="http://www.w3.org/1999/xlink" x="0" y="0" width="334.857" height="155.877" viewBox="0, 0, 334.857, 155.877">
  <g id="Calque_1">
    <path d="M321.077,65.217 C317.645,60.732 312.149,62.98 310.781,66.72 C309.402,70.461 306.648,65.217 300.474,65.217 C294.283,65.217 293.599,68.963 289.478,64.472 C285.366,59.986 290.851,58.483 290.851,58.483 L291.541,52.494 L300.071,33.903 C297.636,32.816 294.066,32.388 292.353,33.088 C289.828,34.117 283.839,33.441 283.207,31.03 C282.576,28.619 272.487,28.278 269.962,30.342 C267.442,32.406 261.766,34.117 261.453,36.527 C261.13,38.938 255.146,38.244 252.934,39.961 C250.727,41.684 239.37,42.372 239.063,43.748 C238.75,45.123 226.766,45.465 224.873,43.748 C222.979,42.031 212.571,43.748 211.309,40.99 C210.041,38.244 205.628,36.869 205.628,34.47 C205.628,32.059 197.745,32.059 196.801,30.001 C195.851,27.937 189.549,26.903 188.605,27.59 C187.656,28.278 180.712,25.527 178.829,25.186 C176.935,24.839 170.946,26.556 169.052,26.556 C167.159,26.556 163.689,30.342 161.488,30.677 C159.276,31.03 153.282,26.556 152.025,27.59 C150.762,28.619 146.975,24.157 145.404,22.099 C143.818,20.029 145.404,14.185 144.142,12.127 C142.885,10.063 135.946,10.063 133.734,8.693 C131.528,7.312 128.053,5.254 125.841,5.254 C123.64,5.254 120.17,4.571 119.221,3.537 C118.282,2.502 113.55,0.785 111.349,0.097 C109.137,-0.585 108.819,2.502 107.561,3.878 C106.299,5.254 102.511,5.6 101.886,7.999 C101.249,10.404 96.836,11.092 97.467,13.844 C98.103,16.595 99.679,22.099 101.249,23.463 C102.83,24.839 101.886,28.96 100.941,30.342 C99.986,31.712 93.366,32.741 92.104,35.157 C90.852,37.562 87.696,34.805 84.539,32.741 C81.383,30.677 77.596,32.059 76.026,33.441 C74.45,34.805 68.774,30.001 67.188,29.654 C65.618,29.313 65.3,22.781 63.719,23.128 C62.154,23.463 51.105,21.064 48.903,20.37 C46.691,19.688 41.965,20.029 41.339,21.746 C40.702,23.475 35.026,23.128 34.082,25.186 C33.133,27.249 28.719,28.278 27.149,30.342 C25.563,32.406 20.205,32.406 18.943,35.493 C17.691,38.591 11.065,39.961 9.172,40.302 C7.278,40.655 2.233,41.684 1.915,43.395 C1.782,44.135 0.987,44.233 -0,44.106 C0.117,44.569 0.26,44.979 0.345,45.493 C1.655,53.332 4.71,53.107 7.989,56.199 C11.267,59.286 14.094,61.668 17.585,61.911 C21.08,62.154 26.321,66.657 26.756,69.998 C27.191,73.316 30.464,77.126 32.432,78.796 C34.395,80.461 31.78,86.173 31.78,90.45 C31.78,94.728 26.979,95.682 29.377,99.971 C31.78,104.249 48.585,106.382 53.386,106.382 C58.186,106.382 59.937,111.383 61.39,111.643 C64.414,112.186 64.817,116.129 68.26,116.88 C71.692,117.626 75.129,119.875 76.503,126.621 C77.872,133.349 81.999,135.598 82.683,138.598 C83.372,141.593 90.932,139.344 96.422,140.096 C101.923,140.847 117.725,140.096 121.847,140.847 C125.968,141.593 135.586,140.847 141.081,145.333 C146.582,149.825 149.325,146.079 152.767,148.327 C156.205,150.565 158.942,152.068 163.753,151.316 C168.564,150.565 168.559,155.068 171.996,155.819 C175.429,156.571 181.619,149.825 190.552,145.333 C199.474,140.847 209.786,143.836 214.592,144.587 C219.398,145.333 228.331,142.344 233.827,135.598 C239.328,128.869 246.192,130.355 246.882,124.366 C247.571,118.377 241.391,116.129 244.128,110.891 C246.882,105.654 251.693,106.4 254.446,107.903 C257.183,109.394 264.747,111.643 271.617,106.4 C278.486,101.162 281.234,101.914 287.414,101.162 C293.599,100.411 292.91,95.919 297.037,91.427 C301.164,86.936 305.964,85.433 310.096,85.433 C314.213,85.433 319.703,80.941 323.835,82.438 C327.957,83.936 334.132,84.687 334.827,80.941 C335.511,77.207 324.514,69.709 321.077,65.217" fill="#1D649F"/>
  </g>
</svg>
