<?xml version="1.0" encoding="UTF-8"?>
<!DOCTYPE svg PUBLIC "-//W3C//DTD SVG 1.1//EN" "http://www.w3.org/Graphics/SVG/1.1/DTD/svg11.dtd">
<svg version="1.1" xmlns="http://www.w3.org/2000/svg" xmlns:xlink="http://www.w3.org/1999/xlink" x="0" y="0" width="128.155" height="110.529" viewBox="0, 0, 128.155, 110.529">
  <g id="Calque_1">
    <path d="M47.306,110.529 C47.131,102.916 46.893,95.413 47.068,94.678 C47.413,93.158 61.666,84.071 64.106,82.55 C66.536,81.036 71.05,83.308 71.05,80.278 C71.05,77.249 76.959,78.77 80.444,78.007 C83.914,77.249 85.998,74.596 85.998,71.185 C85.998,67.775 90.868,68.532 93.998,68.15 C97.133,67.775 96.777,64.746 98.867,64.746 C100.952,64.746 99.912,61.341 100.257,57.549 C100.602,53.762 100.602,54.519 103.732,54.519 C106.856,54.519 109.991,52.623 109.991,50.351 C109.991,48.074 123.55,49.588 125.64,49.588 C127.724,49.588 128.419,46.941 128.069,45.045 C127.724,43.154 125.99,37.466 123.894,37.09 C121.81,36.709 123.199,31.032 123.199,26.483 C123.199,21.939 122.505,17.765 120.075,14.36 C119.566,13.638 118.956,12.331 118.319,10.782 C114.516,10.863 109.911,7.747 105.949,7.62 C100.427,7.452 91.913,10.551 87.818,5.562 C83.717,0.573 80.879,-0.97 77.887,0.573 C74.89,2.123 69.374,19.315 66.212,24.286 C63.061,29.275 54.234,32.714 49.975,32.714 C45.72,32.714 45.248,39.755 41.938,42.675 C38.623,45.594 39.891,50.242 35.939,53.67 C32.003,57.109 33.891,67.59 35.939,71.37 C37.986,75.151 28.687,87.007 23.33,90.447 C17.967,93.881 16.237,100.407 7.724,101.956 C4.413,102.563 1.926,104.107 0,106.078 C13.256,106.078 32.92,106.078 39.652,106.078 C47.874,106.078 45.986,108.09 47.306,110.529" fill="#1D649F"/>
  </g>
</svg>
