<?xml version="1.0" encoding="UTF-8"?>
<!DOCTYPE svg PUBLIC "-//W3C//DTD SVG 1.1//EN" "http://www.w3.org/Graphics/SVG/1.1/DTD/svg11.dtd">
<svg version="1.1" xmlns="http://www.w3.org/2000/svg" xmlns:xlink="http://www.w3.org/1999/xlink" x="0" y="0" width="112.808" height="199.159" viewBox="0, 0, 112.808, 199.159">
  <g id="Calque_1">
    <path d="M112.733,50.957 C111.635,47.865 109.423,33.939 110.049,28.279 C110.686,22.603 109.11,7.66 109.11,0.445 C109.11,0.277 109.084,0.15 109.079,-0 C103.859,2.584 98.252,5.544 97.759,6.625 C96.809,8.683 92.714,6.284 90.184,8.683 C87.664,11.093 86.094,9.035 83.887,8.347 C81.686,7.665 80.725,10.752 80.418,12.81 C80.1,14.874 75.686,13.839 74.105,13.498 C72.525,13.157 67.485,14.874 64.96,14.874 C62.44,14.874 64.329,12.475 61.496,11.446 C58.658,10.411 56.765,12.81 55.184,12.81 C54.229,12.81 51.285,12.434 49.131,12.134 C49.094,13.718 48.93,15.122 48.564,16.163 C46.516,21.984 52.823,35.164 53.136,40.743 C55.47,42.945 58.17,45.622 59.603,47.529 C62.44,51.304 59.603,50.957 59.91,59.212 C60.234,67.45 56.765,64.028 53.921,66.762 C51.089,69.514 53.608,75.699 52.982,77.422 C52.346,79.139 43.832,65.392 43.201,63.322 C42.575,61.265 46.362,53.015 45.413,48.212 C44.463,43.402 38.793,46.489 36.899,46.83 C35.005,47.177 30.586,41.338 29.637,41.338 C28.698,41.338 0,53.015 0,53.015 L2.201,61.617 L1.581,61.629 L3.151,65.392 C3.151,65.392 12.609,65.906 16.869,68.999 C21.123,72.092 27.748,72.606 29.165,73.641 C30.586,74.664 29.165,86.012 29.637,91.683 C30.114,97.354 23.966,98.897 26.799,101.99 C29.637,105.083 28.22,110.245 30.114,110.754 C32.008,111.268 26.799,117.968 24.433,119.517 C22.067,121.067 24.433,126.737 21.6,130.853 C19.781,133.501 14.482,138.675 10.779,142.594 C10.959,142.704 11.118,142.82 11.193,142.97 C12.137,144.773 14.975,162.815 17.813,164.619 C20.656,166.422 18.996,184.21 18.757,185.759 C18.524,187.308 19.945,199.159 19.945,199.159 C19.945,199.159 24.162,198.448 27.892,198.5 C28.141,196.153 28.3,194.106 28.385,192.713 C28.698,187.222 25.229,191.69 24.125,188.251 C23.017,184.817 31.849,178.458 40.835,174.851 C49.826,171.244 53.29,169.18 54.24,165.74 C55.184,162.306 54.086,152.682 55.348,148.895 C56.6,145.12 54.558,142.889 53.454,134.299 C52.346,125.697 49.503,124.327 48.251,119.517 C46.988,114.708 47.301,110.933 49.98,110.754 C52.659,110.58 52.659,109.204 54.871,104.568 C57.078,99.926 59.603,101.822 63.862,98.383 C68.116,94.949 68.27,90.648 75.05,84.983 C81.824,79.312 89.245,79.485 95.865,75.185 C102.49,70.889 113.837,54.05 112.733,50.957" fill="#1D649F"/>
  </g>
</svg>
