<?xml version="1.0" encoding="UTF-8"?>
<!DOCTYPE svg PUBLIC "-//W3C//DTD SVG 1.1//EN" "http://www.w3.org/Graphics/SVG/1.1/DTD/svg11.dtd">
<svg version="1.1" xmlns="http://www.w3.org/2000/svg" xmlns:xlink="http://www.w3.org/1999/xlink" x="0" y="0" width="135.402" height="146.533" viewBox="0, 0, 135.402, 146.533">
  <g id="Calque_1">
    <path d="M50.025,141.045 C50.025,138.646 53.818,134.183 56.019,137.611 C58.231,141.045 57.282,145.866 61.695,145.866 C66.103,145.866 73.996,147.577 75.259,145.519 C76.511,143.45 82.192,141.739 82.192,137.958 C82.192,134.183 82.192,64.074 82.192,61.322 C82.192,58.571 92.913,61.322 92.913,56.854 C92.913,52.379 92.913,16.99 92.913,16.99 C92.913,16.99 100.795,16.308 103.002,15.62 C105.214,14.932 113.102,10.457 114.99,11.839 C116.889,13.203 119.398,18.024 120.666,16.296 C121.923,14.579 125.085,11.14 128.236,11.14 C129.955,11.14 132.777,10.336 135.402,9.654 C134.877,8.642 134.548,7.7 134.548,6.977 C134.548,4.064 115.351,7.55 112.147,8.712 C108.948,9.874 98.822,11.614 95.623,9.874 C92.419,8.134 72.156,9.874 72.156,9.874 L68.421,5.804 C68.421,5.804 35.352,5.804 31.623,5.804 C27.889,5.804 25.22,5.22 22.027,2.908 C18.818,0.578 15.63,0.578 11.89,2.312 C8.161,4.064 9.763,-0 7.095,-0 C4.426,-0 3.36,2.908 3.36,2.908 L0.029,3.856 C-0.321,7.405 2.554,13.932 6.034,19.053 C9.667,24.377 14.076,34.344 16.441,42.766 C18.807,51.183 25.597,60.629 27.321,66.993 C29.061,73.346 26.069,82.457 27.799,86.578 C29.533,90.706 30.631,97.747 31.586,104.799 C32.525,111.84 32.997,126.784 38.832,132.975 C41.049,135.328 43.336,138.594 45.458,142.253 C48.052,142.525 50.025,142.866 50.025,141.045" fill="#1D649F"/>
  </g>
</svg>
