<?xml version="1.0" encoding="UTF-8"?>
<!DOCTYPE svg PUBLIC "-//W3C//DTD SVG 1.1//EN" "http://www.w3.org/Graphics/SVG/1.1/DTD/svg11.dtd">
<svg version="1.1" xmlns="http://www.w3.org/2000/svg" xmlns:xlink="http://www.w3.org/1999/xlink" x="0" y="0" width="80.412" height="49.737" viewBox="0, 0, 80.412, 49.737">
  <g id="Calque_1">
    <path d="M80.317,32.17 C79.59,32.112 78.8,32.083 77.872,32.112 C71.724,32.372 67.941,29.019 63.915,29.273 C59.894,29.528 48.314,24.637 43.339,20.255 C38.379,15.874 24.895,6.595 21.579,2.988 C18.269,-0.619 13.543,-0.619 13.065,1.185 C12.636,2.838 10.201,2.983 6.53,3.387 C5.591,5.179 1.687,7.596 1.687,10.023 C1.687,12.781 -0,16.457 -0,18.747 C-0,21.042 4.207,21.493 5.469,23.331 C6.737,25.169 13.474,26.088 13.893,27.921 C14.312,29.753 18.943,32.054 21.892,32.516 C24.841,32.973 29.053,36.644 30.74,38.014 C32.416,39.39 38.74,36.187 40.84,36.187 C42.951,36.187 46.325,40.309 46.744,42.604 C47.163,44.905 58.107,46.28 60.637,48.575 C63.157,50.876 76.636,49.495 79.166,46.737 C81.696,43.98 79.59,38.927 79.59,34.806 C79.59,33.43 79.882,32.69 80.317,32.17" fill="#1D649F"/>
  </g>
</svg>
