<?xml version="1.0" encoding="UTF-8"?>
<!DOCTYPE svg PUBLIC "-//W3C//DTD SVG 1.1//EN" "http://www.w3.org/Graphics/SVG/1.1/DTD/svg11.dtd">
<svg version="1.1" xmlns="http://www.w3.org/2000/svg" xmlns:xlink="http://www.w3.org/1999/xlink" x="0" y="0" width="43.666" height="40.835" viewBox="0, 0, 43.666, 40.835">
  <g id="Calque_1">
    <path d="M13.925,31.812 C15.85,29.713 19.224,30.759 21.149,32.864 C23.08,34.968 25.971,35.488 28.868,38.639 C29.605,39.448 30.411,40.182 31.196,40.835 C31.467,38.627 31.52,34.211 32.416,31.927 C33.361,29.528 31.467,26.43 33.048,26.43 C34.618,26.43 39.037,26.43 39.037,23.343 C39.037,20.25 40.299,21.279 41.249,19.556 C42.193,17.839 38.411,14.4 37.774,13.365 C37.148,12.342 40.612,11.995 43.137,7.879 C44.049,6.376 43.673,3.312 42.829,-0 C42.41,1.226 41.567,2.104 40.14,1.173 C37.774,-0.376 34.156,0.486 29.419,1.52 C24.693,2.544 23.271,7.532 25.001,9.59 C26.741,11.66 20.433,12.683 19.961,9.943 C19.489,7.18 14.757,9.076 15.065,12.683 C15.389,16.29 9.861,17.672 10.185,22.129 C10.503,26.603 5.135,30.725 1.671,32.956 C1.13,33.315 0.568,33.667 -0,34.026 C1.745,34.904 3.14,35.488 3.798,35.488 C6.694,35.488 11.994,33.916 13.925,31.812" fill="#1D649F"/>
  </g>
</svg>
