<?xml version="1.0" encoding="UTF-8"?>
<!DOCTYPE svg PUBLIC "-//W3C//DTD SVG 1.1//EN" "http://www.w3.org/Graphics/SVG/1.1/DTD/svg11.dtd">
<svg version="1.1" xmlns="http://www.w3.org/2000/svg" xmlns:xlink="http://www.w3.org/1999/xlink" x="0" y="0" width="129.071" height="172.782" viewBox="0, 0, 129.071, 172.782">
  <g id="Calque_1">
    <path d="M118.431,42.269 C116.304,46.136 112.044,41.234 108.029,41.234 C104.008,41.234 101.637,38.147 101.637,34.274 C101.637,30.413 100.693,24.742 96.91,25.002 C93.123,25.262 98.093,29.384 96.672,31.442 C95.25,33.505 94.306,29.123 92.412,29.123 C90.529,29.123 88.391,26.285 88.391,21.134 C88.391,15.978 84.376,16.498 84.376,10.567 C84.376,4.636 75.856,-0 71.13,-0 C66.398,-0 72.074,9.278 74.44,12.371 C76.806,15.464 82.01,18.302 81.771,20.62 C81.532,22.938 85.32,28.869 88.158,29.892 C90.996,30.933 86.498,39.951 86.498,47.165 C86.498,54.385 81.294,53.096 77.756,57.738 C74.207,62.374 86.742,67.011 91.94,71.653 C97.149,76.295 87.484,87.694 88.869,90.209 C89.574,91.498 93.123,93.302 98.565,91.758 C104.008,90.209 106.607,77.318 110.395,73.711 C114.172,70.103 111.806,64.432 113.705,61.6 C115.593,58.767 118.193,59.022 120.797,59.022 C123.396,59.022 121.975,52.062 125.285,52.062 C128.6,52.062 126.945,47.165 128.839,41.754 C130.727,36.344 120.558,38.402 118.431,42.269 z M11.528,172.689 C13.183,173.197 18.62,171.654 15.548,167.538 C12.472,163.411 7.618,171.469 11.528,172.689 z M79.877,83.769 C76.567,81.191 74.912,84.798 71.363,86.602 C67.815,88.405 65.454,78.092 60.961,81.965 C56.468,85.827 60.489,87.376 55.519,92.012 C50.554,96.654 52.681,98.198 46.766,108.251 C40.851,118.298 20.514,123.974 17.442,129.385 C14.366,134.802 4.197,139.183 3.953,143.305 C3.719,147.427 -2.477,150.375 1.12,155.936 C3.953,160.318 7.74,157.219 10.817,160.572 C13.888,163.925 16.97,161.093 18.386,163.925 C19.808,166.758 30.21,166.758 38.013,159.029 C45.822,151.294 42.04,147.687 45.111,145.623 C48.182,143.559 48.66,137.38 50.554,133.507 C52.442,129.645 53.864,125.518 62.377,125.518 C70.897,125.518 66.398,123.72 65.926,119.338 C65.454,114.956 73.019,114.182 73.019,108.511 C73.019,102.846 83.431,97.683 81.294,93.302 C79.167,88.92 83.187,86.347 79.877,83.769" fill="#1D649F"/>
  </g>
</svg>
