<?xml version="1.0" encoding="UTF-8"?>
<!DOCTYPE svg PUBLIC "-//W3C//DTD SVG 1.1//EN" "http://www.w3.org/Graphics/SVG/1.1/DTD/svg11.dtd">
<svg version="1.1" xmlns="http://www.w3.org/2000/svg" xmlns:xlink="http://www.w3.org/1999/xlink" x="0" y="0" width="125.819" height="111.931" viewBox="0, 0, 125.819, 111.931">
  <g id="Calque_1">
    <path d="M77.682,82.089 C78.95,81.742 81.778,82.777 83.99,81.06 C86.202,79.343 90.933,83.465 91.559,86.898 C92.196,90.344 94.09,85.528 95.978,81.742 C97.872,77.961 103.855,66.625 103.855,63.874 C103.855,61.122 108.911,58.723 108.911,57 C108.911,55.283 108.587,51.509 110.173,50.815 C111.749,50.133 113.006,44.976 112.688,43.254 C112.375,41.537 118.045,31.918 118.995,30.536 C119.944,29.16 124.989,29.86 125.307,26.761 C125.62,23.668 126.564,20.229 124.665,19.547 C122.777,18.853 120.257,16.448 120.257,14.731 C120.257,13.766 120.374,10.933 120.915,8.471 C118.39,8.078 118.257,5.332 116.783,3.731 C115.212,2.019 115.212,0.644 113.006,1.326 C110.794,2.019 108.274,7.858 105.436,8.887 C102.598,9.916 98.503,7.511 96.604,6.482 C94.715,5.447 85.883,6.482 83.045,6.141 C80.207,5.8 77.369,10.263 75.163,11.633 C72.956,13.014 66.649,12.327 64.76,11.633 C62.867,10.951 58.448,6.829 56.554,6.829 C54.666,6.829 50.878,7.511 47.727,9.575 C44.576,11.633 43.627,5.8 41.738,3.395 C39.845,0.99 35.744,3.048 33.225,0.644 C30.7,-1.767 29.119,3.395 26.917,3.048 C24.711,2.702 19.029,1.326 17.141,3.048 C15.247,4.771 15.56,11.298 14.621,12.327 C13.672,13.361 9.89,18.165 9.89,20.576 C9.89,21.691 9.508,22.46 8.876,22.882 C9.295,25.732 9.831,29.374 9.964,30.709 C10.197,33.033 11.141,44.624 8.781,47.202 C6.415,49.78 4.76,53.908 4.76,53.908 C4.76,53.908 0.973,56.74 0.262,62.417 C-0.444,68.082 0.5,71.695 0.5,76.077 C0.5,79.17 2.612,81.401 3.768,85.239 C3.811,85.291 3.858,85.297 3.895,85.349 C5.784,88.107 14.775,88.621 19.815,89.823 C24.864,91.032 30.063,98.755 29.914,101.68 C29.755,104.599 33.225,110.27 35.585,111.64 C37.951,113.016 43.781,109.068 46.465,109.068 C49.149,109.068 58.761,109.241 60.655,107.345 C61.212,106.79 61.779,106.859 62.363,107.252 C64.638,100.645 65.471,94.789 65.471,94.789 C65.471,94.789 76.42,82.436 77.682,82.089" fill="#1D649F"/>
  </g>
</svg>
