<?xml version="1.0" encoding="UTF-8"?>
<!DOCTYPE svg PUBLIC "-//W3C//DTD SVG 1.1//EN" "http://www.w3.org/Graphics/SVG/1.1/DTD/svg11.dtd">
<svg version="1.1" xmlns="http://www.w3.org/2000/svg" xmlns:xlink="http://www.w3.org/1999/xlink" x="0" y="0" width="164.602" height="140.434" viewBox="0, 0, 164.602, 140.434">
  <g id="Calque_1">
    <path d="M158.022,20.562 C158.022,18.88 157.667,11.284 157.396,5.636 L148.93,10.625 C148.93,10.625 146.681,6.544 142.183,3.272 C137.69,-0 126.444,-0 126.444,-0 L80.697,31.06 L61.208,48.212 C61.208,48.212 48.456,53.119 44.71,53.935 C44.275,54.033 43.787,54.131 43.289,54.252 C43.411,62.768 43.618,84.347 42.605,85.18 C41.342,86.209 40.393,92.4 39.13,93.764 C37.873,95.14 36.292,98.915 32.51,98.915 C28.722,98.915 19.583,101.325 15.8,100.637 C12.013,99.955 8.857,103.036 7.281,103.736 C6.486,104.077 3.393,104.337 0.348,104.279 C0.009,106.909 -0.257,110.072 0.422,110.517 C1.605,111.291 2.077,115.673 3.971,117.222 C5.865,118.766 8.936,121.078 8.936,123.402 C8.936,125.726 9.175,127.79 10.83,127.79 C12.485,127.79 13.196,131.137 15.084,131.911 C16.978,132.68 20.049,130.362 20.527,131.137 C20.999,131.911 20.288,137.576 21.238,137.576 C21.795,137.576 23.954,138.074 25.561,139.692 C24.993,136.958 26.245,133.304 29.359,134.322 C32.515,135.345 29.985,138.443 32.828,139.825 C35.666,141.189 37.247,140.16 37.247,137.756 C37.247,135.345 41.029,130.541 41.979,129.506 C42.918,128.477 42.605,121.951 44.498,120.228 C46.387,118.506 52.068,119.881 54.275,120.228 C56.476,120.575 58.057,115.413 60.582,117.824 C63.102,120.228 67.202,118.17 69.096,120.575 C70.984,122.98 71.934,128.813 75.085,126.755 C78.236,124.691 82.023,124.009 83.911,124.009 C85.805,124.009 90.224,128.131 92.118,128.813 C94.006,129.506 100.313,130.194 102.52,128.813 C104.727,127.443 107.565,122.98 110.403,123.321 C113.241,123.662 122.073,122.627 123.961,123.662 C125.86,124.691 129.955,127.096 132.793,126.067 C135.631,125.038 138.151,119.199 140.363,118.506 C141.058,118.292 141.504,118.338 141.88,118.471 C141.917,117.136 141.939,115.858 141.939,114.731 C141.939,108.545 143.201,110.95 144.151,104.765 C145.095,98.579 159.916,82.422 161.178,81.387 C162.441,80.364 162.43,55.964 162.43,52.524 C162.43,49.09 163.067,44.969 164.324,40.153 C165.586,35.338 162.123,35.69 162.43,31.222 C162.749,26.759 158.022,23.32 158.022,20.562" fill="#1D649F"/>
  </g>
</svg>
