<?xml version="1.0" encoding="UTF-8"?>
<!DOCTYPE svg PUBLIC "-//W3C//DTD SVG 1.1//EN" "http://www.w3.org/Graphics/SVG/1.1/DTD/svg11.dtd">
<svg version="1.1" xmlns="http://www.w3.org/2000/svg" xmlns:xlink="http://www.w3.org/1999/xlink" x="0" y="0" width="274.31" height="474.439" viewBox="0, 0, 274.31, 474.439">
  <g id="Calque_1">
    <path d="M141.042,12.64 C143.175,14.45 137.541,14.496 139.859,17.028 C146.952,24.757 174.859,15.993 178.647,18.317 C182.434,20.635 155.237,23.474 156.415,26.561 C157.598,29.653 179.835,32.231 181.485,30.173 C183.145,28.11 186.932,34.295 194.258,34.81 C201.589,35.324 200.883,31.717 206.321,31.457 C211.758,31.202 219.805,28.37 220.038,25.017 C220.277,21.664 236.122,17.543 234.7,11.872 C233.284,6.201 217.911,10.068 213.652,7.744 C209.397,5.426 199.462,2.333 197.802,5.941 C196.152,9.548 193.314,10.582 191.892,9.033 C190.476,7.49 192.603,-0.759 185.744,1.559 C178.885,3.883 185.272,11.872 183.856,12.901 C182.434,13.93 175.814,11.357 175.337,7.744 C174.859,4.137 167.528,11.611 166.589,7.23 C165.64,2.854 156.892,-0.245 154.993,0.015 C153.11,0.27 156.892,3.108 155.704,5.166 C154.527,7.23 149.795,3.108 147.901,2.854 C146.013,2.593 149.084,7.23 148.14,9.293 C147.196,11.357 143.413,3.108 140.103,3.108 C136.788,3.108 137.966,7.23 135.605,7.49 C133.239,7.744 138.915,10.837 141.042,12.64 z M65.839,54.401 C68.677,55.17 70.799,60.326 73.403,60.072 C74.581,59.956 69.382,53.626 66.306,50.019 C63.234,46.406 63.473,42.799 59.213,44.088 C54.959,45.377 62.996,53.626 65.839,54.401 z M75.536,33.521 C80.023,34.555 70.799,39.966 69.382,44.862 C67.961,49.759 76.475,54.141 80.023,57.748 C83.572,61.355 92.091,60.84 95.163,58.777 C98.239,56.713 97.295,49.499 101.316,49.759 C105.337,50.019 103.205,45.891 106.515,44.602 C109.819,43.313 110.297,47.955 107.459,51.562 C104.626,55.17 112.429,54.909 116.678,50.533 C120.938,46.152 121.887,50.273 120.938,54.401 C119.988,58.522 111.241,56.204 108.164,60.84 C105.098,65.482 95.64,61.875 91.381,67.026 C87.121,72.182 95.163,72.442 101.072,71.153 C106.987,69.864 118.1,69.09 122.359,70.119 C126.619,71.153 119.76,72.697 112.663,72.697 C105.57,72.697 103.205,75.021 103.438,77.079 C103.677,79.142 93.508,74.761 93.03,79.402 C92.563,84.039 102.499,85.848 103.677,88.675 C104.86,91.513 111.48,88.935 114.079,89.964 C116.678,90.999 109.819,93.062 108.875,94.346 C107.931,95.635 116.217,97.444 117.628,100.022 C119.049,102.595 124.959,101.306 124.72,97.699 C124.423,93.213 129.929,79.657 137.021,76.824 C144.119,73.986 140.103,71.408 141.042,67.026 C141.992,62.644 147.662,66.257 146.013,62.644 C144.352,59.037 145.302,57.493 149.795,52.857 C154.288,48.215 157.126,51.562 162.568,48.73 C168.006,45.891 170.605,50.793 164.695,51.302 C159.508,51.765 162.091,58.268 166.356,60.072 C170.605,61.875 166.823,63.419 170.133,64.193 C173.448,64.962 172.499,70.379 168.239,75.275 C163.985,80.177 169.427,81.2 178.413,77.593 C187.399,73.986 181.723,80.686 184.323,83.524 C186.932,86.357 194.025,81.46 197.802,76.564 C201.589,71.668 207.254,72.483 207.032,69.864 C206.798,67.026 202.777,66.257 199.462,67.8 C196.152,69.35 187.871,68.315 190.709,65.482 C193.553,62.644 193.075,60.326 188.821,60.84 C184.561,61.355 176.997,59.037 180.546,57.493 C184.084,55.944 177.936,50.793 174.626,51.048 C171.316,51.302 172.265,47.18 172.499,44.348 C172.737,41.51 163.04,40.22 164.929,39.191 C166.823,38.162 160.908,35.839 159.492,37.902 C158.07,39.966 155.237,39.446 155.237,36.359 C155.237,33.26 148.14,34.035 145.302,34.295 C142.464,34.555 143.875,27.589 141.042,25.277 C138.204,22.953 134.417,29.913 132.295,29.393 C130.163,28.884 133.945,24.242 135.128,21.15 C136.316,18.057 125.197,13.93 124.009,17.028 C122.837,20.121 120.699,12.386 118.339,11.611 C115.973,10.837 117.866,16.768 115.739,17.282 C113.607,17.797 110.769,20.121 114.318,22.699 C117.866,25.277 121.41,38.162 120.938,40.22 C120.466,42.284 109.591,30.942 109.119,25.532 C108.642,20.121 103.205,15.739 101.783,19.606 C100.361,23.474 96.34,25.017 97.529,28.884 C98.712,32.746 94.691,34.035 94.691,30.942 C94.691,27.85 88.781,24.242 86.644,23.982 C84.522,23.728 92.091,22.179 95.64,20.375 C99.184,18.571 92.563,15.993 89.487,18.057 C86.41,20.121 82.395,16.768 80.501,19.606 C78.607,22.439 76.241,19.606 72.931,18.832 C69.621,18.057 66.783,23.982 64.417,22.953 C62.051,21.924 60.635,28.11 64.417,34.555 C68.199,40.995 71.043,32.492 75.536,33.521 z M266.242,253.808 C265.61,256.392 261.356,255.878 261.51,253.294 C261.664,250.721 254.89,248.657 254.571,247.449 C254.253,246.253 257.409,246.42 259.934,247.958 C262.454,249.513 264.194,248.478 267.027,245.559 C269.87,242.64 273.811,245.05 274.278,242.472 C274.755,239.894 269.705,238.171 268.761,236.628 C267.817,235.073 264.194,233.015 260.725,233.708 C257.255,234.391 257.096,232.847 255.038,230.783 C252.996,228.72 246.694,232.159 246.694,236.969 C246.694,241.784 242.742,240.576 244.164,237.998 C245.585,235.425 242.27,232.327 245.432,231.465 C248.588,230.616 246.848,225.459 241.013,224.945 C235.172,224.43 232.971,229.754 234.393,231.465 C235.809,233.194 230.446,240.576 228.075,240.576 C225.714,240.576 228.398,234.223 228.245,230.783 C228.075,227.355 225.873,229.24 221.455,234.737 C217.047,240.235 213.737,245.218 211.217,245.732 C208.687,246.253 209.005,240.744 213.105,238.345 C217.206,235.934 217.365,229.407 220.038,229.407 C222.723,229.407 222.723,225.974 218.781,224.945 C214.835,223.91 214.203,228.72 212.941,230.101 C211.678,231.465 205.223,227.691 205.376,229.066 C205.53,230.448 201.913,230.951 203.483,233.529 C205.058,236.107 202.698,238.345 201.117,235.252 C199.547,232.159 195.6,234.564 193.712,237.998 C191.818,241.443 189.293,241.264 191.181,242.472 C193.075,243.669 192.927,248.311 190.083,249.166 C187.24,250.033 188.343,240.744 186.142,241.611 C183.93,242.472 185.352,237.136 188.343,237.136 C191.341,237.136 194.338,232.327 194.025,231.13 C193.494,229.118 190.242,229.587 190.242,232.159 C190.242,234.737 185.511,234.223 181.569,234.044 C177.633,233.876 177.782,239.032 182.201,241.778 C186.609,244.536 181.416,246.253 179.204,244.189 C176.997,242.125 173.528,243.154 171.162,244.351 C168.796,245.559 176.838,248.657 177.156,250.201 C177.464,251.75 173.05,248.311 172.106,249.513 C171.162,250.721 166.748,248.657 166.43,245.732 C166.112,242.807 159.014,246.935 162.966,247.958 C166.908,248.993 165.486,251.75 165.486,255.525 C165.486,259.3 160.908,256.392 161.858,253.12 C162.802,249.86 159.014,250.542 155.869,252.6 C152.712,254.669 156.346,248.825 155.084,245.9 C153.816,242.986 150.972,245.9 147.662,246.594 C144.352,247.276 142.623,247.449 144.676,249.86 C146.723,252.265 146.411,255.693 143.721,255.184 C141.042,254.669 139.944,255.184 140.252,257.936 C140.57,260.681 136.788,260.849 136.47,258.45 C136.157,256.045 130.799,256.727 129.218,259.485 C127.643,262.225 123.224,264.294 123.702,267.387 C124.168,270.474 127.643,265.832 130.481,266.867 C133.319,267.902 130.322,269.445 131.908,270.989 C133.473,272.538 133.16,276.318 130.953,274.087 C128.746,271.856 125.908,271.156 125.431,274.769 C124.959,278.376 122.598,274.255 120.699,271.676 C118.811,269.098 116.917,276.492 114.875,274.769 C112.827,273.052 118.97,267.728 117.389,265.15 C115.814,262.578 114.705,266.699 111.087,270.647 C107.459,274.596 102.579,274.434 104.313,276.318 C106.048,278.209 100.685,279.243 99.741,282.498 C98.791,285.776 91.381,286.978 86.644,290.412 C81.917,293.84 87.593,294.019 90.277,290.753 C92.961,287.481 93.906,289.383 98.16,286.458 C102.425,283.539 106.987,281.134 108.567,282.33 C110.138,283.539 112.827,284.394 114.875,281.301 C116.917,278.209 119.447,278.891 121.495,280.787 C123.542,282.677 118.026,284.226 120.545,286.978 C123.07,289.73 117.559,291.262 117.559,288.863 C117.559,286.458 114.403,284.394 113.294,286.625 C112.185,288.863 110.297,291.262 108.255,291.441 C106.207,291.608 103.995,295.736 103.995,299.863 C103.995,303.979 100.361,299.863 100.059,303.471 C99.741,307.078 94.691,313.431 90.277,318.067 C85.869,322.709 89.959,323.744 88.543,326.669 C87.121,329.588 81.917,327.004 80.193,328.207 C78.448,329.42 81.132,336.629 78.772,338.866 C76.406,341.098 78.772,344.19 78.772,346.769 C78.772,349.347 72.623,345.225 72.151,347.798 C71.674,350.376 66.306,349.694 64.736,350.376 C63.16,351.064 67.892,355.18 70.73,357.59 C73.568,360.001 68.046,361.891 67.414,359.139 C66.783,356.388 62.842,360.856 57.956,363.267 C53.065,365.672 55.118,370.481 51.336,370.649 C47.549,370.822 48.652,377.349 46.132,379.413 C43.602,381.476 44.239,374.609 40.292,374.429 C36.351,374.262 36.664,377.349 39.029,380.956 C41.395,384.563 35.406,381.823 33.2,384.916 C30.988,388.009 24.68,386.459 22.946,389.043 C21.217,391.616 27.678,391.616 28.622,393.679 C29.571,395.743 22.946,394.703 19.477,393.847 C16.013,392.992 16.957,398.662 13.801,397.975 C10.645,397.287 6.708,400.894 8.921,403.31 C11.127,405.715 7.181,406.05 4.969,404.507 C2.767,402.958 0.873,406.732 0.083,409.657 C-0.702,412.577 4.343,414.132 4.183,415.496 C4.03,416.872 0.083,419.103 2.921,419.803 C5.759,420.479 3.717,423.231 1.823,424.086 C-0.071,424.959 -0.071,427.017 1.823,429.59 C3.717,432.174 -1.487,432.688 1.033,436.636 C3.552,440.585 5.441,435.596 6.549,438.521 C7.653,441.452 10.645,438.873 14.119,435.428 C17.588,432 18.851,439.209 16.013,439.041 C13.175,438.873 9.865,440.752 10.491,443.851 C11.122,446.938 6.077,446.429 6.236,442.648 C6.385,438.873 0.407,443.33 2.608,446.088 C4.815,448.834 1.823,450.377 1.823,452.955 C1.823,455.539 6.077,455.019 7.812,452.094 C9.546,449.181 12.384,449.863 13.482,452.788 C14.591,455.707 10.809,453.47 10.809,457.424 C10.809,461.372 8.443,457.944 6.385,461.031 C4.343,464.13 14.432,469.795 17.588,470.656 C20.744,471.512 23.736,475.292 30.038,474.263 C36.351,473.229 48.334,460.522 49.909,458.279 C51.49,456.048 54.959,458.626 57.32,456.563 C59.686,454.505 58.269,449.181 60.004,448.152 C61.744,447.117 62.677,453.817 64.263,454.505 C65.69,455.117 66.719,456.337 66.783,459.771 C68.04,459.586 69.319,459.638 70.114,460.285 C72.141,461.944 72.65,454.771 72.65,452.562 C72.65,450.348 74.676,445.938 74.172,443.169 C73.663,440.417 80.246,442.625 81.265,440.417 C82.273,438.203 82.782,430.48 80.761,429.37 C78.729,428.266 78.22,423.849 80.246,423.849 C82.273,423.849 84.808,422.19 84.304,417.774 C83.795,413.363 77.716,413.918 77.212,409.501 C76.697,405.085 80.246,403.981 77.716,398.46 C75.186,392.939 78.724,389.616 77.716,386.864 C76.697,384.095 75.69,380.788 78.729,375.268 C81.769,369.747 87.344,366.978 89.37,367.545 C91.396,368.088 94.945,370.308 96.468,366.978 C97.979,363.671 97.979,360.914 96.468,360.353 C94.945,359.81 90.893,358.706 93.927,354.284 C96.966,349.867 100.515,344.341 101.024,339.387 C101.528,334.415 100.011,330.548 101.528,328.889 C103.045,327.224 106.599,328.889 109.628,326.686 C112.673,324.472 110.138,321.709 111.655,320.056 C113.177,318.397 115.204,312.876 117.23,311.228 C119.256,309.569 121.283,307.355 119.765,305.153 C118.243,302.939 122.805,300.725 122.805,296.863 C122.805,293.002 127.866,290.238 130.91,290.238 C133.945,290.238 139.016,290.238 139.016,286.932 C139.016,283.619 136.99,276.434 141.546,278.654 C146.103,280.856 149.652,278.093 152.696,280.856 C155.736,283.619 159.783,283.07 159.783,278.654 C159.783,274.226 161.311,267.058 165.868,269.821 C166.223,270.035 166.557,270.277 166.897,270.514 C168.403,266.821 171.279,264.485 173.968,264.844 C178.031,265.404 180.551,273.127 185.627,274.226 C190.693,275.336 195.759,277.55 197.276,274.781 C198.799,272.023 202.348,276.434 205.382,275.336 C208.416,274.226 208.416,281.417 211.466,276.995 C214.5,272.578 210.957,269.821 216.023,270.37 C221.089,270.919 218.054,264.294 218.054,260.433 C218.054,256.571 224.632,256.011 224.632,252.704 C224.632,249.392 233.761,252.143 235.273,249.935 C236.796,247.727 241.856,246.079 243.893,249.935 C245.914,253.802 254.524,254.906 255.033,258.225 C255.277,259.826 255.043,262.352 255.033,264.699 C256.433,263.184 258.221,262.057 259.934,262.057 C263.085,262.057 265.918,256.901 268.761,257.594 C271.127,258.161 273.461,257.727 274.188,253.427 C271.642,251.692 266.82,251.467 266.242,253.808" fill="#1D649F"/>
  </g>
</svg>
