<?xml version="1.0" encoding="UTF-8"?>
<!DOCTYPE svg PUBLIC "-//W3C//DTD SVG 1.1//EN" "http://www.w3.org/Graphics/SVG/1.1/DTD/svg11.dtd">
<svg version="1.1" xmlns="http://www.w3.org/2000/svg" xmlns:xlink="http://www.w3.org/1999/xlink" x="0" y="0" width="176.399" height="173.573" viewBox="0, 0, 176.399, 173.573">
  <g id="Calque_1">
    <path d="M168.071,18.036 C163.111,15.458 162.634,10.822 162.634,9.272 C162.634,7.92 157.011,4.185 152.916,0.682 C152.375,0.763 151.112,0.989 149.675,1.37 C149.16,0.815 148.471,0.376 147.733,0 C144.529,3.717 139.283,4.509 136.912,3.567 C134.005,2.416 126.456,5.047 122.515,8.232 C121.072,9.4 119.189,9.862 117.004,10.336 C116.452,10.729 115.906,11.018 115.412,11.076 C112.569,11.417 111.625,14.51 113.831,16.92 C116.038,19.325 115.412,21.042 115.731,23.794 C116.038,26.539 112.261,29.291 110.681,32.043 C109.105,34.783 110.999,38.222 109.736,41.315 C108.479,44.414 99.016,39.598 97.753,40.974 C96.491,42.35 100.899,46.477 101.222,48.53 C101.541,50.599 97.753,53.01 93.966,53.345 C90.184,53.692 90.815,58.842 90.497,65.716 C90.184,72.595 86.407,73.63 85.457,70.866 C84.508,68.126 74.1,71.901 74.1,74.994 C74.1,78.081 70.631,77.404 66.849,77.058 C63.061,76.717 58.653,80.844 58.335,82.561 C58.022,84.272 59.91,92.868 59.274,94.244 C58.653,95.625 23.33,101.458 16.397,100.082 C10.88,98.99 4.801,98.342 -0,98.117 C1.825,100.077 4.265,102.21 5.002,104.354 C6.408,108.43 10.896,112.147 15.951,114.448 C21.001,116.743 18.471,126.379 21.001,127.298 C23.526,128.217 26.9,135.559 23.526,136.016 C20.152,136.478 17.208,137.391 13.845,139.235 C10.471,141.062 6.678,145.646 7.098,151.161 C7.161,151.89 7.257,152.89 7.373,154.057 C15.967,154.271 26.173,153.809 27.266,152.497 C29,150.433 33.106,149.398 35.467,151.115 C37.832,152.832 48.399,153.526 52.653,150.947 C57.836,147.808 61.014,150.947 61.167,153.699 C61.321,156.439 63.687,157.647 66.053,160.046 C68.419,162.457 66.695,165.208 68.265,167.96 C69.84,170.706 72.991,170.191 77.569,172.423 C78.211,172.735 78.752,173.134 79.272,173.573 C79.558,173.215 79.792,172.932 79.951,172.729 C82.476,169.515 82.895,164.006 89.637,165.382 C96.369,166.758 95.95,164.006 99.742,164.925 C103.535,165.839 106.055,165.382 107.736,162.636 C109.423,159.879 106.055,154.375 103.96,152.075 C101.854,149.785 98.899,144.739 99.323,140.155 C99.742,135.559 92.581,135.559 92.581,131.882 C92.581,128.217 99.323,122.252 100.586,120.876 C101.854,119.5 107.317,124.552 108.58,121.795 C109.848,119.032 113.635,120.876 115.746,121.332 C117.852,121.795 121.21,116.743 121.635,112.615 C122.054,108.488 129.22,108.025 130.483,106.649 C131.745,105.273 133.851,96.099 134.694,94.255 C135.538,92.429 141.012,93.804 141.012,88.752 C141.012,83.7 143.537,82.781 146.068,82.324 C148.587,81.867 147.744,77.283 148.168,73.612 C148.587,69.936 150.274,65.802 153.637,64.883 C157.011,63.964 152.375,58.929 148.587,59.842 C144.8,60.756 142.275,48.824 142.275,48.824 C142.275,48.824 142.694,39.194 140.583,37.818 C138.477,36.436 141.431,31.39 146.068,31.39 C150.698,31.39 159.122,36.893 162.061,34.598 C165.005,32.309 170.904,30.927 172.591,30.014 C173.864,29.314 175.63,24.915 176.399,22.851 C174.447,21.406 171.222,19.666 168.071,18.036" fill="#1D649F"/>
  </g>
</svg>
