<?xml version="1.0" encoding="UTF-8"?>
<!DOCTYPE svg PUBLIC "-//W3C//DTD SVG 1.1//EN" "http://www.w3.org/Graphics/SVG/1.1/DTD/svg11.dtd">
<svg version="1.1" xmlns="http://www.w3.org/2000/svg" xmlns:xlink="http://www.w3.org/1999/xlink" x="0" y="0" width="62.26" height="29.031" viewBox="0, 0, 62.26, 29.031">
  <g id="Calque_1">
    <path d="M55.598,8.41 C51.815,2.219 44.957,2.739 40.697,0.676 C36.437,-1.388 31,1.445 25.563,6.867 C20.12,12.278 13.262,9.179 8.535,6.347 C7.129,5.508 5.156,3.479 3.05,1.005 C1.278,3.624 1.077,7.052 1.427,8.393 C1.798,9.821 0.721,12.047 -0,14.804 C4.684,15.44 10.768,17.671 13.734,21.556 C17.282,26.198 19.41,23.099 21.542,27.221 C23.669,31.348 28.634,27.475 29.817,24.903 C31,22.325 27.218,21.296 26.746,18.463 C26.274,15.631 31.472,16.654 32.416,12.786 C33.366,8.919 40.93,7.121 44.246,8.671 C47.556,10.208 50.394,12.786 47.322,16.654 C45.031,19.533 49.699,24.712 53.603,28.753 C56.335,25.683 59.486,22.186 60.791,21.151 C61.502,20.567 61.952,19.203 62.26,17.509 C60.388,16.544 58.223,12.706 55.598,8.41" fill="#1D649F"/>
  </g>
</svg>
