<?xml version="1.0" encoding="UTF-8"?>
<!DOCTYPE svg PUBLIC "-//W3C//DTD SVG 1.1//EN" "http://www.w3.org/Graphics/SVG/1.1/DTD/svg11.dtd">
<svg version="1.1" xmlns="http://www.w3.org/2000/svg" xmlns:xlink="http://www.w3.org/1999/xlink" x="0" y="0" width="132.174" height="93.604" viewBox="0, 0, 132.174, 93.604">
  <g id="Calque_1">
    <path d="M125.82,12.145 C120.781,8.7 116.362,6.301 122.664,12.828 C128.976,19.36 125.576,24.898 129.289,23.834 C135.278,22.117 130.865,15.585 125.82,12.145 z M115.099,25.204 C115.099,28.291 110.06,30.02 102.167,33.447 C94.295,36.881 79.972,29.511 79.463,34.476 C79.155,37.575 88.3,43.078 96.809,43.078 C105.323,43.078 118.887,33.794 118.887,31.048 C118.887,28.303 124.244,23.487 122.038,20.736 C119.836,17.99 115.099,22.111 115.099,25.204 z M97.122,86.376 C94.921,85.341 89.245,81.22 89.552,78.474 C89.871,75.728 83.25,76.069 78.837,72.976 C74.424,69.878 75.999,59.918 71.267,57.507 C66.536,55.096 63.061,47.541 68.737,47.882 C74.413,48.229 75.368,44.789 70.949,40.327 C66.536,35.858 50.452,34.141 49.816,27.615 C49.19,21.077 20.497,5.613 7.883,2.515 C5.639,1.971 2.939,1.075 -0,0 L-0,73.346 C2.923,75.485 6.562,77.202 11.347,77.445 C25.218,78.127 21.759,69.537 24.274,69.537 C26.804,69.537 27.748,64.727 30.586,60.947 C33.424,57.172 45.726,60.253 52.977,66.438 C60.228,72.63 68.737,90.845 76.307,89.128 C83.882,87.411 91.764,93.943 98.703,93.591 C105.646,93.244 99.329,87.411 97.122,86.376" fill="#1D649F"/>
  </g>
</svg>
