<?xml version="1.0" encoding="UTF-8"?>
<!DOCTYPE svg PUBLIC "-//W3C//DTD SVG 1.1//EN" "http://www.w3.org/Graphics/SVG/1.1/DTD/svg11.dtd">
<svg version="1.1" xmlns="http://www.w3.org/2000/svg" xmlns:xlink="http://www.w3.org/1999/xlink" x="0" y="0" width="92.071" height="101.952" viewBox="0, 0, 92.071, 101.952">
  <g id="Calque_1">
    <path d="M90.688,55.719 C86.847,53.627 83.006,57.806 81.723,57.806 C80.444,57.806 77.564,48.742 76.598,44.915 C75.638,41.071 71.803,33.394 69.236,35.128 C66.679,36.88 67.315,34.44 59.958,34.093 C52.59,33.735 52.913,32.348 54.505,24.665 C56.112,16.994 49.709,12.103 52.585,10.363 C54.765,9.057 54.563,7.531 52.134,4.161 C51.534,4.577 50.919,4.843 50.335,4.843 C47.81,4.843 44.654,0.027 40.246,0.027 C35.822,0.027 31.096,-0.314 27.945,1.409 C24.788,3.126 18.794,1.062 15.012,3.814 C11.225,6.565 6.498,12.398 6.816,14.809 C7.129,17.219 5.549,31.995 3.655,32.683 C3.087,32.885 1.682,32.77 0,32.579 C2.525,37.348 9.999,45.892 14.81,49.095 C20.571,52.939 20.248,56.419 26.656,57.118 C33.058,57.806 36.257,60.61 38.501,63.749 C40.739,66.888 57.072,72.119 58.351,74.57 C59.629,77.01 50.028,83.987 50.028,90.265 C50.028,96.549 46.505,95.844 46.505,97.948 C46.505,100.035 53.868,98.641 56.43,100.381 C58.998,102.127 63.47,99.335 66.674,101.422 C69.872,103.526 73.4,98.641 75.962,99.335 C78.524,100.035 81.086,94.456 84.29,94.797 C87.489,95.144 90.369,82.588 89.727,77.709 C89.086,72.819 94.528,57.806 90.688,55.719" fill="#1D649F"/>
  </g>
</svg>
