<?xml version="1.0" encoding="UTF-8"?>
<!DOCTYPE svg PUBLIC "-//W3C//DTD SVG 1.1//EN" "http://www.w3.org/Graphics/SVG/1.1/DTD/svg11.dtd">
<svg version="1.1" xmlns="http://www.w3.org/2000/svg" xmlns:xlink="http://www.w3.org/1999/xlink" x="0" y="0" width="135.624" height="217.242" viewBox="0, 0, 135.624, 217.242">
  <g id="Calque_1">
    <path d="M125.527,206.126 C125.665,205.889 125.781,205.785 125.893,205.744 C125.612,203.64 125.633,201.698 126.794,200.975 C128.996,199.599 132.47,194.102 132.47,191.691 C132.47,189.292 128.37,189.292 128.37,186.205 C128.37,183.107 132.778,177.95 130.89,176.228 C128.996,174.511 133.728,169.36 133.415,166.608 C133.096,163.857 131.208,151.486 132.47,150.122 C133.728,148.734 136.571,147.711 135.308,143.93 C134.311,140.942 129.818,132.635 127.956,127.582 C124.445,127.039 120.148,127.131 117.644,128.12 C114.18,129.496 115.124,117.46 115.124,113.003 C115.124,108.529 111.655,110.934 110.393,114.026 C109.125,117.131 104.085,115.743 99.041,115.743 C93.991,115.743 96.516,108.876 93.365,109.211 C90.209,109.564 87.684,108.188 88.007,104.748 C88.32,101.309 85.795,98.569 83.588,94.777 C81.376,91.002 78.851,87.227 80.745,84.822 C82.639,82.411 79.493,80.348 82.326,77.255 C85.164,74.162 88.007,75.197 87.058,71.07 C86.113,66.948 90.209,64.543 90.527,60.069 C90.845,55.606 95.572,56.982 99.985,53.207 C104.398,49.421 109.125,51.479 112.912,48.051 C116.466,44.819 118.907,47.606 121.543,47.397 C119.957,44.987 116.079,43.796 115.193,41.883 C114.085,39.449 119.278,35.003 120.763,32.165 C122.248,29.338 114.827,26.107 112.971,25.286 C111.109,24.482 107.772,26.905 105.91,25.696 C104.054,24.482 101.088,25.286 99.608,26.506 C98.123,27.72 86.983,28.523 87.355,24.887 C87.721,21.245 82.899,20.037 83.27,17.603 C83.642,15.181 80.671,10.724 76.592,10.325 C72.507,9.927 73.25,2.643 70.285,0.614 C68.598,-0.537 64.412,0.14 61.102,0.937 C64.667,5.313 65.935,7.146 63.58,9.21 C60.45,11.938 63.58,12.43 57.665,21.026 C51.745,29.633 41.64,31.772 36.706,33.391 C31.773,35.003 29.8,44.935 27.089,51.93 C24.373,58.913 22.156,56.496 19.445,52.467 C16.735,48.438 14.517,53.265 11.308,50.051 C8.104,46.825 9.584,46.825 11.308,44.137 C12.242,42.692 11.207,40.385 9.239,38.154 C5.722,38.946 2.163,44.253 0.412,48.305 C-1.481,52.687 3.722,61.196 4.433,64.289 C5.144,67.376 1.595,64.543 1.123,67.376 C0.651,70.208 8.931,74.336 12.714,77.428 C16.496,80.527 19.806,89.291 23.355,93.412 C26.903,97.534 27.137,101.141 30.924,111.194 C34.707,121.247 42.276,138.259 47.48,145.474 C52.684,152.694 55.05,158.359 53.867,160.429 C52.684,162.487 54.1,168.163 57.888,170.996 C61.67,173.823 64.747,178.47 74.677,183.881 C84.612,189.292 102.823,199.599 105.428,204.501 C108.027,209.398 116.541,214.034 118.196,215.068 C118.652,215.352 118.79,216.161 118.8,217.242 C119.776,216.363 120.599,215.687 121.119,215.41 C124.269,213.693 124.582,207.854 125.527,206.126" fill="#1D649F"/>
  </g>
</svg>
