<?xml version="1.0" encoding="UTF-8"?>
<!DOCTYPE svg PUBLIC "-//W3C//DTD SVG 1.1//EN" "http://www.w3.org/Graphics/SVG/1.1/DTD/svg11.dtd">
<svg version="1.1" xmlns="http://www.w3.org/2000/svg" xmlns:xlink="http://www.w3.org/1999/xlink" x="0" y="0" width="99.412" height="155.08" viewBox="0, 0, 99.412, 155.08">
  <g id="Calque_1">
    <path d="M98.202,135.148 C101.99,130.333 95.677,117.621 95.677,109.383 C95.677,101.129 85.269,103.528 88.113,108.684 C90.951,113.835 82.755,109.713 82.118,114.869 C81.493,120.026 75.493,115.904 75.811,120.026 C76.135,124.147 69.509,120.026 66.353,117.621 C63.197,115.216 58.784,124.147 54.052,125.529 C49.325,126.905 46.811,137.848 49.951,137.553 C53.739,137.212 55.627,131.709 59.409,132.061 C63.197,132.397 61.94,127.934 67.297,128.963 C72.655,129.998 68.873,147.525 76.135,148.895 C83.381,150.271 83.699,155.08 87.163,155.08 C90.627,155.08 86.542,144.091 86.85,140.305 C87.163,136.518 94.415,139.964 98.202,135.148 z M69.817,108.343 C71.085,111.782 80.225,106.285 77.705,102.845 C75.185,99.412 68.883,105.77 69.817,108.343 z M13.689,101.47 C9.281,107.655 -1.265,117.927 0.125,120.72 C2.019,124.494 13.689,105.591 19.37,101.129 C25.041,96.666 24.097,92.885 22.208,88.758 C20.309,84.63 18.103,95.284 13.689,101.47 z M50.896,94.943 C52.482,94.596 56.269,94.943 56.571,91.504 C56.89,88.07 60.359,97.689 57.521,100.776 C54.683,103.88 54.683,112.47 59.102,113.505 C63.515,114.534 71.711,98.042 70.448,94.943 C69.191,91.845 65.404,97.001 66.353,92.885 C67.297,88.758 54.996,78.104 50.27,79.127 C45.538,80.167 47.182,95.747 50.896,94.943 z M33.242,61.605 C34.191,66.421 36.398,76.393 43.331,73.976 C50.27,71.577 32.558,58.149 33.242,61.605 z M53.426,58.518 C59.42,57.478 67.616,65.733 66.353,68.826 C65.091,71.913 66.671,81.879 69.509,79.127 C72.347,76.393 76.761,79.815 73.923,84.283 C71.085,88.758 78.336,93.22 79.28,98.724 C80.225,104.221 83.381,99.753 82.755,95.631 C82.129,91.504 83.381,91.845 87.481,88.758 C91.587,85.665 87.163,80.509 84.643,74.664 C82.129,68.826 72.655,70.889 72.655,65.38 C72.655,59.889 65.727,58.166 65.404,55.073 C65.091,51.98 55.946,48.888 50.588,52.327 C45.23,55.767 49.002,46.136 45.225,41.673 C41.437,37.205 48.063,30.673 52.482,25.175 C56.89,19.683 51.214,10.405 51.845,6.278 C52.482,2.156 52.158,0.78 49.951,2.156 C47.75,3.526 38.599,-1.966 34.504,0.78 C30.404,3.532 34.191,26.21 32.292,27.932 C30.404,29.644 27.953,24.25 27.242,26.557 C26.298,29.644 27.566,42.361 30.086,42.361 C32.616,42.361 34.504,45.801 32.924,51.298 C31.348,56.796 37.65,57.478 43.644,55.073 C49.644,52.674 47.432,59.547 53.426,58.518" fill="#1D649F"/>
  </g>
</svg>
