<?xml version="1.0" encoding="UTF-8"?>
<!DOCTYPE svg PUBLIC "-//W3C//DTD SVG 1.1//EN" "http://www.w3.org/Graphics/SVG/1.1/DTD/svg11.dtd">
<svg version="1.1" xmlns="http://www.w3.org/2000/svg" xmlns:xlink="http://www.w3.org/1999/xlink" x="0" y="0" width="35.591" height="70.965" viewBox="0, 0, 35.591, 70.965">
  <g id="Calque_1">
    <path d="M26.64,58.138 C30.857,57.3 25.483,53.537 24.332,52.283 C23.176,51.028 24.714,46.01 27.016,46.01 C29.318,46.01 27.016,43.085 23.945,39.733 C20.879,36.391 23.945,35.137 26.64,35.137 C29.318,35.137 25.87,30.119 28.549,27.194 C31.233,24.257 27.78,18.835 27.78,16.32 C27.78,13.817 31.621,12.979 34.692,9.638 C37.758,6.285 32.002,7.545 32.002,5.036 C32.002,2.522 28.167,1.684 25.483,3.782 C22.794,5.88 23.563,3.782 21.261,3.782 C18.958,3.782 14.736,4.62 14.736,2.106 C14.736,-0.409 12.821,-0.82 10.901,1.684 C10.338,2.429 9.368,2.822 8.063,2.996 C7.782,6.279 7.474,9.337 8.349,10.887 C10.402,14.494 5.83,33.57 1.729,38.721 C-2.377,43.877 1.575,45.253 5.83,48.86 C10.089,52.468 7.251,65.526 7.251,68.619 C7.251,71.712 11.033,70.856 15.447,70.856 C18.078,70.856 21.048,69.584 23.961,69.024 C23.096,67.584 22.417,66.174 22.417,65.243 C22.417,62.728 22.417,58.971 26.64,58.138" fill="#1D649F"/>
  </g>
</svg>
