<?xml version="1.0" encoding="UTF-8"?>
<!DOCTYPE svg PUBLIC "-//W3C//DTD SVG 1.1//EN" "http://www.w3.org/Graphics/SVG/1.1/DTD/svg11.dtd">
<svg version="1.1" xmlns="http://www.w3.org/2000/svg" xmlns:xlink="http://www.w3.org/1999/xlink" x="0" y="0" width="96.093" height="68.213" viewBox="0, 0, 96.093, 68.213">
  <g id="Calque_1">
    <path d="M86.268,45.61 C84.061,45.275 81.218,44.246 82.167,42.87 C82.221,42.778 82.353,42.61 82.443,42.471 C79.494,39.87 78.714,31.442 80.603,29.384 C83.006,26.759 76.736,16.776 73.85,13.099 C72.497,11.377 69.564,5.63 66.821,0 C64.317,0.884 62.1,1.879 61.67,2.665 C60.726,4.376 57.565,6.099 55.676,6.099 C53.788,6.099 51.889,5.07 50.319,6.787 C48.738,8.504 46.536,9.191 45.582,8.162 C44.637,7.128 41.486,6.099 39.274,6.099 C37.078,6.099 30.135,4.035 28.559,4.035 C27.62,4.035 26.103,4.174 24.453,4.417 C24.809,5.162 24.528,6.058 23.43,6.954 C21.541,8.504 17.754,10.822 16.332,11.856 C14.916,12.88 9.945,25.771 6.635,29.378 C3.325,32.985 0.248,33.505 0.01,34.783 C-0.224,36.078 3.797,39.431 3.797,41.494 C3.797,43.558 4.741,45.61 7.346,45.61 C9.945,45.61 7.107,52.322 8.762,52.83 C10.423,53.345 20.586,54.12 20.586,56.698 C20.586,58.704 21.711,60.392 21.218,61.779 C24.077,62.305 26.177,66.542 27.297,66.236 C28.559,65.895 37.078,67.959 38.643,67.612 C40.219,67.271 47.475,67.612 50,67.959 C52.525,68.294 55.358,66.924 57.565,64.519 C59.777,62.109 67.665,61.767 70.19,62.109 C72.699,62.461 77.749,63.149 78.698,64.872 C79.197,65.762 82.167,67.109 85.17,68.213 C85.525,66.508 85.064,64.288 85.159,62.109 C85.313,58.501 87.207,53.01 90.517,52.657 C93.827,52.322 96.511,52.322 96.039,46.31 C96.028,46.096 96.028,45.946 96.012,45.755 C94.336,44.188 92.771,42.87 92.257,42.87 C91,42.87 87.207,45.761 86.268,45.61" fill="#1D649F"/>
  </g>
</svg>
