<?xml version="1.0" encoding="UTF-8"?>
<!DOCTYPE svg PUBLIC "-//W3C//DTD SVG 1.1//EN" "http://www.w3.org/Graphics/SVG/1.1/DTD/svg11.dtd">
<svg version="1.1" xmlns="http://www.w3.org/2000/svg" xmlns:xlink="http://www.w3.org/1999/xlink" x="0" y="0" width="20.484" height="18.956" viewBox="0, 0, 20.484, 18.956">
  <g id="Calque_1">
    <path d="M17.007,-0 C14.662,0.717 12.153,1.549 11.118,2.104 C9.596,2.942 8.816,3.457 5.798,3.122 C5.432,3.601 5.018,4.018 4.498,4.214 C1.894,5.243 2.361,11.689 2.361,11.689 C2.361,11.689 0,11.949 0,15.042 C0,17.14 1.3,18.042 2.132,18.406 C3.469,18.464 4.7,18.579 5.655,18.764 C11.66,19.955 11.118,15.198 11.118,15.198 C11.118,15.198 19.855,15.793 20.396,12.816 C20.943,9.839 18.757,5.087 18.757,5.087 L17.007,-0" fill="#1D649F"/>
  </g>
</svg>
