<?xml version="1.0" encoding="UTF-8"?>
<!DOCTYPE svg PUBLIC "-//W3C//DTD SVG 1.1//EN" "http://www.w3.org/Graphics/SVG/1.1/DTD/svg11.dtd">
<svg version="1.1" xmlns="http://www.w3.org/2000/svg" xmlns:xlink="http://www.w3.org/1999/xlink" x="0" y="0" width="224.512" height="196.225" viewBox="0, 0, 224.512, 196.225">
  <g id="Calque_1">
    <path d="M134.233,41.047 C134.233,41.047 117.81,38.757 115.285,38.757 C112.755,38.757 106.447,37.838 102.655,34.162 C98.857,30.485 80.338,15.345 76.97,13.513 C73.596,11.68 59.703,0.662 55.905,0.206 C52.112,-0.257 51.699,0.206 47.062,0.206 C42.432,0.206 44.543,3.42 36.119,3.876 C27.695,4.339 23.064,10.305 25.589,11.218 C28.12,12.137 36.119,19.93 33.589,21.311 C31.069,22.687 30.65,26.82 27.276,26.82 C23.908,26.82 20.534,27.283 20.534,30.034 C20.534,32.786 15.909,37.37 12.116,36.919 C9.957,36.653 5.209,34.011 1.517,31.786 L0.408,35.116 L-0,38.26 C0.743,40.694 -0.366,50.712 1.788,51.498 C4.154,52.36 5.416,56.996 10.455,63.014 C15.5,69.02 25.749,85.177 25.908,89.125 C26.062,93.085 27.801,97.38 34.103,102.016 C40.41,106.658 40.41,112.323 43.721,115.081 C47.031,117.827 46.251,121.087 46.405,127.966 C46.564,134.834 49.407,143.765 55.083,147.557 C60.754,151.338 64.7,155.454 67.379,162.847 C70.053,170.235 73.532,176.594 77.15,180.548 C80.778,184.496 78.731,186.56 80.778,189.479 C81.829,190.977 83.282,193.543 84.29,196.225 C87.091,194.763 89.048,193.636 89.218,193.3 C89.818,191.965 87.993,188.306 88.91,186.982 C89.818,185.652 91.648,183.323 93.478,182.67 C95.303,181.999 97.435,184.658 101.403,183.993 C105.365,183.334 113.587,184.329 114.505,185.323 C115.412,186.317 126.695,185.652 129.438,187.988 C132.175,190.306 134.923,189.641 136.753,184.993 C138.577,180.346 151.367,170.385 153.202,169.38 C155.032,168.385 168.75,169.38 174.235,168.05 C179.715,166.726 215.675,154.107 217.202,152.783 C218.725,151.453 224.512,130.868 224.512,128.533 C224.512,126.209 221.775,119.902 219.027,120.237 C216.279,120.561 193.735,117.913 192.207,116.919 C190.976,116.11 184.993,111.196 184.165,104.433 C182.393,102.959 180.346,99.768 179.746,96.999 C177.147,97.369 173.089,96.715 170.829,90.316 C168.739,88.755 163.207,80.177 165.132,77.783 C167.498,74.87 163.875,68.684 160.406,65.245 C156.937,61.805 149.839,55.452 149.526,51.498 C149.441,50.411 148.906,48.619 148.189,46.567 L139.702,46.093 L134.233,41.047" fill="#1D649F"/>
  </g>
</svg>
