<?xml version="1.0" encoding="UTF-8"?>
<!DOCTYPE svg PUBLIC "-//W3C//DTD SVG 1.1//EN" "http://www.w3.org/Graphics/SVG/1.1/DTD/svg11.dtd">
<svg version="1.1" xmlns="http://www.w3.org/2000/svg" xmlns:xlink="http://www.w3.org/1999/xlink" x="0" y="0" width="42.766" height="57.964" viewBox="0, 0, 42.766, 57.964">
  <g id="Calque_1">
    <path d="M38.74,38.679 C36.374,36.349 36.612,32.234 38.74,30.684 C40.872,29.135 38.973,27.077 38.973,24.499 C38.973,21.921 28.809,21.146 27.149,20.632 C25.494,20.123 28.332,13.411 25.733,13.411 C23.128,13.411 22.184,11.359 22.184,9.295 C22.184,7.232 18.163,3.879 18.396,2.584 C18.433,2.405 18.55,2.237 18.693,2.07 C17.229,1.827 16.11,1.624 15.691,1.532 C13.935,1.15 11.113,0 11.113,0 C11.113,0 4.557,2.312 -0,3.821 C0.308,6.85 1.04,10.139 2.785,10.856 C6.175,12.238 4.907,15.926 6.175,19.169 C7.448,22.4 7.023,37.176 5.326,37.176 C4.61,37.176 2.965,39.101 1.353,41.489 C3.676,44.021 7.278,48.645 9.723,51.923 C9.835,51.888 9.946,51.819 10.052,51.819 C12.163,51.819 19.924,57.964 19.924,57.964 C19.924,57.964 30.899,55.478 38.294,54.31 C38.405,53.079 38.639,51.657 38.501,50.784 C38.262,49.241 39.928,46.154 42.05,46.154 C44.182,46.154 41.1,40.997 38.74,38.679" fill="#1D649F"/>
  </g>
</svg>
