<?xml version="1.0" encoding="UTF-8"?>
<!DOCTYPE svg PUBLIC "-//W3C//DTD SVG 1.1//EN" "http://www.w3.org/Graphics/SVG/1.1/DTD/svg11.dtd">
<svg version="1.1" xmlns="http://www.w3.org/2000/svg" xmlns:xlink="http://www.w3.org/1999/xlink" x="0" y="0" width="30.706" height="36.904" viewBox="0, 0, 30.706, 36.904">
  <g id="Calque_1">
    <path d="M29.536,25.256 C30.008,22.938 31.43,20.614 30.247,18.556 C29.064,16.498 28.825,14.169 28.825,11.596 C28.825,9.018 22.677,-0 20.311,-0 C17.945,-0 14.874,2.318 12.27,1.804 C9.67,1.283 7.538,0.254 7.304,3.087 C7.14,5.023 3.055,8.966 0,11.781 C0.589,13.122 1.14,14.521 1.554,16.065 C4.074,25.511 6.434,27.407 10.068,30.667 C11.707,32.153 14.911,34.355 18.598,36.904 C19.5,35.049 20.364,33.569 21.022,32.991 C23.383,30.933 29.064,27.58 29.536,25.256" fill="#1D649F"/>
  </g>
</svg>
