<?xml version="1.0" encoding="UTF-8"?>
<!DOCTYPE svg PUBLIC "-//W3C//DTD SVG 1.1//EN" "http://www.w3.org/Graphics/SVG/1.1/DTD/svg11.dtd">
<svg version="1.1" xmlns="http://www.w3.org/2000/svg" xmlns:xlink="http://www.w3.org/1999/xlink" x="0" y="0" width="35.891" height="21.44" viewBox="0, 0, 35.891, 21.44">
  <g id="Calque_1">
    <path d="M0.079,18.92 C2.62,17.81 5.485,17.365 6.885,17.978 C8.116,18.515 8.519,19.926 8.742,21.44 C10.922,21.094 14.906,20.417 16.258,19.856 C18.157,19.088 22.412,21.666 22.878,20.117 C23.351,18.573 24.772,14.966 26.661,14.966 C28.56,14.966 27.371,9.549 29.265,9.289 C31.159,9.035 35.891,4.393 35.891,4.393 C35.891,4.393 33.997,0.277 33.286,0.017 C32.581,-0.243 30.209,2.589 25.95,2.589 C21.701,2.589 18.63,6.202 16.736,6.202 C14.842,6.202 8.933,4.139 4.912,3.884 C3.49,3.797 2.015,3.67 0.636,3.508 C0.249,7.405 -0.181,13.411 0.079,18.92" fill="#1D649F"/>
  </g>
</svg>
