<?xml version="1.0" encoding="UTF-8"?>
<!DOCTYPE svg PUBLIC "-//W3C//DTD SVG 1.1//EN" "http://www.w3.org/Graphics/SVG/1.1/DTD/svg11.dtd">
<svg version="1.1" xmlns="http://www.w3.org/2000/svg" xmlns:xlink="http://www.w3.org/1999/xlink" x="0" y="0" width="59.725" height="26.179" viewBox="0, 0, 59.725, 26.179">
  <g id="Calque_1">
    <path d="M44.315,2.526 C40.792,2.896 39.026,0.601 36.22,1.752 C33.403,2.896 28.815,1.752 27.059,0.601 C25.287,-0.549 23.186,2.896 20.714,1.37 C20.168,1.029 19.717,0.543 19.314,-0 C17.208,1.272 14.673,3.162 13.134,5.544 C10.169,10.163 5.936,10.625 2.96,11.082 C1.756,11.278 0.759,12.943 -0,14.845 C0.965,17.562 2.742,21.961 4.864,24.013 C8.036,27.094 19.298,26.701 19.298,24.013 C19.298,21.331 28.459,20.175 30.57,20.175 C32.692,20.175 39.392,12.88 40.442,13.267 C41.503,13.654 48.542,14.81 50.298,16.724 C51.174,17.678 54.038,18.626 57.009,19.342 C55.762,18.152 54.781,16.602 54.781,15.336 C54.781,13.278 58.335,7.868 59.507,6.833 C59.608,6.752 59.656,6.602 59.725,6.469 C57.009,6.029 54.027,5.428 53.47,4.821 C52.42,3.665 47.832,2.133 44.315,2.526" fill="#1D649F"/>
  </g>
</svg>
