<?xml version="1.0" encoding="UTF-8"?>
<!DOCTYPE svg PUBLIC "-//W3C//DTD SVG 1.1//EN" "http://www.w3.org/Graphics/SVG/1.1/DTD/svg11.dtd">
<svg version="1.1" xmlns="http://www.w3.org/2000/svg" xmlns:xlink="http://www.w3.org/1999/xlink" x="0" y="0" width="83.336" height="63.563" viewBox="0, 0, 83.336, 63.563">
  <g id="Calque_1">
    <path d="M64.909,34.947 C62.543,40.624 72.007,50.417 73.423,50.671 C74.84,50.931 66.739,30.583 64.909,34.947 z M73.185,57.891 C73.657,59.18 79.81,65.366 82.881,63.048 C85.958,60.724 72.378,55.683 73.185,57.891 z M53.791,46.549 C54.74,51.712 61.833,54.798 64.676,52.995 C67.509,51.191 52.82,41.219 53.791,46.549 z M55.685,35.468 C58.289,33.67 41.044,23.368 40.779,26.704 C40.545,29.797 53.08,37.277 55.685,35.468 z M20.207,14.848 C19.969,16.131 27.538,24.126 29.193,22.842 C30.848,21.553 20.637,12.518 20.207,14.848 z M0.029,0.413 C-0.608,3.512 9.508,19.865 13.269,17.258 C20.207,12.454 0.66,-2.68 0.029,0.413" fill="#1D649F"/>
  </g>
</svg>
