<?xml version="1.0" encoding="UTF-8"?>
<!DOCTYPE svg PUBLIC "-//W3C//DTD SVG 1.1//EN" "http://www.w3.org/Graphics/SVG/1.1/DTD/svg11.dtd">
<svg version="1.1" xmlns="http://www.w3.org/2000/svg" xmlns:xlink="http://www.w3.org/1999/xlink" x="0" y="0" width="110.124" height="160.392" viewBox="0, 0, 110.124, 160.392">
  <g id="Calque_1">
    <path d="M25.733,29.064 C27.626,30.099 30.703,35.504 32.83,36.024 C34.957,36.539 46.781,40.921 54.356,44.274 C61.915,47.621 66.652,47.881 69.013,47.881 C71.384,47.881 74.933,48.655 72.8,50.453 C70.673,52.263 47.497,77.779 44.421,81.386 C41.344,84.993 39.45,83.704 32.591,83.704 C25.733,83.704 20.534,91.953 18.64,91.699 C17.516,91.543 13.49,92.3 9.999,93.161 L4.907,101.289 L0,109.613 L0.546,151.264 L5.835,160.392 C10.004,154.316 21.229,142.622 29.515,133.118 C38.506,122.805 43.084,120.4 48.123,117.649 C53.168,114.903 65.936,101.318 74.62,89.294 C80.084,81.716 86.126,73.31 86.916,67.819 C87.701,62.315 92.746,55.101 96.533,49.771 C100.321,44.447 106.623,30.868 106.469,26.746 C106.315,22.625 109.625,13.855 110.097,6.473 C110.564,-0.915 104.893,-1.608 103.159,2.519 C101.419,6.641 87.865,9.392 79.187,9.56 C70.519,9.733 65.316,10.601 62.159,13.855 C59.003,17.121 51.12,13.005 48.283,16.613 C45.45,20.22 34.247,23.318 30.623,15.063 C29.096,11.583 27.069,9.658 25.154,8.439 C22.099,11.832 18.444,16.873 19.107,18.497 C20.062,20.815 23.844,28.03 25.733,29.064" fill="#1D649F"/>
  </g>
</svg>
