<?xml version="1.0" encoding="UTF-8"?>
<!DOCTYPE svg PUBLIC "-//W3C//DTD SVG 1.1//EN" "http://www.w3.org/Graphics/SVG/1.1/DTD/svg11.dtd">
<svg version="1.1" xmlns="http://www.w3.org/2000/svg" xmlns:xlink="http://www.w3.org/1999/xlink" x="0" y="0" width="37.615" height="53.917" viewBox="0, 0, 37.615, 53.917">
  <g id="Calque_1">
    <path d="M7.985,4.613 C7.024,5.659 4.16,7.607 1.704,9.764 C2.908,11.949 2.675,15.677 5.019,15.914 C8.329,16.267 8.016,21.765 4.388,20.903 C0.765,20.042 0.754,26.227 3.911,31.557 C7.067,36.881 -2.078,42.899 0.447,45.651 C2.966,48.385 0.919,51.663 2.017,53.38 C3.126,55.096 16.53,52.697 22.36,46.165 C28.2,39.627 29.771,40.494 32.768,41.356 C35.77,42.211 38.762,38.945 37.176,36.367 C35.6,33.789 33.866,27.436 34.338,19.522 C34.619,14.932 28.874,6.631 23.299,-0 C21.575,1.515 20.01,2.318 17.671,2.318 C13.878,2.318 9.671,2.775 7.985,4.613" fill="#1D649F"/>
  </g>
</svg>
