<?xml version="1.0" encoding="UTF-8"?>
<!DOCTYPE svg PUBLIC "-//W3C//DTD SVG 1.1//EN" "http://www.w3.org/Graphics/SVG/1.1/DTD/svg11.dtd">
<svg version="1.1" xmlns="http://www.w3.org/2000/svg" xmlns:xlink="http://www.w3.org/1999/xlink" x="0" y="0" width="135.186" height="105.705" viewBox="0, 0, 135.186, 105.705">
  <g id="Calque_1">
    <path d="M135.11,56.524 C134.32,50.68 123.482,58.276 125.8,59.964 C130.532,63.398 135.89,62.369 135.11,56.524 z M134.176,18.967 C130.378,18.874 126.135,19.319 123.222,18.614 C119.769,17.787 112.475,17.365 110.56,15.273 C108.64,13.192 105.574,11.515 105.574,14.013 C105.574,16.533 100.2,16.949 97.134,14.857 C94.058,12.764 89.077,11.093 86.769,9.417 C85.56,8.544 83.072,7.423 80.711,6.139 C77.507,6.816 68.32,3.139 62.262,3.942 C55.796,4.804 35.134,2.908 27.098,3.607 C19.056,4.289 18.578,0 14.17,0 C9.757,0 11.651,5.827 5.338,6.006 C-0.969,6.18 -1.595,10.475 2.972,14.435 C5.582,16.683 5.259,21.435 4.893,25.782 C6.198,25.609 7.168,25.216 7.731,24.47 C9.651,21.967 11.566,22.377 11.566,24.892 C11.566,27.407 15.788,26.568 18.09,26.568 C20.393,26.568 19.623,28.667 22.313,26.568 C24.997,24.47 28.832,25.308 28.832,27.823 C28.832,30.332 34.588,29.071 31.522,32.424 C28.45,35.766 24.61,36.604 24.61,39.107 C24.61,41.621 28.063,47.044 25.379,49.98 C22.7,52.906 26.148,57.923 23.469,57.923 C20.775,57.923 17.709,59.178 20.775,62.519 C23.846,65.872 26.148,68.797 23.846,68.797 C21.544,68.797 20.005,73.815 21.162,75.069 C22.313,76.323 27.686,80.087 23.469,80.925 C19.247,81.757 19.247,85.515 19.247,88.029 C19.247,88.96 19.926,90.371 20.79,91.81 C22.748,91.429 24.684,91.365 26.466,92.267 C30.88,94.498 33.437,106.47 39.394,105.667 C41.924,105.32 40.656,103.262 41.924,101.886 C43.187,100.51 45.542,101.545 48.072,101.545 C50.586,101.545 51.854,97.591 57.843,97.423 C63.837,97.256 67.62,96.73 71.402,96.903 C75.189,97.076 78.186,95.695 79.131,92.781 C80.075,89.856 83.231,87.284 87.485,86.596 C91.745,85.914 91.119,81.093 91.427,78.347 C91.745,75.607 98.842,71.473 99.309,69.41 C99.787,67.346 95.209,59.444 99.468,52.397 C103.728,45.356 108.301,45.015 108.301,41.055 C108.301,37.43 112.709,36.084 118.077,35.384 C123.435,34.702 125.174,30.748 129.747,28.684 C133.582,26.956 134.951,23.863 134.176,18.967" fill="#1D649F"/>
  </g>
</svg>
