<?xml version="1.0" encoding="UTF-8"?>
<!DOCTYPE svg PUBLIC "-//W3C//DTD SVG 1.1//EN" "http://www.w3.org/Graphics/SVG/1.1/DTD/svg11.dtd">
<svg version="1.1" xmlns="http://www.w3.org/2000/svg" xmlns:xlink="http://www.w3.org/1999/xlink" x="0" y="0" width="174.499" height="236.388" viewBox="0, 0, 174.499, 236.388">
  <g id="Calque_1">
    <path d="M137.907,4.601 C134.756,4.601 136.014,12.851 130.98,12.851 C125.924,12.851 127.818,18.36 124.662,18.36 C121.516,18.36 118.986,14.914 118.986,14.914 L105.12,14.914 C105.12,14.914 101.963,11.481 100.064,12.851 C98.176,14.232 96.282,15.608 96.282,15.608 L31.226,15.608 C31.226,29.875 31.226,40.038 31.226,40.038 L21.36,40.038 L21.36,78.029 C21.36,78.029 22.023,89.492 20.039,90.203 C18.066,90.92 10.83,93.07 10.83,96.66 C10.83,100.244 10.178,103.111 6.889,103.828 C3.605,104.545 6.889,112.424 2.285,112.424 C-2.32,112.424 4.258,118.159 1.622,121.032 C-1.01,123.888 -0.347,127.489 2.942,127.489 C6.226,127.489 4.916,131.778 4.916,136.079 C4.916,140.38 10.178,143.247 10.178,143.247 L8.857,148.265 C8.857,148.265 16.092,157.584 16.756,159.734 C17.413,161.884 21.36,167.619 17.413,169.769 C13.461,171.92 16.092,174.07 16.092,174.07 L20.702,174.787 L22.023,178.371 C22.023,178.371 27.28,178.371 30.569,182.666 C33.858,186.967 35.173,187.684 35.173,189.834 C35.173,191.985 37.804,192.702 41.751,196.286 C45.692,199.87 45.687,202.02 45.687,204.171 C45.687,206.315 52.928,209.905 52.928,209.905 L55.394,216.605 C56.63,217.316 57.617,218.178 58.153,219.64 C59.474,223.236 62.768,225.392 62.768,225.392 C62.768,225.392 66.725,228.265 69.361,225.392 C71.998,222.513 75.297,226.115 75.297,226.115 C75.297,226.115 78.602,223.236 80.57,224.669 C81.917,225.646 87.795,230.918 92.893,236 C93.646,235.693 98.595,233.722 100.775,233.479 C103.141,233.225 106.451,237.601 107.395,236.057 C108.345,234.508 113.315,232.19 115.204,233.225 C117.097,234.254 121.585,234.508 121.824,232.71 C121.983,231.485 123.999,230.248 125.431,228.936 C126.094,228.329 126.646,227.698 126.794,227.039 C127.261,224.976 132.942,221.369 135.303,220.848 C137.674,220.334 140.507,220.074 141.695,221.623 C142.252,222.345 143.265,222.889 144.352,223.38 C145.159,216.784 146.496,213.177 144.528,213.177 C141.891,213.177 136.613,210.31 134.64,204.558 C132.661,198.806 126.725,195.216 125.415,191.615 C124.089,188.025 116.837,188.753 115.522,185.875 C114.196,183.002 117.501,183.002 117.501,179.412 C117.501,175.822 125.415,177.972 126.067,177.25 C126.725,176.533 127.388,168.636 127.388,164.318 C127.388,160.012 132.661,155.699 130.682,153.537 C128.709,151.387 132.661,150.67 135.303,148.514 C137.939,146.352 135.955,139.889 138.597,137.01 C141.233,134.143 143.207,128.397 145.185,128.397 C147.169,128.397 149.795,125.518 149.795,122.645 C149.795,119.777 154.421,114.026 153.763,108.991 C153.094,103.961 151.121,97.498 154.421,93.186 C157.715,88.879 159.036,85.289 158.378,81.694 C157.715,78.104 162.33,77.381 164.314,75.231 C165.703,73.693 170.743,71.421 174.499,64.878 C172.101,61.675 169.523,59.045 167.873,58.212 C164.086,56.334 161.561,49.113 161.561,40.009 C161.561,30.898 159.508,23.678 159.195,20.765 C158.876,17.839 154.781,11.648 149.901,8.729 C146.442,6.665 144.512,3.573 143.939,0 C143.833,0.15 143.679,0.335 143.589,0.486 C140.438,5.301 141.064,4.601 137.907,4.601" fill="#1D649F"/>
  </g>
</svg>
