<?xml version="1.0" encoding="UTF-8"?>
<!DOCTYPE svg PUBLIC "-//W3C//DTD SVG 1.1//EN" "http://www.w3.org/Graphics/SVG/1.1/DTD/svg11.dtd">
<svg version="1.1" xmlns="http://www.w3.org/2000/svg" xmlns:xlink="http://www.w3.org/1999/xlink" x="0" y="0" width="44.11" height="51.208" viewBox="0, 0, 44.11, 51.208">
  <g id="Calque_1">
    <path d="M9.455,9.863 C10.988,13.199 7.54,14.875 4.474,15.285 C1.403,15.707 2.172,23.228 0.262,25.315 C-1.658,27.402 7.54,32.83 9.068,37.414 C9.98,40.137 13.031,46.08 15.381,50.467 C17.497,51.063 19.518,51.583 20.733,50.843 C23.613,49.091 21.051,43.16 25.215,43.507 C29.374,43.866 35.458,41.056 37.06,43.866 C37.357,44.368 37.713,44.871 38.1,45.357 C39.442,43.16 40.874,40.761 41.262,39.923 C42.031,38.258 42.031,29.483 40.105,24.477 C38.19,19.465 39.729,12.782 42.031,10.696 C42.514,10.25 43.262,7.984 44.11,4.736 C40.307,3.111 36.647,1.654 33.448,2.094 C27.772,2.868 21.857,5.701 19.73,2.348 C17.598,-0.999 14.526,-0.479 11.683,2.094 C11.36,2.383 11.01,2.475 10.633,2.423 C9.662,5.429 8.686,8.175 9.455,9.863" fill="#1D649F"/>
  </g>
</svg>
