<?xml version="1.0" encoding="UTF-8"?>
<!DOCTYPE svg PUBLIC "-//W3C//DTD SVG 1.1//EN" "http://www.w3.org/Graphics/SVG/1.1/DTD/svg11.dtd">
<svg version="1.1" xmlns="http://www.w3.org/2000/svg" xmlns:xlink="http://www.w3.org/1999/xlink" x="0" y="0" width="133.019" height="250.795" viewBox="0, 0, 133.019, 250.795">
  <g id="Calque_1">
    <path d="M78.212,209.18 C72.223,209.36 69.422,222.204 70.96,224.309 C72.223,226.026 84.201,209.013 78.212,209.18 z M131.523,58.019 C130.001,56.372 126.966,51.961 129.486,51.961 C132.027,51.961 133.035,43.683 130.001,42.024 C126.966,40.365 130.001,33.185 127.465,31.532 C124.929,29.873 126.452,24.346 126.966,20.491 C127.465,16.617 117.328,13.311 111.758,10.548 C106.188,7.79 103.653,3.374 99.096,0.616 C94.539,-2.147 93.012,5.021 93.012,9.449 C93.012,13.866 88.964,14.415 85.925,11.652 C82.88,8.889 79.331,11.652 74.774,9.449 C70.218,7.229 72.244,14.415 72.244,17.727 C72.244,21.034 67.173,21.034 64.139,21.034 C61.094,21.034 56.033,23.797 56.033,27.659 C56.033,31.52 51.471,33.734 52.994,35.948 C54.511,38.151 52.484,40.365 50.458,42.024 C48.432,43.671 46.405,49.192 44.883,50.851 C43.366,52.504 45.901,55.268 42.857,57.482 C39.828,59.684 36.274,58.019 34.756,59.684 C33.239,61.343 34.756,65.211 34.252,70.182 C33.743,75.136 30.194,80.663 27.155,85.079 C24.121,89.501 28.173,90.605 29.696,91.149 C31.208,91.71 31.208,94.467 29.696,97.774 C28.173,101.103 24.625,98.883 22.598,98.34 C20.572,97.774 14.997,100.543 11.957,106.063 C8.918,111.584 9.926,114.89 10.944,117.659 C11.952,120.411 8.414,123.735 10.944,129.256 C13.474,134.776 9.926,135.88 10.44,140.297 C10.944,144.713 17.023,144.158 17.532,148.569 C18.036,152.986 15.501,154.645 13.474,154.645 C11.448,154.645 11.957,159.061 13.989,160.165 C16.01,161.275 15.501,168.998 14.493,171.212 C13.474,173.421 6.891,171.212 7.401,173.964 C7.904,176.733 5.878,181.144 5.878,183.358 C5.878,185.566 5.369,192.74 3.343,191.081 C2.547,190.433 1.268,190.381 0.011,190.566 C0.017,190.913 0.027,191.254 0.011,191.659 C-0.143,195.954 1.274,200.249 4.743,203.336 C8.207,206.435 5.528,211.071 8.525,215.366 C11.517,219.667 10.567,222.759 13.877,225.858 C17.193,228.945 17.511,230.662 16.09,234.616 C14.678,238.576 18.933,237.535 19.087,239.94 C19.251,242.35 18.148,247.322 19.251,249.732 C20.349,252.137 22.561,249.732 27.606,249.565 C32.65,249.397 31.388,245.958 31.547,242.692 C31.701,239.425 34.231,240.975 34.857,238.911 C35.488,236.847 40.061,236.333 43.689,238.044 C47.307,239.772 49.201,236.847 49.837,232.72 C50.463,228.598 52.511,233.593 53.62,234.437 C54.723,235.298 58.038,228.084 59.608,223.447 C61.179,218.805 59.449,219.667 55.826,224.13 C52.198,228.598 54.251,219.667 55.667,216.054 C57.083,212.447 56.935,201.96 57.407,199.561 C57.879,197.156 58.823,193.549 63.391,192.514 C67.969,191.486 73.963,185.3 73.019,182.728 C72.069,180.144 79.32,175.854 79.32,173.276 C79.32,170.698 71.756,162.784 69.231,161.079 C66.701,159.362 61.189,160.726 61.661,158.842 C62.133,156.951 61.025,149.558 60.399,145.777 C59.768,141.996 64.335,138.048 64.335,134.435 C64.335,130.828 64.181,126.701 67.173,125.498 C70.17,124.301 68.281,121.215 72.223,120.18 C76.164,119.151 75.379,112.96 79.639,111.069 C83.898,109.185 84.201,107.624 89.728,104.722 C95.245,101.791 104.544,94.918 106.13,91.311 C107.7,87.703 100.449,83.917 105.021,80.142 C109.594,76.362 105.812,72.061 109.122,70.691 C112.432,69.315 113.694,67.425 116.06,64.679 C118.421,61.927 121.572,64.505 127.253,63.476 C129.327,63.095 131.231,63.286 133.019,63.754 C132.775,61.025 132.213,58.782 131.523,58.019" fill="#1D649F"/>
  </g>
</svg>
