<?xml version="1.0" encoding="UTF-8"?>
<!DOCTYPE svg PUBLIC "-//W3C//DTD SVG 1.1//EN" "http://www.w3.org/Graphics/SVG/1.1/DTD/svg11.dtd">
<svg version="1.1" xmlns="http://www.w3.org/2000/svg" xmlns:xlink="http://www.w3.org/1999/xlink" x="0" y="0" width="47.664" height="27.551" viewBox="0, 0, 47.664, 27.551">
  <g id="Calque_1">
    <path d="M42.365,11.642 C40.238,12.671 36.922,9.572 36.922,8.549 C36.922,7.832 36.487,5.26 36.933,3.665 C35.177,2.676 32.652,1.346 30.774,0.734 C27.618,-0.295 26.043,-0.295 23.523,1.075 C21.916,1.948 17.481,1.705 14.479,1.416 C14.213,2.445 13.789,3.133 13.036,3.133 C10.909,3.133 8.071,5.457 7.598,8.035 C7.126,10.607 2.161,12.671 0.74,17.307 C-0.682,21.949 0.029,24.007 2.161,21.174 C4.283,18.342 6.888,19.377 6.888,21.689 C6.888,24.007 9.726,24.261 8.781,27.366 C8.76,27.435 8.765,27.47 8.75,27.551 C11.985,27.238 16.484,26.845 17.852,26.845 C20.059,26.845 22.266,19.29 23.21,18.596 C24.154,17.914 26.684,24.1 29.204,26.51 C31.719,28.915 32.042,24.446 32.042,22.383 C32.042,20.319 34.249,19.631 35.824,19.978 C37.4,20.319 40.874,21.007 40.874,18.596 C40.874,16.203 42.763,17.232 44.02,17.232 C45.282,17.232 45.606,14.475 45.606,14.475 L47.664,12.388 C45.988,11.463 44.036,10.833 42.365,11.642" fill="#1D649F"/>
  </g>
</svg>
