<?xml version="1.0" encoding="UTF-8"?>
<!DOCTYPE svg PUBLIC "-//W3C//DTD SVG 1.1//EN" "http://www.w3.org/Graphics/SVG/1.1/DTD/svg11.dtd">
<svg version="1.1" xmlns="http://www.w3.org/2000/svg" xmlns:xlink="http://www.w3.org/1999/xlink" x="0" y="0" width="81.366" height="58.799" viewBox="0, 0, 81.366, 58.799">
  <g id="Calque_1">
    <path d="M66.263,47.792 C68.629,49.341 68.152,51.405 70.359,51.058 C72.173,50.781 75.981,51.671 77.812,53.608 C79.753,53.093 81.366,52.897 81.366,52.897 C81.366,52.897 79.684,40.965 79.26,37.294 C78.841,33.618 68.725,29.941 68.725,29.941 L67.043,19.854 C67.043,19.854 55.251,21.692 53.15,20.773 C51.045,19.854 46.408,22.154 44.313,18.935 C42.202,15.72 38.414,21.23 34.627,18.478 C30.839,15.72 19.885,19.397 19.461,17.102 C19.042,14.801 24.092,9.761 27.041,10.217 C27.752,10.327 28.93,10.362 30.33,10.321 C31.715,7.893 34.844,2.136 34.091,0.777 C33.147,-0.94 29.365,0.436 26.84,2.494 C24.309,4.564 19.588,1.465 18.639,4.564 C17.689,7.651 16.437,10.743 13.599,10.743 C10.761,10.743 12.963,15.911 10.13,17.275 C7.282,18.651 0.661,18.31 0.035,21.403 C-0.59,24.49 7.282,26.554 6.661,30.334 C6.03,34.121 10.761,38.242 7.923,40.647 C5.494,42.705 3.308,46.046 3.515,52.775 C5.568,54.215 7.536,55.481 8.512,53.353 C10.199,49.677 19.461,53.353 19.461,50.139 C19.461,46.925 29.577,47.844 29.577,44.636 C29.577,41.422 35.465,34.08 39.252,34.537 C43.045,34.994 38.839,41.884 43.47,44.173 C48.1,46.474 41.358,54.729 43.889,57.943 C44.838,59.14 46.674,58.937 48.928,58.215 C50.641,57.677 52.604,56.851 54.609,56.134 C58.752,52.139 64.38,46.561 66.263,47.792" fill="#1D649F"/>
  </g>
</svg>
