<?xml version="1.0" encoding="UTF-8"?>
<!DOCTYPE svg PUBLIC "-//W3C//DTD SVG 1.1//EN" "http://www.w3.org/Graphics/SVG/1.1/DTD/svg11.dtd">
<svg version="1.1" xmlns="http://www.w3.org/2000/svg" xmlns:xlink="http://www.w3.org/1999/xlink" x="0" y="0" width="116.001" height="128.119" viewBox="0, 0, 116.001, 128.119">
  <g id="Calque_1">
    <path d="M108.463,102.689 C108.145,95.643 104.357,95.643 104.522,90.827 C104.681,86.024 104.999,81.723 103.419,81.208 C101.838,80.694 102.787,76.572 105.302,72.445 C107.832,68.323 100.74,67.803 99.631,62.652 C99.164,60.461 101.419,53.056 104.331,44.986 C95.493,38.35 86.439,31.135 86.439,31.135 L86.974,23.99 L46.675,0.682 C46.415,6.029 44.4,10.174 41.53,11.619 C38.453,13.163 45.784,18.065 42.241,18.834 C38.697,19.608 30.65,15.227 24.974,17.805 C21.16,19.533 21.945,9.139 24.916,0 L16.02,0.792 C16.02,0.792 13.606,1.451 10.996,2.249 L12.747,7.336 C12.747,7.336 14.932,12.088 14.386,15.065 C14.137,16.417 12.179,17.019 10.132,17.29 C10.859,20.793 10.561,23.395 10.561,23.395 L13.293,25.181 C13.293,25.181 7.289,37.673 4.557,38.858 C3.825,39.182 2.106,40.315 0,41.795 C1.602,50.576 3.57,61.004 6.525,63.941 C11.967,69.352 11.023,75.537 12.195,79.15 C13.384,82.757 18.115,86.885 14.805,88.423 C12.667,89.423 10.768,86.931 8.869,83.544 C8.668,84.151 8.445,84.763 8.18,85.33 C8.09,85.526 7.914,85.665 7.771,85.833 C10.668,88.157 14.047,90.613 15.479,90.613 C18.2,90.613 22.576,94.18 25.298,94.776 C28.03,95.365 37.769,99.608 38.946,101.319 C39.153,101.62 39.387,102.013 39.636,102.464 C41.959,102.343 45.015,102.244 46.824,102.487 C47.211,102.106 47.694,101.828 48.389,101.828 C51.985,101.828 56.239,116.714 56.054,125.379 C58.207,125.68 61.151,126.055 62.106,126.055 C63.687,126.055 65.581,123.656 68.419,124.691 C71.251,125.72 69.363,128.119 71.883,128.119 C74.408,128.119 79.447,126.402 81.028,126.743 C82.609,127.084 87.022,128.119 87.34,126.055 C87.648,123.997 88.608,120.91 90.81,121.593 C93.016,122.28 94.586,124.338 97.106,121.928 C99.636,119.529 103.732,121.928 104.681,119.87 C105.174,118.789 110.781,115.829 116.001,113.245 C115.699,106.638 108.771,109.58 108.463,102.689" fill="#1D649F"/>
  </g>
</svg>
