<?xml version="1.0" encoding="UTF-8"?>
<!DOCTYPE svg PUBLIC "-//W3C//DTD SVG 1.1//EN" "http://www.w3.org/Graphics/SVG/1.1/DTD/svg11.dtd">
<svg version="1.1" xmlns="http://www.w3.org/2000/svg" xmlns:xlink="http://www.w3.org/1999/xlink" x="0" y="0" width="44.366" height="92.971" viewBox="0, 0, 44.366, 92.971">
  <g id="Calque_1">
    <path d="M11.09,22.556 C13.61,26.683 10.459,33.551 7.934,34.927 C5.414,36.303 3.521,42.494 1.001,42.494 C-1.519,42.494 1.001,52.801 5.414,54.865 C9.828,56.928 9.828,60.351 9.828,62.42 C9.828,64.478 16.14,66.542 18.029,69.293 C19.922,72.045 23.068,85.104 23.068,89.919 C23.068,91.15 23.455,92.151 24.018,92.971 C25.635,91.769 27.625,90.387 28.436,88.711 C29.858,85.792 30.956,80.803 30.33,79.427 C29.693,78.057 29.858,75.652 31.274,74.276 C32.691,72.901 38.372,66.368 39.47,65.86 C40.573,65.339 44.196,66.039 44.042,62.247 C43.979,60.744 44.143,58.431 44.366,56.194 C41.809,54.396 40.26,52.292 40.26,51.252 C40.26,49.02 37.422,45.234 35.852,47.303 C34.271,49.361 28.282,47.644 27.487,43.349 C26.702,39.054 31.428,39.222 35.852,35.274 C40.26,31.32 40.892,23.753 36.16,19.631 C31.428,15.509 34.743,13.278 38.054,9.497 C41.364,5.722 38.372,3.659 36.632,5.375 C34.897,7.092 32.065,7.607 31.593,3.479 C31.12,-0.637 20.867,-1.324 16.931,2.624 C15.546,4.005 13.43,4.433 11.196,4.416 C10.252,11.243 9.409,19.804 11.09,22.556" fill="#1D649F"/>
  </g>
</svg>
