<?xml version="1.0" encoding="UTF-8"?>
<!DOCTYPE svg PUBLIC "-//W3C//DTD SVG 1.1//EN" "http://www.w3.org/Graphics/SVG/1.1/DTD/svg11.dtd">
<svg version="1.1" xmlns="http://www.w3.org/2000/svg" xmlns:xlink="http://www.w3.org/1999/xlink" x="0" y="0" width="150.921" height="102.736" viewBox="0, 0, 150.921, 102.736">
  <g id="Calque_1">
    <path d="M150.115,65.258 C150.115,65.258 143.176,61.477 140.651,61.818 C138.132,62.165 134.031,55.645 129.613,53.916 C125.199,52.199 119.21,49.112 117.322,46.014 C115.428,42.921 107.54,39.828 106.596,37.418 C105.652,35.013 104.076,30.886 101.864,27.793 C99.657,24.7 99.663,20.578 97.456,20.237 C95.244,19.896 81.68,20.237 81.68,18.179 C81.68,16.121 80.736,6.491 77.898,5.809 C75.06,5.109 71.273,4.427 69.702,2.71 C68.127,0.987 63.072,-1.076 62.133,0.652 C61.188,2.363 58.663,3.051 57.725,3.051 C56.775,3.051 57.088,7.867 53.937,7.52 C50.781,7.179 46.362,11.306 46.362,13.705 C46.362,16.121 46.686,19.544 42.585,19.208 C40.527,19.029 37.604,18.601 35.079,17.266 C34.49,17.769 31.069,20.347 27.621,15.329 C23.833,9.815 17.935,4.311 14.572,4.311 C11.543,4.311 1.087,4.334 3.554,10.647 C4.286,9.237 5.708,8.294 8.524,8.554 C16.089,9.237 12.62,18.856 16.72,19.208 C20.826,19.544 25.552,26.429 21.765,26.076 C17.982,25.735 14.826,29.862 11.049,28.487 C7.262,27.111 2.53,23.671 1.268,28.487 C0.01,33.29 -1.576,38.453 3.474,38.1 C8.524,37.77 7.575,41.545 4.106,45.32 C0.642,49.112 9.469,44.632 10.095,48.078 C10.726,51.511 13.558,51.852 12.312,57.356 C11.511,60.83 12.1,67.773 12.322,72.912 C15.67,72.883 20.173,72.571 21.133,71.091 C22.714,68.692 27.754,63.876 30.592,63.876 C33.435,63.876 36.586,65.258 38.166,62.847 C39.742,60.448 48.887,61.13 50.457,63.194 C52.043,65.258 57.083,66.975 58.345,66.975 C59.608,66.975 60.239,70.062 63.395,69.726 C66.546,69.385 72.54,70.761 72.54,72.819 C72.54,74.883 74.747,76.941 77.267,76.941 C79.792,76.941 81.998,83.82 84.518,83.467 C87.048,83.126 92.082,83.126 92.082,84.843 C92.082,86.283 92.544,94.422 93.992,99.07 C94.862,98.561 95.753,98.486 96.252,98.838 C97.52,99.758 102.999,97.925 103.837,101.139 C104.681,104.353 113.518,102.509 113.099,97.463 C112.675,92.416 126.992,92.416 128.255,87.832 C129.522,83.242 131.209,74.975 134.583,76.357 C137.941,77.733 140.047,70.391 142.996,70.848 C145.696,71.27 147.696,73.565 150.921,72.912 L150.115,65.258" fill="#1D649F"/>
  </g>
</svg>
