<?xml version="1.0" encoding="UTF-8"?>
<!DOCTYPE svg PUBLIC "-//W3C//DTD SVG 1.1//EN" "http://www.w3.org/Graphics/SVG/1.1/DTD/svg11.dtd">
<svg version="1.1" xmlns="http://www.w3.org/2000/svg" xmlns:xlink="http://www.w3.org/1999/xlink" x="0" y="0" width="58.26" height="65.415" viewBox="0, 0, 58.26, 65.415">
  <g id="Calque_1">
    <path d="M53.9,13.145 L52.807,4.815 L47.948,-0 C46.516,1.312 44.5,2.549 44.341,3.775 C44.102,5.573 39.615,5.318 37.721,4.289 C35.833,3.255 30.862,5.573 29.913,7.122 C28.968,8.665 25.658,4.289 23.293,4.544 C20.927,4.798 15.256,7.122 15.256,7.122 C15.256,7.122 14.307,14.336 14.307,17.175 C14.307,20.007 17.855,20.527 17.855,22.846 C17.855,25.164 15.017,27.222 14.779,28.771 C14.545,30.32 12.651,31.349 10.286,32.124 C7.925,32.898 8.158,37.026 6.265,38.563 C4.371,40.113 4.848,43.986 3.66,46.818 C2.477,49.645 1.772,53.518 1.772,56.86 C1.772,59.559 1.453,63.351 -0,65.311 C3.018,65.646 3.798,65.132 5.321,64.294 C7.501,63.114 16.232,60.733 16.232,60.733 L25.128,59.941 C27.101,53.877 30.024,48.368 33.223,47.333 C37.376,45.998 43.02,46.535 47.455,47.732 C48.664,44.217 49.81,41.396 50.617,40.512 C53.354,37.54 57.173,31.58 57.719,26.834 C58.26,22.071 58.26,17.308 58.26,17.308 L53.9,13.145" fill="#1D649F"/>
  </g>
</svg>
