<?xml version="1.0" encoding="UTF-8"?>
<!DOCTYPE svg PUBLIC "-//W3C//DTD SVG 1.1//EN" "http://www.w3.org/Graphics/SVG/1.1/DTD/svg11.dtd">
<svg version="1.1" xmlns="http://www.w3.org/2000/svg" xmlns:xlink="http://www.w3.org/1999/xlink" x="0" y="0" width="189.933" height="119.034" viewBox="0, 0, 189.933, 119.034">
  <g id="Calque_1">
    <path d="M169.111,74.536 C170.76,74.282 175.731,68.351 177.386,68.351 C179.046,68.351 186.139,69.9 186.139,68.611 C186.139,67.322 188.504,62.94 188.027,61.651 C187.555,60.362 185.189,58.564 185.666,57.269 C186.139,55.98 189.449,55.98 189.449,54.437 C189.449,52.887 186.849,52.113 186.849,51.084 C186.849,50.055 190.159,48.246 189.921,46.188 C189.687,44.13 186.849,43.869 183.773,42.066 C180.696,40.256 177.619,41.025 174.781,39.488 C171.949,37.938 166.034,38.967 166.034,37.938 C166.034,36.915 162.252,33.557 161.302,31.753 C160.353,29.949 157.281,30.978 155.393,32.267 C153.494,33.557 151.839,34.071 149.951,32.788 C148.062,31.493 146.407,29.435 144.752,30.204 C143.092,30.978 140.015,30.464 140.726,27.886 C141.437,25.307 137.654,19.642 135.999,18.868 C134.339,18.093 129.374,19.376 128.196,16.804 C127.008,14.226 124.881,12.162 125.83,10.364 C126.769,8.555 125.592,3.658 124.409,1.595 C123.221,-0.463 117.311,-0.203 115.662,0.566 C114.001,1.335 110.214,-0.203 108.564,0.82 C106.904,1.855 105.959,3.658 103.594,3.658 C102.278,3.658 101.397,3.462 100.676,2.329 C98.119,3.589 93.823,3.838 93.823,3.838 C93.823,3.838 87.51,9.329 87.51,11.393 C87.51,13.451 87.202,16.896 85.622,15.18 C84.046,13.457 77.426,13.451 75.851,14.486 C74.27,15.515 71.745,10.364 68.907,12.087 C66.074,13.804 62.287,9.676 61.968,11.393 C61.655,13.116 57.555,11.74 54.712,10.364 C51.879,8.988 46.829,11.052 44.941,8.641 C43.047,6.237 30.751,6.237 26.65,6.237 C22.555,6.237 21.606,8.641 19.712,10.705 C17.999,12.584 16.015,12.191 14.009,12.098 C14.185,13.827 14.492,15.37 14.901,16.029 C15.845,17.579 20.343,25.053 19.155,27.371 C17.983,29.695 15.845,29.695 14.429,31.493 C13.007,33.302 4.726,41.291 4.498,42.575 C4.26,43.869 5.915,49.535 4.726,50.569 C3.554,51.604 -0,57.015 -0,59.073 C-0,61.137 2.599,63.969 4.726,64.744 C5.623,65.079 6.201,65.536 6.466,66.073 C8.116,65.831 9.633,65.692 10.572,65.692 C12.148,65.692 19.091,67.756 21.287,67.756 C23.499,67.756 26.65,68.785 27.595,69.819 C28.549,70.848 30.751,70.16 32.332,68.443 C33.902,66.727 35.801,67.756 37.689,67.756 C39.578,67.756 42.739,66.033 43.683,64.322 C44.628,62.605 54.091,59.847 56.611,59.506 C59.13,59.165 62.913,64.657 65.119,64.657 C67.337,64.657 71.426,66.38 72.694,70.848 C73.957,75.317 77.739,80.814 79.314,82.525 C80.89,84.254 81.834,88.711 81.834,90.092 C81.834,91.468 78.365,89.746 74.577,88.711 C70.806,87.682 70.482,91.809 70.482,93.867 C70.482,95.937 65.119,103.151 64.18,104.527 C63.231,105.903 66.074,106.932 68.281,107.267 C69.22,107.417 73.013,104.527 74.27,104.527 C74.784,104.527 76.349,105.845 78.025,107.412 C77.665,102.036 78.688,102.336 83.097,98.688 C87.669,94.914 88.141,87.861 92.242,87 C96.342,86.138 98.072,84.075 104.066,85.104 C110.06,86.138 101.079,90.26 105.164,92.665 C109.275,95.081 121.884,91.983 122.52,95.417 C123.146,98.85 108.007,102.296 108.325,104.013 C108.638,105.724 116.367,107.452 119.046,109.331 C121.73,111.227 118.261,116.551 119.523,118.274 C120.786,119.991 124.881,118.609 128.196,116.037 C131.506,113.458 134.185,114.314 138.445,111.227 C142.699,108.134 151.526,110.874 152.635,108.996 C153.733,107.099 150.11,105.215 141.909,105.903 C133.713,106.585 133.236,98.168 133.236,96.44 C133.236,94.734 141.755,87.682 146.635,87.173 C151.526,86.653 155.467,85.104 160.199,82.705 C162.103,81.739 165.451,80.757 168.872,80.045 C168.357,77.618 167.694,74.762 169.111,74.536" fill="#1D649F"/>
  </g>
</svg>
