<?xml version="1.0" encoding="UTF-8"?>
<!DOCTYPE svg PUBLIC "-//W3C//DTD SVG 1.1//EN" "http://www.w3.org/Graphics/SVG/1.1/DTD/svg11.dtd">
<svg version="1.1" xmlns="http://www.w3.org/2000/svg" xmlns:xlink="http://www.w3.org/1999/xlink" x="0" y="0" width="105.753" height="176.313" viewBox="0, 0, 105.753, 176.313">
  <g id="Calque_1">
    <path d="M72.004,12.97 C74.688,10.056 77.833,-1.112 73.743,0.09 C69.643,1.298 70.837,14.247 72.004,12.97 z M10.985,50.261 C15.244,50.088 20.13,42.186 18.077,39.943 C16.035,37.717 7.813,50.383 10.985,50.261 z M105.746,136.516 C106.064,131.366 95.657,127.758 94.548,130.498 C93.445,133.25 91.084,132.909 89.344,129.822 C87.615,126.724 90.925,123.799 89.19,123.463 C87.451,123.116 85.249,118.815 85.721,117.104 C86.199,115.387 83.037,104.387 77.679,103.017 C72.322,101.635 71.531,93.386 70.587,88.923 C69.643,84.46 66.168,86.859 63.49,83.079 C60.811,79.298 56.233,81.189 53.867,81.362 C51.501,81.535 53.867,76.541 57.649,73.806 C61.437,71.055 65.855,56.441 65.855,53.528 C65.855,50.602 49.3,50.77 46.144,52.493 C42.987,54.21 39.836,49.92 42.515,48.712 C45.199,47.51 50.875,41.498 50.557,39.093 C50.244,36.688 54.504,34.451 52.138,32.214 C49.772,29.988 49.454,35.139 47.406,36.856 C45.358,38.578 40.786,38.064 35.89,37.029 C31.004,36 29.116,43.55 29.27,46.828 C29.429,50.088 23.594,51.978 24.538,54.73 C25.482,57.482 23.44,59.54 21.864,57.985 C20.289,56.441 18.554,52.666 15.398,55.412 C12.242,58.17 19.026,61.777 23.122,62.297 C27.222,62.806 19.971,66.072 19.18,70.876 C18.39,75.691 24.538,73.639 24.856,77.061 C25.174,80.501 16.024,81.021 16.024,84.275 C16.024,87.553 21.228,82.738 23.594,81.362 C25.96,79.986 22.337,89.432 28.012,88.403 C33.688,87.368 32.108,78.957 34.16,79.298 C36.208,79.645 33.216,83.761 34.956,87.368 C36.68,90.981 30.85,96.484 31.169,99.063 C31.482,101.635 42.833,101.635 46.457,97.513 C50.09,93.386 51.819,97.86 49.3,100.953 C46.78,104.046 47.883,106.965 51.04,108.173 C54.185,109.37 55.294,109.717 53.872,112.457 C52.456,115.22 53.713,120.365 52.928,122.943 C52.138,125.515 42.361,125.18 42.048,123.463 C41.73,121.741 37.624,122.943 38.738,125.348 C39.836,127.758 35.264,130.331 35.582,132.568 C35.9,134.811 41.73,134.285 41.884,137.036 C42.038,139.782 37.624,143.043 31.641,144.939 C25.647,146.829 32.898,151.986 35.736,149.748 C38.574,147.517 37.948,151.292 42.048,151.292 C46.144,151.292 48.674,154.899 53.241,153.014 C57.814,151.124 57.66,153.014 54.185,155.934 C50.716,158.859 45.518,155.766 42.361,157.656 C39.205,159.541 26.379,172.646 28.803,175.872 C30.224,177.756 32.108,173.12 36.68,171.056 C41.258,168.998 42.038,172.426 44.568,172.773 C47.088,173.12 47.242,167.102 49.3,167.617 C51.347,168.137 53.241,165.726 57.023,166.42 C60.811,167.102 63.49,165.559 65.383,163.842 C67.277,162.125 72.311,167.27 73.897,166.073 C75.473,164.871 82.411,163.489 85.88,163.663 C89.344,163.842 98.33,159.373 100.696,156.963 C103.062,154.564 99.274,154.049 96.129,154.564 C92.973,155.078 93.604,151.124 96.914,147.685 C100.224,144.251 105.428,141.673 105.746,136.516 z M19.499,93.906 C15.515,89.715 10.369,96.288 6.157,96.218 C5.468,99.566 4.37,101.97 3.251,102.837 C1.58,104.144 -1.513,109.069 0.869,109.595 C3.251,110.11 7.059,114.266 7.542,111.15 C8.014,108.034 9.685,103.878 13.738,109.069 C14.698,110.312 15.939,111.48 17.26,112.561 C17.918,110.208 22.899,109.798 25.482,106.965 C28.644,103.525 23.912,98.542 19.499,93.906" fill="#1D649F"/>
  </g>
</svg>
