<?xml version="1.0" encoding="UTF-8"?>
<!DOCTYPE svg PUBLIC "-//W3C//DTD SVG 1.1//EN" "http://www.w3.org/Graphics/SVG/1.1/DTD/svg11.dtd">
<svg version="1.1" xmlns="http://www.w3.org/2000/svg" xmlns:xlink="http://www.w3.org/1999/xlink" x="0" y="0" width="53.137" height="61.361" viewBox="0, 0, 53.137, 61.361">
  <g id="Calque_1">
    <path d="M52.018,29.54 C52.018,24.066 46.506,22.5 44.83,20.413 C43.148,18.32 35.727,14.927 32.852,10.481 C29.977,6.047 28.295,12.048 26.858,12.314 C25.42,12.574 25.659,8.915 22.068,4.215 C18.466,-0.485 15.114,-0.485 12.96,0.567 C12.207,0.92 11.093,0.984 9.772,0.781 C7.867,3.169 6.483,5.331 6.483,7.348 C6.483,12.314 3.13,17.788 2.897,27.199 C2.648,36.599 0.255,35.032 0.017,42.339 C-0.222,49.652 2.17,48.345 3.13,49.397 C3.661,49.97 3.014,52.299 2.335,54.271 C3.343,55.242 4.345,56.762 6.552,56.496 C10.812,55.987 15.066,57.791 20.27,60.369 C25.473,62.948 23.58,59.595 28.55,60.369 C33.515,61.144 39.191,61.653 44.628,58.045 C48.352,55.571 50.225,51.293 53.137,47.183 C50.32,40.888 52.018,33.471 52.018,29.54" fill="#1D649F"/>
  </g>
</svg>
