<?xml version="1.0" encoding="UTF-8"?>
<!DOCTYPE svg PUBLIC "-//W3C//DTD SVG 1.1//EN" "http://www.w3.org/Graphics/SVG/1.1/DTD/svg11.dtd">
<svg version="1.1" xmlns="http://www.w3.org/2000/svg" xmlns:xlink="http://www.w3.org/1999/xlink" x="0" y="0" width="185.418" height="120.142" viewBox="0, 0, 185.418, 120.142">
  <g id="Calque_1">
    <path d="M183.714,67.485 C178.659,62.9 169.822,57.397 168.978,60.155 C168.129,62.9 162.655,63.351 160.554,60.611 C158.454,57.854 156.767,54.64 150.444,57.397 C144.137,60.155 139.92,63.82 139.5,66.565 C139.081,69.323 134.864,72.08 134.445,68.404 C134.021,64.733 128.981,63.357 125.608,62.444 C122.234,61.53 116.765,63.351 116.341,59.692 C115.927,56.021 110.866,51.882 110.442,47.749 C110.023,43.627 111.291,37.662 107.917,36.743 C104.543,35.823 102.448,29.858 99.504,29.858 C96.549,29.858 80.131,29.858 78.02,28.938 C75.914,28.031 64.965,32.609 64.122,29.858 C63.443,27.626 55.847,18.77 51.646,15.007 C51.195,16.903 50.24,18.672 48.495,20.036 C40.601,26.222 33.048,25.193 35.567,17.626 C38.092,10.064 38.4,1.133 34.305,1.133 C30.199,1.133 33.048,16.943 29.891,17.978 C27.096,18.886 26.019,6.498 28.364,-0 L1.385,7.839 L0.122,59.23 C0.122,59.23 0.053,59.276 0,59.334 C2.525,60.669 5.448,61.097 7.506,61.276 C11.606,61.611 11.283,58.189 11.283,55.773 C11.283,53.374 15.702,49.246 18.858,49.587 C22.009,49.934 21.696,45.119 22.645,45.119 C23.584,45.119 26.109,44.431 27.053,42.72 C27.992,40.991 33.048,43.055 34.623,44.778 C36.193,46.495 39.981,47.177 42.819,47.876 C45.657,48.558 46.601,58.189 46.601,60.247 C46.601,62.305 60.165,61.964 62.377,62.305 C64.584,62.646 64.578,66.768 66.785,69.861 C68.997,72.953 70.572,77.081 71.517,79.485 C72.461,81.896 80.349,84.989 82.243,88.081 C84.131,91.18 90.12,94.267 94.533,95.984 C98.952,97.712 103.053,104.233 105.572,103.886 C108.097,103.545 115.036,107.326 115.036,107.326 L115.842,114.979 C116.144,114.922 116.441,114.87 116.765,114.748 C120.547,113.384 122.653,117.968 125.608,117.968 C126.844,117.968 128.382,119.101 129.867,120.142 C129.66,113.413 131.846,110.072 134.275,108.014 C137.113,105.609 132.382,101.487 133.013,97.701 C133.634,93.92 125.762,91.856 126.387,88.769 C127.013,85.677 133.634,86.018 136.482,84.642 C139.315,83.278 137.113,78.11 139.951,78.11 C142.789,78.11 144.041,75.017 144.991,71.93 C145.94,68.832 150.661,71.93 153.192,69.861 C155.717,67.803 159.499,66.427 160.443,68.144 C161.196,69.502 158.067,75.26 156.682,77.688 C161.08,77.543 167.694,76.682 168.978,75.294 C170.665,73.456 176.967,78.04 179.078,73.456 C181.184,68.86 188.764,72.08 183.714,67.485" fill="#1D649F"/>
  </g>
</svg>
