<?xml version="1.0" encoding="UTF-8"?>
<!DOCTYPE svg PUBLIC "-//W3C//DTD SVG 1.1//EN" "http://www.w3.org/Graphics/SVG/1.1/DTD/svg11.dtd">
<svg version="1.1" xmlns="http://www.w3.org/2000/svg" xmlns:xlink="http://www.w3.org/1999/xlink" x="0" y="0" width="146.751" height="134.365" viewBox="0, 0, 146.751, 134.365">
  <g id="Calque_1">
    <path d="M13.579,8.376 C10.486,12.92 4.306,16.868 4.195,21.516 C4.089,26.164 4.195,27.91 2.598,30.124 C0.991,32.332 -1.354,35.696 0.991,35.465 C3.346,35.234 6.009,35.234 6.009,38.026 C6.009,40.812 11.122,41.39 10.698,45.691 C10.274,49.992 8.46,61.27 17.631,61.033 C26.803,60.802 32.033,57.432 35.868,62.779 C39.709,68.121 44.828,70.681 50.801,69.872 C56.774,69.057 66.476,67.779 63.277,73.473 C60.084,79.162 57.946,91.365 60.721,94.741 C63.495,98.105 67.118,100.897 64.879,103.69 C62.641,106.482 61.575,109.967 64.45,112.407 C67.335,114.846 66.481,117.76 66.375,118.332 C66.349,118.488 65.771,118.847 64.874,119.303 C69.118,123.899 70.624,128.94 73.022,131.033 C76.226,133.819 77.186,135.212 79.425,133.819 C81.668,132.432 83.265,131.385 85.185,132.773 C87.111,134.172 89.668,131.385 92.553,128.587 C95.434,125.795 98.633,128.24 99.598,124.755 C100.558,121.252 102.155,119.17 105.682,118.471 C109.199,117.777 109.199,113.58 106.961,113.58 C104.717,113.58 101.518,116.719 101.518,112.187 C101.518,107.655 98.633,108.696 98.633,104.857 C98.633,101.025 98.314,98.574 94.474,96.14 C90.633,93.695 99.598,92.648 101.518,94.741 C103.438,96.839 110.165,95.099 110.801,98.233 C111.443,101.371 114.96,102.424 114.96,98.574 C114.96,94.741 119.124,93.348 122.328,94.047 C125.532,94.741 132.577,89.509 135.457,88.457 C136.958,87.914 137.515,85.948 138.332,84.289 C136.226,81.162 132.863,76.306 131.341,74.919 C129.044,72.832 132.874,71.589 132.492,68.664 C132.105,65.739 132.492,63.652 137.473,63.236 C142.454,62.814 141.69,58.634 139.006,56.964 C136.322,55.299 140.157,50.697 142.83,49.032 C143.934,48.35 145.403,46.298 146.751,43.46 C141.658,41.367 134.348,41.552 131.282,41.749 C127.261,42.009 133.882,36.858 134.12,32.216 C134.354,27.574 122.768,26.8 118.275,25.776 C113.777,24.742 114.96,19.585 119.692,19.331 C124.423,19.071 117.093,15.464 110.706,16.493 C104.319,17.521 95.333,21.395 90.129,24.482 C84.925,27.574 75.939,15.464 70.025,18.042 C64.11,20.614 55.835,20.614 56.068,15.464 C56.307,10.307 53.708,5.925 47.793,6.446 C41.879,6.954 43.3,-0 38.807,-0 C34.309,-0 38.807,5.925 35.731,7.475 C32.654,9.018 22.013,11.856 21.302,16.493 C20.591,21.134 26.983,28.869 24.851,33.505 C22.724,38.141 15.626,34.274 13.499,29.384 C11.366,24.482 19.647,17.007 18.231,14.18 C17.244,12.209 15.981,8.55 16.82,6.128 C15.499,6.567 14.332,7.284 13.579,8.376" fill="#1D649F"/>
  </g>
</svg>
