<?xml version="1.0" encoding="UTF-8"?>
<!DOCTYPE svg PUBLIC "-//W3C//DTD SVG 1.1//EN" "http://www.w3.org/Graphics/SVG/1.1/DTD/svg11.dtd">
<svg version="1.1" xmlns="http://www.w3.org/2000/svg" xmlns:xlink="http://www.w3.org/1999/xlink" x="0" y="0" width="77.08" height="176.424" viewBox="0, 0, 77.08, 176.424">
  <g id="Calque_1">
    <path d="M58.064,20.921 C55.12,20.464 47.54,14.504 47.54,12.204 C47.54,9.909 51.338,6.238 44.59,5.325 C37.864,4.405 37.016,1.648 35.753,0.272 C34.491,-1.104 29.011,3.024 27.329,6.238 C25.653,9.452 23.961,5.325 20.173,7.614 C16.381,9.909 12.598,4.405 10.912,7.614 C9.225,10.828 5.013,5.781 2.907,8.527 C2.106,9.579 1.056,10.429 -0,10.995 C1.846,13.244 3.846,15.435 3.846,17.129 C3.846,20.071 9.251,22.279 9.251,25.962 C9.251,29.644 16.009,32.598 18.041,31.118 C20.067,29.644 24.804,28.17 25.473,33.321 C26.146,38.483 28.852,38.483 28.852,42.16 C28.852,45.842 22.094,43.639 20.741,47.31 C19.388,50.993 32.225,55.409 32.225,58.357 C32.225,61.294 36.278,64.982 37.631,68.659 C38.984,72.341 45.068,76.763 46.41,81.18 C47.763,85.59 53.168,87.804 55.2,90.007 C57.221,92.221 57.894,97.377 57.221,101.788 C56.552,106.205 56.542,114.303 60.6,120.934 C64.653,127.565 55.868,130.501 53.168,134.183 C50.473,137.86 51.815,143.016 43.71,140.808 C35.604,138.594 45.068,148.173 43.71,151.11 C42.357,154.064 31.552,148.173 31.552,151.11 C31.552,152.884 27.902,155.185 24.985,156.734 C26.146,158.388 27.786,159.312 29.7,160.625 C32.231,162.342 26.56,165.267 26.714,170.758 C26.868,176.262 30.655,177.637 32.072,175.4 C33.488,173.163 39.328,168.18 41.694,167.325 C44.06,166.469 41.694,162.688 44.214,162.856 C46.734,163.024 45.948,158.902 47.057,156.665 C48.166,154.439 49.89,155.289 53.677,155.468 C57.465,155.642 62.817,151.682 68.18,147.907 C73.543,144.126 74.487,143.271 76.535,132.443 C78.593,121.622 74.169,108.731 74.015,105.465 C73.867,102.204 66.605,87.082 63.926,87.255 C61.242,87.429 48.946,73.676 46.734,71.445 C44.532,69.208 45.163,65.433 42.007,62.502 C38.851,59.589 38.538,52.027 39.328,46.703 C40.119,41.373 47.057,40.171 46.903,36.558 C46.744,32.951 47.524,29.864 50.988,29.696 C54.462,29.511 57.772,26.419 59.348,23.673 C59.576,23.268 59.9,23.014 60.255,22.829 C59.374,21.725 58.611,21.013 58.064,20.921" fill="#1D649F"/>
  </g>
</svg>
