<?xml version="1.0" encoding="UTF-8"?>
<!DOCTYPE svg PUBLIC "-//W3C//DTD SVG 1.1//EN" "http://www.w3.org/Graphics/SVG/1.1/DTD/svg11.dtd">
<svg version="1.1" xmlns="http://www.w3.org/2000/svg" xmlns:xlink="http://www.w3.org/1999/xlink" x="0" y="0" width="122.812" height="116.837" viewBox="0, 0, 122.812, 116.837">
  <g id="Calque_1">
    <path d="M94.433,4.781 C93,4.781 89.621,2.324 86.725,-0 C84.672,2.497 77.442,2.081 73.893,2.081 C70.106,2.081 73.421,7.746 71.05,9.81 C68.684,11.874 67.74,14.966 69.634,15.995 C71.527,17.024 69.161,25.788 69.161,28.881 C69.161,31.973 65.374,38.679 66.796,39.702 C68.212,40.737 70.578,47.957 73.893,48.986 C77.203,50.015 79.569,46.408 80.98,46.408 C82.402,46.408 82.402,51.044 82.402,54.657 C82.402,58.264 80.513,59.808 80.513,59.808 C80.513,59.808 75.304,61.872 72.944,59.808 C70.578,57.75 68.684,52.085 68.684,50.015 C68.684,47.957 63.013,47.957 60.642,47.957 C58.282,47.957 55.916,43.309 54.972,41.252 C54.017,39.194 51.184,41.772 51.184,43.309 C51.184,44.865 48.818,44.865 46.458,44.865 C44.087,44.865 39.36,40.737 37.466,41.772 C35.573,42.801 33.679,38.165 34.151,36.095 C34.628,34.037 29.425,35.586 27.531,36.615 C25.642,37.65 24.698,34.037 24.698,34.037 C24.698,34.037 23.605,31.962 21.903,31.06 L19.648,54.148 L16.916,57.131 L1.093,56.53 L0,95.198 L12.163,113.32 C18.497,111.916 31.642,109.939 31.642,112.349 C31.642,113.072 31.971,114.014 32.496,115.026 C34.708,114.448 36.787,113.956 37.939,114.112 C40.469,114.453 48.983,117.893 51.502,116.511 C54.017,115.147 58.441,104.834 62.536,103.458 C66.636,102.077 72.318,97.273 72.318,95.215 C72.318,93.145 72.318,91.087 78.312,89.371 L87.457,89.041 L88.078,89.03 L85.876,80.428 C85.876,80.428 113.821,69.051 115.423,68.78 C114.187,66.034 112.924,63.999 113.534,63.669 C114.627,63.074 115.168,54.744 115.168,52.374 C115.168,49.992 121.719,51.773 119.534,49.385 C117.359,47.015 117.9,33.338 118.993,30.355 C120.086,27.383 122.812,30.355 122.812,27.985 C122.812,25.597 119.534,17.863 117.9,15.487 C116.722,13.776 106.983,9.532 104.251,8.943 C101.53,8.347 97.154,4.781 94.433,4.781" fill="#1D649F"/>
  </g>
</svg>
