<?xml version="1.0" encoding="UTF-8"?>
<!DOCTYPE svg PUBLIC "-//W3C//DTD SVG 1.1//EN" "http://www.w3.org/Graphics/SVG/1.1/DTD/svg11.dtd">
<svg version="1.1" xmlns="http://www.w3.org/2000/svg" xmlns:xlink="http://www.w3.org/1999/xlink" x="0" y="0" width="83.901" height="80.965" viewBox="0, 0, 83.901, 80.965">
  <g id="Calque_1">
    <path d="M56.531,3.763 L54.961,-0 L45.816,0.33 C39.822,2.046 39.822,4.104 39.822,6.174 C39.822,8.232 34.14,13.036 30.04,14.417 C25.945,15.793 21.521,26.106 19.006,27.47 C16.487,28.852 7.973,25.412 5.443,25.071 C4.291,24.915 2.212,25.406 -0,25.985 C1.581,29.002 4.875,32.592 6.079,32.592 C7.676,32.592 8.206,44.801 11.941,46.547 C15.675,48.287 22.608,52.356 22.608,54.674 C22.608,57.01 26.878,59.912 26.878,63.398 C26.878,66.889 31.101,71.653 34.337,71.531 C41.158,71.294 41.864,74.381 41.864,76.445 C41.864,78.509 50.855,76.445 52.033,78.509 C53.126,80.41 61.995,79.694 64.159,80.965 C67.862,77.046 73.161,71.872 74.981,69.225 C77.813,65.109 75.447,59.438 77.813,57.889 C80.179,56.339 85.388,49.639 83.494,49.125 C81.601,48.616 83.017,43.454 80.179,40.361 C77.346,37.269 83.494,35.725 83.017,30.054 C82.545,24.383 83.967,13.036 82.545,12.012 C81.129,10.978 74.503,10.463 70.249,7.37 C65.989,4.278 56.531,3.763 56.531,3.763" fill="#1D649F"/>
  </g>
</svg>
