<?xml version="1.0" encoding="UTF-8"?>
<!DOCTYPE svg PUBLIC "-//W3C//DTD SVG 1.1//EN" "http://www.w3.org/Graphics/SVG/1.1/DTD/svg11.dtd">
<svg version="1.1" xmlns="http://www.w3.org/2000/svg" xmlns:xlink="http://www.w3.org/1999/xlink" x="0" y="0" width="151.811" height="118.023" viewBox="0, 0, 151.811, 118.023">
  <g id="Calque_1">
    <path d="M146.294,16.542 C144.087,16.889 144.565,14.825 142.199,13.276 C140.326,12.044 134.698,17.623 130.545,21.606 C128.603,22.311 126.688,23.097 125.001,23.652 C122.683,24.404 120.789,24.652 119.824,23.427 C117.294,20.213 124.036,11.958 119.405,9.657 C114.774,7.368 118.981,0.477 115.188,0.02 C111.4,-0.436 105.512,6.905 105.512,10.119 C105.512,13.328 95.396,12.409 95.396,15.623 C95.396,18.837 86.134,15.16 84.448,18.837 C82.766,22.508 78.135,16.085 75.191,16.085 C72.236,16.085 70.13,11.501 66.348,12.865 C62.561,14.247 60.45,11.501 57.5,11.033 C54.551,10.576 52.445,17.918 49.087,16.542 C45.713,15.16 44.026,23.427 42.759,28.017 C41.496,32.601 27.179,32.601 27.603,37.647 C28.023,42.694 19.185,44.538 18.342,41.324 C17.503,38.11 12.024,39.942 10.756,39.023 C9.499,38.11 5.706,39.942 6.125,44.538 C6.544,49.122 2.338,51.874 1.919,53.706 C1.499,55.55 -1.026,61.059 0.656,63.805 C2.338,66.557 -1.45,71.147 0.656,76.199 C2.762,81.246 1.499,87.668 2.338,89.507 C3.181,91.345 11.175,90.426 12.867,95.467 C14.549,100.513 2.338,109.242 1.919,111.988 C1.738,113.138 2.751,114.451 4.078,115.85 C8.878,116.075 14.957,116.722 20.474,117.815 C27.407,119.191 62.731,113.358 63.351,111.976 C63.988,110.601 62.099,102.005 62.412,100.293 C62.731,98.577 67.139,94.449 70.926,94.79 C74.708,95.137 78.178,95.813 78.178,92.726 C78.178,89.634 88.585,85.859 89.535,88.599 C90.484,91.362 94.261,90.327 94.574,83.448 C94.892,76.575 94.261,71.424 98.043,71.078 C101.831,70.742 105.618,68.332 105.3,66.262 C104.976,64.21 100.568,60.082 101.831,58.707 C103.093,57.331 112.557,62.146 113.814,59.048 C115.076,55.955 113.183,52.515 114.758,49.775 C116.339,47.024 120.116,44.272 119.808,41.526 C119.49,38.775 120.116,37.058 117.909,34.653 C115.702,32.242 116.647,29.15 119.49,28.809 C119.983,28.751 120.529,28.462 121.081,28.069 C123.267,27.595 125.15,27.132 126.593,25.964 C130.534,22.779 138.082,20.149 140.989,21.299 C143.36,22.242 148.607,21.45 151.811,17.733 C149.922,16.767 147.599,16.334 146.294,16.542" fill="#1D649F"/>
  </g>
</svg>
