<?xml version="1.0" encoding="UTF-8"?>
<!DOCTYPE svg PUBLIC "-//W3C//DTD SVG 1.1//EN" "http://www.w3.org/Graphics/SVG/1.1/DTD/svg11.dtd">
<svg version="1.1" xmlns="http://www.w3.org/2000/svg" xmlns:xlink="http://www.w3.org/1999/xlink" x="0" y="0" width="222.213" height="232.207" viewBox="0, 0, 222.213, 232.207">
  <g id="Calque_1">
    <path d="M76.193,43.934 C76.193,48.483 74.803,54.16 76.888,54.542 C78.983,54.917 80.718,60.606 81.062,62.496 C81.413,64.392 80.718,67.04 78.633,67.04 C76.543,67.04 62.984,65.525 62.984,67.803 C62.984,70.074 59.849,71.971 56.725,71.971 C53.595,71.971 53.595,71.213 53.25,75 C52.906,78.792 53.945,82.197 51.861,82.197 C49.771,82.197 50.126,85.226 46.991,85.602 C43.861,85.983 38.992,85.226 38.992,88.636 C38.992,92.047 36.907,94.7 33.438,95.458 C29.953,96.221 24.043,94.7 24.043,97.73 C24.043,100.759 19.529,98.487 17.1,100.001 C14.659,101.522 0.406,110.609 0.061,112.129 C-0.114,112.864 0.125,120.367 0.3,127.98 C0.666,128.657 1.255,129.356 2.395,130.067 C7.641,133.333 102.864,201.98 105.867,205.246 C108.869,208.506 112.614,215.865 112.614,215.865 C112.614,215.865 119.367,216.686 124.613,219.952 C129.87,223.224 129.86,232.207 129.86,232.207 C129.86,232.207 136.607,230.577 140.363,229.756 C144.108,228.941 156.86,224.033 156.86,224.033 L176.349,206.882 L222.096,175.822 C222.096,175.822 222.138,175.822 222.213,175.822 C220.802,170.33 219.285,165.914 216.834,165.914 C214.081,165.914 212.118,163.347 208.967,163.347 C205.821,163.347 201.885,161.63 201.493,158.624 C201.1,155.63 202.671,153.479 200.31,149.629 C197.955,145.768 195.594,144.051 195.594,142.34 C195.594,140.623 199.594,137.282 200.22,136.588 C200.851,135.906 198.644,133.154 198.644,131.264 C198.644,129.373 197.064,126.113 198.644,124.049 C200.22,121.986 201.169,119.922 199.429,116.147 C197.695,112.366 201.795,108.927 199.753,103.944 C197.695,98.955 194.549,95.013 194.857,93.29 C194.995,92.556 196.013,91.746 197.223,90.85 C196.66,90.03 196.273,89.03 196.273,87.798 C196.273,82.983 193.128,69.924 191.234,67.172 C189.345,64.421 183.033,62.357 183.033,60.299 C183.033,58.23 183.033,54.807 178.619,52.744 C174.206,50.68 171.686,40.373 174.206,40.373 C176.726,40.373 178.619,34.182 181.139,32.806 C183.664,31.43 186.815,24.562 184.295,20.435 C182.614,17.683 183.457,9.122 184.401,2.295 C180.221,2.26 175.596,0.607 174.36,0.162 C172.471,-0.526 166.955,1.191 163.48,1.358 C160.016,1.538 151.497,7.55 148.664,4.625 C145.826,1.711 116.805,6.862 108.609,7.197 C100.414,7.55 96.939,16.828 92.054,16.828 C87.168,16.828 79.434,21.296 75.344,26.274 C74.182,27.684 72.809,28.204 71.313,28.233 C71.949,29.782 72.559,31.089 73.068,31.812 C75.498,35.216 76.193,39.39 76.193,43.934" fill="#1D649F"/>
  </g>
</svg>
