<?xml version="1.0" encoding="UTF-8"?>
<!DOCTYPE svg PUBLIC "-//W3C//DTD SVG 1.1//EN" "http://www.w3.org/Graphics/SVG/1.1/DTD/svg11.dtd">
<svg version="1.1" xmlns="http://www.w3.org/2000/svg" xmlns:xlink="http://www.w3.org/1999/xlink" x="0" y="0" width="124.78" height="143.001" viewBox="0, 0, 124.78, 143.001">
  <g id="Calque_1">
    <path d="M7.066,132.392 C9.734,132.392 8.132,136.456 11.861,134.704 C15.601,132.97 18.789,132.97 21.998,135.299 C25.192,137.612 27.86,138.196 31.594,138.196 C35.323,138.196 68.392,138.196 68.392,138.196 L72.127,142.265 C72.127,142.265 92.39,140.525 95.594,142.265 C98.793,144.005 108.919,142.265 112.118,141.103 C112.675,140.895 113.715,140.629 115.041,140.34 L102.877,122.218 L103.97,83.55 L119.794,84.151 L122.526,81.168 L124.78,58.08 C123.953,57.646 122.987,57.461 121.894,57.964 C118.584,59.508 115.752,58.993 112.436,58.993 C109.126,58.993 108.654,62.606 106.755,62.092 C104.867,61.572 106.283,55.386 106.755,52.808 C107.233,50.23 103.922,45.594 101.557,43.53 C99.196,41.466 104.389,28.581 102.973,27.031 C101.557,25.488 101.085,21.366 101.085,17.759 C101.085,14.146 98.719,16.21 93.987,16.21 C89.255,16.21 88.788,13.632 88.788,13.632 C88.788,13.632 83.107,12.082 80.269,13.632 C77.431,15.181 77.903,24.459 76.015,23.945 C74.121,23.424 68.445,24.459 63.714,26.003 C58.982,27.552 57.093,24.974 54.728,18.788 C52.362,12.603 49.518,14.661 50.468,10.03 C51.418,5.383 48.58,0.226 48.58,0.226 C48.58,0.226 17.362,-0.283 14.047,0.226 C12.705,0.44 10.349,2.012 8.021,3.81 C9.951,11.741 16.004,24.968 17.362,28.072 C18.778,31.338 15.627,34.252 15.627,40.269 C15.627,46.281 21.622,57.282 22.248,64.67 C22.884,72.058 18.465,76.694 14.678,81.509 C10.89,86.319 6.96,97.141 6.96,103.84 C6.96,110.54 1.278,117.078 1.432,120.165 C1.597,123.264 0.647,132.374 0.016,135.802 C-0.011,135.941 0.005,136.109 -0,136.247 L3.331,135.299 C3.331,135.299 4.398,132.392 7.066,132.392" fill="#1D649F"/>
  </g>
</svg>
