<?xml version="1.0" encoding="UTF-8"?>
<!DOCTYPE svg PUBLIC "-//W3C//DTD SVG 1.1//EN" "http://www.w3.org/Graphics/SVG/1.1/DTD/svg11.dtd">
<svg version="1.1" xmlns="http://www.w3.org/2000/svg" xmlns:xlink="http://www.w3.org/1999/xlink" x="0" y="0" width="214.344" height="460.846" viewBox="0, 0, 214.344, 460.846">
  <g id="Calque_1">
    <path d="M212.05,45.48 C210.968,44.885 207.706,44.879 205.032,44.983 C205.027,45.417 205.032,45.816 205.08,46.168 C205.722,51.047 202.842,63.603 199.643,63.256 C196.439,62.915 193.877,68.494 191.315,67.794 C188.753,67.101 185.225,71.985 182.026,69.881 C178.822,67.794 174.351,70.586 171.783,68.841 C169.221,67.101 161.858,68.494 161.858,66.407 C161.858,64.303 165.381,65.008 165.381,58.724 C165.381,52.446 174.982,45.469 173.703,43.029 C172.425,40.578 156.092,35.347 153.854,32.208 C151.61,29.069 148.411,26.265 142.008,25.577 C135.601,24.878 135.924,21.398 130.163,17.554 C125.352,14.351 117.878,5.807 115.353,1.038 C111.449,0.593 105.921,-0.297 104.818,1.142 C103.242,3.206 100.723,12.819 98.516,8.01 C96.304,3.206 90.946,3.206 86.215,2.506 C81.488,1.83 81.807,-2.985 76.757,2.859 C74.507,5.46 71.59,8.021 68.943,9.888 C68.63,15.444 67.702,21.698 66.768,23.485 C65.484,25.93 54.923,31.162 54.599,33.948 C54.281,36.74 55.883,40.578 53.963,42.324 C52.037,44.064 58.445,52.782 54.923,54.886 C51.395,56.978 57.48,60.464 55.241,62.563 C53.003,64.65 48.838,65.702 48.838,68.141 C48.838,70.586 48.52,76.517 45.634,77.911 C42.754,79.31 40.834,84.535 40.834,88.374 C40.834,92.218 36.346,89.773 37.953,94.652 C39.55,99.548 41.47,105.479 37.953,106.52 C34.431,107.577 35.391,115.595 33.466,115.595 C31.545,115.595 30.585,123.972 33.466,128.151 C36.346,132.342 36.993,135.828 36.993,139.678 C36.993,143.505 40.834,145.598 39.55,149.794 C38.272,153.974 38.914,157.818 36.67,159.558 C34.431,161.31 36.346,166.53 33.466,167.934 C30.591,169.328 35.71,180.49 33.466,182.583 C31.227,184.687 25.461,186.427 25.461,194.104 C25.461,201.781 26.548,206.122 25.785,209.458 C25.143,212.244 28.989,211.539 28.347,216.082 C27.705,220.609 22.581,217.828 22.262,220.609 C21.944,223.407 23.541,228.997 21.626,229.338 C19.7,229.69 18.74,231.777 18.74,236.673 C18.74,241.552 16.178,242.252 15.865,244.691 C15.541,247.131 18.104,249.935 18.104,252.715 C18.104,255.513 19.695,264.924 17.456,265.277 C15.218,265.629 13.939,276.098 15.865,277.491 C17.78,278.885 17.78,281.682 16.82,283.769 C15.865,285.862 21.302,287.949 18.422,291.099 C15.541,294.238 17.828,298.267 21.626,297.03 C24.83,295.99 26.745,302.262 23.222,302.262 C19.7,302.262 16.178,302.262 19.064,304.707 C21.944,307.147 24.824,310.638 20.66,312.378 C16.502,314.124 20.024,317.263 19.064,321.454 C18.104,325.639 21.944,329.478 18.745,330.524 C15.541,331.565 20.024,337.854 15.541,338.554 C11.059,339.247 13.939,343.779 11.059,346.23 C8.173,348.67 14.9,352.855 11.372,355.295 C7.855,357.728 10.412,363.318 6.895,363.318 C3.367,363.318 1.447,368.55 1.129,370.995 C0.811,373.435 -1.428,378.331 1.452,381.811 C4.333,385.303 0.811,388.095 3.367,389.488 C5.935,390.887 14.576,388.788 13.298,392.98 C12.019,397.159 12.337,406.241 13.939,406.241 C15.541,406.241 16.502,411.472 19.064,411.125 C21.626,410.767 33.147,409.38 37.953,410.767 C40.325,411.461 42.308,413.004 43.704,414.386 C46.446,413.062 52.451,417.334 53.814,415.854 C55.469,414.045 47.905,407.345 48.138,405.032 C48.377,402.703 46.955,398.841 46.955,396.263 C46.955,393.685 45.772,388.014 49.082,385.436 C52.393,382.863 52.631,380.285 54.764,380.799 C56.891,381.314 61.145,378.736 61.384,372.55 C61.617,366.365 64.222,364.047 68.953,359.659 C74.104,354.89 82.666,350.387 81.488,348.323 C80.305,346.265 83.377,339.565 83.377,336.981 C83.377,334.403 75.34,334.918 72.736,333.889 C70.136,332.854 60.673,325.639 65.405,316.107 C70.136,306.574 80.067,305.534 82.905,305.28 C85.743,305.019 83.143,300.643 85.509,299.094 C87.87,297.545 88.347,294.972 88.347,291.105 C88.347,286.723 88.347,279.763 92.601,279.249 C96.861,278.729 98.044,276.15 95.439,275.381 C92.84,274.607 91.657,271.26 95.911,270.74 C100.171,270.225 98.755,274.607 101.826,274.607 C104.903,274.607 110.101,268.936 106.08,265.589 C102.065,262.236 100.882,267.132 98.755,267.653 C96.622,268.161 94.967,264.554 92.84,264.554 C90.708,264.554 92.129,258.114 91.185,255.79 C90.236,253.472 88.819,247.807 90.708,244.963 C92.601,242.13 100.643,249.345 107.735,249.865 C114.833,250.385 120.037,246.004 120.037,243.159 C120.037,240.333 116.727,235.17 120.986,232.084 C125.241,228.991 121.692,227.956 120.514,223.834 C119.331,219.707 122.403,217.129 124.296,219.192 C126.19,221.256 140.141,219.967 151.732,217.395 C163.322,214.811 171.364,210.174 172.07,206.567 C172.78,202.96 180.117,194.451 181.766,191.358 C183.427,188.265 182.005,184.398 177.273,183.623 C172.547,182.855 172.78,176.923 175.38,173.576 C177.984,170.224 173.963,167.131 169.47,166.616 C164.977,166.096 157.88,162.749 161.901,158.627 C163.837,156.633 164.781,157.032 165.725,157.939 C166.404,155.968 167.051,153.639 166.521,153.066 C165.561,152.014 163.169,153.321 163.407,146.008 C163.646,138.701 166.038,140.268 166.288,130.868 C166.521,121.457 169.874,115.983 169.874,111.017 C169.874,106.063 178.021,100.323 182.578,92.218 C187.129,84.119 196.954,73.939 201.027,71.06 C205.101,68.187 213.011,65.84 213.971,63.233 C214.926,60.62 213.965,46.521 212.05,45.48 z M81.011,452.452 C75.102,452.192 63.511,440.336 59.962,437.249 C56.419,434.15 59.018,431.063 54.764,431.838 C50.504,432.601 53.342,428.225 55.703,426.936 C57.883,425.745 54.859,421.346 51.968,420.635 C51.655,427.554 50.329,458.614 52.037,458.921 C53.761,459.239 66.312,457.319 70.009,459.955 C71.436,460.447 73.378,461.701 74.863,459.927 C77.229,457.094 84.321,458.637 88.108,456.065 C91.896,453.481 86.925,452.712 81.011,452.452" fill="#1D649F"/>
  </g>
</svg>
