<?xml version="1.0" encoding="UTF-8"?>
<!DOCTYPE svg PUBLIC "-//W3C//DTD SVG 1.1//EN" "http://www.w3.org/Graphics/SVG/1.1/DTD/svg11.dtd">
<svg version="1.1" xmlns="http://www.w3.org/2000/svg" xmlns:xlink="http://www.w3.org/1999/xlink" x="0" y="0" width="78.457" height="38.893" viewBox="0, 0, 78.457, 38.893">
  <g id="Calque_1">
    <path d="M66.156,3.463 C63.344,-0 56.3,-0 56.3,-0 C56.3,-0 55.594,3.463 54.533,5.376 C53.647,6.983 48.534,6.966 45.25,6 C44.322,7.324 40.062,8.365 39.473,10.284 C38.763,12.602 33.559,11.313 35.219,17.498 C36.869,23.684 32.62,21.626 30.96,20.851 C29.305,20.077 21.974,21.106 20.08,23.164 C18.186,25.233 15.587,24.713 13.932,23.684 C12.277,22.655 8.967,22.14 7.545,24.713 C6.123,27.291 3.524,22.655 1.392,22.909 C-0.735,23.164 0.209,28.066 0.209,29.1 C0.209,30.124 3.524,33.222 5.651,32.193 C7.778,31.158 10.383,32.447 12.277,33.737 C14.165,35.026 17.714,32.708 18.897,31.418 C20.08,30.124 26.7,30.124 27.411,30.124 C28.122,30.124 28.355,34.251 29.543,35.026 C30.721,35.8 35.219,36.321 39.24,36.575 C43.261,36.829 49.17,38.893 51.064,38.893 C52.958,38.893 56.029,35.28 60.278,35.28 C64.538,35.28 66.909,32.447 67.614,32.708 C67.63,32.713 67.646,32.736 67.657,32.748 C67.965,31.303 68.458,30.147 69.381,30.008 C71.11,29.742 69.874,26.505 71.11,24.898 C72.346,23.291 70.123,20.059 72.346,20.325 C74.563,20.597 77.03,20.869 77.03,17.371 C77.03,16.192 77.614,15.157 78.457,14.284 C76.017,10.561 74.266,4.607 74.266,4.607 C74.266,4.607 68.983,6.92 66.156,3.463" fill="#1D649F"/>
  </g>
</svg>
