<?xml version="1.0" encoding="UTF-8"?>
<!DOCTYPE svg PUBLIC "-//W3C//DTD SVG 1.1//EN" "http://www.w3.org/Graphics/SVG/1.1/DTD/svg11.dtd">
<svg version="1.1" xmlns="http://www.w3.org/2000/svg" xmlns:xlink="http://www.w3.org/1999/xlink" x="0" y="0" width="435.608" height="422.225" viewBox="0, 0, 435.608, 422.225">
  <g id="Calque_1">
    <path d="M357.899,386.583 C351.517,387.363 341.932,380.247 339.683,380.924 C337.083,381.693 347.968,399.474 344.658,404.11 C341.348,408.752 354.35,421.389 358.848,422.152 C363.336,422.927 361.681,417.262 364.757,417.516 C367.834,417.776 366.651,414.169 367.123,411.585 C367.595,409.012 370.672,414.423 373.271,412.88 C375.876,411.331 372.566,400.243 376.353,400.243 C380.13,400.243 377.059,386.849 375.876,382.467 C374.693,378.074 364.291,385.808 357.899,386.583 z M251,314.936 C253.599,317.509 262.347,316.734 263.768,313.127 C265.185,309.52 248.661,312.624 251,314.936 z M197.779,9.77 C197.307,6.671 180.475,10.25 184.061,13.377 C186.427,15.435 198.251,12.863 197.779,9.77 z M434.762,211.582 C436.661,210.033 433.818,201.784 432.163,203.073 C430.508,204.362 430.508,190.182 431.696,183.742 C432.874,177.296 432.163,178.071 429.092,181.424 C426.015,184.777 422.705,174.984 421.994,172.4 C421.283,169.828 417.734,162.607 413.714,163.636 C409.698,164.671 412.297,157.451 408.515,158.226 C404.728,159 404.022,152.295 404.728,146.109 C405.438,139.924 402.128,144.826 400.468,142.248 C398.818,139.669 396.924,141.733 394.32,142.756 C391.721,143.797 391.01,137.351 391.721,134.773 C392.431,132.195 391.249,129.096 387.7,126.264 C384.151,123.431 383.912,121.107 384.151,117.754 C384.39,114.407 364.047,103.066 359.554,102.037 C355.061,101.008 358.848,95.851 356.949,94.053 C355.061,92.244 354.35,85.544 354.35,79.873 C354.35,74.202 347.73,72.399 347.968,67.762 C348.202,63.115 346.075,58.733 346.547,53.582 C347.019,48.426 339.683,47.137 339.449,44.304 C339.221,41.466 335.195,44.044 331.174,44.564 C327.153,45.073 327.392,38.893 327.864,32.962 C328.336,27.031 326.204,17.239 322.893,14.406 C319.583,11.573 319.345,1.775 317.695,0.226 C316.035,-1.312 310.597,5.388 310.831,8.735 C311.069,12.088 310.364,15.955 308.237,18.013 C306.099,20.077 309.653,28.072 306.81,30.904 C303.972,33.737 306.576,45.073 305.866,51.518 C305.16,57.958 305.394,64.924 302.556,69.3 C299.718,73.682 299.246,80.648 293.564,82.966 C287.894,85.284 280.324,80.388 280.557,77.035 C280.796,73.682 274.409,71.624 271.099,72.144 C267.789,72.653 265.895,67.502 260.692,63.115 C255.483,58.733 251.472,64.149 249.812,58.993 C248.157,53.848 246.502,53.074 242.714,50.235 C238.937,47.397 240.115,47.397 243.664,44.564 C247.213,41.732 246.502,38.119 244.613,34.766 C242.714,31.413 246.735,32.188 251.472,29.349 C256.199,26.522 251.472,23.17 255.016,21.62 C258.559,20.077 256.437,16.724 252.65,15.955 C248.862,15.181 250.051,20.077 248.629,20.591 C247.213,21.106 245.791,14.146 244.613,14.406 C243.425,14.66 238.937,21.36 236.572,18.013 C234.206,14.66 220.96,11.828 215.751,11.053 C210.553,10.279 208.898,3.064 205.821,4.353 C202.749,5.648 206.293,7.96 209.842,12.088 C213.391,16.21 198.012,19.042 193.525,17.499 C189.032,15.955 194.23,21.106 190.453,20.852 C186.666,20.591 185.955,27.806 182.884,31.413 C179.807,35.026 181.934,37.604 178.619,39.916 C175.309,42.24 175.075,44.819 179.096,49.721 C183.117,54.611 177.208,54.871 173.654,51.004 C170.11,47.137 166.561,47.137 166.8,51.518 C167.034,55.9 162.541,53.848 163.251,48.946 C163.957,44.044 158.281,46.368 157.337,43.529 C156.387,40.691 151.422,36.055 148.345,36.309 C145.279,36.569 145.279,40.182 142.203,40.182 C139.126,40.182 138.415,41.986 138.887,45.593 C139.365,49.2 134.161,45.339 130.607,45.853 C127.063,46.368 130.607,50.744 128.718,51.004 C126.825,51.258 126.825,54.871 123.748,54.871 C120.671,54.871 121.149,62.34 121.626,66.213 C122.093,70.075 116.889,64.41 113.818,65.439 C110.741,66.468 114.529,69.82 115.473,74.202 C116.422,78.584 113.818,78.33 112.163,80.127 C110.508,81.937 107.903,75.231 107.903,71.37 C107.903,67.502 103.882,71.109 99.628,76.006 C95.374,80.902 101.05,88.377 99.156,89.666 C97.262,90.949 88.748,99.718 83.778,106.158 C78.818,112.604 68.172,108.742 64.862,111.835 C61.552,114.928 58.003,112.604 54.687,115.442 C51.377,118.275 45.229,123.691 44.524,120.333 C43.813,116.98 35.299,119.57 31.75,123.691 C28.202,127.813 22.52,131.414 18.505,131.68 C14.484,131.935 14.484,138.635 12.829,140.184 C11.174,141.733 11.646,134.773 11.646,132.969 C11.646,131.166 7.858,136.062 6.203,141.479 C4.548,146.884 10.224,148.947 6.681,154.618 C3.127,160.295 -0.183,165.954 4.792,173.175 C9.752,180.395 12.585,185.031 10.935,188.638 C9.275,192.245 5.731,181.424 4.548,182.713 C3.365,184.002 9.041,188.638 7.625,190.956 C6.203,193.28 1.111,182.193 0.055,184.777 C-0.894,187.095 10.696,204.622 10.935,211.062 C11.174,217.507 20.393,223.693 19.926,232.977 C19.449,242.249 27.968,257.204 29.384,259.522 C30.801,261.84 26.069,268.02 27.013,274.98 C27.968,281.945 24.891,284.518 20.871,284.518 C16.85,284.518 19.216,291.744 23.703,292.253 C28.202,292.773 26.546,296.126 31.512,299.733 C36.477,303.34 48.301,302.045 52.327,302.045 C56.342,302.045 57.531,295.345 62.968,295.091 C68.41,294.831 67.933,293.027 70.532,289.42 C73.137,285.807 85.438,286.842 97.973,287.616 C110.508,288.391 115.95,284.264 117.839,278.587 C119.457,273.754 128.48,273.436 132.029,269.829 C135.577,266.222 138.654,265.967 147.873,266.476 C157.098,266.996 165.612,261.58 171.527,259.007 C177.436,256.423 188.321,257.458 193.997,255.915 C199.673,254.36 200.617,263.644 207.004,262.869 C213.391,262.094 216.228,264.933 219.539,264.673 C222.849,264.418 222.377,267.251 225.687,268.02 C228.997,268.8 228.525,271.893 226.403,275.24 C224.27,278.587 231.363,278.338 235.861,285.038 C240.354,291.744 236.094,292.773 238.46,297.923 C240.826,303.08 242.481,301.785 247.213,294.571 C251.939,287.356 257.143,291.998 257.854,285.807 C258.559,279.622 263.535,272.407 266.845,275.5 C270.155,278.587 264.479,280.136 262.347,291.998 C260.22,303.855 256.437,297.663 255.727,301.01 C255.016,304.363 265.657,306.173 265.657,299.987 C265.657,293.796 267.556,290.963 271.577,296.634 C275.592,302.305 269.206,306.947 270.155,309.52 C271.099,312.098 275.592,308.745 277.963,309.005 C282.17,309.462 287.894,319.572 286.944,324.989 C286,330.394 284.584,335.551 292.62,339.938 C300.662,344.32 297.59,345.089 303.5,345.089 C309.409,345.089 321.716,350.245 325.026,353.338 C328.336,356.425 336.85,351.02 338.505,344.829 C340.16,338.649 346.308,344.574 342.998,346.638 C339.683,348.696 344.658,353.598 344.892,350.245 C345.125,346.892 346.547,344.06 347.73,347.933 C348.913,351.794 353.172,351.794 354.827,354.887 C356.482,357.98 358.376,360.298 358.376,357.72 C358.376,355.147 359.32,352.818 363.102,351.274 C366.885,349.731 369.256,346.892 373.271,343.285 C377.292,339.678 393.848,338.903 395.508,338.903 C397.158,338.903 398.107,323.44 399.052,315.445 C400.001,307.462 406.149,306.173 407.088,297.663 C408.043,289.166 416.318,273.436 418.445,272.667 C420.578,271.893 424.599,269.575 424.832,264.673 C425.071,259.782 430.508,254.36 430.508,248.44 C430.508,242.509 433.59,235.549 433.112,233.751 C432.64,231.942 430.741,226.271 434.295,222.149 C437.839,218.022 432.874,213.125 434.762,211.582" fill="#1D649F"/>
  </g>
</svg>
