<?xml version="1.0" encoding="UTF-8"?>
<!DOCTYPE svg PUBLIC "-//W3C//DTD SVG 1.1//EN" "http://www.w3.org/Graphics/SVG/1.1/DTD/svg11.dtd">
<svg version="1.1" xmlns="http://www.w3.org/2000/svg" xmlns:xlink="http://www.w3.org/1999/xlink" x="0" y="0" width="99.846" height="77.528" viewBox="0, 0, 99.846, 77.528">
  <g id="Calque_1">
    <path d="M93.897,38.483 C91.998,37.962 90.82,33.326 87.743,32.037 C84.672,30.748 85.378,26.62 82.778,24.823 C80.179,23.013 81.829,19.406 81.595,16.568 C81.362,13.735 82.068,9.353 80.651,8.579 C79.224,7.804 73.315,4.197 70.721,5.492 C68.116,6.781 66.223,7.804 65.034,5.492 C63.857,3.174 62.202,1.879 59.603,2.653 C56.998,3.428 55.338,2.139 53.921,0.844 C53.709,0.647 53.534,0.341 53.38,0 C52.335,0.237 50.951,0.676 50.065,1.451 C48.484,2.827 48.176,5.578 45.964,5.578 C43.758,5.578 41.233,4.549 38.713,6.607 C36.183,8.671 35.557,11.082 35.87,12.793 C36.183,14.51 36.506,17.261 34.607,17.261 C32.719,17.261 33.037,19.672 31.143,20.36 C29.25,21.042 26.099,24.14 25.775,25.846 C25.467,27.574 25.467,31.355 24.2,31.355 C22.937,31.355 18.529,32.043 17.266,33.76 C16.004,35.477 14.434,37.188 11.909,36.506 C10.615,36.153 7.14,35.979 4.09,35.904 C4.138,36.24 4.138,36.575 4.021,36.933 C2.838,40.54 3.782,43.893 5.676,45.697 C7.564,47.501 8.275,54.721 6.148,55.75 C4.021,56.779 -0,59.871 -0,61.681 C-0,63.479 4.254,65.028 3.549,67.6 C3.146,69.08 3.135,71.699 3.363,73.982 C5.368,74.075 7.352,74.468 9.066,72.589 C10.959,70.525 11.909,68.121 16.004,68.121 C20.104,68.121 32.401,68.121 34.294,70.525 C36.183,72.936 41.233,70.872 44.065,72.248 C46.909,73.624 51.009,75 51.322,73.277 C51.64,71.56 55.428,75.688 58.26,73.971 C61.098,72.248 63.623,77.399 65.204,76.37 C66.78,75.335 73.4,75.341 74.975,77.063 C76.556,78.78 76.864,75.335 76.864,73.277 C76.864,71.213 83.176,65.721 83.176,65.721 C83.176,65.721 87.473,65.473 90.03,64.213 C89.462,63.322 88.979,61.86 88.454,59.357 C87.277,53.686 85.378,50.339 86.799,48.53 C88.221,46.726 92.236,50.853 94.364,49.819 C96.496,48.79 100.278,46.726 99.806,44.408 C99.334,42.09 95.785,38.991 93.897,38.483" fill="#1D649F"/>
  </g>
</svg>
