<?xml version="1.0" encoding="UTF-8"?>
<!DOCTYPE svg PUBLIC "-//W3C//DTD SVG 1.1//EN" "http://www.w3.org/Graphics/SVG/1.1/DTD/svg11.dtd">
<svg version="1.1" xmlns="http://www.w3.org/2000/svg" xmlns:xlink="http://www.w3.org/1999/xlink" x="0" y="0" width="31.081" height="18.909" viewBox="0, 0, 31.081, 18.909">
  <g id="Calque_1">
    <path d="M31.037,6.191 C24.688,-0.162 22.964,4.96 18.725,2.526 C14.232,-0.046 12.105,-0.821 9.978,0.983 C7.846,2.786 4.535,2.526 2.403,8.197 C1.708,10.058 0.838,11.798 -0,13.105 C0.737,14.833 1.867,16.047 2.774,15.799 C4.456,15.342 6.556,18.562 9.92,17.643 C13.293,16.718 15.399,19.938 20.035,18.562 C24.656,17.18 28.873,20.394 30.56,17.18 C32.247,13.966 29.297,7.087 29.297,7.087 C29.297,7.087 30.072,6.665 31.037,6.191" fill="#1D649F"/>
  </g>
</svg>
