<?xml version="1.0" encoding="UTF-8"?>
<!DOCTYPE svg PUBLIC "-//W3C//DTD SVG 1.1//EN" "http://www.w3.org/Graphics/SVG/1.1/DTD/svg11.dtd">
<svg version="1.1" xmlns="http://www.w3.org/2000/svg" xmlns:xlink="http://www.w3.org/1999/xlink" x="0" y="0" width="95.112" height="111.177" viewBox="0, 0, 95.112, 111.177">
  <g id="Calque_1">
    <path d="M87.547,45.547 C84.311,45.668 80.089,40.905 80.089,37.413 C80.089,33.927 75.819,31.025 75.819,28.69 C75.819,26.372 68.886,22.302 65.151,20.562 C61.417,18.816 60.886,6.607 59.29,6.607 C58.085,6.607 54.791,3.018 53.21,-0 C50.585,0.682 47.763,1.486 46.044,1.486 C42.893,1.486 39.731,4.925 38.474,6.642 C37.206,8.371 34.697,3.549 32.798,2.185 C30.91,0.804 23.022,5.278 20.81,5.966 C18.603,6.654 10.721,7.336 10.721,7.336 C10.721,7.336 10.721,42.726 10.721,47.2 C10.721,51.668 0,48.917 0,51.668 C0,52.952 0,68.837 0,85.844 C2.313,86.763 4.509,87.983 5.05,89.469 C6.312,92.908 9.145,100.464 8.514,102.528 C7.888,104.586 6.312,103.216 6.312,105.285 C6.312,107.343 5.05,110.436 8.201,110.436 C11.352,110.436 16.715,112.499 18.922,109.742 C21.128,106.99 28.385,100.805 28.703,97.718 C29.011,94.625 30.586,87.752 35.949,91.538 C41.318,95.307 41.631,96.001 48.569,96.001 C55.502,96.001 57.396,95.649 58.653,90.845 C59.915,86.029 58.658,82.254 62.759,82.254 C66.854,82.254 71.899,78.127 71.899,75.034 C71.899,71.942 73.792,67.138 76.317,67.138 C78.842,67.138 84.195,63.692 84.837,60.253 C85.462,56.825 89.876,58.195 91.457,56.131 C92.226,55.125 93.754,52.721 95.112,50.518 C95.112,50.495 95.074,50.483 95.074,50.483 C95.074,48.397 94.369,45.31 87.547,45.547" fill="#1D649F"/>
  </g>
</svg>
