<?xml version="1.0" encoding="UTF-8"?>
<!DOCTYPE svg PUBLIC "-//W3C//DTD SVG 1.1//EN" "http://www.w3.org/Graphics/SVG/1.1/DTD/svg11.dtd">
<svg version="1.1" xmlns="http://www.w3.org/2000/svg" xmlns:xlink="http://www.w3.org/1999/xlink" x="0" y="0" width="421.494" height="472.845" viewBox="0, 0, 421.494, 472.845">
  <g id="Calque_1">
    <path d="M224.255,467.469 C230.875,462.312 229.22,459.225 232.291,453.04 C235.368,446.849 232.769,444.276 237.973,438.86 C243.176,433.449 237.023,429.842 243.648,426.495 C250.274,423.136 249.324,429.587 243.882,437.056 C238.445,444.536 237.495,446.594 244.593,440.929 C251.69,435.252 254.29,427.263 258.31,418.24 C262.331,409.222 265.408,406.389 268.957,405.869 C272.5,405.354 272.5,395.816 272.028,389.122 C271.556,382.416 269.668,376.231 272.267,371.849 C274.866,367.473 272.267,363.345 275.577,363.345 C278.892,363.345 283.857,357.929 289.056,352.258 C294.265,346.587 297.575,346.073 303.012,345.558 C308.45,345.044 305.378,342.98 308.927,341.951 C312.47,340.922 314.836,337.315 317.202,334.985 C319.568,332.667 329.265,335.245 334.941,335.245 C340.617,335.245 344.404,335.765 344.404,331.898 C344.404,328.031 347.003,324.932 350.313,324.932 C353.624,324.932 355.05,323.903 355.05,318.753 C355.05,313.596 356.467,310.503 359.299,308.185 C362.143,305.862 362.615,300.717 363.559,297.364 C364.509,294.011 367.58,296.069 367.58,291.173 C367.58,286.282 369.235,280.866 369.235,276.998 C369.235,273.131 373.022,273.645 374.677,270.813 C376.333,267.98 373.261,264.373 375.855,256.378 C378.46,248.389 375.855,240.915 375.855,233.7 C375.855,226.486 375.855,219.006 378.226,216.687 C380.587,214.369 379.404,213.08 377.515,212.046 C375.622,211.017 377.749,208.178 379.404,208.698 C381.059,209.213 382.953,213.08 386.029,211.017 C389.106,208.953 391.944,200.189 394.543,192.975 C397.148,185.755 401.402,186.015 404.712,184.465 C408.022,182.922 415.12,174.158 419.613,161.527 C424.111,148.902 419.374,136.526 417.486,127.768 C415.592,118.998 412.993,120.802 408.261,121.068 C403.529,121.322 394.543,120.033 382.714,106.113 C370.895,92.193 359.299,93.228 351.502,95.546 C343.693,97.87 335.652,91.424 330.448,90.135 C325.244,88.846 320.279,96.06 316.497,97.61 C312.709,99.153 318.385,91.424 318.624,86.528 C318.862,81.626 304.434,74.666 293.554,70.03 C282.669,65.388 277.943,67.711 277.943,75.186 C277.943,82.66 273.688,72.868 270.373,80.857 C267.063,88.846 260.91,83.689 264.936,81.111 C268.957,78.539 272.739,72.608 274.155,67.711 C275.577,62.809 258.549,58.942 252.634,61.526 C246.725,64.104 250.507,73.388 245.776,70.544 C241.044,67.711 244.831,60.751 248.614,61.006 C252.396,61.272 256.655,52.762 259.255,46.577 C261.859,40.392 254.767,39.357 250.507,34.2 C246.301,29.102 247.165,14.228 242.853,11.887 C238.222,16.87 232,24.685 230.249,30.408 C228.005,37.744 225.125,33.553 219.04,35.646 C212.956,37.744 210.07,34.94 208.474,32.16 C206.872,29.35 200.787,32.16 196.628,31.801 C192.464,31.454 195.026,37.386 192.146,39.137 C189.266,40.877 181.898,35.646 179.335,38.784 C176.779,41.923 175.177,38.784 173.898,41.577 C172.609,44.369 168.132,42.623 166.848,44.369 C165.57,46.109 161.093,47.155 155.327,40.178 C149.561,33.206 150.521,21.685 153.083,19.592 C155.645,17.506 155.645,11.569 152.123,9.817 C148.601,8.089 152.123,0.753 147.64,0.053 C143.158,-0.64 143.8,5.638 140.92,6.678 C138.039,7.73 130.995,12.962 127.791,12.268 C124.587,11.569 120.423,12.962 120.423,16.794 C120.423,20.644 116.906,19.592 116.264,16.453 C115.627,13.32 108.901,15.06 106.981,12.962 C105.06,10.869 96.096,11.916 99.936,14.361 C103.777,16.794 104.095,19.246 104.095,23.078 C104.095,26.917 106.981,25.876 106.981,30.408 C106.981,34.94 110.179,31.801 112.423,31.801 C114.662,31.801 114.662,35.998 111.145,36.692 C107.617,37.391 106.021,39.472 105.06,42.976 C104.095,46.461 100.896,44.016 98.016,46.808 C95.13,49.606 92.573,52.392 90.648,50.993 C88.728,49.606 87.131,50.652 84.887,52.04 C82.648,53.433 81.688,52.04 78.484,49.253 C76.087,47.161 74.58,42.12 70.336,37.524 C67.801,38.831 62.655,40.854 59.892,40.854 C56.157,40.854 44.423,39.923 43.787,42.137 C43.15,44.34 44.641,48.068 46.556,48.525 C48.482,48.993 52.529,50.271 48.694,53.294 C44.848,56.306 41.437,52.242 41.437,59.566 C41.437,66.891 50.057,71.642 48.264,78.406 C47.341,81.88 46.079,90.823 46.079,94.262 C46.079,97.69 44.821,109.373 41.983,110.056 C39.145,110.755 36.62,107.321 32.833,110.755 C29.045,114.183 24.319,112.125 19.906,115.911 C15.492,119.686 10.766,118.31 10.448,122.773 C10.129,127.248 6.034,129.652 6.978,133.774 C7.928,137.901 5.085,136.867 2.247,139.959 C-0.586,143.052 2.56,145.116 0.666,147.526 C-1.228,149.931 1.297,153.706 3.509,157.481 C5.716,161.273 8.241,164.013 7.928,167.453 C7.604,170.892 10.129,172.268 13.285,171.915 C16.436,171.58 13.911,178.448 18.961,178.448 C24.006,178.448 29.045,179.835 30.313,176.731 C31.576,173.638 35.045,171.233 35.045,175.708 C35.045,180.165 34.101,192.2 37.565,190.824 C41.039,189.449 47.972,189.79 51.447,191.171 C54.911,192.541 58.375,191.171 60.587,188.766 C62.799,186.356 65.313,186.362 69.726,183.61 C74.145,180.858 78.246,177.425 82.346,177.425 C86.447,177.425 93.38,174.673 92.435,178.107 C91.486,181.54 90.86,194.264 95.905,200.785 C100.949,207.317 103.787,209.722 108.519,209.034 C113.245,208.346 112.619,211.097 116.089,210.762 C119.558,210.415 117.351,214.878 120.507,214.878 C123.653,214.878 129.329,215.566 129.329,219.347 C129.329,223.133 138.792,220.04 140.999,222.098 C143.211,224.162 145.731,225.873 145.1,229.995 C144.468,234.122 149.831,237.215 146.68,238.932 C143.524,240.655 147.625,244.088 147.943,248.557 C148.25,253.025 152.669,254.748 159.608,254.395 C166.546,254.06 168.44,254.748 168.44,260.251 C168.44,265.737 173.166,266.431 174.742,271.587 C176.322,276.738 172.853,282.577 173.484,286.704 C173.967,289.872 172.211,293.219 170.238,294.612 C172.668,297.982 172.869,299.508 170.689,300.815 C167.814,302.555 174.217,307.445 172.609,315.117 C171.018,322.799 170.694,324.187 178.062,324.545 C185.42,324.892 184.783,327.331 187.34,325.58 C189.908,323.845 193.743,331.522 194.703,335.367 C195.668,339.193 198.549,348.258 199.827,348.258 C201.111,348.258 204.951,344.078 208.792,346.171 C212.367,348.119 207.917,361.23 207.784,366.976 C210.458,366.872 213.72,366.877 214.802,367.473 C216.717,368.513 217.677,382.613 216.722,385.226 C215.762,387.833 207.853,390.18 203.779,393.053 C199.705,395.932 189.881,406.112 185.33,414.21 C182.63,419.008 178.694,422.968 175.914,426.442 C177.235,426.645 178.349,426.581 179.102,426.229 C181.256,425.176 184.608,425.176 188.21,429.876 C191.801,434.576 191.563,438.235 193,437.975 C194.438,437.709 196.119,431.709 198.994,436.143 C201.869,440.588 209.291,443.981 210.972,446.074 C212.648,448.161 218.16,449.727 218.16,455.202 C218.16,459.133 216.462,466.549 219.279,472.845 C220.626,470.949 222.165,469.093 224.255,467.469" fill="#1D649F"/>
  </g>
</svg>
