<?xml version="1.0" encoding="UTF-8"?>
<!DOCTYPE svg PUBLIC "-//W3C//DTD SVG 1.1//EN" "http://www.w3.org/Graphics/SVG/1.1/DTD/svg11.dtd">
<svg version="1.1" xmlns="http://www.w3.org/2000/svg" xmlns:xlink="http://www.w3.org/1999/xlink" x="0" y="0" width="66.503" height="39.853" viewBox="0, 0, 66.503, 39.853">
  <g id="Calque_1">
    <path d="M51.523,0.33 C48.998,-0.012 41.11,0.33 38.898,2.74 C36.691,5.145 33.858,6.515 31.333,6.18 C28.809,5.833 21.552,5.492 19.976,5.833 C18.411,6.18 9.892,4.116 8.63,4.457 C7.511,4.763 5.41,0.526 2.551,0 C2.413,0.393 2.163,0.763 1.686,1.104 C-0.441,2.653 -0.68,6.769 1.686,9.099 C4.047,11.417 7.129,16.573 4.996,16.573 C2.874,16.573 1.209,19.66 1.447,21.204 C1.686,22.759 0.737,26.106 1.447,26.881 C2.163,27.655 7.129,32.812 7.362,34.355 C7.574,35.714 9.601,36.419 9.452,37.61 C13.425,37.286 21.849,36.76 23.759,37.795 C26.284,39.176 35.121,39.853 35.121,39.853 C37.635,39.853 39.847,38.824 39.216,37.107 C38.686,35.656 41.969,34.696 44.34,34.43 C43.927,32.846 43.645,31.534 44.261,31.262 C45.438,30.748 52.303,29.713 55.135,31.262 C56.578,32.049 58.201,31.303 59.448,30.384 C59.071,28.939 58.7,27.8 57.979,27.655 C56.233,27.314 53.565,19.406 55.766,18.886 C57.979,18.377 60.816,10.122 64.286,8.925 C65.665,8.446 66.254,7.544 66.503,6.434 C63.501,5.33 60.53,3.983 60.031,3.093 C59.082,1.37 54.032,0.682 51.523,0.33" fill="#1D649F"/>
  </g>
</svg>
