<?xml version="1.0" encoding="UTF-8"?>
<!DOCTYPE svg PUBLIC "-//W3C//DTD SVG 1.1//EN" "http://www.w3.org/Graphics/SVG/1.1/DTD/svg11.dtd">
<svg version="1.1" xmlns="http://www.w3.org/2000/svg" xmlns:xlink="http://www.w3.org/1999/xlink" x="0" y="0" width="948.416" height="794.342" viewBox="0, 0, 948.416, 794.342">
  <g id="Calque_1">
    <path d="M476.184,672.981 C471.006,673.605 476.656,658.032 467.192,652.361 C456.074,645.695 451.114,633.29 451.114,626.59 C451.114,619.89 460.572,616.797 464.36,621.948 C468.137,627.105 473.818,648.239 477.128,654.939 C480.438,661.639 480.438,672.466 476.184,672.981 z M311.582,485.62 C304.246,492.586 304.813,490.742 298.421,491.968 C292.024,493.199 297.106,500.171 289.393,500.778 C281.68,501.402 263.066,502.223 260.43,497.506 C259.549,495.927 270.588,497.095 271.341,493.615 C272.094,490.124 275.102,484.586 279.802,484.586 C284.502,484.586 284.125,477.834 276.418,473.735 C268.71,469.637 287.509,466.966 291.838,473.521 C296.161,480.088 303.874,484.805 308.197,480.088 C312.521,475.371 337.161,462.255 337.161,468.405 C337.161,474.55 318.918,478.655 311.582,485.62 z M251.783,402.828 C245.577,411.228 243.508,412.459 237.11,411.228 C230.718,410.008 226.772,413.488 229.965,415.945 C233.164,418.407 233.35,420.46 226.772,422.096 C220.183,423.732 215.86,429.264 213.229,428.651 C210.598,428.038 224.512,417.17 220.937,414.303 C217.367,411.442 208.529,419.234 208.338,422.708 C208.153,426.188 202.323,426.396 198.753,426.188 C195.172,425.986 190.472,422.292 194.048,421.887 C197.623,421.477 195.172,417.17 200.068,415.13 C204.954,413.072 199.119,410.008 200.631,407.748 C202.137,405.493 212.099,410.008 212.29,405.909 C212.476,401.805 202.323,398.325 198.933,400.782 C195.554,403.239 187.65,408.973 178.251,404.464 C175.285,403.048 201.946,399.967 206.46,395.458 C210.975,390.943 231.281,385.821 232.787,389.92 C234.288,394.013 221.886,396.683 227.896,400.371 C233.912,404.065 243.699,401.603 245.948,397.707 C248.202,393.816 257.989,394.429 251.783,402.828 z M867.377,736.904 C864.062,737.425 866.666,731.748 867.138,728.915 C867.61,726.077 860.041,730.204 859.807,733.552 C859.569,736.904 854.365,738.193 854.365,740.257 C854.365,746.269 853.659,743.09 849.872,745.154 C846.09,747.211 831.422,745.154 830.95,741.541 C830.478,737.933 819.837,736.13 819.365,731.228 C818.888,726.337 813.684,724.788 817.943,719.383 C822.198,713.961 817.232,711.388 813.212,715.51 C809.191,719.637 806.83,713.192 812.267,710.874 C817.71,708.556 827.879,706.232 822.675,695.925 C817.471,685.617 784.832,699.011 776.557,704.168 C768.276,709.324 757.869,725.823 753.376,725.823 C748.883,725.823 761.179,717.053 763.073,713.706 C764.966,710.353 762.6,707 765.2,708.295 C767.804,709.579 775.135,697.214 780.1,693.086 C785.065,688.965 790.508,692.832 791.219,689.479 C791.93,686.126 794.295,683.808 799.022,679.172 C803.753,674.53 860.279,675.305 865.722,675.565 C871.159,675.819 881.8,667.83 884.877,662.674 C887.953,657.517 891.974,657.517 899.544,658.032 C907.108,658.546 910.657,651.077 914.439,648.239 C918.227,645.406 916.805,644.117 913.495,643.343 C910.185,642.574 907.108,640.25 910.418,639.99 C913.734,639.736 915.389,637.672 916.805,633.036 C918.227,628.388 915.622,630.457 911.129,624.012 C906.636,617.566 904.27,626.076 899.777,625.555 C895.284,625.041 902.854,618.861 899.067,616.277 C895.284,613.699 888.187,615.508 882.511,620.665 C876.835,625.815 877.307,620.405 872.342,625.555 C867.377,630.712 867.377,622.983 869.737,620.919 C872.109,618.861 873.764,621.174 875.891,618.087 C878.018,614.988 880.145,618.087 885.588,614.214 C891.025,610.352 895.757,612.161 897.412,609.323 C899.067,606.485 894.807,602.617 889.608,603.906 C884.405,605.201 880.856,596.172 877.546,598.75 C874.236,601.328 874.941,594.888 871.159,597.467 C867.377,600.045 865.244,596.692 863.589,591.79 C861.934,586.899 851.765,578.905 845.617,576.841 C839.464,574.783 843.49,571.176 846.8,573.748 C850.11,576.332 853.893,571.176 855.314,568.597 C856.731,566.013 852.948,563.701 851.055,563.441 C849.166,563.175 849.166,559.822 849.638,557.25 C850.11,554.672 843.013,551.313 842.779,548.741 C842.541,546.162 838.52,544.359 838.759,542.041 C838.992,539.723 834.738,536.37 834.738,533.277 C834.738,530.184 827.64,523.999 827.401,520.397 C827.168,516.784 823.386,514.206 821.964,509.824 C820.543,505.443 818.654,507.506 817.232,513.692 C815.816,519.877 810.846,519.623 812.267,521.675 C815.18,525.918 812.978,526.057 810.846,528.641 C808.719,531.219 812.267,535.086 808.719,535.086 C805.175,535.086 806.83,543.075 804.936,539.468 C803.043,535.861 798.55,536.884 798.55,540.491 C798.55,544.099 790.98,547.451 787.909,547.203 C784.832,546.937 784.832,539.977 782.227,542.041 C779.628,544.099 780.1,536.115 776.079,536.37 C772.058,536.624 769.221,536.115 770.403,532.248 C771.586,528.381 763.545,526.577 766.149,524.259 C768.748,521.935 765.438,517.819 764.966,511.114 C764.494,504.414 768.515,503.899 768.515,501.321 C768.515,498.749 765.672,498.749 762.834,500.806 C759.996,502.864 759.996,497.974 756.919,498.228 C753.848,498.483 744.623,497.974 744.151,493.326 C743.679,488.69 740.602,491.014 739.186,486.632 C737.764,482.25 733.982,485.591 733.982,482.505 C733.982,479.412 732.327,478.123 729.484,477.863 C726.651,477.602 725.707,474.255 721.919,473.741 C718.137,473.226 713.405,476.579 711.273,477.602 C709.146,478.637 703.709,473.995 701.582,475.805 C699.449,477.602 698.977,474.516 693.068,472.712 C687.153,470.903 679.345,470.388 678.872,472.712 C678.4,475.03 673.669,475.805 674.38,481.21 C675.09,486.632 680.061,485.591 681.238,489.204 C682.421,492.812 678.872,491.528 678.639,494.875 C678.4,498.228 675.329,497.974 675.329,500.286 C675.329,502.61 677.456,502.096 678.639,506.738 C679.822,511.368 682.183,511.114 682.893,517.299 C683.604,523.484 681,522.195 678.639,522.97 C676.273,523.745 678.872,526.831 675.562,530.959 C672.252,535.086 669.414,539.468 672.014,542.041 C674.618,544.619 684.31,549.001 688.097,555.961 C691.879,562.921 691.646,573.748 690.463,581.483 C689.28,589.217 681.238,591.021 675.329,597.721 C669.414,604.427 663.261,603.392 660.423,603.652 C657.585,603.906 659.24,610.092 663.261,614.988 C667.282,619.89 663.972,621.434 666.104,626.59 C668.232,631.747 666.104,635.862 669.176,640.504 C672.252,645.146 670.359,646.95 666.81,650.303 C663.261,653.656 668.232,651.852 668.465,656.234 C668.704,660.616 666.81,658.032 663.733,655.714 C660.662,653.396 657.824,660.095 657.824,662.928 C657.824,665.766 650.493,659.066 648.838,659.321 C647.183,659.581 649.31,654.939 645.05,651.332 C640.796,647.725 637.481,646.95 637.481,643.343 C637.481,639.736 630.15,637.157 630.15,633.036 C630.15,628.908 631.099,618.341 629.444,615.248 C627.789,612.161 629.206,608.808 630.627,605.976 C632.043,603.132 628.972,598.75 624.713,598.75 C620.453,598.75 614.544,597.206 608.629,597.721 C602.72,598.241 599.404,597.206 597.516,595.397 C595.622,593.599 590.18,589.732 582.849,587.668 C575.518,585.61 572.208,581.483 571.497,579.17 C570.786,576.841 563.455,575.043 561.8,572.725 C560.145,570.395 553.047,569.118 550.209,569.626 C547.371,570.141 540.279,563.175 536.02,563.441 C531.765,563.701 521.83,568.343 520.175,568.597 C518.514,568.858 520.408,564.736 521.591,562.921 C522.774,561.117 518.042,553.383 516.859,548.226 C515.676,543.075 514.021,537.399 509.056,538.173 C504.091,538.948 498.649,536.115 497.232,535.086 C495.811,534.046 495.577,519.357 496.76,513.177 C497.943,506.986 504.091,497.708 504.091,493.846 C504.091,489.979 508.112,488.176 511.661,487.147 C515.204,486.112 512.366,478.637 515.915,478.123 C519.464,477.602 519.697,476.059 520.408,472.972 C521.119,469.874 525.379,471.937 523.013,469.365 C520.647,466.781 522.541,466.012 527.978,466.012 C533.42,466.012 541.457,463.943 540.279,458.023 C539.091,452.092 524.906,456.474 524.906,451.577 C524.906,446.675 506.929,446.421 508.112,443.588 C509.295,440.75 526.089,445.646 532.232,448.219 C538.385,450.803 540.04,450.548 545.006,450.288 C549.976,450.028 546.661,443.068 547.61,440.236 C548.554,437.397 558.018,444.612 563.455,443.068 C568.897,441.519 574.101,429.408 578.594,426.061 C583.087,422.708 579.066,419.616 570.314,420.39 C561.561,421.165 556.596,417.558 551.87,413.685 C547.133,409.823 547.61,406.73 552.575,407.245 C557.54,407.754 569.37,418.332 573.863,418.581 C578.356,418.841 586.159,409.048 589.941,405.956 C593.728,402.863 586.397,401.568 583.798,399.256 C581.194,396.932 588.286,395.388 592.073,395.388 C595.861,395.388 597.516,398.996 598.932,400.793 C600.354,402.603 606.974,399.516 610.284,399.516 C613.594,399.516 609.812,393.579 604.375,391.261 C598.932,388.949 604.608,384.567 606.263,388.174 C607.918,391.781 611.7,391.007 613.594,395.134 C616.352,401.146 618.092,397.186 622.819,395.388 C627.55,393.579 629.916,390.486 632.516,387.399 C635.115,384.307 635.592,387.914 638.664,383.018 C641.74,378.116 637.247,373.479 633.46,370.387 C629.683,367.294 633.698,364.201 629.916,362.143 C626.134,360.074 625.423,356.206 630.15,357.241 C634.881,358.27 638.664,356.721 640.796,353.114 C642.923,349.507 633.698,348.732 637.958,346.154 C642.212,343.581 638.664,341.009 634.409,341.009 C630.15,341.009 626.601,338.685 626.368,334.818 C626.134,330.95 618.798,333.534 614.305,331.205 C609.812,328.892 599.876,329.407 597.516,329.667 C595.15,329.921 594.911,340.489 598.46,340.749 C602.009,341.009 604.847,345.125 601.77,346.42 C598.699,347.709 602.247,351.83 599.876,351.57 C597.516,351.316 593.728,350.027 593.018,356.721 C592.312,363.427 591.835,366.005 587.814,368.323 C583.798,370.647 586.869,360.848 583.087,361.109 C579.3,361.369 578.833,369.358 581.666,370.132 C584.504,370.901 584.976,373.479 585.687,377.347 C586.397,381.214 580.488,378.37 578.117,383.018 C575.756,387.654 575.518,380.954 572.208,377.867 C568.897,374.763 564.871,369.612 565.11,365.75 C565.317,362.363 567.004,361.109 569.603,360.594 C572.208,360.074 569.603,357.496 569.37,352.859 C569.131,348.223 566.054,349.767 562.272,344.87 C558.49,339.974 554.469,339.974 552.336,342.292 C550.209,344.616 551.631,348.992 548.321,350.541 C545.006,352.091 546.427,359.305 543.589,359.814 C540.751,360.334 542.406,347.188 540.04,345.899 C537.675,344.616 537.913,341.518 541.457,341.009 C545.006,340.489 547.133,336.367 544.061,336.367 C540.985,336.367 535.542,332.76 533.42,331.725 C531.288,330.69 527.744,336.107 525.379,334.043 C523.013,331.985 525.612,326.823 525.851,323.99 C526.089,321.158 529.633,325.285 531.999,321.672 C534.365,318.065 525.379,318.065 525.379,314.198 C525.379,310.33 518.281,309.301 515.915,308.012 C513.549,306.723 517.57,300.278 516.387,297.699 C515.204,295.127 506.457,286.618 502.675,287.392 C498.887,288.167 497.943,281.981 500.07,282.242 C502.197,282.496 503.852,280.952 507.879,276.05 C511.894,271.154 512.366,269.605 509.528,268.576 C506.69,267.547 505.274,264.454 510.239,264.709 C515.204,264.969 523.957,268.576 526.795,266.258 C529.633,263.94 538.624,248.73 542.168,243.32 C545.716,237.909 539.568,237.389 531.054,238.163 C522.541,238.938 520.647,234.556 513.549,234.042 C506.457,233.527 493.211,235.585 491.318,237.909 C489.429,240.221 494.866,242.285 494.156,244.863 C493.445,247.441 489.191,243.06 487.297,244.089 C485.403,245.123 488.008,248.476 487.297,257.494 C486.586,266.512 488.952,267.032 491.318,270.379 C493.684,273.732 493.211,278.114 493.211,283.785 C493.211,289.456 488.241,289.196 486.586,290.485 C484.931,291.774 490.846,293.832 489.896,297.445 C488.952,301.052 483.987,295.381 481.149,296.41 C478.311,297.445 475.945,306.209 479.022,309.041 C482.093,311.88 483.276,311.365 480.915,314.718 C478.549,318.065 475.945,322.956 481.621,327.858 C487.297,332.76 497.704,332.239 503.147,336.107 C508.584,339.974 500.781,337.65 502.908,342.032 C505.035,346.42 499.359,347.963 499.598,351.316 C499.832,354.663 501.964,352.859 504.802,347.188 C507.64,341.518 509.767,348.732 509.528,353.634 C509.295,358.536 505.274,355.698 502.197,360.594 C499.126,365.49 496.283,366.259 491.79,365.23 C487.297,364.201 489.896,372.19 491.79,376.572 C493.684,380.954 491.318,382.497 486.119,380.954 C480.915,379.41 477.839,375.797 480.438,371.416 C483.037,367.034 484.931,361.877 481.86,362.398 C478.783,362.918 471.685,362.143 469.558,358.536 C467.431,354.923 470.98,356.467 477.367,357.241 C483.748,358.016 478.311,352.599 483.037,352.599 C487.774,352.599 491.318,355.438 495.339,351.57 C499.359,347.709 492.739,340.228 489.429,341.518 C486.119,342.807 480.915,344.356 480.915,340.749 C480.915,337.142 486.586,339.714 489.663,338.939 C492.739,338.165 488.008,333.534 483.276,334.818 C478.549,336.107 475.234,336.367 471.452,331.985 C467.67,327.597 460.811,325.025 459.156,335.072 C457.501,345.125 450.875,339.714 448.271,343.067 C445.672,346.42 451.347,348.732 457.734,348.992 C464.121,349.252 468.847,355.698 465.776,355.698 C462.705,355.698 464.121,360.594 460.811,358.79 C457.501,356.987 454.185,358.79 456.551,361.877 C458.917,364.976 455.607,366.259 455.84,369.358 C456.074,372.45 450.875,369.612 445.91,369.098 C440.94,368.583 431.72,370.387 425.095,371.93 C418.47,373.479 411.139,370.901 408.306,367.548 C405.463,364.201 401.68,364.716 396.949,364.716 C392.217,364.716 393.639,359.814 387.491,359.565 C381.343,359.305 382.759,353.634 382.048,350.281 C381.343,346.934 369.041,347.963 364.548,351.056 C360.055,354.148 351.303,352.859 348.937,358.536 C346.571,364.201 351.064,363.427 353.669,363.427 C357.286,363.427 356.979,358.79 363.599,359.814 C370.224,360.848 374.956,352.345 377.794,355.438 C380.632,358.536 366.442,364.456 360.289,365.49 C354.141,366.525 355.562,371.93 361.472,381.474 C367.386,391.007 358.872,385.59 358.872,390.232 C358.872,394.868 347.754,388.689 352.252,387.139 C356.74,385.59 354.613,380.694 351.064,377.607 C347.52,374.508 345.155,377.607 345.627,374.26 C346.099,370.901 341.839,374.508 338.529,371.676 C335.219,368.837 333.564,366.525 329.071,369.098 C324.578,371.676 319.374,370.901 309.439,372.705 C299.503,374.508 281.298,373.994 277.982,370.387 C274.672,366.779 286.496,360.334 290.045,361.369 C293.482,362.363 291.467,357.241 286.024,352.599 C280.582,347.963 268.524,345.125 268.758,347.963 C268.996,350.801 261.899,348.223 253.152,346.42 C244.399,344.616 243.216,341.263 237.54,341.009 C232.06,340.754 223.35,338.939 216.725,333.274 C210.105,327.597 194.493,329.147 192.605,334.297 C190.711,339.454 185.507,339.199 180.303,339.199 C175.1,339.199 182.653,332.829 180.776,331.725 C178.282,330.268 181.014,323.216 177.227,322.707 C173.445,322.187 169.896,339.714 162.804,339.199 C155.706,338.685 152.629,320.643 146.72,316.001 C140.805,311.365 135.363,311.105 140.333,318.065 C145.298,325.025 136.074,320.123 136.551,324.765 C137.023,329.407 128.509,334.818 128.743,332.239 C128.981,329.667 124.011,326.823 118.34,334.043 C112.664,341.263 108.638,340.228 108.166,337.65 C107.694,335.072 90.905,344.356 91.61,347.449 C92.321,350.541 89.011,352.859 84.518,352.599 C80.02,352.345 83.569,348.223 87.118,346.154 C91.107,343.847 102.018,334.297 107.694,333.274 C113.37,332.239 124.25,327.343 124.483,324.511 C124.722,321.672 119.046,323.99 115.258,323.216 C111.482,322.447 104.856,327.083 98.469,330.181 C92.083,333.274 84.752,332.239 86.645,336.367 C88.534,340.489 80.731,335.847 79.076,338.685 C77.421,341.518 74.344,338.425 76.71,336.881 C79.076,335.332 71.034,332.5 71.034,334.297 C71.034,336.107 69.612,338.425 63.942,338.425 C58.266,338.425 52.585,342.807 56.372,345.899 C60.154,348.992 62.52,350.541 60.626,352.599 C58.738,354.663 52.823,347.188 44.543,347.963 C36.268,348.732 19.712,337.91 19.712,335.332 C19.712,333.245 8.068,334.54 -0,333.598 L-0,511.744 C-0,511.744 4.1,515.073 5.676,513.004 C7.257,510.946 10.095,513.703 15.458,510.946 C20.815,508.194 22.704,514.039 22.704,516.784 C22.704,519.536 30.273,524.01 33.43,528.467 C36.581,532.942 38.156,536.717 41.631,534.312 C45.094,531.913 51.402,530.537 51.402,526.057 C51.402,521.6 65.91,520.912 65.91,526.756 C65.91,532.595 80.731,539.474 88.932,555.273 C97.127,571.083 95.865,574.523 107.848,579.679 C119.836,584.836 119.523,587.581 117.943,592.056 C116.362,596.513 125.194,598.923 120.149,602.698 C118.218,604.149 115.497,606.259 112.877,608.306 C113.105,610.572 114.983,612.028 117.391,614.214 C120.229,616.797 112.187,616.797 114.553,619.116 C116.913,621.434 114.081,625.041 116.447,627.879 C118.807,630.712 123.067,629.683 125.666,627.365 C128.271,625.041 130.164,630.203 128.032,634.065 C125.905,637.932 130.398,640.765 132.53,637.932 C134.657,635.094 139.15,642.574 141.277,643.857 C143.41,645.146 145.537,649.014 141.988,649.014 C138.44,649.014 138.912,655.714 141.516,655.968 C144.115,656.234 143.877,659.841 143.877,662.159 C143.877,664.477 152.157,667.83 155.234,666.801 C158.311,665.766 161.143,668.853 162.565,671.697 C163.987,674.53 169.657,676.588 171.79,674.79 C173.917,672.981 175.338,678.137 175.81,681.744 C176.283,685.352 181.014,683.294 183.852,683.039 C186.69,682.779 188.345,687.155 190.239,686.392 C194.403,684.681 195.66,692.612 198.419,697.26 L492.384,695.537 C492.384,695.537 492.58,687.589 496.049,690.329 C499.519,693.086 496.362,697.549 500.463,699.272 C504.563,700.989 507.407,703.74 509.608,702.705 C511.815,701.676 515.602,698.237 519.384,703.052 C523.167,707.862 526.01,703.74 528.216,706.833 C530.423,709.92 534.524,712.33 537.356,708.556 C539.659,705.48 548.385,709.197 552.612,710.891 C557.795,706.359 561.895,696.699 566.526,696.699 C572.68,696.699 588.286,698.237 589.235,707 C590.18,715.776 599.643,707.521 600.587,715.776 C601.393,722.776 607.642,728.297 606.592,732.002 C608.396,733.228 610.65,734.858 612.671,736.604 C615.673,735.511 623.678,736.904 628.972,738.962 C635.592,741.541 645.528,735.875 648.838,744.639 C652.148,753.397 659.834,760.01 652.62,760.611 C646.472,761.132 638.43,751.853 638.902,757.004 C639.374,762.161 635.592,759.588 635.592,767.317 C635.592,775.052 630.861,785.879 628.023,785.359 C627.917,785.336 627.842,785.272 627.752,785.232 C627.269,788.157 627.232,791.96 629.476,794.342 C633.083,791.492 638.25,786.584 642.69,786.908 C649.782,787.417 651.676,792.064 656.408,788.457 C661.134,784.844 662.078,783.301 663.028,785.879 C663.15,786.203 663.06,786.613 662.863,787.035 C664.667,785.989 665.94,784.971 666.025,784.151 C666.157,782.85 665.834,781.11 665.42,779.543 C660.678,780.295 659.134,780.682 657.824,777.11 C655.93,771.959 672.014,766.808 679.583,767.837 C686.76,768.803 691.8,763.317 694.32,766.687 C698.871,762.236 706.626,754.946 708.594,754.946 C711.438,754.946 745.18,754.594 745.18,754.594 C745.18,754.594 756.845,746.697 758.426,739.483 C759.996,732.268 767.565,715.076 771.984,718.863 C776.398,722.637 785.856,719.892 786.174,723.325 C786.466,726.499 783.028,738.188 795.165,755.651 C799.43,752.709 803.844,750.414 806.353,750.564 C810.612,750.819 816.999,744.639 818.888,740.766 C820.781,736.904 823.386,744.379 819.598,745.668 C815.816,746.957 822.675,750.044 829.295,749.79 C835.915,749.535 826.219,752.368 821.259,752.114 C816.288,751.853 814.161,752.628 807.536,759.848 C800.916,767.063 802.571,769.121 806.353,772.728 C810.14,776.341 815.105,774.797 820.309,769.895 C825.513,764.993 825.28,760.103 830.478,760.363 C835.682,760.611 849.166,755.201 855.076,753.143 C860.99,751.079 857.203,750.044 857.203,747.211 C857.203,744.379 867.61,744.379 871.398,741.541 C875.18,738.702 870.687,736.384 867.377,736.904 z M87.908,619.329 C79.394,624.266 99.859,647.794 104.129,644.84 C107.052,642.811 99.074,632.949 99.074,626.873 C99.074,620.786 96.416,614.404 87.908,619.329 z M942.904,714.047 C941.01,717.828 938.172,711.296 942.273,707.862 C946.373,704.428 941.641,703.052 937.854,705.116 C934.072,707.168 935.016,695.832 938.485,693.774 C941.96,691.71 929.971,687.589 929.971,691.364 C929.971,695.15 921.457,692.739 920.513,689.3 C919.569,685.872 913.58,684.843 915.781,682.432 C917.988,680.033 908.53,678.657 907.581,682.779 C906.636,686.901 903.798,680.027 908.53,674.53 C913.262,669.027 911.686,664.223 916.1,661.465 C920.508,658.72 915.781,655.627 911.05,657.691 C906.318,659.749 893.709,678.657 893.709,683.808 C893.709,688.965 893.391,695.15 888.977,694.803 C884.559,694.462 879.519,698.931 882.983,701.676 C886.452,704.428 873.827,712.238 879.832,715.776 C883.933,718.175 890.553,714.735 896.234,715.423 C901.905,716.111 906.636,716.452 911.368,712.677 C916.1,708.891 916.1,716.105 921.144,715.423 C926.189,714.735 918.306,719.892 918.619,723.666 C918.938,727.453 923.982,721.609 927.77,719.551 C931.552,717.487 936.278,719.551 934.39,722.99 C932.496,726.412 944.798,729.858 947.636,724.354 C950.474,718.863 944.798,710.267 942.904,714.047 z M822.908,683.294 C823.858,687.415 851.288,699.786 852.238,694.127 C853.182,688.45 822.097,679.756 822.908,683.294 z M645.528,244.609 C642.69,251.309 651.676,251.309 652.148,259.043 C652.62,266.772 661.611,269.35 668.232,264.709 C674.852,260.072 693.773,266.09 693.773,260.072 C693.773,254.401 673.907,244.089 666.81,245.638 C659.718,247.187 648.366,237.909 645.528,244.609 z M704.653,378.636 C710.329,377.607 709.279,368.063 706.069,363.172 C703.709,359.565 697.555,359.045 692.357,359.565 C687.153,360.074 678.167,368.837 682.893,377.607 C687.625,386.365 698.977,379.665 704.653,378.636 z M804.464,403.377 C810.14,403.892 811.084,411.627 820.076,419.87 C829.056,428.119 830.006,422.448 831.422,416.783 C832.844,411.112 842.779,415.748 842.307,410.077 C841.83,404.406 850.349,397.707 856.02,395.134 C861.701,392.556 851.288,386.365 843.724,386.879 C836.154,387.399 834.738,381.729 834.738,378.116 C834.738,374.508 820.543,365.75 815.816,367.294 C811.084,368.837 803.043,360.594 796.895,360.074 C790.747,359.565 781.755,354.409 782.705,347.188 C783.649,339.974 795.001,349.252 797.367,343.581 C799.733,337.91 785.537,341.009 785.065,336.881 C784.593,332.76 788.381,334.297 791.219,331.725 C794.057,329.147 788.853,323.99 785.537,321.932 C782.227,319.869 781.283,326.054 777.973,326.054 C774.663,326.054 777.501,320.383 779.867,316.776 C782.227,313.169 768.987,309.041 763.311,311.105 C757.635,313.169 755.742,309.561 755.742,305.434 C755.742,301.312 745.806,305.434 742.024,308.527 C738.236,311.625 733.51,305.434 738.236,304.92 C742.968,304.405 748.644,300.278 747.228,295.641 C745.806,291.005 733.51,290.485 731.139,296.156 C728.778,301.827 718.843,289.97 718.843,285.334 C718.843,280.692 703.709,284.814 705.602,277.085 C707.491,269.35 688.097,267.293 682.893,267.293 C677.69,267.293 670.125,271.929 671.069,277.085 C672.014,282.242 665.393,280.178 664.444,274.507 C663.5,268.836 650.726,280.692 646.944,280.692 C643.162,280.692 649.31,265.743 647.416,261.101 C645.528,256.465 642.69,254.916 639.852,247.187 C637.009,239.452 622.819,242.545 619.037,247.187 C615.249,251.823 602.953,249.759 596.333,256.98 C589.707,264.194 596.805,271.414 599.643,273.992 C602.481,276.565 589.707,280.692 593.967,284.814 C598.221,288.941 604.847,286.878 605.319,293.578 C605.791,300.278 589.707,291.52 587.342,285.849 C584.976,280.178 588.286,275.021 584.976,270.9 C581.666,266.772 584.504,261.622 590.652,254.401 C596.805,247.187 601.531,248.216 601.531,244.089 C601.531,239.973 575.046,239.973 559.434,255.43 C543.823,270.9 548.554,291.52 549.504,295.641 C550.448,299.763 564.166,297.699 572.208,300.278 C580.249,302.856 575.99,306.463 569.842,305.434 C563.694,304.405 553.286,302.341 553.758,306.983 C554.23,311.625 567.004,320.383 574.573,318.325 C582.143,316.261 582.143,316.261 585.453,320.898 C588.763,325.539 597.749,323.99 606.735,324.511 C615.727,325.025 626.134,328.632 630.388,329.147 C634.648,329.667 639.852,326.568 641.268,323.99 C642.69,321.418 660.19,328.118 665.393,327.597 C670.597,327.083 667.282,321.932 663.972,320.383 C660.662,318.84 662.078,312.134 666.338,314.718 C670.597,317.296 677.69,318.84 679.111,323.476 C680.315,327.424 684.31,325.539 684.787,329.147 C685.259,332.76 700.399,336.881 700.865,341.009 C701.343,345.125 686.203,347.188 690.463,350.801 C694.723,354.409 701.343,346.154 707.019,345.645 C712.695,345.125 712.695,359.045 716.954,356.987 C722.752,354.177 727.362,359.565 733.033,368.323 C738.708,377.092 732.566,385.341 733.033,388.428 C733.51,391.527 744.39,390.486 750.538,386.879 C756.686,383.272 762.362,391.007 767.093,395.643 C771.825,400.285 749.594,408.014 751.482,403.892 C753.376,399.77 738.236,387.399 724.519,393.065 C710.801,398.741 720.264,407.499 721.686,412.656 C723.102,417.812 709.385,422.963 696.611,418.332 C683.838,413.685 687.625,421.419 682.421,421.419 C677.217,421.419 671.542,430.177 676.273,435.854 C681,441.519 691.407,436.374 699.927,436.889 C708.44,437.397 709.385,439.981 710.329,434.825 C711.273,429.668 720.264,432.247 726.412,433.79 C732.566,435.334 731.139,444.612 738.708,445.646 C746.278,446.675 740.13,454.93 744.862,460.601 C749.594,466.272 764.728,463.174 770.403,469.365 C776.079,475.545 800.146,487.869 803.52,483.279 C807.297,478.123 782.705,454.41 775.607,452.346 C768.515,450.288 782.705,447.716 791.691,455.439 C800.677,463.174 813.922,466.781 820.543,457.503 C827.168,448.219 814.872,450.803 814.872,444.103 C814.872,437.397 810.612,428.119 803.987,428.119 C797.367,428.119 780.339,413.685 786.487,410.598 C792.635,407.499 784.593,403.377 789.325,397.707 C794.057,392.036 798.783,402.863 804.464,403.377 z M649.782,448.739 C650.726,443.588 634.171,441.519 635.115,435.854 C636.064,430.177 619.509,425.547 614.305,422.448 C609.101,419.355 601.065,417.812 601.065,411.627 C601.065,405.441 589.707,410.077 589.235,419.355 C588.763,428.639 584.031,426.57 586.397,435.334 C588.763,444.103 575.99,446.167 577.411,450.803 C578.833,455.439 584.976,450.288 590.652,450.288 C596.333,450.288 589.119,458.913 596.333,459.561 C602.009,460.081 611.939,452.867 614.305,448.739 C616.671,444.612 621.402,443.068 628.023,448.219 C634.648,453.381 648.838,453.896 649.782,448.739 z M615.727,477.1 C623.291,482.25 634.648,468.324 633.698,464.208 C632.754,460.081 606.581,470.868 615.727,477.1 z M657.352,488.43 C660.662,487.921 667.282,475.03 658.768,475.545 C650.254,476.059 652.201,489.233 657.352,488.43 z M538.147,43.565 C544.772,38.929 549.976,42.022 544.3,45.115 C538.624,48.207 540.513,50.271 548.554,49.751 C556.596,49.236 545.244,52.335 545.244,57.486 C545.244,62.642 554.708,59.549 555.18,64.7 C555.647,69.856 575.99,71.92 582.143,65.735 C588.286,59.549 585.925,67.278 585.453,71.406 C584.976,75.527 614.305,79.134 615.727,73.984 C617.143,68.827 621.402,70.891 627.078,72.435 C632.754,73.984 660.662,66.764 661.134,60.578 C661.611,54.393 670.125,63.671 661.134,70.371 C652.148,77.071 634.171,76.048 626.134,78.62 C618.092,81.198 631.338,87.384 639.374,94.084 C647.416,100.783 628.972,97.176 621.402,88.413 C613.833,79.655 596.805,79.655 587.814,80.163 C578.833,80.678 581.666,98.725 588.286,98.725 C594.911,98.725 601.531,101.304 608.157,112.64 C614.777,123.987 628.972,121.403 628.972,126.56 C628.972,131.711 610.523,122.438 600.115,120.374 C589.707,118.311 573.152,125.531 572.68,133.774 C572.208,142.023 587.814,140.994 598.221,134.295 C608.629,127.595 601.065,136.352 595.861,141.509 C590.652,146.665 608.157,150.787 608.157,156.978 C608.157,163.158 595.383,161.094 593.967,155.429 C592.545,149.758 587.814,144.087 575.518,145.116 C563.216,146.151 566.526,155.429 574.101,156.458 C581.666,157.487 582.143,163.672 573.624,163.672 C565.11,163.672 545.902,169.499 551.87,175.534 C558.49,182.234 582.61,175.534 586.869,179.656 C591.129,183.778 602.953,185.327 605.791,180.691 C608.629,176.049 618.092,178.113 627.55,178.113 C637.009,178.113 639.374,179.656 643.634,183.778 C647.894,187.905 655.458,186.356 660.662,182.234 C665.866,178.113 665.866,178.113 672.486,178.113 C679.111,178.113 680.528,173.471 677.217,167.8 C673.907,162.129 665.393,171.922 664.444,167.8 C663.277,162.701 655.458,161.094 642.212,163.158 C628.972,165.222 634.648,153.88 642.69,156.458 C650.726,159.036 661.611,158.007 670.597,155.429 C679.583,152.851 672.486,148.209 672.486,144.087 C672.486,139.96 683.838,142.544 692.357,142.544 C700.865,142.544 713.167,127.595 713.639,118.831 C714.116,110.062 694.723,112.125 685.259,112.125 C675.796,112.125 691.407,104.391 709.385,105.425 C727.362,106.454 719.315,97.697 722.63,94.604 C725.94,91.505 734.454,98.211 743.44,96.147 C752.431,94.084 746.278,85.834 752.431,85.834 C756.786,85.834 766.621,78.62 786.015,66.764 C805.409,54.907 820.543,56.971 821.492,50.271 C822.436,43.565 794.529,50.271 789.797,48.207 C785.065,46.144 809.191,40.473 814.872,42.022 C820.543,43.565 828.112,42.022 847.506,31.709 C866.905,21.402 858.386,18.824 850.349,20.373 C842.307,21.916 833.316,18.824 833.793,13.153 C834.26,7.482 821.964,12.638 821.492,9.546 C821.02,6.453 809.663,7.996 797.367,13.153 C785.065,18.309 796.423,7.996 801.626,5.938 C806.83,3.875 770.403,5.938 764.255,1.296 C758.102,-3.34 751.01,9.031 745.334,2.846 C739.658,-3.34 724.996,1.811 726.884,6.453 C728.778,11.089 724.519,11.089 718.843,5.938 C713.167,0.782 702.292,6.453 692.357,4.904 C682.421,3.354 686.681,13.667 675.796,8.517 C664.921,3.354 653.097,5.938 656.408,7.482 C659.718,9.031 655.458,12.124 650.726,10.575 C646,9.031 641.74,11.089 644.106,16.246 C646.472,21.402 626.601,14.702 626.601,20.373 C626.601,26.038 619.509,29.131 613.833,23.98 C608.157,18.824 590.18,17.28 595.383,21.916 C600.587,26.558 579.3,23.98 584.976,28.622 C590.652,33.258 577.883,36.866 577.883,34.287 C577.883,31.709 566.054,27.067 561.328,31.709 C556.596,36.351 555.18,42.022 552.814,38.929 C550.448,35.837 540.04,36.866 530.11,40.987 C520.175,45.115 531.527,48.207 538.147,43.565 z M480.915,94.604 C487.891,98.408 483.748,103.367 491.318,106.975 C498.887,110.582 520.647,102.333 522.541,108.004 C524.429,113.675 500.309,114.189 503.619,117.796 C506.929,121.403 520.647,127.08 518.753,130.167 C516.859,133.266 541.457,142.023 543.823,137.902 C546.188,133.774 552.814,134.809 558.957,137.387 C565.11,139.96 565.582,121.403 569.842,124.496 C574.101,127.595 573.624,117.796 580.721,114.704 C587.814,111.611 598.036,111.582 598.699,108.004 C599.171,105.425 596.805,101.818 588.286,102.847 C579.777,103.882 574.101,100.275 577.883,95.118 C581.666,89.962 568.42,88.413 573.152,84.291 C577.883,80.163 564.166,76.048 565.582,82.227 C567.004,88.413 557.074,82.742 555.647,77.071 C554.23,71.406 534.837,69.342 522.063,56.971 C509.295,44.6 496.049,52.844 503.619,54.393 C511.189,55.942 510.711,60.064 504.563,59.549 C498.415,59.029 487.535,60.064 497.471,64.185 C507.401,68.313 496.521,69.856 488.48,69.856 C480.438,69.856 479.966,81.198 490.373,82.742 C500.781,84.291 493.211,90.991 484.692,88.413 C476.184,85.834 473.346,90.476 480.915,94.604 z M549.026,152.336 C540.513,147.694 529.829,157.504 538.624,161.094 C546.188,164.193 557.54,156.978 549.026,152.336 z M524.906,213.161 C528.216,223.474 531.999,216.254 537.202,220.376 C542.406,224.503 550.448,227.082 554.708,222.954 C558.957,218.832 560.85,215.74 562.272,219.347 C564.58,225.214 575.046,226.053 597.749,226.567 C620.453,227.082 614.777,216.254 621.402,220.376 C628.023,224.503 643.162,224.503 649.782,222.954 C656.408,221.411 659.718,210.069 659.24,204.404 C658.768,198.727 608.157,194.091 599.171,199.762 C590.18,205.433 575.99,197.183 568.897,201.305 C561.8,205.433 564.166,196.149 551.392,195.634 C538.624,195.12 552.336,187.905 554.708,184.813 C557.074,181.72 535.309,173.471 526.323,175.534 C517.337,177.592 512.128,172.442 503.619,168.314 C495.1,164.193 471.988,165.175 476.656,172.442 C479.966,177.592 507.401,188.42 510.239,183.263 C513.077,178.113 520.175,189.449 524.429,195.12 C528.689,200.791 521.591,202.854 524.906,213.161 z M447.799,295.641 C458.206,303.37 454.896,289.456 466.72,289.97 C478.549,290.485 479.022,269.35 480.915,261.622 C482.804,253.887 471.452,254.401 474.29,260.072 C477.128,265.743 473.818,271.414 472.868,264.709 C471.924,258.009 462.938,264.194 459.623,259.043 C456.313,253.887 470.03,253.372 473.346,246.667 C476.656,239.973 462.466,240.996 465.776,235.845 C469.086,230.689 444.961,236.36 452.058,239.452 C459.156,242.545 452.53,246.667 445.91,241.516 C439.285,236.36 420.941,244.985 427.461,250.794 C432.665,255.43 448.271,247.702 439.285,261.101 C430.299,274.507 426.517,257.494 417.997,259.043 C409.484,260.587 413.271,271.929 426.039,276.05 C438.813,280.178 437.396,287.913 447.799,295.641 z M508.345,223.474 C516.859,222.954 512.605,211.618 503.147,203.883 C493.684,196.149 472.428,212.046 476.184,215.225 C480.438,218.832 499.832,223.989 508.345,223.474 z M513.549,148.209 C512.605,145.116 476.741,149.827 482.332,154.4 C491.79,162.129 514.499,151.307 513.549,148.209 z M475.234,145.636 C482.332,145.636 488.008,144.602 494.156,142.023 C500.309,139.445 490.846,139.445 495.1,133.266 C499.359,127.08 484.692,126.56 483.748,128.624 C482.804,130.687 464.36,116.253 461.516,120.889 C458.678,125.531 468.137,145.636 475.234,145.636 z M455.368,176.049 C454.896,181.205 444.017,175.02 435.503,171.407 C426.989,167.8 432.193,178.627 438.813,184.813 C445.433,190.992 435.503,187.905 426.517,181.205 C417.525,174.5 418.47,185.842 422.729,189.449 C426.989,193.056 421.785,198.212 416.104,189.963 C410.428,181.72 407.595,172.956 398.604,172.442 C389.618,171.922 393.713,181.957 397.187,186.871 C401.919,193.576 406.651,195.12 414.215,199.762 C421.785,204.404 434.081,197.698 439.757,199.247 C445.433,200.791 433.609,208.525 437.396,213.676 C441.179,218.832 451.586,215.225 459.623,214.705 C467.67,214.196 463.882,209.04 468.614,205.433 C473.346,201.82 463.882,202.34 467.67,193.576 C471.452,184.813 455.84,170.893 455.368,176.049 z M401.919,212.132 C405.229,208.011 394.822,199.247 391.984,206.462 C389.146,213.676 398.545,216.329 401.919,212.132 z M455.368,95.118 C458.678,88.927 435.418,84.077 441.179,89.447 C444.489,92.54 452.058,101.304 455.368,95.118 z M393.872,162.643 C397.66,157.487 378.738,140.994 377.794,148.729 C376.844,156.458 389.857,168.124 393.872,162.643 z M390.562,119.345 C396.238,115.218 406.651,121.924 404.757,126.56 C402.863,131.202 386.493,125.629 387.724,129.658 C388.201,131.202 390.09,137.387 401.442,133.774 C412.794,130.167 422.257,132.745 429.827,139.445 C437.396,146.151 444.489,148.729 449.692,142.023 C454.896,135.323 443.067,134.295 445.433,129.138 C447.799,123.987 437.863,120.889 432.665,120.889 C427.461,120.889 425.567,110.582 421.307,112.64 C417.053,114.704 414.215,118.311 414.215,111.611 C414.215,104.911 389.618,104.391 383.464,106.975 C377.322,109.553 384.891,123.467 390.562,119.345 z M311.566,135.323 C316.298,137.387 321.029,130.687 324.339,133.774 C327.649,136.873 342.317,139.445 342.317,131.202 C342.317,122.953 323.867,121.924 319.136,125.016 C314.404,128.103 292.644,129.138 298.798,134.295 C302.569,137.462 306.839,133.266 311.566,135.323 z M334.747,145.116 C340.895,144.087 338.057,138.931 328.127,140.48 C318.191,142.023 301.164,142.012 301.164,149.758 C301.164,155.943 304.474,159.036 315.353,160.065 C326.233,161.094 335.697,149.758 330.493,149.758 C325.289,149.758 328.599,146.151 334.747,145.116 z M295.488,147.694 C297.848,141.509 279.818,142.538 281.298,144.602 C284.608,149.244 293.116,153.88 295.488,147.694 z M270.885,184.813 C264.265,185.327 264.737,192.541 272.306,192.541 C279.876,192.541 282.242,195.12 271.362,194.605 C260.483,194.091 255.751,204.404 263.32,202.34 C270.885,200.276 279.876,200.276 274.2,202.34 C268.524,204.404 253.061,205.82 255.279,209.04 C256.7,211.098 262.848,210.589 268.996,213.161 C275.144,215.74 278.932,217.283 283.664,211.618 C288.39,205.947 294.538,200.276 292.178,208.011 C289.806,215.74 299.742,210.069 312.515,209.554 C325.289,209.04 310.15,217.803 296.904,218.832 C283.664,219.867 286.024,227.082 296.432,229.66 C306.839,232.238 329.071,222.44 334.275,216.769 C339.479,211.098 344.205,219.867 349.409,215.74 C354.613,211.618 364.548,216.254 373.534,214.196 C382.526,212.132 383.942,193.576 377.322,190.484 C370.696,187.385 370.696,194.091 365.492,195.12 C360.289,196.149 357.451,188.934 353.196,184.298 C348.937,179.656 351.775,170.893 345.627,171.922 C339.526,172.945 326.233,183.778 334.275,184.813 C342.317,185.842 339.479,190.484 335.219,192.541 C330.965,194.605 345.155,198.212 343.261,201.305 C341.367,204.404 319.608,201.82 318.663,196.669 C317.714,191.513 300.691,182.234 293.594,184.298 C286.496,186.356 289.334,178.113 282.242,177.592 C275.144,177.078 277.51,184.298 270.885,184.813 z M197.098,187.385 C200.408,188.934 197.098,196.149 200.88,194.091 C204.662,192.027 205.612,191.513 208.45,192.541 C213.563,194.403 214.598,189.449 216.964,186.871 C219.329,184.298 218.38,196.149 224.533,196.149 C229.737,196.149 228.788,183.778 233.519,187.385 C238.251,190.992 239.667,185.842 240.611,182.234 C241.561,178.627 241.561,172.442 246.765,171.407 C251.969,170.378 247.709,177.078 250.075,181.72 C253.518,188.478 259.538,182.234 260.01,179.142 C260.483,176.049 268.996,178.113 268.524,174.5 C268.047,170.893 270.885,169.864 268.524,165.736 C266.158,161.614 272.306,162.643 275.144,159.551 C277.982,156.458 271.362,159.036 266.631,154.4 C261.899,149.758 260.01,155.943 260.01,159.036 C260.01,162.129 251.019,159.551 245.815,157.487 C240.611,155.429 233.991,164.193 226.422,168.314 C218.852,172.442 218.38,179.656 211.288,179.142 C204.19,178.627 193.788,185.842 197.098,187.385 z M236.357,201.82 C244.871,202.854 253.385,194.605 252.913,189.963 C252.441,185.327 232.124,201.317 236.357,201.82 z M416.104,328.632 C418.947,325.025 430.771,335.847 431.243,328.118 C431.72,320.383 417.997,316.776 412.322,312.654 C406.651,308.527 404.285,310.59 395.294,303.37 C386.308,296.156 397.66,292.549 391.034,286.878 C384.414,281.207 382.048,265.743 386.78,260.587 C391.512,255.43 396.715,247.702 388.201,244.089 C379.688,240.481 365.965,247.187 367.386,249.245 C368.803,251.309 380.632,258.529 380.632,261.622 C380.632,264.709 369.752,252.858 365.965,255.43 C362.182,258.009 357.928,250.28 354.613,255.43 C351.303,260.587 358.872,278.629 361.705,283.785 C364.548,288.941 358.872,288.941 355.085,289.97 C351.303,291.005 350.831,275.536 347.043,269.865 C343.261,264.194 328.127,257.494 327.177,261.622 C326.233,265.743 336.635,265.743 335.219,271.414 C333.803,277.085 328.127,267.801 322.918,272.443 C317.714,277.085 318.663,273.992 319.608,269.35 C320.557,264.709 312.043,259.558 302.58,260.587 C293.116,261.622 298.326,268.836 295.488,271.414 C292.644,273.992 278.46,269.865 287.441,267.801 C296.432,265.743 292.644,260.072 289.334,254.401 C286.024,248.73 277.038,255.43 262.371,261.101 C247.709,266.772 241.089,272.958 242.977,273.472 C244.871,273.992 245.343,276.565 239.667,281.721 C233.991,286.878 239.667,291.52 244.871,291.52 C250.075,291.52 245.492,296.058 249.125,297.185 C252.441,298.22 269.469,289.97 274.2,293.578 C278.932,297.185 246.293,299.249 246.293,305.434 C246.293,311.625 264.265,315.232 277.51,312.654 C290.756,310.07 313.937,314.718 313.937,318.325 C313.937,321.932 298.326,320.898 286.496,320.383 C274.672,319.869 254.335,323.99 255.279,328.118 C256.334,332.731 257.645,332.76 269.941,338.939 C282.242,345.125 295.01,335.847 294.538,344.616 C294.066,353.374 301.164,355.438 317.714,355.952 C334.275,356.467 341.839,347.709 349.881,348.223 C357.928,348.732 361.705,347.188 365.492,341.009 C369.275,334.818 372.59,338.425 373.534,341.518 C374.478,344.616 384.891,344.096 387.252,346.674 C393.283,353.247 413.271,351.316 420.835,347.188 C428.405,343.067 417.525,331.725 413.743,336.881 C409.961,342.032 406.651,338.939 405.701,336.367 C404.757,333.789 413.271,332.239 416.104,328.632 z M179.593,286.363 C188.107,288.421 189.03,304.92 194.727,304.92 C198.514,304.92 195.676,299.763 201.824,299.763 C207.972,299.763 206.556,296.156 212.232,296.67 C217.913,297.185 222.639,295.127 222.639,287.913 C222.639,280.692 226.899,278.114 232.575,276.565 C238.251,275.021 233.047,267.293 241.089,265.229 C249.125,263.165 271.362,252.858 275.144,249.759 C278.932,246.667 270.413,242.545 261.899,236.874 C253.385,231.203 246.765,229.66 240.139,234.302 C233.519,238.938 238.723,229.139 233.519,231.723 C228.315,234.302 214.126,227.596 212.232,225.018 C210.343,222.44 184.796,230.689 178.648,230.689 C172.495,230.689 179.121,237.909 183.38,241.516 C187.634,245.123 172.973,256.465 175.81,259.043 C178.648,261.622 172.973,268.316 166.347,276.565 C159.727,284.814 171.079,284.3 179.593,286.363 z M187.634,695.925 C184.563,692.312 176.521,693.086 175.338,689.733 C174.155,686.392 166.824,674.276 162.804,674.53 C158.783,674.79 153.579,675.044 148.847,671.183 C144.115,667.31 141.044,667.055 137.734,669.374 C134.419,671.697 141.277,672.212 141.044,674.79 C140.805,677.363 143.171,678.912 146.009,678.397 C148.847,677.883 150.502,684.323 153.34,684.583 C156.178,684.843 157.128,689.733 160.438,689.733 C163.748,689.733 164.453,693.861 166.114,696.179 C167.769,698.503 171.551,696.439 171.551,698.757 C171.551,700.838 175.338,702.717 176.288,705.318 C182.765,706.162 188.313,706.821 193.141,705.37 C193.188,703.746 193.565,701.96 194.26,700.561 C195.915,697.214 190.711,699.532 187.634,695.925" fill="#1D649F"/>
  </g>
</svg>
