<?xml version="1.0" encoding="UTF-8"?>
<!DOCTYPE svg PUBLIC "-//W3C//DTD SVG 1.1//EN" "http://www.w3.org/Graphics/SVG/1.1/DTD/svg11.dtd">
<svg version="1.1" xmlns="http://www.w3.org/2000/svg" xmlns:xlink="http://www.w3.org/1999/xlink" x="0" y="0" width="127.101" height="195.825" viewBox="0, 0, 127.101, 195.825">
  <g id="Calque_1">
    <path d="M19.829,142.313 C22.783,144.203 26.974,143.671 27.966,142.313 C28.953,140.972 31.658,143.931 35.604,148.77 C35.78,148.99 35.923,149.163 36.087,149.365 C39.397,148.568 43.583,147.891 45.269,149.042 C48.235,151.071 47.492,158.354 51.577,158.753 C55.656,159.152 58.626,163.609 58.255,166.031 C57.884,168.465 62.706,169.673 62.34,173.315 C61.968,176.951 73.108,176.148 74.593,174.934 C76.073,173.714 79.039,172.91 80.895,174.124 C82.757,175.333 86.094,172.91 87.956,173.714 C89.812,174.535 97.233,177.766 95.748,180.593 C94.263,183.431 89.07,187.877 90.178,190.311 C91.064,192.224 94.942,193.415 96.528,195.825 C96.698,195.814 96.873,195.825 97.048,195.779 C99.886,195.097 101.143,183.414 101.143,179.986 C101.143,176.546 102.405,167.604 103.328,164.129 C105.121,157.366 96.501,152.614 96.501,145.29 C96.501,137.966 99.912,142.03 103.758,139.018 C107.593,135.994 103.546,134.717 101.62,134.249 C99.705,133.792 98.215,130.063 98.851,127.861 C99.488,125.647 111.222,126.578 114.956,126.578 C118.69,126.578 126.796,122.861 126.902,122.277 C127.008,121.704 127.862,118.791 124.976,116.351 C122.101,113.912 123.168,110.426 125.406,107.634 C127.645,104.842 124.022,102.05 121.247,98.685 C118.473,95.309 120.611,83.106 123.804,77.418 C127.003,71.724 117.301,73.001 111.328,73.817 C105.355,74.626 100.236,72.065 96.395,66.724 C92.56,61.376 87.33,64.747 78.158,64.978 C68.986,65.215 70.801,53.937 71.225,49.636 C71.649,45.335 66.536,44.757 66.536,41.97 C66.536,39.178 63.873,39.178 61.517,39.409 C59.173,39.641 61.517,36.276 63.125,34.068 C64.721,31.854 64.615,30.108 64.721,25.46 C64.833,20.813 71.013,16.864 74.105,12.321 C74.859,11.228 76.026,10.511 77.346,10.072 C77.723,8.985 78.476,8.124 79.94,7.812 C84.667,6.777 87.033,3.43 82.54,0.592 C78.047,-2.247 75.442,6.008 70.477,6.777 C65.512,7.552 64.562,10.899 61.252,12.702 C57.942,14.506 51.794,12.962 51.555,16.055 C51.296,19.431 49.428,16.055 46.59,15.286 C43.752,14.506 36.421,21.466 36.655,25.339 C36.894,29.201 38.076,32.814 32.873,36.421 C27.669,40.028 24.592,46.728 22.226,49.821 C21.505,50.763 20.73,50.844 19.903,50.416 C19.595,52.11 19.144,53.474 18.433,54.058 C17.129,55.093 13.978,58.59 11.246,61.66 C12.577,63.047 13.813,64.296 14.662,65.284 C17.972,69.151 15.84,72.244 16.789,74.314 C17.733,76.366 18.678,79.459 16.789,80.753 C14.901,82.037 16.55,96.217 18.678,98.795 C20.81,101.368 18.678,103.692 16.317,108.842 C13.951,113.999 11.824,116.317 7.564,116.571 C3.305,116.837 3.543,124.051 2.122,124.051 C0.997,124.051 0.175,126.659 -0,128.901 C3.978,132.543 11.108,136.948 13.166,136.948 C15.389,136.948 16.869,140.446 19.829,142.313" fill="#1D649F"/>
  </g>
</svg>
