<?xml version="1.0" encoding="UTF-8"?>
<!DOCTYPE svg PUBLIC "-//W3C//DTD SVG 1.1//EN" "http://www.w3.org/Graphics/SVG/1.1/DTD/svg11.dtd">
<svg version="1.1" xmlns="http://www.w3.org/2000/svg" xmlns:xlink="http://www.w3.org/1999/xlink" x="0" y="0" width="34.413" height="13.567" viewBox="0, 0, 34.413, 13.567">
  <g id="Calque_1">
    <path d="M18.571,1.42 C14.312,1.183 12.604,5.01 9.437,7.745 C9.145,7.993 8.832,8.219 8.519,8.45 C9.628,9.352 10.89,10.814 11.882,12.317 C17.988,8.363 33.536,3.444 34.353,1.074 C35.297,-1.672 24.889,1.756 18.571,1.42 z M3.437,10.352 C2.217,10.462 1.061,10.797 0,11.277 C1.077,12.618 2.594,14.121 3.48,13.363 C4.207,12.751 4.631,11.323 5.05,10.045 C4.599,10.149 4.138,10.253 3.634,10.311 C3.565,10.323 3.512,10.346 3.437,10.352" fill="#1D649F"/>
  </g>
</svg>
