<?xml version="1.0" encoding="UTF-8"?>
<!DOCTYPE svg PUBLIC "-//W3C//DTD SVG 1.1//EN" "http://www.w3.org/Graphics/SVG/1.1/DTD/svg11.dtd">
<svg version="1.1" xmlns="http://www.w3.org/2000/svg" xmlns:xlink="http://www.w3.org/1999/xlink" x="0" y="0" width="114.253" height="126.709" viewBox="0, 0, 114.253, 126.709">
  <g id="Calque_1">
    <path d="M107.225,27.464 L99.57,7.001 C99.019,7.931 98.6,8.584 98.372,8.827 C97.109,10.203 91.911,6.769 87.02,8.139 C82.129,9.515 78.341,7.625 73.61,5.052 C68.883,2.468 53.436,5.729 51.378,9.001 C49.33,12.267 44.127,12.267 39.395,10.203 C34.674,8.139 28.52,5.052 19.853,4.185 C11.742,3.393 5.223,2.122 3.753,0 C3.409,0.994 3.09,1.965 2.777,2.89 C0.146,10.775 4.751,12.926 1.462,17.221 C-1.827,21.522 1.462,26.545 1.462,34.424 C1.462,39.864 1.462,92.122 1.462,123.957 L66.517,123.957 C66.517,123.957 68.411,122.581 70.3,121.199 C72.199,119.829 75.355,123.263 75.355,123.263 L89.221,123.263 C89.221,123.263 91.751,126.709 94.897,126.709 C98.053,126.709 96.159,121.199 101.215,121.199 C106.249,121.199 104.992,112.95 108.143,112.95 C111.299,112.95 110.673,113.65 113.824,108.834 C113.914,108.684 114.068,108.499 114.174,108.349 C113.935,106.857 113.909,105.297 114.137,103.678 C114.932,98.18 111.453,98.522 109.251,90.793 C107.045,83.058 98.207,71.549 97.905,67.074 C97.581,62.617 92.696,60.033 92.849,55.218 C93.009,50.408 90.489,49.9 85.598,42.333 C80.707,34.777 79.286,21.539 80.707,21.025 C82.129,20.516 86.224,32.199 87.799,35.974 C89.38,39.766 94.743,51.275 98.531,51.275 C102.318,51.275 103.734,33.916 104.992,34.777 C105.108,34.846 105.188,35.043 105.257,35.28 L105.665,32.135 L107.225,27.464" fill="#1D649F"/>
  </g>
</svg>
