<?xml version="1.0" encoding="UTF-8"?>
<!DOCTYPE svg PUBLIC "-//W3C//DTD SVG 1.1//EN" "http://www.w3.org/Graphics/SVG/1.1/DTD/svg11.dtd">
<svg version="1.1" xmlns="http://www.w3.org/2000/svg" xmlns:xlink="http://www.w3.org/1999/xlink" x="0" y="0" width="158.405" height="134.473" viewBox="0, 0, 158.405, 134.473">
  <g id="Calque_1">
    <path d="M10.207,88.604 C11.517,92.206 17.453,95.795 19.432,101.547 C21.405,107.299 26.683,110.166 29.319,110.166 C31.287,110.166 29.951,113.774 29.144,120.369 C30.396,120.924 31.749,121.416 32.63,121.965 C34.29,122.994 41.149,121.965 43.515,124.283 C45.875,126.607 53.445,132.018 55.805,132.018 C58.182,132.018 66.69,133.307 68.112,134.33 C69.528,135.371 71.422,130.468 75.21,128.145 C78.992,125.832 83.723,124.283 84.434,126.092 C85.14,127.89 87.744,129.439 89.633,128.41 C90.407,127.988 92.55,127.358 94.948,126.78 C98.438,125.919 102.465,125.162 103.589,125.318 C105.483,125.572 110.681,117.323 117.54,117.323 C124.399,117.323 126.293,118.612 129.37,115.005 C132.446,111.398 155.622,85.881 157.749,84.072 C159.882,82.274 156.333,81.5 153.962,81.5 C151.601,81.5 146.864,81.239 139.305,77.892 C131.73,74.54 119.906,70.158 117.779,69.643 C115.652,69.123 112.575,63.718 110.681,62.683 C108.793,61.648 105.011,54.434 104.056,52.116 C103.738,51.312 104.486,49.659 105.685,47.792 C103.361,45.416 102.205,44.763 100.656,45.89 C98.661,47.341 95.335,47.705 94.667,46.249 C94.004,44.803 92.672,39.369 95.001,36.479 C97.33,33.577 100.322,28.137 100.322,28.137 C100.322,28.137 80.042,4.592 77.708,4.234 C75.385,3.87 68.738,4.962 67.072,4.234 C65.412,3.506 65.741,2.419 62.42,4.234 C59.094,6.043 57.768,3.147 55.779,1.338 C53.779,-0.477 51.79,-0.842 50.787,2.783 C49.79,6.402 49.127,8.205 47.461,6.402 C46.639,5.511 42.517,5.587 38.544,5.893 C38.544,5.922 38.549,5.951 38.555,5.98 C39.213,11.015 34.587,16.767 34.587,19.634 C34.587,22.507 31.961,25.386 29.977,25.386 C27.999,25.386 26.025,31.132 23.389,33.999 C20.747,36.878 22.731,43.341 20.095,45.503 C17.453,47.659 13.501,48.376 15.474,50.526 C17.453,52.688 12.18,57.001 12.18,61.307 C12.18,65.626 11.517,73.522 10.859,74.239 C10.207,74.962 2.293,72.811 2.293,76.401 C2.293,79.991 -1.012,79.991 0.314,82.864 C1.629,85.743 8.881,85.014 10.207,88.604" fill="#1D649F"/>
  </g>
</svg>
