<?xml version="1.0" encoding="UTF-8"?>
<!DOCTYPE svg PUBLIC "-//W3C//DTD SVG 1.1//EN" "http://www.w3.org/Graphics/SVG/1.1/DTD/svg11.dtd">
<svg version="1.1" xmlns="http://www.w3.org/2000/svg" xmlns:xlink="http://www.w3.org/1999/xlink" x="0" y="0" width="153.769" height="141.346" viewBox="0, 0, 153.769, 141.346">
  <g id="Calque_1">
    <path d="M152.475,119.673 C150.735,119.506 150.263,122.934 145.85,125.859 C141.442,128.784 145.882,141.976 150.263,141.322 C154.836,140.634 154.199,119.841 152.475,119.673 z M135.601,32.205 C134.18,32.471 132.997,30.147 129.92,30.147 C126.849,30.147 124.483,28.597 123.061,26.539 C121.645,24.47 114.314,23.961 111.948,24.47 C109.582,24.99 108.871,20.088 106.506,20.608 C104.14,21.129 103.434,17.256 103.434,15.198 C103.434,13.134 100.83,16.741 98.703,17.776 C96.575,18.811 95.865,15.458 95.626,13.909 C95.387,12.365 91.133,10.816 89.006,9.527 C86.879,8.243 84.513,4.116 83.563,5.92 C82.619,7.723 80.014,3.341 79.781,1.538 C79.627,0.335 78.89,0.717 78.407,0 C77.601,0.185 76.795,0.289 75.999,0.249 C72.211,0.081 68.901,3.341 69.538,10.22 C70.164,17.088 64.96,17.776 58.494,18.29 C52.027,18.811 54.239,24.308 51.561,26.539 C48.882,28.777 39.418,25.343 38.156,21.562 C36.893,17.787 28.385,21.562 32.008,26.025 C35.636,30.494 35.472,36.685 33.424,38.396 C31.382,40.118 26.958,35.65 24.12,37.881 C21.282,40.118 21.123,35.818 17.659,34.453 C14.195,33.072 12.768,36.164 7.256,35.65 C1.729,35.13 -1.422,38.569 0.631,41.147 C2.673,43.72 0.313,46.125 1.888,48.368 C3.469,50.599 10.72,50.246 16.078,53.345 C21.441,56.438 22.698,53.854 25.382,56.102 C28.066,58.334 28.692,56.952 28.846,61.259 C29.011,65.548 32.008,69.67 37.212,71.219 C42.415,72.768 38.469,76.543 40.05,80.324 C41.62,84.11 37.684,89.602 38.469,94.25 C39.264,98.88 35.944,113.829 33.424,115.205 C33.27,115.292 33.005,115.292 32.798,115.338 C35.159,116.621 37.647,117.743 38.856,118.615 C41.164,120.292 46.145,121.963 49.221,124.055 C52.287,126.148 57.661,125.732 57.661,123.211 C57.661,120.714 60.727,122.39 62.647,124.471 C64.562,126.564 71.856,126.986 75.309,127.813 C78.221,128.518 82.465,128.073 86.263,128.165 C86.115,127.223 85.924,126.246 85.621,125.177 C83.728,118.471 89.244,114.517 94.448,113.656 C99.647,112.806 110.999,116.234 114.001,118.298 C116.993,120.355 121.099,119.841 126.302,113.829 C128.928,110.788 131.077,109.684 132.981,109.089 C133.124,107.742 133.766,106.36 134.18,105.152 C134.891,103.088 131.575,103.603 129.215,103.348 C126.849,103.088 125.194,100.51 126.849,97.672 C128.504,94.839 125.432,94.579 123.772,91.746 C122.122,88.914 124.483,89.689 125.899,88.914 C127.321,88.139 129.215,85.047 128.026,84.278 C126.849,83.497 125.899,81.7 126.849,78.607 C127.793,75.503 124.955,75.248 124.955,72.93 C124.955,70.618 122.35,69.583 120.229,72.416 C118.096,75.248 117.385,73.19 118.807,68.548 C120.229,63.912 125.194,61.848 125.666,59.276 C126.138,56.698 128.976,54.374 131.103,54.374 C133.236,54.374 132.758,48.963 133.469,45.616 C134.18,42.257 134.652,38.91 137.729,36.078 C140.8,33.245 137.018,31.95 135.601,32.205" fill="#1D649F"/>
  </g>
</svg>
