<?xml version="1.0" encoding="UTF-8"?>
<!DOCTYPE svg PUBLIC "-//W3C//DTD SVG 1.1//EN" "http://www.w3.org/Graphics/SVG/1.1/DTD/svg11.dtd">
<svg version="1.1" xmlns="http://www.w3.org/2000/svg" xmlns:xlink="http://www.w3.org/1999/xlink" x="0" y="0" width="58.615" height="72.791" viewBox="0, 0, 58.615, 72.791">
  <g id="Calque_1">
    <path d="M28.892,69.473 C34.165,69.473 32.192,65.883 30.208,60.131 C28.235,54.391 33.513,55.108 36.807,55.108 C40.106,55.108 38.78,48.639 41.417,48.639 C44.058,48.639 44.711,56.542 47.352,55.825 C49.989,55.108 51.962,57.981 55.267,57.264 C58.561,56.542 58.561,49.356 58.561,43.616 C58.561,37.864 59.219,33.552 55.925,31.395 C52.62,29.233 49.989,24.21 53.946,22.054 C57.909,19.903 58.561,15.585 55.267,12.718 C51.962,9.839 44.711,15.585 44.711,12.718 C44.711,11.151 45.3,5.538 45.835,0.74 C38.207,0.468 29.985,-0 29.985,-0 L28.017,0.619 C28.479,9.041 27.577,15.591 27.577,15.591 C27.577,15.591 15.705,16.313 13.064,16.313 C12.496,16.313 10.687,16.585 8.136,17.019 C7.6,17.943 6.868,18.868 6.321,19.47 C4.9,21.013 9.631,23.077 10.422,25.308 C11.212,27.54 4.428,26.852 4.581,30.124 C4.746,33.384 2.221,35.962 0.327,37.506 C-1.567,39.055 5.372,45.593 5.531,47.813 C5.69,50.05 7.266,52.108 13.26,58.472 C18.978,64.542 16.246,66.086 23.805,72.791 C24.813,71.092 26.399,69.473 28.892,69.473" fill="#1D649F"/>
  </g>
</svg>
