<?xml version="1.0" encoding="UTF-8"?>
<!DOCTYPE svg PUBLIC "-//W3C//DTD SVG 1.1//EN" "http://www.w3.org/Graphics/SVG/1.1/DTD/svg11.dtd">
<svg version="1.1" xmlns="http://www.w3.org/2000/svg" xmlns:xlink="http://www.w3.org/1999/xlink" x="0" y="0" width="72.791" height="35.266" viewBox="0, 0, 72.791, 35.266">
  <g id="Calque_1">
    <path d="M29.234,27.74 C32.703,26.029 33.965,30.157 36.798,34.273 C36.994,34.556 37.122,34.781 37.265,35.036 C41.153,34.388 44.113,33.163 48.065,32.654 C50.908,32.29 54.611,32.972 57.523,33.712 C57.003,32.723 56.68,31.827 56.982,31.18 C57.921,29.116 62.653,31.868 64.239,33.579 C65.809,35.302 70.859,35.989 72.434,34.273 C74.01,32.556 69.909,30.833 68.965,29.116 C68.493,28.261 69.74,26.48 71.108,24.89 C68.366,23.226 65.538,20.855 64.546,21.214 C63.13,21.728 63.13,13.994 61.231,13.994 C59.343,13.994 59.343,12.444 57.454,12.444 C55.555,12.444 48.463,12.444 46.574,13.994 C44.681,15.537 42.315,10.386 39.954,10.386 C37.583,10.386 34.745,7.802 33.329,5.745 C31.907,3.687 20.089,6.779 16.773,4.195 C13.463,1.623 7.31,-0.435 3.994,0.079 C3.146,0.212 1.687,1.01 0,2.108 C6.212,6.045 15.24,5.016 16.46,12.115 C17.882,20.353 22.136,17.086 20.555,24.133 C20.242,25.521 19.346,26.862 18.094,28.105 C23.006,28.515 27.626,28.527 29.234,27.74" fill="#1D649F"/>
  </g>
</svg>
