<?xml version="1.0" encoding="UTF-8"?>
<!DOCTYPE svg PUBLIC "-//W3C//DTD SVG 1.1//EN" "http://www.w3.org/Graphics/SVG/1.1/DTD/svg11.dtd">
<svg version="1.1" xmlns="http://www.w3.org/2000/svg" xmlns:xlink="http://www.w3.org/1999/xlink" x="0" y="0" width="65.274" height="37.412" viewBox="0, 0, 65.274, 37.412">
  <g id="Calque_1">
    <path d="M27.473,33.163 C27.929,32.169 24.735,26.446 30.894,25.943 C37.063,25.452 41.625,24.7 42.543,20.475 C43.455,16.243 50.76,18.237 52.818,17.989 C54.51,17.781 59.953,12.318 65.273,12.538 C65.353,6.872 58.298,8.705 53.423,3.392 C48.219,-2.273 36.867,0.306 30.719,2.884 C24.571,5.456 17.473,0.045 10.853,4.173 C10.768,4.213 10.705,4.242 10.62,4.288 C9.177,6.277 7.188,8.728 4.87,10.769 C0.408,14.711 1.639,18.607 -0,19.735 C1.692,20.423 3.326,21.238 4.642,22.22 C9.665,25.943 14.46,22.718 16.285,25.452 C16.9,26.371 16.704,29.417 16.184,33.036 C17.113,32.215 17.823,31.631 19.367,33.036 C20.757,34.291 20.502,35.863 20.327,37.412 L24.274,36.401 C24.274,36.401 27.016,34.163 27.473,33.163" fill="#1D649F"/>
  </g>
</svg>
