<?xml version="1.0" encoding="UTF-8"?>
<!DOCTYPE svg PUBLIC "-//W3C//DTD SVG 1.1//EN" "http://www.w3.org/Graphics/SVG/1.1/DTD/svg11.dtd">
<svg version="1.1" xmlns="http://www.w3.org/2000/svg" xmlns:xlink="http://www.w3.org/1999/xlink" x="0" y="0" width="68.786" height="42.196" viewBox="0, 0, 68.786, 42.196">
  <g id="Calque_1">
    <path d="M66.886,7.755 C66.069,7.461 65.172,6.848 64.387,6.09 C61.417,5.374 58.552,4.426 57.677,3.472 C55.921,1.558 48.882,0.402 47.821,0.015 C46.771,-0.372 40.071,6.923 37.949,6.923 C35.838,6.923 26.677,8.079 26.677,10.761 C26.677,13.449 15.415,13.842 12.243,10.761 C11.739,10.276 11.262,9.623 10.8,8.923 C9.957,9.796 9.373,10.831 9.373,12.01 C9.373,15.507 6.907,15.236 4.689,14.964 C2.467,14.698 4.689,17.929 3.453,19.537 C2.217,21.144 3.453,24.381 1.724,24.647 C0.801,24.785 0.308,25.942 0,27.387 C0.743,27.768 2.562,31.722 2.562,31.722 C2.562,31.722 2.467,31.821 2.318,31.965 C4.716,33.526 9.612,36.879 11.187,39.168 C13.299,42.238 19.288,42.625 22.104,41.856 C24.921,41.099 36.899,36.867 36.899,36.867 C36.899,36.867 39.721,38.018 41.477,38.399 C41.896,38.492 43.015,38.694 44.479,38.937 C45.338,37.96 47.985,37.133 50.807,34.046 C54.118,30.439 59.088,17.548 60.504,16.525 C61.926,15.49 65.713,13.172 67.602,11.623 C69.49,10.073 69.023,8.53 66.886,7.755" fill="#1D649F"/>
  </g>
</svg>
