<?xml version="1.0" encoding="UTF-8"?>
<!DOCTYPE svg PUBLIC "-//W3C//DTD SVG 1.1//EN" "http://www.w3.org/Graphics/SVG/1.1/DTD/svg11.dtd">
<svg version="1.1" xmlns="http://www.w3.org/2000/svg" xmlns:xlink="http://www.w3.org/1999/xlink" x="0" y="0" width="45.031" height="53.861" viewBox="0, 0, 45.031, 53.861">
  <g id="Calque_1">
    <path d="M41.673,0 C34.994,3.734 29.17,6.839 28.03,7.024 C25.075,7.48 17.914,12.984 17.914,12.984 L8.233,7.48 L7.389,3.347 L7.198,3.266 C6.795,7.226 6.281,11.793 5.946,13.25 C5.31,16.007 5.31,29.754 3.421,32.499 C2.276,34.159 0.896,42.367 -0,49.35 C3.49,51.414 7.543,53.593 9.495,53.83 C13.288,54.281 17.914,49.697 17.914,46.946 C17.914,44.194 21.287,43.731 24.656,43.731 C28.03,43.731 28.449,39.598 30.968,38.222 C33.499,36.841 25.499,29.048 22.969,28.129 C20.444,27.216 25.075,21.25 33.499,20.788 C41.922,20.331 39.811,17.117 44.442,17.117 C44.659,17.117 44.829,17.111 45.031,17.111 C44.214,13.099 43.195,8.243 42.532,5.7 C42.129,4.185 41.859,2.122 41.673,0" fill="#1D649F"/>
  </g>
</svg>
