<?xml version="1.0" encoding="UTF-8"?>
<!DOCTYPE svg PUBLIC "-//W3C//DTD SVG 1.1//EN" "http://www.w3.org/Graphics/SVG/1.1/DTD/svg11.dtd">
<svg version="1.1" xmlns="http://www.w3.org/2000/svg" xmlns:xlink="http://www.w3.org/1999/xlink" x="0" y="0" width="85.786" height="113.413" viewBox="0, 0, 85.786, 113.413">
  <g id="Calque_1">
    <path d="M75.787,25.794 L80.694,17.47 L85.786,9.342 C83.388,9.92 81.245,10.55 80.471,10.972 C78.582,12.001 75.978,10.452 75.272,8.654 C74.562,6.845 69.83,8.394 66.048,10.706 C62.26,13.03 60.366,17.932 58.95,16.892 C57.528,15.868 49.02,14.579 46.643,14.579 C44.283,14.579 36.713,9.168 34.353,6.845 C31.987,4.526 25.128,5.555 23.468,4.526 C21.818,3.492 18.508,2.717 17.325,1.174 C16.137,-0.376 13.304,-0.115 10.933,0.399 C8.572,0.919 2.891,4.526 2.424,6.59 C2.276,7.249 1.724,7.879 1.061,8.486 L5.92,13.302 L7.013,21.632 L11.373,25.794 C11.373,25.794 11.373,30.557 10.832,35.321 C10.286,40.067 6.466,46.027 3.729,48.998 C2.923,49.882 1.777,52.703 0.568,56.218 C4.742,57.351 7.856,59.085 7.623,60.461 C7.151,63.294 0.058,62.005 0.058,67.936 C0.058,68.335 0.027,68.716 -0,69.109 L40.299,92.417 L39.763,99.562 C39.763,99.562 48.818,106.777 57.656,113.413 C61.586,102.516 66.743,90.394 68.09,88.122 C70.456,84.174 72.822,84.862 74.874,82.11 C76.922,79.358 77.553,83.486 80.704,77.983 C80.954,77.566 81.267,77.075 81.622,76.572 L76.333,67.444 L75.787,25.794" fill="#1D649F"/>
  </g>
</svg>
