<?xml version="1.0" encoding="UTF-8"?>
<!DOCTYPE svg PUBLIC "-//W3C//DTD SVG 1.1//EN" "http://www.w3.org/Graphics/SVG/1.1/DTD/svg11.dtd">
<svg version="1.1" xmlns="http://www.w3.org/2000/svg" xmlns:xlink="http://www.w3.org/1999/xlink" x="0" y="0" width="77.443" height="40.345" viewBox="0, 0, 77.443, 40.345">
  <g id="Calque_1">
    <path d="M25.416,28.136 C28.307,28.136 35.06,29.714 38.916,28.136 C42.767,26.558 42.767,31.292 45.181,30.76 C47.584,30.234 52.406,33.917 55.302,36.547 C56.84,37.946 58.67,39.061 60.702,40.345 C61.164,39.483 61.784,38.639 62.776,37.83 C65.296,35.772 67.821,36.801 70.028,36.801 C72.24,36.801 72.547,34.049 74.128,32.674 C75.014,31.899 76.398,31.46 77.443,31.223 C76.6,29.321 76.552,25.61 75.152,24.078 C73.492,22.28 71.131,19.181 71.842,17.378 C72.547,15.574 72.547,12.996 70.654,10.938 C69.826,10.036 69.195,8.978 68.85,7.967 C65.004,7.435 59.832,6.822 58.67,7.244 C56.782,7.932 49.218,1.406 47.955,0.371 C47.122,-0.3 41.515,0.047 36.465,0.562 C33.553,4.07 35.648,6.66 35.495,12.054 C35.341,17.557 29.819,16.528 26.827,16.528 C23.825,16.528 18.939,6.73 17.369,4.492 C15.783,2.261 10.733,7.244 7.11,9.643 C3.487,12.054 5.375,16.696 2.855,18.927 C0.336,21.164 -1.245,24.945 1.275,29.928 C1.375,30.13 1.444,30.338 1.545,30.541 C4.696,30.269 8.054,29.633 9.99,28.136 C13.364,25.506 22.53,28.136 25.416,28.136" fill="#1D649F"/>
  </g>
</svg>
