<?xml version="1.0" encoding="UTF-8"?>
<!DOCTYPE svg PUBLIC "-//W3C//DTD SVG 1.1//EN" "http://www.w3.org/Graphics/SVG/1.1/DTD/svg11.dtd">
<svg version="1.1" xmlns="http://www.w3.org/2000/svg" xmlns:xlink="http://www.w3.org/1999/xlink" x="0" y="0" width="44.55" height="46.535" viewBox="0, 0, 44.55, 46.535">
  <g id="Calque_1">
    <path d="M36.246,26.938 C32.931,24.614 31.276,24.614 32.698,23.331 C34.114,22.036 34.353,19.204 33.881,15.082 C33.732,13.764 33.865,12.856 34.135,12.134 C33.026,11.648 32.157,11.07 32.019,10.394 C31.552,8.11 29.462,11.405 27.833,13.949 C26.199,16.481 22.248,13.689 22.709,9.885 C23.181,6.076 20.847,-0 19.691,-0 C18.953,-0 15.792,0.509 11.978,1.463 C12.482,3.307 11.352,5.324 10.938,7.347 C10.466,9.671 4.785,13.024 2.424,15.082 C1.766,15.66 0.902,17.14 -0,18.996 C4.445,22.054 9.638,25.609 13.856,29.089 C21.579,35.448 33.249,43.87 38.771,46.096 C39.503,46.396 40.384,46.524 41.365,46.535 C42.681,40.026 44.092,39.222 44.522,35.696 C44.994,31.835 39.556,29.251 36.246,26.938" fill="#1D649F"/>
  </g>
</svg>
