<?xml version="1.0" encoding="UTF-8"?>
<!DOCTYPE svg PUBLIC "-//W3C//DTD SVG 1.1//EN" "http://www.w3.org/Graphics/SVG/1.1/DTD/svg11.dtd">
<svg version="1.1" xmlns="http://www.w3.org/2000/svg" xmlns:xlink="http://www.w3.org/1999/xlink" x="0" y="0" width="28.659" height="22.447" viewBox="0, 0, 28.659, 22.447">
  <g id="Calque_1">
    <path d="M6.451,22.447 L6.451,22.447 C6.552,22.366 6.69,22.302 6.86,22.25 C6.892,22.244 6.908,22.227 6.945,22.215 C7.114,22.181 7.327,22.152 7.544,22.129 C7.571,22.117 7.602,22.117 7.629,22.117 C8.552,22.03 9.783,22.094 11.05,22.048 C11.125,22.042 11.22,22.042 11.31,22.042 C11.586,22.025 11.867,22.002 12.154,21.978 C12.26,21.961 12.371,21.961 12.483,21.95 C12.854,21.898 13.215,21.834 13.554,21.736 C16.392,20.967 17.098,17.62 18.519,18.383 C19.936,19.157 27.505,14.955 28.455,13.406 C28.572,13.226 28.63,13.047 28.651,12.88 C28.8,11.689 26.773,10.983 26.561,9.625 C26.328,8.082 21.363,2.925 20.647,2.15 C20.503,1.989 20.44,1.7 20.408,1.353 C20.408,1.318 20.397,1.289 20.397,1.254 C20.376,0.89 20.397,0.462 20.44,-0 C13.045,1.168 2.07,3.653 2.07,3.653 C2.07,3.653 1.805,3.445 1.439,3.174 C0.309,7.099 -0.434,12.481 0.282,15.232 C0.993,17.932 3.242,19.816 6.451,22.447" fill="#1D649F"/>
  </g>
</svg>
