<?xml version="1.0" encoding="UTF-8"?>
<!DOCTYPE svg PUBLIC "-//W3C//DTD SVG 1.1//EN" "http://www.w3.org/Graphics/SVG/1.1/DTD/svg11.dtd">
<svg version="1.1" xmlns="http://www.w3.org/2000/svg" xmlns:xlink="http://www.w3.org/1999/xlink" x="0" y="0" width="178.09" height="180.462" viewBox="0, 0, 178.09, 180.462">
  <g id="Calque_1">
    <path d="M168.904,75.294 C168.904,75.294 168.914,66.311 163.658,63.039 C158.411,59.773 151.659,58.952 151.659,58.952 C151.659,58.952 147.914,51.593 144.911,48.333 C143.113,46.368 108.018,20.799 79.145,0 L61.178,0 L71.225,102.695 L74.572,106.337 C74.572,106.337 75.044,115.199 73.14,116.24 C71.225,117.286 31.52,116.766 31.52,116.766 C31.52,116.766 27.69,118.847 24.82,118.847 C21.956,118.847 18.609,116.766 17.648,118.321 C16.694,119.887 16.694,124.061 11.909,119.373 C7.129,114.679 5.687,118.847 5.687,121.974 C5.687,124.489 3.204,125.639 -0,125.726 C0.658,127.217 0.95,128.414 0.95,128.414 L2.907,131.576 C2.907,131.576 2.599,136.732 4.493,138.79 C6.381,140.86 9.851,144.635 10.169,146.352 C10.477,148.074 10.169,155.635 10.169,155.635 C10.169,155.635 11.421,161.468 13.315,158.734 C15.208,155.971 18.046,161.133 19.309,157.693 C20.571,154.254 24.666,158.381 26.56,158.381 C28.454,158.381 32.867,152.196 34.13,152.537 C35.392,152.878 38.23,158.734 38.23,161.133 C38.23,163.538 43.906,165.948 42.012,166.625 C40.124,167.313 39.806,170.752 42.012,170.752 C44.224,170.752 43.27,175.226 44.537,177.284 C45.795,179.342 48.32,181.065 49.582,177.972 C50.845,174.88 53.677,177.626 54.94,179.689 C56.208,181.747 60.308,179.342 60.934,176.597 C61.565,173.845 66.615,172.81 66.297,175.903 C65.984,179.007 66.923,179.689 70.079,177.284 C71.039,176.556 72.074,176.435 73.097,176.602 C74.217,172.608 75.495,168.914 76.073,167.665 C77.018,165.596 73.861,160.792 75.437,160.098 C77.018,159.41 82.375,160.792 83.951,155.971 C85.537,151.167 87.425,148.751 87.425,148.751 C87.425,148.751 88.051,138.455 90.889,140.172 C93.732,141.889 97.196,144.635 97.515,140.507 C97.833,136.38 101.297,138.79 102.241,135.016 C103.19,131.229 105.084,131.576 107.291,132.264 C109.498,132.958 111.391,131.923 111.391,129.859 C111.391,127.801 116.436,128.83 120.536,125.737 C124.632,122.645 126.844,120.234 128.414,121.945 C130,123.674 140.402,123.327 141.978,122.645 C143.553,121.945 146.709,118.864 150.497,119.546 C154.279,120.234 163.419,117.824 167.206,117.824 C170.989,117.824 172.569,114.049 173.827,112.673 C175.089,111.309 176.039,105.117 177.301,104.088 C178.314,103.256 178.107,81.676 177.985,73.161 C174.171,74.017 168.904,75.294 168.904,75.294" fill="#1D649F"/>
  </g>
</svg>
