<?xml version="1.0" encoding="UTF-8"?>
<!DOCTYPE svg PUBLIC "-//W3C//DTD SVG 1.1//EN" "http://www.w3.org/Graphics/SVG/1.1/DTD/svg11.dtd">
<svg version="1.1" xmlns="http://www.w3.org/2000/svg" xmlns:xlink="http://www.w3.org/1999/xlink" x="0" y="0" width="33" height="44.637" viewBox="0, 0, 33, 44.637">
  <g id="Calque_1">
    <path d="M23.86,11.357 C22.592,6.889 18.502,5.166 16.285,5.166 C14.078,5.166 10.296,-0.326 7.777,0.015 C6.403,0.2 2.992,1.102 0,2.166 C2.742,7.796 5.676,13.542 7.029,15.265 C9.914,18.941 16.184,28.925 13.781,31.549 C11.893,33.607 12.673,42.036 15.622,44.637 C16.996,42.695 21.648,36.313 21.648,34.376 C21.648,32.318 21.972,28.191 25.743,29.22 C29.531,30.254 33,31.977 33,30.601 C33,29.22 32.056,24.763 30.48,23.034 C28.905,21.323 25.123,15.826 23.86,11.357" fill="#1D649F"/>
  </g>
</svg>
