<?xml version="1.0" encoding="UTF-8"?>
<!DOCTYPE svg PUBLIC "-//W3C//DTD SVG 1.1//EN" "http://www.w3.org/Graphics/SVG/1.1/DTD/svg11.dtd">
<svg version="1.1" xmlns="http://www.w3.org/2000/svg" xmlns:xlink="http://www.w3.org/1999/xlink" x="0" y="0" width="45.061" height="50.755" viewBox="0, 0, 45.061, 50.755">
  <g id="Calque_1">
    <path d="M24.275,48.016 C26.62,49.299 32.481,48.016 34.826,49.929 C35.966,50.866 37.892,50.889 40.109,50.571 C39.425,49.49 38.9,48.617 38.635,48.079 C36.98,44.732 39.818,38.032 41.234,33.13 C42.655,28.234 40.051,16.383 42.655,13.291 C45.255,10.192 43.838,8.389 45.021,1.174 C45.096,0.706 45.043,0.388 45.043,0.006 C39.722,-0.213 34.28,5.25 32.587,5.458 C30.529,5.706 23.225,3.712 22.312,7.943 C21.395,12.169 16.833,12.921 10.663,13.412 C4.505,13.915 7.698,19.638 7.242,20.632 C6.786,21.632 4.043,23.869 4.043,23.869 L0.097,24.881 C-0.094,26.488 -0.195,28.078 1.741,29.269 C5.523,31.587 10.727,40.611 14.743,42.929 C16.679,44.039 17.878,45.865 18.392,47.64 C20.71,47.443 23.066,47.357 24.275,48.016" fill="#1D649F"/>
  </g>
</svg>
