<?xml version="1.0" encoding="UTF-8"?>
<!DOCTYPE svg PUBLIC "-//W3C//DTD SVG 1.1//EN" "http://www.w3.org/Graphics/SVG/1.1/DTD/svg11.dtd">
<svg version="1.1" xmlns="http://www.w3.org/2000/svg" xmlns:xlink="http://www.w3.org/1999/xlink" x="0" y="0" width="73.267" height="74.266" viewBox="0, 0, 73.267, 74.266">
  <g id="Calque_1">
    <path d="M70.339,3.746 C66.217,5.249 64.838,-0 61.401,-0 C57.963,-0 58.653,8.989 55.226,8.989 C51.784,8.989 52.468,14.226 47.662,14.966 C42.861,15.718 41.477,15.718 43.54,19.47 C45.598,23.21 40.798,21.713 36.671,21.713 C32.544,21.713 32.544,18.724 29.801,18.724 C27.053,18.724 24.995,23.961 22.932,26.95 C20.868,29.95 7.129,36.685 3.008,38.933 C1.835,39.569 0.843,41.552 -0,44.044 C4.917,44.483 9.999,47.558 12.201,50.593 C15.198,54.715 8.726,59.351 5.888,63.132 C3.05,66.918 7.623,67.086 7.782,70.178 C7.946,73.265 11.734,75.849 13.15,73.104 C14.566,70.363 16.927,71.381 21.346,71.381 C22.635,71.381 23.361,72.051 23.865,72.959 C26.321,70.803 29.186,68.855 30.146,67.808 C31.833,65.97 36.039,65.513 39.832,65.513 C42.172,65.513 43.736,64.71 45.46,63.195 C41.445,58.426 37.519,54.518 36.008,53.513 C32.385,51.108 34.586,44.402 38.999,43.205 C43.423,42.003 54.298,32.893 57.613,30.835 C60.923,28.771 58.717,22.071 61.395,16.741 C62.791,13.961 68.026,8.654 73.267,4.208 C72.143,3.682 71.119,3.451 70.339,3.746" fill="#1D649F"/>
  </g>
</svg>
