<?xml version="1.0" encoding="UTF-8"?>
<!DOCTYPE svg PUBLIC "-//W3C//DTD SVG 1.1//EN" "http://www.w3.org/Graphics/SVG/1.1/DTD/svg11.dtd">
<svg version="1.1" xmlns="http://www.w3.org/2000/svg" xmlns:xlink="http://www.w3.org/1999/xlink" x="0" y="0" width="85.237" height="104.152" viewBox="0, 0, 85.237, 104.152">
  <g id="Calque_1">
    <path d="M42.654,2.307 L42.654,11.111 L35.923,20.412 L32.326,30.199 C33.35,30.262 34.13,30.28 34.506,30.228 C37.254,29.892 39.991,36.199 39.991,38.523 C39.991,40.858 34.204,61.444 32.682,62.773 C31.578,63.733 12.572,70.554 0,74.792 C2.727,80.948 8.164,93.209 13.071,104.152 C13.914,103.782 14.795,103.348 15.771,102.73 C21.765,98.955 28.544,100.851 33.122,99.47 C37.695,98.1 33.276,93.966 37.222,90.359 C41.164,86.752 46.84,89.504 48.882,88.295 C50.94,87.099 52.362,79.202 55.826,77.653 C59.29,76.098 63.077,77.133 62.6,73.867 C62.128,70.6 62.923,58.918 66.233,58.23 C69.543,57.548 74.747,53.755 74.906,51.697 C75.065,49.634 81.686,41.905 83.733,38.13 C85.775,34.349 85.945,32.286 82.948,31.771 C79.951,31.257 75.219,22.14 73.967,19.568 C72.705,16.99 63.554,18.707 56.144,12.353 C53.131,9.775 51.465,4.891 50.399,0 L46.696,2.307 L42.654,2.307" fill="#1D649F"/>
  </g>
</svg>
