<?xml version="1.0" encoding="UTF-8"?>
<!DOCTYPE svg PUBLIC "-//W3C//DTD SVG 1.1//EN" "http://www.w3.org/Graphics/SVG/1.1/DTD/svg11.dtd">
<svg version="1.1" xmlns="http://www.w3.org/2000/svg" xmlns:xlink="http://www.w3.org/1999/xlink" x="0" y="0" width="101.413" height="90.117" viewBox="0, 0, 101.413, 90.117">
  <g id="Calque_1">
    <path d="M1.175,18.06 C1.886,20.118 2.596,27.332 0.941,30.17 C-0.714,33.003 -0.003,33.778 1.652,34.807 C3.307,35.841 4.018,38.414 4.018,40.478 C4.018,42.541 5.201,42.287 5.44,46.669 C5.673,51.051 6.617,54.137 8.039,55.941 C9.148,57.352 8.946,59.519 8.357,61.15 C10.341,62.745 12.569,64.289 14.527,65.046 C19.46,66.971 21.226,68.503 21.571,70.428 C21.926,72.347 26.154,75.804 27.215,73.116 C28.265,70.433 31.088,71.965 33.199,71.965 C35.315,71.965 35.671,74.653 36.01,76.185 C36.371,77.723 41.294,76.96 43.065,78.105 C44.821,79.255 45.527,83.481 47.993,85.018 C50.465,86.544 52.566,83.099 54.338,84.249 C56.093,85.4 60.682,86.544 63.499,85.4 C66.305,84.249 68.071,86.544 71.593,86.174 C75.11,85.781 79.699,87.313 80.749,88.469 C81.306,89.076 84.287,89.678 87.003,90.117 C87.698,88.545 86.34,83.683 86.558,82.486 C86.786,81.203 95.066,73.214 96.488,71.405 C97.904,69.607 100.042,69.607 101.214,67.283 C102.403,64.965 97.904,57.49 96.96,55.941 C96.016,54.398 95.544,48.212 96.255,45.628 C96.96,43.056 92.706,41.507 92.706,39.709 C92.706,37.899 96.727,34.807 98.854,33.778 C100.981,32.749 100.27,25.528 98.382,23.725 C96.488,21.921 95.544,18.568 96.727,14.961 C97.904,11.354 89.634,8.521 88.446,8.521 C88.25,8.521 88.133,8.29 88.054,7.984 C80.664,9.475 61.759,7.331 60.326,6.712 C59.388,6.302 56.995,5.365 54.937,4.567 C53.998,6.267 52.046,7.834 49.102,7.834 C44.54,7.834 44.216,2.851 44.063,0.619 C43.909,-1.612 25.613,2.509 20.717,7.834 C15.837,13.163 4.485,11.094 4.172,14.013 C3.939,16.141 2.236,17.239 1.127,16.643 C1.048,17.164 1.032,17.649 1.175,18.06" fill="#1D649F"/>
  </g>
</svg>
