<?xml version="1.0" encoding="UTF-8"?>
<!DOCTYPE svg PUBLIC "-//W3C//DTD SVG 1.1//EN" "http://www.w3.org/Graphics/SVG/1.1/DTD/svg11.dtd">
<svg version="1.1" xmlns="http://www.w3.org/2000/svg" xmlns:xlink="http://www.w3.org/1999/xlink" x="0" y="0" width="1820.824" height="758.781" viewBox="0, 0, 1820.824, 758.781">
  <g id="Calque_1">
    <path d="M363.768,206.861 C364.076,210.301 362.182,212.706 356.193,212.706 C350.199,212.706 359.031,216.828 359.657,220.602 C360.294,224.389 353.663,221.637 353.361,227.481 C353.037,233.32 341.685,227.481 340.115,235.037 C338.54,242.604 345.786,241.569 350.831,241.916 C355.875,242.263 348.937,247.408 352.724,250.5 C356.506,253.593 359.344,252.564 356.825,246.726 C354.305,240.887 370.065,248.789 365.339,253.258 C360.607,257.726 372.903,261.154 378.902,261.501 C384.897,261.854 406.152,266.912 406.646,261.501 C406.964,258.067 398.768,254.975 392.143,247.408 C385.523,239.852 380.791,227.481 388.366,222.331 C395.925,217.174 389.305,214.764 396.874,208.925 C404.444,203.081 400.036,197.583 406.333,196.89 C412.645,196.208 405.707,190.022 412.014,188.993 C418.316,187.958 419.578,180.397 418.639,177.651 C417.69,174.905 425.259,177.998 428.723,173.871 C432.187,169.749 440.393,172.501 442.913,166.656 C445.433,160.812 481.7,147.406 502.203,142.25 C522.7,137.093 536.895,127.815 529.638,121.63 C522.381,115.445 501.89,124.04 496.84,128.509 C491.79,132.972 484.544,129.879 479.499,132.972 C474.449,136.064 463.728,138.816 458.371,135.036 C453.008,131.255 446.701,139.504 442.6,139.157 C438.505,138.816 433.773,143.626 429.36,143.279 C424.936,142.944 416.109,147.065 415.483,149.817 C414.852,152.563 407.282,151.875 407.282,155.314 C407.282,158.754 401.288,161.841 398.126,158.748 C394.986,155.655 391.199,162.188 395.612,166.656 C400.025,171.125 387.416,171.466 389.618,174.212 C391.83,176.963 384.886,178.68 386.467,181.773 C388.042,184.866 382.048,185.9 377.316,186.929 C372.59,187.958 370.065,194.832 376.059,195.179 C382.053,195.52 372.59,196.554 373.227,201.711 C373.853,206.861 363.445,203.428 363.768,206.861 z M410.746,16.137 C411.696,8.917 400.662,14.755 392.456,10.98 C384.26,7.2 379.428,7.483 384.886,12.691 C387.416,15.102 370.845,16.981 373.534,19.912 C379.523,26.444 409.802,23.351 410.746,16.137 z M460.89,21.628 C463.097,18.536 456.785,18.536 456.159,15.443 C455.533,12.345 437.868,11.662 438.813,15.102 C439.757,18.542 426.601,22.276 430.617,25.75 C438.181,32.282 458.678,24.721 460.89,21.628 z M406.964,28.161 C407.908,30.901 405.388,31.253 399.081,31.253 C392.774,31.253 389.475,35.132 392.774,38.121 C396.556,41.561 413.266,40.185 416.109,36.057 C418.947,31.936 426.198,35.375 427.461,31.253 C428.723,27.126 406.02,25.415 406.964,28.161 z M366.278,32.629 C366.278,27.126 349.865,33.19 353.037,34.346 C355.875,35.375 366.278,38.121 366.278,32.629 z M405.388,9.605 C412.958,9.605 410.746,4.448 415.791,5.13 C420.846,5.824 427.461,5.477 424.936,2.037 C422.421,-1.396 404.126,-0.026 406.02,2.731 C407.908,5.477 391.199,4.448 391.506,5.477 C392.143,7.541 397.824,9.605 405.388,9.605 z M979.643,179.362 C978.381,182.12 971.522,182.299 973.342,184.866 C976.498,189.34 992.258,186.929 992.576,181.426 C992.884,175.934 980.911,176.617 979.643,179.362 z M939.594,582.993 C930.608,591.756 912.63,593.814 912.63,601.034 C912.63,608.249 890.871,611.856 888.977,608.763 C887.322,606.058 905.061,605.156 909.32,594.843 C913.575,584.536 929.727,579.229 937.7,565.46 C943.376,555.673 948.108,540.724 951.418,541.747 C954.728,542.782 948.58,574.223 939.594,582.993 z M1818.948,357.554 C1815.803,356.352 1805.703,349.305 1803.183,345.357 C1800.669,341.403 1788.521,339.513 1788.521,341.576 C1788.521,343.634 1784.58,341.062 1783.636,338.831 C1782.686,336.599 1769.918,336.252 1769.759,338.651 C1769.594,341.062 1772.756,341.23 1774.644,343.987 C1776.538,346.733 1772.119,348.276 1773.064,351.369 C1774.008,354.462 1768.332,349.82 1766.284,348.109 C1764.242,346.398 1765.186,339.68 1765.812,336.252 C1766.454,332.813 1762.189,333.495 1761.712,330.067 C1761.234,326.627 1747.05,319.581 1741.061,316.829 C1735.072,314.083 1727.343,311.678 1725.29,308.239 C1723.243,304.805 1712.522,304.464 1708.427,299.816 C1704.321,295.18 1686.344,286.931 1678.626,286.422 C1670.902,285.902 1672.626,281.266 1668.844,281.948 C1665.057,282.636 1648.819,281.78 1643.78,280.913 C1638.724,280.063 1637.621,284.191 1633.998,282.636 C1630.37,281.098 1611.607,273.699 1609.395,276.456 C1607.194,279.202 1608.144,283.156 1605.932,283.838 C1603.73,284.52 1605.932,287.966 1611.135,293.122 C1616.339,298.273 1613.183,302.233 1608.451,304.464 C1603.725,306.689 1596.15,302.394 1593.789,298.446 C1591.423,294.498 1584.968,296.209 1583.382,291.053 C1581.811,285.902 1585.275,285.041 1588.432,287.966 C1591.588,290.885 1595.842,288.48 1596.314,284.705 C1596.792,280.925 1587.8,278.341 1582.91,278.687 C1578.024,279.029 1575.34,286.422 1570.3,289.515 C1565.256,292.608 1545.703,288.312 1543.65,286.249 C1541.603,284.191 1514.316,286.249 1511.483,288.312 C1508.645,290.37 1510.698,298.446 1509.276,299.14 C1507.86,299.816 1506.444,289.856 1506.444,287.966 C1506.444,286.07 1503.134,284.705 1498.237,284.705 C1493.352,284.705 1490.514,284.52 1492.562,282.295 C1494.614,280.063 1490.668,277.82 1494.45,274.907 C1498.237,271.982 1487.522,262.877 1477.115,258.414 C1466.707,253.94 1443.059,256.518 1436.741,258.582 C1430.439,260.646 1417.825,259.958 1411.836,260.125 C1405.842,260.305 1410.727,257.547 1408.998,254.46 C1407.263,251.368 1397.01,247.587 1395.588,250.165 C1394.172,252.743 1391.493,250.165 1391.493,248.269 C1391.493,246.39 1381.87,242.604 1378.094,243.46 C1374.306,244.315 1372.577,239.679 1376.985,239.679 C1381.409,239.679 1388.963,240.708 1385.652,235.216 C1382.342,229.713 1353.963,227.996 1351.289,229.031 C1348.605,230.06 1351.13,234.008 1344.977,240.373 C1338.823,246.726 1332.84,242.436 1333.625,239.338 C1334.415,236.245 1341.98,236.765 1341.98,233.673 C1341.98,230.574 1331.572,232.291 1330.002,229.713 C1328.416,227.14 1332.203,225.424 1335.985,226.62 C1339.773,227.828 1346.398,228.516 1346.711,226.62 C1347.03,224.741 1342.775,224.389 1336.463,223.181 C1330.151,221.984 1314.863,218.024 1306.821,218.891 C1298.779,219.747 1295.151,215.625 1290.743,215.278 C1286.329,214.931 1286.324,217.857 1288.377,220.602 C1290.419,223.36 1284.122,225.077 1278.913,224.215 C1273.715,223.36 1266.14,227.308 1269.142,231.43 C1272.129,235.557 1275.126,230.227 1277.651,231.609 C1280.171,232.985 1271.031,235.898 1274.813,237.794 C1278.6,239.685 1277.969,243.633 1278.128,245.697 C1278.277,247.755 1271.816,248.789 1269.455,245.697 C1267.089,242.604 1263.779,245.35 1259.36,245.009 C1254.947,244.662 1251.632,246.893 1256.363,247.587 C1261.1,248.269 1262.671,251.535 1256.363,252.223 C1250.062,252.911 1251.632,245.864 1247.855,246.726 C1244.067,247.587 1235.872,243.46 1231.453,243.633 C1227.034,243.801 1224.987,247.587 1219.152,248.101 C1213.317,248.616 1205.434,244.835 1203.063,241.402 C1200.702,237.962 1199.922,236.933 1197.084,240.887 C1194.241,244.841 1194.082,252.397 1191.244,252.911 C1188.406,253.431 1187.303,260.125 1184.47,261.848 C1181.622,263.565 1181.468,259.264 1177.845,259.611 C1174.216,259.958 1162.557,247.587 1161.915,243.98 C1161.289,240.373 1154.032,233.493 1152.149,232.123 C1150.25,230.748 1154.032,230.06 1156.403,232.291 C1158.769,234.522 1161.756,234.522 1164.127,233.152 C1166.488,231.777 1166.175,225.424 1162.079,225.244 C1157.974,225.077 1159.549,221.296 1161.602,220.602 C1163.655,219.92 1156.87,213.22 1159.395,212.532 C1161.915,211.85 1160.817,208.925 1157.348,208.411 C1153.884,207.896 1150.25,204.804 1150.086,202.907 C1149.932,201.017 1135.27,200.329 1135.896,203.081 C1136.532,205.833 1131.169,204.971 1131.96,202.74 C1132.75,200.508 1126.756,201.191 1119.812,199.133 C1112.885,197.069 1112.72,191.739 1110.354,191.404 C1107.988,191.051 1108.779,198.786 1105.32,197.069 C1101.846,195.346 1098.058,198.618 1099.947,203.081 C1101.835,207.549 1100.111,208.232 1099.793,211.845 C1099.474,215.452 1097.586,213.908 1093.486,212.359 C1089.385,210.81 1089.385,216.14 1080.558,213.735 C1071.731,211.33 1067.785,213.908 1066.209,210.81 C1064.634,207.717 1061.95,207.382 1061.631,209.954 C1061.324,212.532 1047.76,211.503 1046.656,207.717 C1045.558,203.936 1049.017,203.254 1051.07,202.225 C1053.118,201.191 1048.863,199.647 1041.458,200.162 C1034.042,200.676 1029.311,196.04 1021.746,196.89 C1014.171,197.757 997.302,199.468 994.937,200.676 C992.576,201.878 997.149,206.515 993.52,206.861 C989.897,207.203 992.417,199.3 991.786,195.52 C991.16,191.739 985.638,191.219 986.423,194.15 C987.208,197.069 977.75,198.098 975.389,195.861 C973.023,193.629 969.236,190.704 963.088,188.993 C956.94,187.276 949.37,194.491 951.105,196.554 C952.85,198.618 957.412,197.069 957.566,198.439 C957.895,201.266 944.485,200.162 944.485,202.561 C944.485,204.971 932.029,208.232 928.242,208.752 C917.871,210.168 915.628,210.122 910.742,214.596 C905.851,219.059 909.639,210.642 913.421,206.515 C917.203,202.393 921.144,204.11 923.356,200.85 C925.563,197.583 929.027,197.924 935.026,196.89 C941.021,195.861 940.702,192.086 943.546,190.704 C946.378,189.34 953.306,186.415 954.574,183.322 C955.836,180.224 970.032,175.073 972.87,175.241 C975.702,175.42 976.333,169.055 977.904,169.055 C979.49,169.055 987.685,165.107 990.841,163.564 C993.992,162.02 995.568,158.748 995.732,156.517 C995.891,154.285 991.473,154.627 990.995,152.563 C990.523,150.499 993.043,151.875 996.358,150.499 C999.668,149.129 996.358,144.314 993.685,145.175 C990.995,146.036 995.101,142.597 992.735,139.504 C990.369,136.411 985.638,141.394 985.792,138.128 C985.956,134.862 985.479,130.74 983.585,128.677 C981.691,126.613 978.227,132.284 974.286,129.024 C970.339,125.763 958.828,123.694 958.828,125.069 C958.828,126.451 953.306,123.006 952.208,124.387 C951.105,125.763 941.96,125.584 939.116,124.723 C936.284,123.873 932.337,125.931 932.183,129.024 C932.029,132.122 920.831,130.914 918.784,130.394 C916.736,129.879 926.513,121.115 926.513,119.566 C926.513,118.023 909.957,119.913 909.007,118.202 C908.063,116.485 900.027,115.959 896.393,116.138 C892.759,116.306 896.239,115.103 899.549,114.762 C902.859,114.416 905.851,111.317 909.485,110.635 C913.108,109.953 912.317,108.577 910.742,106.166 C909.161,103.767 905.374,104.964 901.751,103.767 C898.128,102.565 893.709,100.842 890.558,100.675 C887.407,100.501 883.933,102.392 876.527,103.935 C869.106,105.484 868.486,111.67 864.698,113.56 C860.916,115.456 854.29,123.006 857.447,123.694 C860.603,124.387 859.022,126.451 859.494,128.677 C859.972,130.914 857.128,131.428 853.505,130.74 C849.877,130.058 837.104,130.226 837.263,133.151 C837.416,136.076 844.678,137.44 844.201,138.99 C843.729,140.533 838.684,138.816 836.159,137.273 C833.64,135.729 827.958,136.579 826.86,139.504 C825.757,142.423 821.338,141.735 819.917,141.053 C818.495,140.365 815.349,142.423 812.983,141.568 C810.618,140.706 817.715,136.926 815.981,135.036 C814.241,133.151 806.676,134.862 805.886,137.961 C805.096,141.053 800.523,135.729 798.794,136.758 C797.054,137.787 795.165,138.99 791.85,140.533 C788.54,142.082 782.869,138.816 781.601,141.568 C780.344,144.314 787.914,145.175 788.068,146.372 C788.222,147.586 770.886,147.406 770.409,149.297 C769.937,151.193 764.102,151.193 757.004,151.36 C749.912,151.54 752.75,155.314 747.068,156.517 C741.393,157.725 738.873,157.893 736.979,160.985 C735.091,164.078 730.667,164.593 728.778,162.188 C726.89,159.783 721.681,163.384 724.524,163.731 C727.357,164.078 724.683,167.171 722.948,166.477 C721.214,165.795 716.169,169.749 719.007,169.402 C721.845,169.067 723.261,171.634 721.845,173.53 C720.423,175.42 714.275,171.292 712.695,173.009 C711.119,174.738 715.697,176.963 718.535,176.617 C721.373,176.281 722.948,178.333 723.261,180.571 C723.58,182.802 716.636,179.195 715.225,181.091 C713.803,182.975 716.328,183.837 719.315,184.184 C722.323,184.525 720.11,185.733 722.789,188.305 C722.996,188.508 723.166,188.693 723.304,188.872 C724.932,190.999 721.872,191.745 722.163,193.803 C722.471,196.04 719.161,196.89 719.161,194.832 C719.161,192.768 710.812,192.086 709.072,194.311 C707.332,196.554 706.08,198.271 704.022,196.208 C701.979,194.15 695.985,196.722 688.262,197.069 C680.538,197.41 664.614,198.098 660.667,199.647 C656.72,201.191 653.41,207.203 657.039,211.157 C660.667,215.116 657.193,216.828 657.193,219.406 C657.193,221.984 666.656,227.308 671.706,227.823 C676.751,228.337 680.846,235.037 677.854,239.164 C674.857,243.286 665.712,237.962 659.723,232.806 C653.729,227.655 639.857,225.591 635.279,225.938 C630.707,226.273 633.385,221.469 627.556,221.637 C621.715,221.811 616.835,227.481 620.771,227.481 C624.712,227.481 627.243,227.14 625.19,229.198 C623.137,231.262 626.293,230.748 631.025,232.973 C635.751,235.216 627.084,238.309 622.193,234.702 C617.307,231.094 612.103,234.522 610.687,237.28 C609.266,240.026 616.358,247.922 624.872,249.304 C633.385,250.68 630.553,253.593 634.494,255.142 C638.43,256.686 635.603,258.414 632.919,258.582 C630.229,258.755 624.872,254.113 620.617,251.709 C616.358,249.304 604.852,252.743 602.492,249.986 C600.12,247.24 604.062,244.494 601.85,242.436 C599.643,240.373 601.542,235.731 604.38,230.915 C607.218,226.106 603.908,217.857 599.802,216.481 C595.702,215.116 596.02,219.747 596.969,221.123 C597.908,222.498 597.442,229.031 594.285,233.32 C591.129,237.615 581.512,237.615 581.512,240.54 C581.512,243.46 575.051,245.697 577.252,247.755 C579.464,249.818 588.137,260.472 589.4,263.738 C590.662,266.999 581.671,277.306 583.087,283.324 C584.504,289.341 581.825,292.087 583.554,295.012 C585.294,297.937 589.235,295.348 591.76,296.556 C594.285,297.758 598.38,294.839 604.216,293.637 C610.051,292.44 620.771,299.14 624.712,301.198 C628.654,303.262 626.606,306.689 628.654,310.129 C630.707,313.574 623.927,313.574 623.763,318.725 C623.609,323.881 635.592,326.113 636.064,327.656 C636.542,329.2 627.545,328.003 624.081,326.627 C620.617,325.252 620.299,320.268 619.201,319.24 C618.092,318.211 621.562,314.083 621.869,310.817 C622.193,307.551 617.939,305.661 616.517,303.429 C615.095,301.198 612.576,297.932 609.738,298.62 C606.9,299.307 596.492,300.336 593.336,303.429 C590.174,306.522 593.808,315.285 595.548,319.581 C597.282,323.881 586.403,329.888 586.71,333.327 C587.034,336.767 583.4,338.31 578.669,341.062 C573.942,343.802 568.738,345.866 568.892,350.34 C569.057,354.809 562.59,352.404 559.28,350.34 C555.97,348.276 551.705,351.537 546.979,351.369 C542.247,351.201 542.247,346.9 538.46,348.444 C534.683,349.993 532.163,346.565 533.261,343.467 C534.365,340.38 538.619,342.779 538.937,345.01 C539.261,347.242 541.934,346.213 545.085,344.322 C548.241,342.438 546.666,346.733 551.244,347.074 C555.816,347.421 553.286,344.496 556.76,344.837 C560.224,345.189 560.378,343.987 559.28,342.085 C558.177,340.195 561.805,338.831 564.012,337.796 C566.489,336.634 565.274,332.813 567.322,331.616 C569.37,330.414 567.948,328.003 570.155,327.83 C572.372,327.656 573.316,324.043 575.358,324.043 C577.406,324.043 578.515,320.436 577.252,318.546 C575.99,316.661 578.043,311.505 580.09,310.817 C582.138,310.129 582.302,308.071 580.414,306.522 C578.515,304.973 571.576,299.816 572.048,296.556 C572.521,293.295 570.786,287.278 571.73,284.705 C572.68,282.121 571.895,276.791 571.576,273.699 C571.263,270.606 573.316,267.172 574.26,261.501 C575.205,255.836 568.738,249.818 565.593,248.269 C562.436,246.726 564.484,243.633 569.057,239.505 C573.629,235.384 573.942,222.498 573.629,219.747 C573.316,216.995 564.012,214.596 560.389,214.931 C556.76,215.278 543.356,214.596 540.046,213.908 C536.736,213.22 535.627,216.995 534.052,220.435 C532.476,223.874 529.007,229.198 526.954,236.933 C524.912,244.662 516.552,247.072 512.769,248.789 C508.987,250.512 506.616,256.171 508.345,258.929 C510.085,261.675 512.605,259.443 514.345,260.472 C516.08,261.501 514.186,268.727 513.077,269.756 C511.974,270.779 515.13,273.363 512.451,275.248 C509.767,277.138 507.247,281.098 508.823,283.156 C510.398,285.22 518.122,286.249 521.432,288.312 C524.742,290.37 523.479,294.145 526.015,297.758 C528.529,301.365 531.214,299.14 532.471,301.365 C533.739,303.597 527.904,312.54 525.845,312.875 C523.803,313.222 515.443,303.77 512.923,301.712 C510.398,299.654 500.627,296.377 495.742,293.637 C490.851,290.885 486.91,291.232 481.547,287.278 C476.189,283.324 471.616,281.428 461.835,281.613 C452.053,281.78 445.756,279.202 442.441,279.716 C439.131,280.231 440.393,276.109 434.558,273.363 C428.723,270.606 424.936,266.831 421.626,268.727 C418.316,270.606 419.578,277.485 424.628,278.341 C429.668,279.202 427.148,282.121 432.511,281.78 C437.868,281.439 439.444,283.497 439.29,287.104 C439.131,290.711 441.815,294.319 444.181,296.729 C446.541,299.14 445.125,303.082 440.866,303.082 C436.606,303.082 431.726,303.77 433.619,307.036 C435.508,310.302 432.352,311.164 428.097,309.447 C423.838,307.718 426.357,304.464 428.097,302.568 C429.832,300.683 424.31,298.273 421.626,297.244 C418.947,296.209 408.232,304.805 405.235,306.175 C402.237,307.551 394.827,304.111 387.257,306.175 C379.693,308.239 380.17,314.771 377.322,314.083 C374.484,313.407 366.129,314.939 362.967,312.875 C359.817,310.817 362.347,309.615 365.652,309.788 C368.967,309.967 370.065,308.759 368.177,306.354 C366.278,303.944 370.702,300.163 370.542,298.446 C370.389,296.729 358.082,301.198 356.04,303.082 C353.987,304.973 356.193,308.418 353.987,309.615 C351.775,310.817 351.785,307.551 349.25,306.522 C346.735,305.487 328.286,310.129 324.822,314.424 C321.348,318.725 314.568,318.898 314.568,321.303 C314.568,323.714 306.208,323.529 302.898,325.252 C299.583,326.968 301.8,334.015 300.538,337.455 C299.275,340.888 286.342,339.859 282.401,340.027 C278.465,340.206 277.038,331.778 273.882,331.264 C270.736,330.749 272.619,325.939 273.574,323.881 C274.518,321.818 277.038,323.529 280.979,320.789 C284.926,318.031 288.867,322.153 290.443,320.268 C292.018,318.378 284.449,313.395 283.982,309.094 C283.504,304.805 275.144,303.597 270.413,304.973 C265.686,306.354 260.483,305.146 257.172,303.429 C253.857,301.712 254.175,306.522 259.066,307.898 C263.952,309.268 261.427,313.395 262.217,315.973 C263.013,318.546 260.955,324.396 258.117,328.859 C255.279,333.327 257.326,333.154 261.591,332.975 C265.845,332.813 265.533,338.831 265.533,343.288 C265.533,347.762 262.217,348.964 262.217,352.225 C262.217,355.496 258.748,350.687 257.639,352.057 C256.541,353.427 255.12,351.369 254.494,348.617 C253.862,345.877 247.396,347.409 243.773,346.386 C240.139,345.357 238.723,347.074 236.994,349.993 C235.254,352.912 230.209,354.115 227.53,354.462 C224.554,354.843 220.12,360.479 217.282,362.543 C214.439,364.607 213.972,368.555 217.908,372.671 C221.86,376.793 222.634,379.55 222.327,381.782 C222.014,384.013 211.288,383.331 209.553,380.92 C207.818,378.521 200.88,377.666 198.514,378.174 C196.148,378.689 189.687,370.446 186.377,370.272 C183.067,370.099 181.014,374.567 179.916,376.793 C178.813,379.036 181.486,379.724 183.067,383.498 C184.643,387.285 190.478,387.453 193.475,387.453 C196.472,387.453 195.363,392.436 194.419,394.499 C193.475,396.563 187.953,398.106 186.377,395.869 C184.802,393.638 178.171,395.869 178.017,393.123 C177.863,390.378 173.132,386.256 168.241,387.111 C163.361,387.967 162.411,384.527 162.724,380.4 C163.048,376.284 160.045,373.879 160.199,371.989 C160.358,370.093 157.998,366.318 160.512,364.428 C163.037,362.543 161.149,359.624 161.308,357.04 C161.461,354.462 157.048,350.508 153.107,350.508 C149.165,350.508 149.956,346.213 146.646,345.357 C143.336,344.496 136.71,338.478 136.238,335.905 C135.761,333.327 130.716,332.975 132.451,332.125 C134.191,331.264 138.132,332.466 140.97,335.564 C143.802,338.651 148.375,341.403 155.786,342.438 C163.201,343.467 166.193,347.242 174.389,348.791 C182.59,350.34 187.475,351.369 199.305,353.265 C211.128,355.155 226.899,342.085 230.214,338.478 C233.525,334.871 229.265,327.489 229.265,324.731 C229.265,321.985 223.902,321.639 223.122,319.581 C222.327,317.517 218.857,313.742 214.285,313.742 C209.712,313.742 209.086,308.071 205.458,308.418 C201.824,308.759 199.305,306.689 189.846,299.816 C180.383,292.949 167.302,287.966 164.931,289.162 C162.57,290.37 160.989,291.053 159.414,288.48 C157.838,285.902 154.215,286.249 151.69,288.312 C149.165,290.37 146.646,286.422 141.914,287.619 C137.182,288.827 134.663,285.387 135.92,283.838 C137.182,282.295 144.126,283.671 143.802,281.098 C143.489,278.514 140.97,281.098 136.71,278 C132.451,274.907 130.09,276.971 129.141,279.549 C128.202,282.121 124.892,281.428 122.674,279.202 C122.473,278.988 122.213,278.82 121.953,278.647 C121.226,282.948 118.892,283.381 116.526,282.815 C113.683,282.121 110.85,287.278 107.699,287.278 C104.548,287.278 101.079,291.053 100.437,294.145 C99.817,297.244 96.353,295.527 96.353,297.585 C96.353,299.654 96.353,301.712 94.767,303.77 C93.197,305.84 94.767,306.869 96.353,310.297 C97.928,313.742 101.392,313.395 102.973,314.424 C104.548,315.453 110.537,320.956 110.537,323.02 C110.537,325.084 105.811,330.24 103.917,331.616 C102.023,332.975 99.493,336.42 100.761,338.478 C102.023,340.547 107.386,349.138 110.85,356.011 C114.325,362.884 109.598,359.792 107.386,362.879 C105.18,365.971 108.325,369.763 108.957,371.821 C109.598,373.879 106.119,373.538 106.437,375.249 C106.755,376.978 111.482,377.666 111.8,379.036 C112.113,380.4 108.644,382.128 110.219,384.88 C111.805,387.632 115.582,387.62 115.895,391.06 C116.219,394.499 108.957,394.835 109.275,397.598 C109.598,400.344 118.733,403.777 122.839,408.934 C126.934,414.085 126.621,415.46 125.677,418.212 C123.772,423.744 112.431,428.531 109.901,434.71 C107.386,440.896 97.928,444.324 93.51,449.145 C91.706,451.11 89.918,453.752 88.422,456.203 C90.295,455.683 91.786,455.059 92.873,454.469 C95.398,453.087 97.127,459.793 99.658,462.024 C102.177,464.262 107.227,462.198 108.957,464.262 C110.696,466.325 107.535,466.493 103.917,465.805 C100.289,465.123 99.339,467.522 93.663,469.58 C89.43,471.123 89.844,472.765 88.428,474.06 C90.979,478.106 87.558,478.627 86.253,481.696 C84.836,485.043 82.937,485.564 82.704,487.622 C82.465,489.691 83.176,491.235 83.415,494.322 C83.648,497.426 84.126,497.929 85.781,500.513 C87.436,503.091 84.359,503.091 82.937,504.38 C81.526,505.663 82.465,508.502 84.359,510.565 C86.253,512.623 86.253,515.202 85.547,517.005 C84.836,518.809 87.197,521.907 88.857,523.705 C90.507,525.514 90.274,530.417 91.69,531.694 C93.106,532.989 94.767,534.278 97.371,533.504 C99.971,532.729 101.626,534.024 102.803,536.342 C103.991,538.654 105.885,537.631 108.49,536.342 C111.084,535.047 116.993,538.654 118.42,539.429 C119.836,540.203 119.131,544.585 119.364,547.418 C119.598,550.256 117.948,553.863 120.547,555.673 C123.146,557.471 122.441,561.598 125.512,562.887 C128.589,564.176 129.766,568.812 131.666,569.333 C133.554,569.841 137.103,572.94 137.575,575.258 C138.047,577.576 134.265,579.64 132.132,580.669 C130.005,581.703 125.99,577.576 124.568,579.38 C123.146,581.189 125.045,584.536 126.223,590.207 C127.406,595.878 128.355,596.392 130.716,596.392 C133.082,596.392 134.026,594.589 135.686,593.554 C137.336,592.531 141.124,594.069 142.784,593.3 C144.434,592.531 150.343,592.271 151.531,594.329 C152.714,596.392 153.892,601.289 152.953,603.098 C152.003,604.896 154.131,606.96 155.319,609.538 C156.496,612.11 161.461,610.827 163.122,611.602 C164.777,612.376 168.559,618.041 167.848,620.62 C167.137,623.198 170.214,623.712 171.874,622.938 C173.529,622.169 175.184,624.227 177.073,625.522 C178.961,626.805 180.616,626.291 182.515,625.001 C184.404,623.712 187.475,622.683 188.425,624.487 C189.374,626.291 193.156,629.649 193.156,630.672 C193.156,631.701 199.071,630.672 201.904,632.222 C204.742,633.759 207.818,632.99 210.895,634.8 C213.972,636.603 216.81,636.864 217.043,638.922 C217.282,640.979 213.972,642.789 213.972,643.818 C213.972,644.847 216.571,645.621 216.571,647.171 C216.571,648.714 213.261,648.714 212.789,650.003 C212.311,651.298 214.677,653.096 215.149,654.385 C215.627,655.674 213.261,660.056 213.261,661.345 C213.261,662.634 206.169,661.085 204.508,661.085 C202.853,661.085 197.883,667.016 196.233,667.27 C194.817,667.496 195.48,670.352 195.994,672.779 C201.092,671.722 206.312,671.288 206.88,672.519 C207.818,674.577 195.841,680.081 193.634,680.936 C191.422,681.792 197.883,685.399 197.729,687.468 C197.581,689.526 190.785,690.047 191.422,694.162 C192.053,698.29 189.22,699.157 185.587,699.157 C181.958,699.157 181.014,701.556 182.749,701.897 C184.489,702.244 184.324,707.4 191.109,709.285 C197.883,711.175 205.14,718.054 210.975,724.922 C211.792,725.887 212.741,726.65 213.754,727.298 C215.441,726.199 216.9,725.402 217.749,725.269 C221.064,724.754 227.217,726.812 230.527,729.385 C233.843,731.969 245.661,728.876 247.083,730.934 C248.499,732.992 251.337,735.576 253.709,735.576 C256.069,735.576 258.435,740.727 260.329,739.183 C262.217,737.634 269.309,737.634 271.208,737.634 C273.097,737.634 273.097,739.183 274.985,739.183 C276.884,739.183 276.884,746.918 278.301,746.403 C279.717,745.883 284.926,751.039 288.236,751.554 C291.546,752.068 294.856,758.254 296.273,757.745 C297.694,757.225 300.06,760.318 301.004,757.745 C301.911,755.3 306.58,756.491 307.884,752.248 C301.896,744.253 295.461,735.397 295.647,731.969 C295.965,726.124 298.172,722.349 291.546,716.158 C284.926,709.979 292.183,705.851 296.915,699.319 C301.137,693.486 310.128,690.931 315.831,686.769 C314.68,685.896 313.486,685.087 312.362,684.543 C308.102,682.48 306.68,680.416 309.996,679.387 C313.306,678.352 311.889,676.294 308.574,672.172 C305.264,668.045 303.848,663.918 301.949,663.918 C300.06,663.918 297.222,663.409 294.384,664.438 C291.546,665.467 292.018,661.86 292.49,658.252 C292.963,654.645 287.292,655.16 286.342,653.61 C285.398,652.067 287.764,646.916 288.708,646.396 C289.653,645.876 292.49,644.338 292.49,642.789 C292.49,641.24 287.292,640.725 289.175,637.118 C291.074,633.511 294.856,633.511 294.856,629.904 C294.856,626.291 297.694,623.198 301.004,625.776 C304.314,628.354 305.736,635.054 309.518,633.511 C313.306,631.961 310.94,628.354 310.468,626.291 C309.996,624.227 309.046,621.14 313.306,620.105 C317.56,619.07 315.672,614.434 318.982,614.434 C322.292,614.434 328.445,609.798 330.334,608.763 C332.227,607.734 336.482,605.156 338.375,606.185 C340.269,607.22 342.63,609.798 344.057,606.185 C345.473,602.578 351.143,604.127 351.621,606.185 C352.098,608.249 361.079,608.249 363.917,610.312 C366.755,612.376 372.903,616.492 372.903,618.562 C372.903,620.62 375.746,623.712 375.746,620.105 C375.746,616.492 378.107,617.533 381.894,620.105 C385.682,622.683 390.886,621.649 391.83,619.07 C392.774,616.492 399.866,613.405 402.237,615.463 C404.598,617.533 405.548,619.07 408.385,615.983 C411.218,612.885 417.844,613.405 418.793,616.492 C419.737,619.591 423.047,620.105 425.891,620.105 C428.723,620.105 429.201,624.747 431.084,623.712 C432.983,622.683 432.511,617.533 434.871,618.041 C437.237,618.562 439.131,621.649 442.913,621.649 C446.701,621.649 449.533,620.62 449.533,617.533 C449.533,614.434 449.066,609.278 446.701,609.278 C444.335,609.278 441.969,606.705 439.131,606.705 C436.293,606.705 433.455,601.543 436.293,600.514 C439.131,599.491 443.857,596.907 442.913,594.329 C441.969,591.756 441.025,586.6 444.802,586.08 C448.589,585.571 456.631,585.571 456.159,584.022 C455.687,582.472 448.117,581.449 446.701,578.865 C445.279,576.287 444.802,570.107 446.223,569.073 C447.645,568.038 452.377,569.587 455.215,568.558 C458.047,567.523 464.201,570.107 467.983,567.009 C471.765,563.916 479.812,563.402 484.066,563.402 C488.321,563.402 491.631,560.303 494.946,559.794 C498.256,559.28 507.719,557.731 510.085,556.696 C512.451,555.673 525.219,553.609 525.691,551.031 C526.169,548.458 536.338,546.389 538.937,547.684 C541.536,548.967 544.852,550.002 547.218,548.967 C549.578,547.938 554.554,550.771 554.076,553.609 C553.604,556.442 556.204,559.534 555.97,561.852 C555.726,564.176 553.366,564.951 554.787,566.754 C556.204,568.558 562.59,567.269 564.484,564.951 C566.378,562.627 568.5,565.98 568.5,567.783 C568.5,569.587 571.576,570.882 571.576,568.558 C571.576,566.234 575.358,567.783 576.547,569.333 C577.73,570.882 582.223,567.523 582.223,570.107 C582.223,572.68 575.597,574.743 578.44,577.576 C581.273,580.414 582.928,574.223 586.477,575.512 C590.026,576.807 594.757,571.13 598.073,570.362 C601.383,569.587 604.926,566.234 607.764,564.431 C610.602,562.627 616.75,563.147 614.862,565.205 C612.963,567.269 610.841,571.13 617.939,573.969 C625.031,576.807 633.073,591.756 637.56,599.225 C642.059,606.705 646.313,620.105 648.679,620.105 C651.045,620.105 651.755,613.405 654.832,612.631 C657.903,611.856 659.792,618.302 663.107,619.07 C666.417,619.845 670.91,621.914 673.515,620.874 C676.119,619.845 682.029,616.238 684.156,617.533 C686.288,618.822 689.126,618.822 691.02,623.712 C692.908,628.609 695.752,629.649 697.64,629.649 C699.529,629.649 699.932,631.961 699.932,634.025 C699.932,636.089 703.396,638.841 705.289,638.841 C707.178,638.841 712.228,638.141 713.803,637.118 C715.373,636.089 717.278,635.066 717.586,637.465 C717.909,639.87 720.747,643.644 722.635,643.644 C724.534,643.644 728.306,645.373 728.624,643.644 C728.943,641.933 733.987,640.904 735.881,640.552 C737.775,640.211 744.4,638.841 745.652,635.742 C746.915,632.655 752.272,632.655 753.858,630.591 C755.429,628.528 759.842,627.499 760.792,625.435 C761.736,623.377 767.412,623.724 768.048,621.995 C768.674,620.279 773.401,619.938 775.613,620.62 C777.814,621.313 788.863,623.712 790.428,623.377 C792.009,623.03 792.327,629.562 793.898,629.904 C795.484,630.25 801.159,635.054 802.735,633.69 C804.305,632.308 808.093,630.927 811.249,632.99 C814.405,635.054 817.561,637.812 818.813,635.407 C820.076,632.99 826.696,631.961 827.651,630.591 C828.595,629.21 829.539,625.088 827.958,623.712 C826.388,622.348 824.813,616.845 824.176,614.093 C823.545,611.341 827.958,610.654 828.595,608.249 C829.221,605.85 833.008,605.503 834.271,604.127 C835.528,602.751 835.846,599.664 838.058,600.346 C840.26,601.034 844.991,602.751 845.93,603.786 C846.88,604.821 850.349,605.503 852.55,605.503 C854.763,605.503 858.237,607.561 860.444,608.942 C862.656,610.312 869.594,610.312 870.851,612.376 C872.114,614.434 870.528,620.279 872.114,622.348 C873.684,624.406 877.472,628.869 878.734,627.84 C879.991,626.805 885.985,631.279 888.197,630.927 C890.399,630.591 893.868,626.805 895.762,626.805 C897.656,626.805 903.644,625.088 905.538,625.435 C907.421,625.776 914.365,628.528 915.315,627.84 C916.259,627.152 922.561,628.187 923.51,630.25 C924.454,632.308 932.337,632.308 932.337,634.719 C932.337,637.118 936.75,638.494 938.018,641.24 C939.281,643.997 949.688,642.28 951.582,643.997 C953.476,645.714 965.459,645.373 965.772,643.997 C966.08,642.621 977.437,641.933 979.643,640.211 C981.856,638.494 987.839,639.187 988.163,636.777 C988.476,634.366 994.152,632.655 996.671,630.591 C999.196,628.528 1009.286,628.869 1009.917,631.279 C1010.548,633.69 1016.537,634.366 1019.062,633.337 C1021.592,632.308 1028.212,633.69 1029.157,636.089 C1030.106,638.494 1037.671,639.87 1039.564,639.182 C1041.458,638.494 1047.447,633.69 1049.654,633.337 C1051.866,632.99 1055.006,630.591 1054.38,628.187 C1053.754,625.776 1058.799,618.909 1059.43,616.163 C1060.061,613.405 1064.48,605.85 1066.05,605.156 C1067.626,604.474 1071.105,601.375 1070.782,599.318 C1070.464,597.254 1069.519,591.068 1067.626,591.068 C1065.737,591.068 1062.268,591.415 1066.687,584.877 C1071.095,578.351 1078.983,580.073 1080.245,580.073 C1081.497,580.073 1091.597,577.322 1096.011,578.698 C1100.424,580.073 1103.257,578.015 1107.988,580.761 C1112.72,583.501 1119.346,582.472 1120.921,584.877 C1122.502,587.288 1128.804,589.357 1127.859,593.479 C1126.91,597.601 1131.329,595.196 1132.904,604.127 C1134.485,613.064 1138.262,613.752 1139.206,617.868 C1140.156,621.995 1145.2,629.562 1144.574,631.961 C1143.943,634.366 1143.312,638.141 1148.669,638.494 C1154.032,638.841 1157.82,643.303 1159.077,642.621 C1160.345,641.933 1166.641,644.338 1169.798,647.772 C1172.959,651.211 1177.686,649.495 1177.373,653.275 C1177.049,657.056 1179.898,660.143 1179.579,663.235 C1179.261,666.328 1185.579,668.398 1189.987,667.71 C1194.4,667.016 1197.551,669.421 1199.445,665.299 C1201.339,661.177 1207.646,662.894 1209.853,661.177 C1212.054,659.461 1218.69,657.391 1218.367,663.582 C1218.048,669.773 1221.836,671.138 1218.68,673.201 C1215.529,675.259 1213.948,684.202 1213.009,687.977 C1212.054,691.758 1207.322,692.787 1206.696,696.908 C1206.065,701.036 1201.646,701.383 1201.646,704.475 C1201.646,707.568 1195.345,706.886 1192.188,704.475 C1189.043,702.065 1185.886,708.944 1183.367,708.944 C1180.836,708.944 1181.155,714.782 1181.781,717.193 C1182.423,719.598 1180.842,722.685 1182.423,726.812 C1183.261,729.026 1182.746,733.235 1183.171,737.929 C1187.011,734.894 1190.491,732.657 1192.035,732.657 C1195.981,732.657 1199.922,740.044 1204.336,740.212 C1208.755,740.391 1228.774,725.777 1228.928,723.378 C1229.098,720.974 1240.757,708.77 1246.274,702.412 C1251.786,696.059 1259.048,686.775 1261.885,679.56 C1263.625,675.115 1271.349,666.502 1273.237,663.068 C1275.126,659.628 1276.388,659.287 1279.863,651.211 C1283.321,643.141 1283.321,621.995 1284.43,620.62 C1285.539,619.25 1284.902,615.642 1286.483,613.405 C1288.058,611.174 1287.268,608.081 1290.419,605.156 C1293.581,602.243 1292.944,599.664 1292.159,597.421 C1291.374,595.196 1292.318,590.207 1291.528,588.664 C1290.743,587.109 1290.896,586.432 1292.79,585.23 C1294.684,584.033 1291.528,580.929 1288.849,579.559 C1286.17,578.177 1282.701,576.981 1282.382,573.714 C1282.064,570.443 1277.502,566.5 1274.017,566.835 C1270.553,567.188 1264.087,564.783 1264.877,567.188 C1265.668,569.599 1264.559,571.645 1262.835,571.13 C1261.1,570.622 1260.305,572.165 1258.257,575.605 C1256.21,579.05 1248.953,579.38 1252.263,576.119 C1255.573,572.859 1251.165,572.68 1251.786,569.246 C1252.427,565.812 1255.101,562.373 1251.478,564.61 C1247.855,566.835 1247.855,572.165 1244.852,572.859 C1241.866,573.541 1242.805,563.581 1243.59,561.003 C1244.391,558.424 1238.073,561.176 1231.453,560.656 C1224.828,560.141 1226.562,555.152 1231.92,552.066 C1237.293,548.967 1236.344,546.054 1239.017,544.845 C1241.702,543.643 1248.64,538.654 1252.74,536.076 C1256.836,533.504 1257.631,530.59 1258.575,527.665 C1259.52,524.74 1267.089,521.133 1273.869,515.126 C1280.643,509.109 1283.958,505.663 1285.539,502.056 C1287.109,498.449 1297.204,493.986 1297.363,491.235 C1297.516,488.489 1309.346,481.615 1317.382,479.887 C1325.429,478.176 1338.198,480.407 1340.563,482.985 C1342.935,485.564 1344.669,484.535 1346.085,482.818 C1347.507,481.095 1350.653,481.956 1356.016,482.644 C1361.379,483.332 1362.641,479.887 1366.264,481.095 C1369.893,482.303 1372.884,482.985 1375.091,478.349 C1377.303,473.707 1387.711,474.569 1390.071,476.465 C1392.442,478.361 1394.336,480.927 1398.118,478.176 C1401.901,475.43 1401.901,481.783 1405.524,482.303 C1409.152,482.818 1406.786,486.252 1403.63,485.91 C1400.479,485.564 1396.538,487.622 1400.166,489.87 C1403.794,492.096 1408.054,487.801 1410.892,488.142 C1413.724,488.489 1418.138,488.83 1422.079,486.084 C1426.031,483.332 1427.129,488.315 1429.649,485.91 C1432.174,483.5 1437.85,482.818 1440.688,482.985 C1443.531,483.165 1441.165,479.378 1436.439,479.378 C1431.702,479.378 1431.856,476.632 1435.643,469.58 C1439.425,462.545 1446.677,458.758 1451.255,454.469 C1455.827,450.18 1459.137,452.238 1459.137,449.48 C1459.137,446.734 1461.339,439 1464.818,438.838 C1468.282,438.653 1476.95,440.375 1482.318,437.109 C1487.676,433.843 1487.198,439.52 1489.416,440.375 C1491.617,441.237 1494.614,435.392 1497.134,437.109 C1499.67,438.838 1493.352,442.959 1491.936,447.931 C1490.514,452.914 1495.246,451.029 1497.924,452.405 C1500.603,453.787 1494.45,455.845 1495.092,457.209 C1495.712,458.591 1501.075,458.591 1508.019,451.029 C1514.958,443.474 1521.259,441.41 1525.678,441.925 C1530.092,442.445 1527.561,437.63 1527.885,430.583 C1528.198,423.536 1541.756,421.478 1546.175,423.536 C1550.583,425.6 1550.276,427.49 1546.011,426.282 C1541.756,425.085 1537.815,429.207 1537.969,435.046 C1538.139,440.896 1534.181,442.774 1536.245,445.023 C1538.292,447.249 1533.243,447.769 1533.083,450.18 C1532.93,452.584 1533.083,454.469 1529.932,455.504 C1526.787,456.527 1516.215,457.729 1515.902,462.198 C1515.583,466.672 1509.908,467.181 1507.223,472.673 C1504.55,478.176 1494.296,481.442 1487.522,492.443 C1480.743,503.438 1470.022,503.438 1470.022,505.496 C1470.022,507.559 1462.601,507.392 1460.087,507.733 C1457.567,508.074 1462.447,514.774 1456.458,521.821 C1450.464,528.862 1446.523,538.654 1446.677,548.458 C1446.841,558.245 1449.833,586.432 1452.517,591.415 C1455.201,596.404 1453.62,608.601 1455.827,611.174 C1458.034,613.752 1457.243,618.041 1458.665,619.591 C1460.087,621.14 1465.917,612.717 1469.853,609.11 C1473.804,605.503 1472.537,604.306 1475.221,602.41 C1477.905,600.514 1476.796,592.612 1477.587,590.554 C1478.377,588.49 1483.268,587.461 1484.838,585.23 C1486.413,582.998 1490.514,584.374 1492.726,583.501 C1494.927,582.657 1492.562,576.981 1491.776,573.714 C1490.986,570.443 1498.237,565.98 1502.025,563.061 C1505.807,560.141 1510.539,564.951 1514.793,560.656 C1519.053,556.361 1514.485,551.378 1512.905,549.146 C1511.329,546.915 1517.159,536.076 1520.469,535.047 C1523.779,534.024 1525.519,537.631 1528.67,534.532 C1531.821,531.44 1525.832,526.463 1523.625,526.809 C1521.419,527.145 1520.633,518.04 1525.832,513.751 C1531.041,509.456 1528.983,508.588 1525.519,507.559 C1522.05,506.536 1521.413,507.906 1518.734,508.074 C1516.056,508.247 1513.377,502.056 1517.477,496.05 C1521.578,490.032 1525.519,490.714 1526.463,485.743 C1527.407,480.76 1533.083,473.707 1534.505,471.135 C1535.927,468.551 1541.603,471.135 1543.809,470.62 C1546.011,470.1 1545.231,475.257 1547.904,472.673 C1550.583,470.1 1554.997,461.516 1558.63,461.516 C1562.253,461.516 1559.893,467.869 1560.842,471.649 C1561.787,475.43 1563.829,470.62 1570.773,465.464 C1577.7,460.307 1592.84,460.816 1597.412,463.227 C1601.995,465.637 1602.775,471.308 1605.306,470.62 C1609.141,469.58 1605.932,464.944 1609.719,463.741 C1613.506,462.545 1620.127,458.244 1625.177,454.296 C1630.216,450.341 1628.794,453.267 1631.473,449.659 C1634.157,446.052 1636.836,447.596 1637.621,445.191 C1638.417,442.774 1645.663,438.838 1655.604,436.421 C1665.534,434.017 1678.461,426.802 1677.83,424.571 C1677.204,422.334 1681.612,421.305 1682.09,423.536 C1682.562,425.767 1686.344,424.918 1691.548,426.114 C1696.752,427.322 1699.123,429.554 1703.223,425.085 C1707.318,420.611 1702.746,419.068 1702.9,415.64 C1703.053,412.194 1695.802,408.587 1696.752,404.98 C1697.701,401.373 1691.394,391.742 1689.505,393.638 C1687.606,395.534 1683.188,392.094 1683.188,389.343 C1683.188,386.597 1682.88,383.331 1679.878,385.389 C1676.891,387.453 1671.841,386.424 1670.897,383.331 C1669.942,380.238 1676.732,378.001 1681.458,380.07 C1686.195,382.128 1684.774,384.192 1687.134,385.736 C1689.505,387.285 1695.961,386.597 1699.271,384.88 C1702.581,383.157 1711.891,379.891 1713.461,376.978 C1715.047,374.053 1713.307,372.671 1716.469,370.96 C1719.62,369.243 1717.249,365.636 1714.57,364.087 C1711.891,362.543 1712.522,358.422 1715.36,358.422 C1718.193,358.422 1717.408,354.809 1719.302,354.629 C1721.195,354.462 1721.503,356.179 1724.977,354.294 C1728.441,352.404 1725.131,357.208 1723.566,360.479 C1721.986,363.74 1726.876,366.486 1727.343,368.382 C1727.815,370.272 1734.595,370.96 1738.382,368.723 C1742.164,366.491 1754.301,371.469 1755.092,374.735 C1755.882,378.001 1757.617,381.955 1762.661,384.707 C1767.711,387.453 1772.284,386.256 1773.228,388.828 C1774.172,391.412 1776.066,392.777 1778.904,392.094 C1781.742,391.412 1783.317,394.835 1785.365,392.777 C1787.418,390.719 1788.521,393.985 1791.205,391.412 C1793.879,388.828 1785.365,387.111 1786.474,385.048 C1787.577,382.984 1789.312,386.597 1791.672,386.424 C1794.043,386.256 1791.041,381.273 1792.781,380.753 C1794.515,380.238 1793.094,369.931 1791.205,369.243 C1789.312,368.561 1790.887,364.942 1794.515,367.862 C1798.133,370.787 1803.809,370.613 1806.493,370.613 C1809.183,370.613 1806.652,367.862 1803.979,367.353 C1801.289,366.838 1804.451,364.428 1806.339,366.318 C1808.228,368.214 1811.851,369.064 1812.174,367.006 C1812.487,364.942 1814.381,360.479 1817.691,360.647 C1821.001,360.821 1822.105,358.751 1818.948,357.554 z M308.256,298.955 C316.77,307.551 324.032,295.18 328.122,294.498 C332.227,293.816 325.602,288.995 318.663,286.931 C311.73,284.873 301.827,292.475 308.256,298.955 z M321.82,21.287 C326.233,24.727 309.518,23.686 307.312,27.126 C305.11,30.566 295.392,29.317 297.222,33.311 C299.111,37.439 314.876,37.786 314.876,34.346 C314.876,30.901 323.082,33.999 323.39,30.901 C323.713,27.814 327.177,24.38 336.004,23.686 C344.842,23.004 344.842,19.565 336.641,15.443 C328.445,11.316 317.406,17.848 321.82,21.287 z M1313.6,605.156 C1310.136,595.196 1318.65,585.571 1312.338,580.414 C1306.036,575.258 1308.55,564.61 1305.405,566.668 C1302.248,568.732 1305.405,578.015 1300.354,578.698 C1295.305,579.38 1300.042,584.536 1298.148,591.415 C1296.254,598.289 1299.092,608.249 1301.622,614.434 C1304.142,620.62 1298.148,653.61 1300.678,659.114 C1303.193,664.617 1296.562,688.937 1298.779,691.758 C1302.567,696.579 1300.042,685.231 1305.712,684.202 C1311.388,683.167 1311.388,691.076 1314.863,692.787 C1318.332,694.509 1316.125,681.792 1312.974,682.48 C1309.818,683.167 1307.298,674.23 1305.712,668.733 C1304.142,663.235 1308.874,656.703 1308.874,649.836 C1308.874,642.962 1316.756,643.303 1321.488,648.454 C1326.22,653.61 1326.84,650.177 1324.952,646.396 C1323.069,642.621 1317.069,615.128 1313.6,605.156 z M292.178,24.38 C299.434,17.166 308.892,24.033 310.144,20.594 C311.412,17.166 296.596,16.137 291.228,19.229 C285.865,22.322 273.314,19.836 274.837,23.686 C275.781,26.097 284.926,31.595 292.178,24.38 z M1345.767,163.899 C1353.342,164.593 1357.119,172.501 1371.627,173.53 C1386.141,174.553 1396.856,171.466 1397.169,168.026 C1397.492,164.593 1383.928,159.442 1379.828,162.188 C1375.722,164.928 1372.577,157.713 1367.527,159.442 C1362.477,161.153 1355.549,160.812 1353.019,156.002 C1350.494,151.193 1341.98,163.564 1345.767,163.899 z M1290.896,185.554 C1290.896,180.397 1273.715,187.444 1280.812,190.022 C1284.589,191.404 1290.896,190.704 1290.896,185.554 z M1316.125,208.232 C1321.796,206.861 1312.03,195.52 1302.248,193.803 C1292.472,192.086 1283.385,200.85 1284.589,202.74 C1287.432,207.208 1310.444,209.607 1316.125,208.232 z M1250.215,164.246 C1254.629,166.656 1256.21,169.055 1258.729,171.807 C1261.249,174.553 1270.707,170.437 1274.495,169.055 C1278.277,167.685 1278.6,175.241 1284.589,171.119 C1290.589,166.992 1296.567,169.055 1303.511,169.055 C1310.454,169.055 1302.248,159.777 1302.567,155.655 C1302.885,151.528 1310.762,154.285 1308.242,157.713 C1305.723,161.153 1312.03,169.055 1322.114,168.373 C1332.203,167.685 1324.634,160.812 1329.689,158.407 C1334.734,156.002 1334.097,153.251 1326.84,148.435 C1319.594,143.626 1310.136,146.724 1303.824,143.626 C1297.092,140.325 1289.008,140.186 1288.684,147.753 C1288.377,155.314 1275.126,139.504 1268.187,137.093 C1261.249,134.694 1239.781,158.557 1250.215,164.246 z M843.416,93.454 C847.835,96.2 862.019,90.015 871.477,90.362 C880.935,90.709 907.421,82.454 908.376,76.962 C909.32,71.459 898.6,71.806 894.505,66.99 C890.404,62.181 881.254,66.302 879.047,70.43 C876.835,74.551 874.315,70.777 880.31,64.244 C886.309,57.712 874.315,52.556 874.002,56.677 C873.684,60.805 862.656,57.371 862.656,61.152 C862.656,64.926 858.55,66.649 858.868,70.43 C859.176,74.21 851.299,68.366 850.98,76.962 C850.673,85.552 838.764,90.564 843.416,93.454 z M1697.701,260.125 C1704.003,263.565 1707.791,256.004 1712.835,259.784 C1717.885,263.565 1730.187,258.067 1735.226,257.039 C1740.271,256.004 1737.746,249.13 1723.566,247.072 C1709.371,245.009 1690.917,256.432 1697.701,260.125 z M769.624,10.98 C770.886,5.824 749.949,8.061 755.429,13.038 C757.322,14.755 768.356,16.137 769.624,10.98 z M636.855,216.14 C641.899,218.891 645.687,217.857 645.05,212.359 C644.424,206.861 632.844,213.96 636.855,216.14 z M794.539,45 C794.539,48.775 784.381,52.55 787.277,55.313 C789.802,57.718 792.009,57.024 795.165,57.712 C798.322,58.406 799.897,66.99 805.568,65.62 C811.249,64.244 826.696,72.488 835.846,72.488 C844.997,72.488 845.93,64.244 843.092,63.897 C840.26,63.556 842.79,58.741 847.824,50.839 C852.874,42.936 832.059,37.092 832.059,43.277 C832.059,49.463 826.065,41.907 824.176,38.121 C822.277,34.346 794.539,41.214 794.539,45 z M777.814,35.375 C783.808,38.121 781.601,39.844 775.294,39.844 C768.992,39.844 763.571,42.162 767.73,43.971 C770.886,45.347 770.563,49.128 777.188,50.839 C783.808,52.556 790.428,46.717 789.802,42.59 C789.166,38.468 812.819,34.693 819.137,32.965 C825.433,31.253 815.031,24.033 821.969,23.351 C828.908,22.663 826.065,19.229 817.551,17.848 C809.037,16.472 812.511,8.57 809.673,5.824 C806.83,3.078 805.255,9.252 794.216,11.662 C783.177,14.073 777.814,17.166 782.233,19.565 C786.651,21.97 782.233,27.814 777.506,27.479 C772.775,27.126 771.83,32.629 777.814,35.375 z M544.772,210.989 C548.873,211.671 559.906,209.266 561.174,206.861 C562.436,204.457 556.76,201.711 549.499,201.711 C542.247,201.711 541.223,210.394 544.772,210.989 z M483.912,19.912 C495.869,18.542 495.572,11.316 489.27,9.946 C482.963,8.57 482.024,14.073 478.862,13.726 C475.706,13.379 463.792,15.9 466.248,18.877 C469.086,22.322 477.918,20.594 483.912,19.912 z M27.6,549.227 C26.178,550.002 22.391,548.458 21.213,546.649 C20.264,545.198 17.325,545.747 14.736,546.013 C15.32,546.395 15.946,546.898 16.397,547.765 C17.818,550.522 10.721,550.863 12.933,554.123 C15.139,557.395 7.888,557.563 7.888,554.123 C7.888,550.69 0.313,552.407 0.637,554.638 C0.753,555.447 0.52,556.436 -0,557.39 C2.058,558.187 4.451,559.124 5.389,559.534 C6.822,560.153 25.727,562.297 33.117,560.806 C32.724,559.303 33.509,554.806 33.509,553.089 C33.509,551.031 29.011,548.458 27.6,549.227" fill="#1D649F"/>
  </g>
</svg>
