<?xml version="1.0" encoding="UTF-8"?>
<!DOCTYPE svg PUBLIC "-//W3C//DTD SVG 1.1//EN" "http://www.w3.org/Graphics/SVG/1.1/DTD/svg11.dtd">
<svg version="1.1" xmlns="http://www.w3.org/2000/svg" xmlns:xlink="http://www.w3.org/1999/xlink" x="0" y="0" width="60.784" height="51.894" viewBox="0, 0, 60.784, 51.894">
  <g id="Calque_1">
    <path d="M12.096,50.667 C14.09,50.881 18.085,48.054 18.085,48.054 C18.085,48.054 31.447,46.973 33.638,46.759 C34.417,46.678 35.394,47.043 36.332,47.528 C36.37,46.915 36.359,46.459 36.359,46.459 C36.359,46.459 43.457,47.996 43.929,49.806 C44.401,51.609 54.098,52.898 59.54,50.841 C59.938,50.684 60.32,50.534 60.712,50.384 C60.776,48.02 60.861,44.187 60.649,43.019 C60.33,41.302 56.861,37.527 54.973,35.458 C53.079,33.4 53.387,28.244 53.387,28.244 L51.429,25.081 C51.429,25.081 49.928,18.538 45.425,16.902 C40.926,15.272 37.924,6.282 37.924,6.282 L34.179,6.282 C34.179,6.282 31.176,2.201 28.185,0.559 C25.182,-1.071 19.936,1.38 19.936,1.38 C19.936,1.38 13.936,2.201 10.186,1.38 C6.441,0.559 7.189,6.282 4.187,7.098 C4.07,7.132 3.842,7.202 3.64,7.254 C3.301,10.578 2.781,13.982 1.2,16.555 C-2.264,22.226 2.622,30.475 5.141,33.047 C5.661,33.585 5.82,34.354 5.773,35.244 C11.518,35.88 14.711,35.227 19.278,32.839 C23.867,30.446 24.27,37.192 29.447,37.626 C34.635,38.065 35.234,38.499 35.234,38.499 C35.234,38.499 31.845,40.886 28.651,40.453 C25.469,40.019 21.872,35.672 19.676,37.845 C17.48,40.013 10.706,41.32 7.513,41.534 C6.987,41.574 5.863,41.84 4.393,42.245 C4.165,44.175 4.319,46.071 5.613,47.667 C6.017,48.164 6.356,48.609 6.685,49.054 C12.085,47.563 10.425,50.482 12.096,50.667" fill="#1D649F"/>
  </g>
</svg>
