<?xml version="1.0" encoding="UTF-8"?>
<!DOCTYPE svg PUBLIC "-//W3C//DTD SVG 1.1//EN" "http://www.w3.org/Graphics/SVG/1.1/DTD/svg11.dtd">
<svg version="1.1" xmlns="http://www.w3.org/2000/svg" xmlns:xlink="http://www.w3.org/1999/xlink" x="0" y="0" width="171.217" height="163.426" viewBox="0, 0, 171.217, 163.426">
  <g id="Calque_1">
    <path d="M130.392,99.435 C130.392,102.192 124.717,98.747 123.459,101.493 C122.197,104.25 120.929,107.678 120.929,107.678 L116.521,106.996 L110.214,97.371 C110.214,97.371 115.258,89.816 116.521,87.058 C117.783,84.318 125.979,79.503 127.242,82.249 C128.499,85 134.175,88.44 134.175,91.18 C134.175,93.937 130.392,96.683 130.392,99.435 z M163.27,61.028 C163.27,61.028 163.212,60.553 163.132,59.814 C162.294,60.553 161.435,61.611 161.334,62.918 C161.106,65.554 158.698,65.791 155.393,65.554 C152.099,65.317 148.805,56.212 148.805,54.767 C148.805,53.333 153.42,46.391 156.056,46.391 C157.759,46.391 160.199,48.391 162.135,49.807 C162.061,48.755 162.045,47.957 162.082,47.628 C162.321,46.078 163.981,28.291 161.138,26.487 C158.3,24.684 155.462,6.642 154.518,4.838 C153.574,3.035 143.161,4.064 141.978,2.006 C140.816,-0.035 132.037,1.948 131.846,0 C130.488,2.202 128.96,4.607 128.191,5.613 C126.61,7.677 122.197,6.307 121.571,9.735 C120.929,13.174 115.577,16.62 113.052,16.62 C110.527,16.62 108.633,21.424 108.633,24.516 C108.633,27.609 103.588,31.736 99.493,31.736 C95.393,31.736 96.65,35.511 95.387,40.327 C94.13,45.13 92.236,45.483 85.303,45.483 C78.365,45.483 78.052,44.789 72.684,41.02 C67.321,37.234 65.745,44.107 65.438,47.2 C65.119,50.287 57.863,56.472 55.656,59.224 C53.449,61.981 48.086,59.918 44.935,59.918 C41.784,59.918 43.047,56.825 43.047,54.767 C43.047,52.697 44.622,54.067 45.248,52.01 C45.88,49.946 43.047,42.39 41.784,38.951 C41.243,37.465 39.047,36.245 36.734,35.326 C36.734,54.813 36.734,75.768 36.734,77.786 C36.734,81.567 31.053,83.278 29.801,85.347 C28.539,87.405 20.646,85.694 16.237,85.694 C11.824,85.694 12.773,80.873 10.561,77.439 C8.36,74.011 4.567,78.474 4.567,80.873 C4.567,82.694 2.594,82.353 -0,82.081 C3.459,88.035 6.472,94.99 8.042,100.643 C10.561,109.754 16.709,118.338 18.285,123.656 C19.86,128.992 21.595,133.975 18.285,134.484 C14.975,134.998 14.975,138.097 18.439,143.941 C21.919,149.78 18.916,153.225 21.919,153.907 C24.905,154.589 23.961,156.653 26.327,156.832 C28.693,157 30.427,159.572 32.003,161.804 C33.578,164.046 37.206,164.046 38.941,161.289 C40.681,158.543 46.039,157.682 51.555,157.682 C57.078,157.682 55.974,155.104 61.327,153.387 C66.689,151.676 73.156,151.496 77.728,153.225 C82.301,154.936 85.77,153.387 87.982,151.843 C90.189,150.3 94.443,154.248 94.761,150.3 C95.08,146.34 99.493,147.028 103.588,147.028 C107.689,147.028 117.619,139.987 125.507,131.905 C133.395,123.841 146.476,106.129 150.895,98.065 C155.308,89.983 162.56,83.11 166.188,79.503 C168.899,76.803 170.469,67.294 171.217,60.369 C167.488,60.316 163.27,61.028 163.27,61.028" fill="#1D649F"/>
  </g>
</svg>
