<?xml version="1.0" encoding="UTF-8"?>
<!DOCTYPE svg PUBLIC "-//W3C//DTD SVG 1.1//EN" "http://www.w3.org/Graphics/SVG/1.1/DTD/svg11.dtd">
<svg version="1.1" xmlns="http://www.w3.org/2000/svg" xmlns:xlink="http://www.w3.org/1999/xlink" x="0" y="0" width="73.394" height="63.779" viewBox="0, 0, 73.394, 63.779">
  <g id="Calque_1">
    <path d="M8.169,41.662 C6.567,43.188 2.62,48.807 0,53.888 L0.552,54.143 L1.395,58.276 L11.076,63.779 C11.076,63.779 18.237,58.276 21.192,57.819 C24.131,57.363 57.815,37.627 57.815,37.627 C57.815,37.627 60.77,32.58 60.345,30.742 C59.921,28.904 59.502,23.851 61.189,21.568 C62.875,19.273 59.083,15.596 60.345,11.926 C61.613,8.249 67.082,6.422 67.082,6.422 L73.394,1.376 L69.188,0 C69.188,0 63.719,2.295 57.401,1.838 C51.083,1.376 49.821,6.422 43.084,6.422 C36.342,6.422 32.554,8.249 30.873,5.966 C29.186,3.671 28.762,5.047 24.131,7.342 C19.5,9.631 16.556,9.18 14.45,7.342 C12.344,5.509 10.657,7.804 10.238,10.093 C9.845,12.244 10.461,17.186 3.925,18.163 C3.48,20.279 2.711,22.481 3.835,24.013 C5.506,26.285 3.501,28.962 3.008,32.621 C11.362,32.21 10.174,39.743 8.169,41.662" fill="#1D649F"/>
  </g>
</svg>
