<?xml version="1.0" encoding="UTF-8"?>
<!DOCTYPE svg PUBLIC "-//W3C//DTD SVG 1.1//EN" "http://www.w3.org/Graphics/SVG/1.1/DTD/svg11.dtd">
<svg version="1.1" xmlns="http://www.w3.org/2000/svg" xmlns:xlink="http://www.w3.org/1999/xlink" x="0" y="0" width="84.703" height="176.005" viewBox="0, 0, 84.703, 176.005">
  <g id="Calque_1">
    <path d="M52.738,93.036 C52.738,88.076 48.182,88.076 52.293,82.624 C56.377,77.162 62.748,73.19 66.849,74.687 C70.944,76.173 79.134,72.202 81.415,75.179 C81.818,75.716 82.29,76.098 82.773,76.451 C86.375,72.051 83.754,68.392 84.147,63.276 C84.598,57.322 80.046,51.865 76.858,50.876 C73.676,49.882 79.134,38.962 75.946,36.985 C72.763,35.003 70.493,31.528 68.212,28.551 C65.936,25.574 59.114,26.574 58.202,29.043 C57.29,31.528 52.738,33.02 51.37,31.037 C50.012,29.043 47.275,28.54 43.63,31.528 C39.991,34.511 34.984,39.957 34.077,35.5 C33.164,31.037 36.809,31.528 36.809,26.563 C36.809,21.608 39.084,19.123 37.71,14.169 C36.352,9.209 31.796,14.66 30.427,11.192 C29.075,7.717 30.438,3.746 29.52,2.266 C29.239,1.798 28.411,0.942 27.435,-0 C26.65,0.434 25.961,0.936 25.685,1.676 C24.841,3.971 17.691,4.434 16.004,7.642 C14.317,10.856 9.262,10.4 7.999,10.4 C6.732,10.4 2.525,10.856 2.106,14.076 C1.687,17.279 -0,30.135 -0,32.43 C-0,34.719 5.888,42.061 7.999,42.98 C10.1,43.899 7.575,49.402 10.1,50.778 C12.636,52.148 10.949,56.744 9.681,56.282 C8.418,55.825 10.524,62.259 7.999,64.542 C5.469,66.831 7.575,72.809 11.792,76.942 C16.004,81.064 16.004,87.492 16.004,91.163 C16.004,94.833 19.367,95.296 19.367,99.874 C19.367,99.874 14.333,119.887 10.222,119.032 C9.341,124.032 8.233,131.882 7.214,136.149 C5.957,141.473 5.013,146.109 7.851,146.456 C10.689,146.802 16.365,153.838 21.876,161.405 C23.224,163.249 24.258,165.18 25.07,167.157 C26.979,167.035 29.112,167.162 31.26,167.607 C35.451,168.463 36.496,172.174 36.496,174.463 C36.496,176.753 43.588,175.897 44.898,175.602 C45.901,175.388 44.612,172.163 48.182,170.914 C46.039,167.596 40.474,163.567 35.912,163.122 C30.555,162.607 28.024,153.838 28.502,149.895 C28.974,145.941 24.56,142.502 24.56,139.074 C24.56,135.628 21.404,135.461 17.786,133.565 C14.153,131.674 18.566,119.997 19.044,115.008 C19.51,110.031 27.085,95.764 24.884,91.301 C22.672,86.833 32.602,83.399 33.87,88.371 C35.127,93.359 35.599,95.764 41.912,95.423 C48.214,95.082 48.214,100.406 53.258,101.961 C53.555,102.042 53.757,102.198 54.006,102.314 C54.038,102.204 54.065,102.059 54.107,101.961 C55.47,98.001 52.738,98.001 52.738,93.036" fill="#1D649F"/>
  </g>
</svg>
