<?xml version="1.0" encoding="UTF-8"?>
<!DOCTYPE svg PUBLIC "-//W3C//DTD SVG 1.1//EN" "http://www.w3.org/Graphics/SVG/1.1/DTD/svg11.dtd">
<svg version="1.1" xmlns="http://www.w3.org/2000/svg" xmlns:xlink="http://www.w3.org/1999/xlink" x="0" y="0" width="19.85" height="60.298" viewBox="0, 0, 19.85, 60.298">
  <g id="Calque_1">
    <path d="M17.282,21.145 C15.394,19.087 19.648,15.226 15.155,12.382 C11.187,9.884 9.803,10.578 9.363,1.52 C7.082,1.358 3.719,0.282 1.284,0.017 C0.769,-0.047 0.366,0.08 -0,0.265 C0.515,3.543 1.262,7.202 2.148,7.745 C3.803,8.774 4.986,10.844 4.748,14.705 C4.509,18.573 3.565,27.071 4.986,30.944 C6.403,34.805 7.824,40.996 7.824,46.922 C7.824,50.621 9.75,56.125 11.723,60.298 C12.545,59.824 13.293,59.333 13.887,58.778 C15.304,57.483 17.532,56.703 19.85,56.217 C19.595,48.824 19.224,38.707 18.943,34.805 C18.465,28.365 19.176,23.209 17.282,21.145" fill="#1D649F"/>
  </g>
</svg>
