<?xml version="1.0" encoding="UTF-8"?>
<!DOCTYPE svg PUBLIC "-//W3C//DTD SVG 1.1//EN" "http://www.w3.org/Graphics/SVG/1.1/DTD/svg11.dtd">
<svg version="1.1" xmlns="http://www.w3.org/2000/svg" xmlns:xlink="http://www.w3.org/1999/xlink" x="0" y="0" width="1083.039" height="799.459" viewBox="0, 0, 1083.039, 799.459">
  <g id="Calque_1">
    <path d="M1074.048,424.703 C1073.729,421.269 1064.271,424.015 1059.858,420.24 C1055.439,416.453 1047.87,433.645 1046.299,440.86 C1044.719,448.074 1033.054,455.971 1033.054,455.971 C1033.054,455.971 999.311,456.323 996.468,456.323 C994.5,456.323 986.745,463.613 982.193,468.064 C982.331,468.249 982.469,468.457 982.596,468.694 C986.007,475.4 973.605,479.522 961.781,480.036 C958.142,480.186 955.405,480.591 953.294,480.92 C953.707,482.487 954.031,484.227 953.898,485.528 C953.814,486.349 952.54,487.366 950.737,488.412 C948.928,492.407 934.42,500.124 926.304,504.783 C917.318,509.934 905.016,507.356 905.016,499.621 C905.016,491.892 911.642,493.442 913.058,497.049 C913.589,498.396 915.191,497.419 917.35,495.719 C915.106,493.338 915.143,489.534 915.626,486.609 C912.915,485.32 917.132,473.781 911.642,471.793 C905.966,469.723 899.341,480.551 900.285,473.845 C901.234,467.145 909.748,461.48 904.544,452.716 C899.341,443.952 889.882,443.952 887.989,450.652 C886.095,457.358 879.475,454.26 877.109,459.41 C874.743,464.572 872.377,475.914 874.271,484.158 C876.159,492.407 873.799,496.529 866.707,501.17 C859.609,505.812 855.896,494.077 858.66,479.007 C860.553,468.694 865.757,458.902 861.025,458.902 C856.294,458.902 867.173,446.531 877.109,443.952 C887.044,441.374 899.341,442.409 899.341,439.311 C899.341,438.686 899.791,438.264 900.545,437.981 C898.524,436.235 896.269,434.605 894.466,433.379 C894.285,434.038 893.898,434.651 893.193,435.189 C889.294,438.149 890.355,430.547 883.257,430.547 C876.159,430.547 869.067,437.761 863.391,434.674 C857.715,431.582 860.553,427.454 855.349,427.454 C850.146,427.454 859.137,416.633 851.567,421.269 C843.998,425.911 832.646,437.253 827.442,432.096 C822.238,426.94 817.506,433.645 813.724,429.518 C809.937,425.39 826.965,414.054 835.006,414.569 C836.99,414.69 838.794,413.748 840.486,412.268 C836.258,410.574 827.532,406.857 825.23,409.933 C822.397,413.708 818.297,411.297 816.09,408.21 C813.883,405.117 811.04,409.239 807.258,404.429 C803.476,399.614 799.688,403.054 797.482,404.083 C795.28,405.117 792.437,402.366 788.336,400.649 C784.236,398.926 787.392,394.463 783.923,391.706 C780.454,388.966 780.258,396.914 780.258,396.914 L486.292,398.637 C486.621,399.18 486.961,399.701 487.337,400.134 C490.881,404.262 488.043,407.349 489.226,412.251 C490.409,417.153 489.464,424.107 485.916,424.107 C482.367,424.107 481.895,419.725 484.494,418.176 C487.099,416.633 485.677,410.956 483.078,410.956 C481.561,410.956 480.951,409.014 481.014,406.747 C476.187,408.198 470.638,407.539 464.162,406.695 C464.268,406.99 464.368,407.291 464.395,407.609 C464.628,410.702 466.05,417.662 469.832,423.072 C473.62,428.489 471.015,431.842 474.564,433.9 C478.113,435.963 477.874,438.282 474.564,437.761 C471.254,437.253 473.62,440.6 472.437,448.334 C471.254,456.069 471.487,472.047 470.776,476.943 C470.071,481.84 464.867,489.834 467.944,494.985 C471.015,500.142 473.148,507.356 471.487,513.796 C469.832,520.247 470.071,524.109 472.67,529.005 C475.275,533.907 473.148,542.41 475.98,544.208 C478.823,546.023 481.423,549.631 484.022,554.261 C486.627,558.909 488.992,556.07 489.464,560.712 C489.937,565.349 489.937,566.123 493.719,567.927 C497.506,569.73 495.14,574.367 495.14,576.945 C495.14,579.523 500.106,584.165 506.254,590.096 C512.407,596.015 507.203,600.918 511.696,600.918 C516.189,600.918 520.449,603.75 524.942,606.843 C529.435,609.941 530.851,608.132 533.928,608.907 C536.999,609.675 542.68,616.896 543.863,621.792 C544.42,624.087 545.142,626.515 546.256,629.128 L570.784,625.619 C570.784,625.619 578.364,631.405 582.661,632.509 C586.958,633.602 610.203,642.961 610.203,642.961 L640.518,642.684 L644.057,637.735 L660.734,637.735 C660.734,637.735 671.343,649.025 672.861,649.58 C674.378,650.118 679.682,655.355 679.682,658.662 C679.682,661.962 680.945,664.72 683.475,666.096 C686,667.471 694.594,673.53 695.856,672.981 C697.113,672.437 699.643,661.962 704.19,662.246 C708.741,662.517 721.122,666.367 723.143,674.079 C725.164,681.79 731.227,688.126 733.248,689.774 C735.269,691.421 734.261,696.109 735.773,698.584 C737.29,701.069 737.041,705.746 738.807,705.746 C740.579,705.746 749.677,711.804 753.713,711.527 C754.923,711.452 756.514,712.243 758.153,713.336 C758.641,704.127 749.947,702.584 755.066,698.347 C760.981,693.45 754.833,689.323 757.671,687.259 C760.508,685.201 765.474,683.137 765.474,680.045 C765.474,676.952 768.078,676.952 771.86,677.472 C775.648,677.981 782.74,670.767 782.268,667.928 C781.796,665.09 782.974,664.581 787.472,665.61 C791.965,666.645 791.254,659.939 794.092,660.974 C796.93,662.003 799.296,663.812 799.534,661.483 C799.768,659.165 802.606,659.685 804.733,662.778 C806.865,665.87 813.013,666.645 813.486,663.038 C813.963,659.43 817.506,663.038 820.583,666.645 C823.654,670.252 825.076,669.217 829.569,669.477 C834.062,669.738 834.062,668.443 834.301,665.356 C834.534,662.263 839.266,672.05 843.759,672.57 C848.257,673.09 844.708,669.477 841.398,666.645 C838.083,663.812 842.104,662.517 839.266,660.205 C836.428,657.875 842.815,654.783 848.491,655.049 C854.167,655.303 853.928,656.846 856.06,653.239 C858.187,649.626 860.315,653.239 860.315,656.332 C860.315,659.43 869.539,654.528 874.504,654.528 C879.475,654.528 883.968,659.165 884.44,662.263 C884.912,665.356 888.227,666.899 891.776,663.552 C895.32,660.205 898.396,656.332 901.706,659.939 C905.016,663.552 908.327,668.443 912.353,672.824 C916.368,677.206 910.459,682.623 912.586,685.97 C914.713,689.323 912.353,693.965 917.079,697.572 C921.811,701.179 917.557,708.654 921.333,709.688 C925.121,710.717 928.192,717.157 928.67,719.73 C929.142,722.314 936.239,725.666 936.711,721.285 C937.184,716.903 940.971,711.746 941.438,707.625 C941.915,703.503 938.6,688.808 935.529,684.166 C932.452,679.53 936.239,678.501 932.452,673.09 C928.67,667.674 926.304,658.136 926.537,650.401 C926.776,642.666 935.056,630.047 939.077,626.174 C943.093,622.312 947.591,624.37 948.535,620.243 C949.485,616.127 954.45,610.97 957.288,610.97 C960.126,610.97 963.203,611.745 963.669,608.398 C964.147,605.045 968.873,600.918 975.027,599.889 C981.175,598.854 977.626,595.241 975.971,592.154 C974.316,589.061 977.393,585.969 978.57,588.026 C979.753,590.096 983.541,590.35 985.906,588.547 C988.272,586.749 993.709,581.847 988.511,581.587 C983.302,581.327 982.119,579.014 985.196,577.719 C988.272,576.43 985.668,570.251 981.413,569.73 C977.154,569.21 978.57,566.898 981.175,564.059 C983.779,561.221 977.393,556.591 974.316,554.261 C971.244,551.943 976.204,550.654 978.57,550.145 C980.941,549.631 979.048,537.768 980.23,534.936 C981.413,532.103 985.429,532.103 983.779,534.936 C982.119,537.768 979.753,542.41 982.83,546.278 C985.906,550.145 986.851,554.261 985.668,560.198 C984.485,566.123 986.851,564.58 990.399,556.845 C993.943,549.11 994.42,542.41 992.054,541.636 C989.689,540.867 989.927,533.132 992.527,536.74 C995.131,540.347 996.075,540.867 1000.096,536.219 C1004.117,531.589 1008.377,523.6 1005.772,521.79 C1003.168,519.987 1006.955,518.177 1011.687,518.443 C1016.413,518.698 1026.582,515.345 1027.293,513.796 C1029.606,508.766 1010.976,516.12 1010.976,513.287 C1010.976,510.443 1022.8,507.61 1028.242,507.356 C1033.68,507.102 1031.08,499.107 1033.446,502.454 C1035.807,505.812 1039.356,505.292 1042.432,503.228 C1045.509,501.17 1043.143,495.239 1039.594,494.216 C1036.046,493.176 1042.199,490.603 1041.011,488.285 C1039.828,485.961 1043.376,476.677 1047.87,475.654 C1052.368,474.625 1050.235,471.527 1054.023,471.527 C1057.805,471.527 1058.516,466.63 1061.826,463.023 C1065.136,459.41 1069.868,468.694 1075.071,463.538 C1077.199,461.428 1080.084,459.081 1083.039,457.029 C1070.902,439.565 1074.339,427.876 1074.048,424.703 z M103.443,769.779 C105.708,773.572 108.138,774.335 110.047,770.924 C111.968,767.508 100.802,765.357 103.443,769.779 z M86.75,762.016 C89.874,765.617 92.134,764.669 93.009,761.444 C93.879,758.224 83.392,758.16 86.75,762.016 z M123.622,775.092 C120.142,775.658 122.397,782.578 124.662,780.774 C128.492,777.745 127.096,774.525 123.622,775.092 z M131.446,784.948 C125.532,785.705 128.794,801.822 131.971,799.163 C134.231,797.267 138.406,796.891 139.626,794.423 C141.249,791.134 137.361,784.191 131.446,784.948 z M16.198,215.844 C15.726,211.722 5.557,215.583 6.74,219.451 C7.923,223.312 17.525,225.844 21.641,224.347 C25.19,223.052 26.373,218.936 23.768,216.352 C21.169,213.78 16.67,219.965 16.198,215.844 z M166.86,246.25 C167.093,243.418 163.311,243.678 158.579,249.603 C153.853,255.534 149.832,258.627 149.121,261.465 C148.41,264.298 142.973,260.945 141.318,264.552 C139.663,268.165 142.485,276.166 145.811,273.588 C149.121,271.004 149.355,273.588 151.487,273.588 C153.614,273.588 163.311,266.367 165.438,262.749 C167.565,259.141 161.656,258.113 161.423,255.794 C161.184,253.471 166.388,253.471 168.987,251.927 C171.591,250.378 166.621,249.083 166.86,246.25 z M46.949,306.833 C41.74,304.769 28.049,313.833 32.759,314.567 C36.069,315.076 37.486,311.469 41.268,311.469 C45.055,311.469 52.153,308.891 46.949,306.833 z M6.74,330.025 C12.416,327.453 14.777,324.36 12.416,321.267 C10.05,318.175 2.375,332.008 6.74,330.025 z M405.816,293.433 C407.397,288.959 407.71,286.213 395.722,281.056 C383.738,275.9 385.001,272.46 376.805,256.65 C368.604,240.851 353.783,233.972 353.783,228.133 C353.783,222.289 339.275,222.977 339.275,227.434 C339.275,231.914 332.968,233.29 329.504,235.689 C326.03,238.094 324.454,234.319 321.303,229.845 C318.147,225.388 310.577,220.913 310.577,218.162 C310.577,215.416 308.689,209.571 303.331,212.323 C297.968,215.081 295.13,212.323 293.55,214.381 C291.974,216.451 287.874,213.121 287.874,213.121 L287.874,34.975 C285.985,34.761 284.293,34.414 282.988,33.877 C276.129,31.044 265.96,25.888 260.518,27.177 C255.081,28.46 244.201,30.009 240.413,27.946 C236.631,25.888 231.427,24.084 223.624,25.367 C215.816,26.662 210.851,20.725 200.915,18.153 C190.98,15.575 177.029,18.922 173.719,20.217 C170.409,21.5 171.114,16.349 166.86,16.864 C162.6,17.378 165.91,14.806 163.544,10.939 C161.184,7.071 149.355,10.679 145.1,11.193 C140.841,11.707 139.663,8.875 139.896,6.557 C140.13,4.233 136.114,5.008 134.459,8.1 C132.804,11.193 128.072,11.707 126.179,9.65 C124.285,7.586 130.2,6.811 130.438,4.493 C130.672,2.175 124.285,0.886 121.919,0.111 C119.553,-0.663 115.771,2.689 110.806,7.586 C105.841,12.482 98.505,11.968 94.012,11.447 C89.519,10.939 83.843,11.968 84.081,14.806 C84.315,17.639 89.757,17.378 86.442,20.986 C83.132,24.593 81.954,16.095 78.639,19.957 C75.329,23.824 65.393,23.564 63.027,23.049 C60.662,22.535 52.859,31.807 50.493,34.391 C48.127,36.969 52.386,39.288 46,46.762 C39.618,54.237 22.585,52.693 19.036,52.693 C15.488,52.693 18.092,57.075 16.198,59.913 C14.31,62.746 18.326,65.318 28.028,68.157 C37.724,70.989 44.345,84.904 45.528,88.256 C46.71,91.609 58.773,88.002 63.505,88.777 C68.231,89.551 63.027,96.766 67.048,98.829 C71.069,100.893 77.223,97.795 78.405,101.408 C79.588,105.015 70.358,101.408 65.632,105.269 C60.9,109.131 58.54,110.946 56.646,108.107 C54.752,105.269 46.949,107.073 42.928,107.593 C38.902,108.107 42.69,102.171 42.928,99.598 C43.162,97.02 37.486,95.216 29.683,100.118 C21.874,105.015 24.712,103.211 23.768,107.073 C22.824,110.946 19.514,104.755 14.549,108.107 C9.578,111.455 1.536,113.778 0.115,117.125 C-1.301,120.473 10.761,122.796 15.488,123.825 C20.219,124.86 9.812,128.207 13.599,129.496 C17.381,130.785 15.726,134.653 21.641,138.006 C27.55,141.358 40.796,138.006 44.345,138.006 C47.893,138.006 51.203,142.642 54.041,139.289 C56.879,135.936 67.52,126.67 72.963,132.075 C78.405,137.491 67.048,136.711 69.886,140.064 C72.724,143.416 76.273,151.405 71.069,155.533 C65.865,159.655 60.9,156.816 58.062,156.562 C55.224,156.307 56.879,162.233 52.386,166.094 C47.893,169.967 44.583,161.978 38.902,161.978 C33.231,161.978 34.414,169.967 34.648,173.829 C34.887,177.696 26.134,173.054 24.007,182.338 C21.874,191.616 12.888,183.627 18.798,192.645 C24.712,201.663 23.768,195.998 28.5,199.605 C33.231,203.213 23.296,209.658 28.028,210.687 C32.759,211.722 37.958,221 41.268,224.347 C44.583,227.7 48.838,222.543 53.803,222.289 C58.773,222.029 56.407,214.554 59.245,217.393 C62.083,220.225 66.104,228.469 63.505,230.533 C60.9,232.596 63.027,239.036 62.555,242.129 C62.083,245.221 73.435,244.198 74.146,240.585 C74.857,236.978 83.843,235.943 88.813,241.869 C93.778,247.805 95.433,248.829 95.433,244.198 C95.433,239.55 99.688,234.394 99.926,238.261 C100.165,242.129 104.186,243.158 111.511,239.55 C118.848,235.943 115.538,239.816 111.75,244.967 C106.525,252.089 111.75,262.494 107.968,263.518 C104.186,264.552 101.109,275.125 94.956,275.9 C88.813,276.675 78.405,289.306 76.984,291.369 C75.562,293.433 62.317,287.242 60.428,293.167 C58.54,299.098 50.53,303.509 52.625,305.804 C54.041,307.353 64.921,301.422 65.393,298.324 C65.865,295.237 67.287,295.751 69.175,298.069 C71.069,300.387 75.801,297.04 77.928,294.976 C80.061,292.913 83.609,293.687 85.736,293.942 C87.864,294.202 88.813,291.109 95.195,289.814 C101.581,288.537 100.165,286.467 101.581,282.86 C103.003,279.253 118.137,271.518 120.975,270.743 C123.813,269.975 122.158,264.818 125.235,264.552 C128.306,264.298 133.038,260.17 137.058,256.563 C141.079,252.956 142.024,254.505 145.1,253.21 C148.172,251.927 145.811,245.221 148.882,244.707 C151.959,244.198 154.325,241.614 154.325,238.776 C154.325,235.943 146.517,235.943 145.811,234.14 C145.1,232.336 151.959,225.636 154.564,225.891 C157.163,226.156 161.423,223.052 161.656,218.936 C161.889,214.815 165.677,214.04 168.748,210.433 C171.825,206.82 171.114,203.733 174.191,203.473 C177.267,203.213 180.105,198.571 183.415,196.513 C186.725,194.449 183.415,199.085 189.802,199.351 C196.184,199.605 194.767,206.045 190.036,203.733 C185.304,201.403 183.182,201.663 178.922,206.045 C174.663,210.433 177.978,211.722 174.663,216.618 C171.353,221.509 171.114,224.601 175.374,225.122 C179.633,225.636 175.612,228.983 171.591,230.272 C167.565,231.561 170.409,234.14 175.846,234.14 C181.288,234.14 189.325,225.636 196.894,221.509 C204.464,217.393 210.14,221.509 212.267,220.734 C214.4,219.965 209.907,216.098 212.506,214.815 C215.11,213.52 209.429,212.745 207.774,207.855 C206.119,202.958 210.379,206.045 211.323,202.184 C212.267,198.316 214.872,199.86 217.238,201.663 C219.598,203.473 222.913,199.86 225.041,204.756 C227.173,209.658 229.534,203.473 233.321,206.82 C237.103,210.173 232.605,209.658 228.589,210.687 C224.569,211.722 226.696,217.647 229.772,214.815 C232.844,211.97 235.448,210.173 238.286,213.011 C241.124,215.844 242.307,214.554 244.673,211.97 C247.039,209.398 247.039,212.231 247.039,214.294 C247.039,216.352 252.004,217.127 259.101,218.422 C266.194,219.705 278.967,217.902 282.277,217.647 C285.587,217.393 284.41,223.052 291.735,224.601 C299.072,226.156 300.965,216.618 304.748,219.965 C308.53,223.312 304.748,224.601 302.62,227.18 C300.488,229.758 304.986,230.018 307.819,231.307 C310.657,232.596 317.282,234.654 320.354,238.001 C323.43,241.354 325.324,244.967 332.889,249.083 C340.458,253.21 333.127,238.776 339.042,243.418 C344.951,248.06 342.824,243.678 347.556,248.314 C352.287,252.956 350.632,246.25 348.5,238.522 C346.373,230.787 350.632,235.943 352.76,239.55 C354.887,243.158 354.887,250.118 353.47,254.76 C352.049,259.402 344.951,255.534 345.662,252.956 C346.373,250.378 338.57,251.413 338.331,255.02 C338.092,258.627 343.296,265.593 347.084,266.367 C350.866,267.136 348.028,273.588 350.394,274.351 C353.64,275.414 353.47,282.085 355.364,281.056 C357.253,280.027 356.542,272.038 354.415,268.431 C352.287,264.818 353.232,259.656 356.07,260.691 C358.908,261.72 356.07,267.136 357.486,268.94 C358.908,270.743 360.563,267.136 363.873,265.078 C367.188,263.009 362.456,257.078 363.639,253.985 C364.822,250.892 368.604,256.563 370.026,261.974 C371.442,267.391 366.477,267.136 366.477,269.975 C366.477,272.813 361.984,271.518 360.563,273.067 C359.141,274.611 359.852,284.929 361.746,285.184 C363.639,285.432 364.822,276.675 366.005,281.056 C367.188,285.432 371.681,275.385 372.864,279.507 C374.047,283.635 379.718,288.277 381.85,287.242 C383.977,286.213 380.906,281.825 377.596,281.577 C374.28,281.316 374.752,275.385 377.829,275.125 C380.906,274.871 386.343,283.635 386.104,286.727 C385.871,289.814 383.266,289.56 380.667,292.658 C378.062,295.751 374.519,287.502 371.442,287.762 C368.366,288.016 371.442,293.167 372.864,296.774 C374.28,300.387 369.077,305.284 373.097,308.122 C377.118,310.96 375.941,306.318 376.646,304.255 C377.357,302.197 380.434,304.769 382.561,306.578 C384.545,308.255 384.921,302.451 384.921,300.127 C384.921,297.815 388.47,299.098 390.364,302.197 C392.258,305.284 392.491,298.844 395.329,299.358 C398.167,299.879 396.279,304.769 396.279,307.602 C396.279,310.44 401.244,305.284 400.772,308.376 C400.697,308.844 400.703,309.278 400.75,309.683 C403.371,307.636 406.092,305.526 408.023,304.075 C413.068,300.301 404.235,297.89 405.816,293.433" fill="#1D649F"/>
  </g>
</svg>
